<svg version="1.1" xmlns="http://www.w3.org/2000/svg" width="100" height="100" viewBox="0 0 512 512">
<path d="M0 0 C0.6847641 -0.0049649 1.3695282 -0.00992981 2.07504272 -0.01504517 C4.34520466 -0.02967489 6.61529668 -0.03647066 8.88549805 -0.04199219 C10.46249901 -0.04774369 12.03949994 -0.05350142 13.61650085 -0.05926514 C16.92614061 -0.06977792 20.23575605 -0.07561853 23.54541016 -0.07910156 C27.78239203 -0.08458199 32.01905185 -0.10859896 36.25593281 -0.13707352 C39.51505972 -0.15571712 42.77410941 -0.16090644 46.03328514 -0.16243744 C47.59497015 -0.16546143 49.15665387 -0.17348147 50.71828651 -0.18662262 C52.90618838 -0.20371705 55.09330807 -0.20179487 57.28125 -0.1953125 C58.52542191 -0.19895813 59.76959381 -0.20260376 61.0514679 -0.20635986 C66.11795034 0.3607294 68.55738389 2.34764489 72.0222168 5.97363281 C74.27458598 9.07824979 75.22756669 11.53635368 76.3347168 15.16113281 C78.28764648 15.10892578 78.28764648 15.10892578 80.2800293 15.05566406 C82.00657884 15.0275138 83.7331424 15.00021497 85.4597168 14.97363281 C86.74362305 14.93592773 86.74362305 14.93592773 88.0534668 14.89746094 C94.75530725 14.82013201 98.85343042 16.07459654 104.0847168 20.47363281 C109.234095 26.624279 108.58173271 33.41483087 108.4597168 41.03613281 C108.45069336 42.10605469 108.44166992 43.17597656 108.43237305 44.27832031 C108.40891022 46.9061572 108.37608139 49.53352687 108.3347168 52.16113281 C109.5825293 52.00128906 110.8303418 51.84144531 112.1159668 51.67675781 C119.79518513 50.91424388 127.49244406 50.93818209 135.20239258 50.92089844 C137.82884958 50.91115458 140.45453495 50.88003233 143.08081055 50.84863281 C154.57372507 50.77489782 164.94755389 50.73721386 173.70581055 59.14160156 C178.17273031 64.6797251 178.9911231 71.26886666 178.3347168 78.16113281 C176.96194101 84.5921545 173.63604294 89.28331091 168.3347168 93.16113281 C161.91086572 96.71716376 156.0698174 96.55188443 148.83862305 96.45410156 C147.64994125 96.44985672 146.46125946 96.44561188 145.23655701 96.4412384 C141.45654223 96.42450532 137.67706924 96.38686171 133.8972168 96.34863281 C131.32756306 96.33357909 128.75790093 96.31989189 126.18823242 96.30761719 C119.90354374 96.27461929 113.61916899 96.22447285 107.3347168 96.16113281 C107.5777227 97.30313141 107.5777227 97.30313141 107.82563782 98.46820068 C108.87665108 104.02786331 108.51942182 109.77087314 108.5222168 115.41113281 C108.53446289 116.69632812 108.54670898 117.98152344 108.55932617 119.30566406 C108.58599628 136.64123171 108.58599628 136.64123171 103.5847168 143.91113281 C102.66432617 145.28011719 102.66432617 145.28011719 101.7253418 146.67675781 C101.36118164 147.20591797 100.99702148 147.73507813 100.62182617 148.28027344 C98.44789238 151.45705378 96.32459393 154.66760606 94.19213867 157.87231445 C92.95655943 159.72746977 91.71828738 161.58083449 90.47729492 163.43237305 C86.71581863 169.04877542 83.05389469 174.70012832 79.5690918 180.49316406 C79.16174805 181.04359375 78.7544043 181.59402344 78.3347168 182.16113281 C77.6747168 182.16113281 77.0147168 182.16113281 76.3347168 182.16113281 C76.3347168 182.82113281 76.3347168 183.48113281 76.3347168 184.16113281 C75.6747168 184.16113281 75.0147168 184.16113281 74.3347168 184.16113281 C73.03254789 191.86548249 72.03057574 199.57123951 71.1862793 207.33691406 C70.9831896 209.17220443 70.78006407 211.00749083 70.5769043 212.84277344 C70.26473286 215.67028838 69.95718583 218.49796213 69.6628418 221.32739258 C69.37224258 224.10314083 69.06215045 226.87615626 68.7487793 229.64941406 C68.66632965 230.4860408 68.58388 231.32266754 68.49893188 232.18464661 C67.82618501 237.93805131 66.17268063 242.1053528 63.3347168 247.16113281 C62.6747168 247.16113281 62.0147168 247.16113281 61.3347168 247.16113281 C61.3347168 247.82113281 61.3347168 248.48113281 61.3347168 249.16113281 C54.7097168 252.16113281 54.7097168 252.16113281 51.3347168 252.16113281 C51.34163024 253.05731669 51.34163024 253.05731669 51.34868336 253.9716053 C51.45917865 268.51929712 51.54188109 283.06696411 51.59377766 297.61497688 C51.61954264 304.65037241 51.65465988 311.68548757 51.71191406 318.72070312 C51.76713524 325.50935397 51.79613432 332.29771326 51.80910301 339.08657455 C51.81834574 341.67737286 51.83639451 344.26815512 51.86336708 346.8588295 C51.89963267 350.48615293 51.90466287 354.11227071 51.90234375 357.73974609 C51.92930832 359.34844322 51.92930832 359.34844322 51.95681763 360.98963928 C51.9005205 369.12055294 51.9005205 369.12055294 48.92424011 372.87496948 C46.3347168 375.16113281 46.3347168 375.16113281 44.3347168 375.16113281 C44.1490918 375.84175781 43.9634668 376.52238281 43.7722168 377.22363281 C42.07314802 380.69564293 39.92689791 382.73558975 37.1550293 385.37988281 C34.66417871 387.81728167 32.51847279 390.44798143 30.3347168 393.16113281 C27.33319363 391.83431395 25.4477472 390.46252221 23.3190918 387.97363281 C22.79057617 387.35746094 22.26206055 386.74128906 21.7175293 386.10644531 C21.17870117 385.46449219 20.63987305 384.82253906 20.0847168 384.16113281 C19.53041992 383.51917969 18.97612305 382.87722656 18.4050293 382.21582031 C14.3347168 377.42367899 14.3347168 377.42367899 14.3347168 375.16113281 C13.6747168 375.16113281 13.0147168 375.16113281 12.3347168 375.16113281 C9.33288434 372.51096193 7.62605694 370.71785977 6.88132286 366.73849869 C6.71888859 363.72807088 6.71656183 360.75423026 6.76708984 357.73974609 C6.76635971 356.59770218 6.76562958 355.45565826 6.76487732 354.27900696 C6.76835444 350.51266619 6.80722489 346.74756946 6.84643555 342.98144531 C6.85576314 340.36685868 6.8628795 337.7522633 6.86787415 335.13766479 C6.88338945 328.96464803 6.92438577 322.79207616 6.97462159 316.61925495 C7.03058779 309.58908283 7.05801971 302.55888901 7.08309877 295.52854943 C7.13530424 281.07251482 7.22320095 266.61683005 7.3347168 252.16113281 C6.39370117 252.01804687 5.45268555 251.87496094 4.4831543 251.72753906 C1.67047628 251.22153619 -0.21844038 250.5727729 -2.6652832 249.16113281 C-2.6652832 248.50113281 -2.6652832 247.84113281 -2.6652832 247.16113281 C-3.3252832 247.16113281 -3.9852832 247.16113281 -4.6652832 247.16113281 C-7.68215611 243.21709308 -8.38468859 239.23593942 -8.98168945 234.43066406 C-9.08368149 233.68137131 -9.18567352 232.93207855 -9.29075623 232.16007996 C-9.61374627 229.76587921 -9.92077659 227.36992953 -10.2277832 224.97363281 C-10.43707296 223.41425393 -10.64735153 221.85500742 -10.85864258 220.29589844 C-12.03346853 211.529731 -13.08235862 202.75396487 -13.9903717 193.95600891 C-14.34370995 190.62066326 -14.71029954 187.38387383 -15.6652832 184.16113281 C-16.3252832 184.16113281 -16.9852832 184.16113281 -17.6652832 184.16113281 C-17.6652832 183.50113281 -17.6652832 182.84113281 -17.6652832 182.16113281 C-18.3252832 182.16113281 -18.9852832 182.16113281 -19.6652832 182.16113281 C-21.0324707 180.43847656 -21.0324707 180.43847656 -22.5402832 178.09863281 C-23.03270508 177.34453125 -23.52512695 176.59042969 -24.0324707 175.81347656 C-25.23204634 173.8648836 -26.38137047 171.88512625 -27.5012207 169.88964844 C-29.47736287 166.42279532 -31.65521089 163.13770032 -33.9230957 159.85253906 C-34.72182437 158.68169119 -35.51998447 157.51045529 -36.31762695 156.33886719 C-37.55416506 154.52725787 -38.7939726 152.71831143 -40.04370117 150.91577148 C-48.13783425 139.2198287 -49.99323752 131.20811071 -49.87109375 117.05053711 C-49.85268344 114.83663562 -49.85058558 112.62315025 -49.85083008 110.40917969 C-49.81325703 99.6050543 -49.81325703 99.6050543 -48.6652832 96.16113281 C-49.65341003 96.17445648 -49.65341003 96.17445648 -50.66149902 96.18804932 C-57.53995048 96.27678919 -64.41823835 96.33697777 -71.29711914 96.38085938 C-73.8616395 96.4009301 -76.42611435 96.42819282 -78.99047852 96.46289062 C-82.68427791 96.51160637 -86.37747029 96.53414794 -90.0715332 96.55175781 C-91.7813739 96.58272552 -91.7813739 96.58272552 -93.52575684 96.61431885 C-101.84320509 96.6166445 -107.23196627 95.21297008 -113.4777832 89.66113281 C-118.50737489 83.91302803 -120.04531438 80.16501249 -119.8684082 72.33691406 C-119.1900768 65.07094115 -116.7095879 60.49735248 -111.28637695 55.66894531 C-103.69167382 51.30001027 -95.80644716 50.74273285 -87.22387695 50.90332031 C-86.17498795 50.90993683 -85.12609894 50.91655334 -84.04542542 50.92337036 C-80.73089872 50.94658183 -77.41706756 50.9903121 -74.1027832 51.03613281 C-70.7564512 51.07117797 -67.41015372 51.1019068 -64.06373596 51.12747192 C-61.98924208 51.14448215 -59.91478802 51.16765089 -57.84043884 51.19747925 C-56.44747337 51.21211716 -56.44747337 51.21211716 -55.02636719 51.22705078 C-53.79586891 51.24395462 -53.79586891 51.24395462 -52.54051208 51.26119995 C-50.65122809 51.36988526 -50.65122809 51.36988526 -49.6652832 50.16113281 C-49.61478344 48.76490793 -49.62963168 47.36618817 -49.6730957 45.96972656 C-49.68985352 45.10669922 -49.70661133 44.24367187 -49.72387695 43.35449219 C-49.76749429 41.54437254 -49.81932148 39.73442849 -49.88012695 37.92480469 C-49.99804176 30.67304391 -49.01013255 25.1573292 -44.4152832 19.28613281 C-37.67439076 14.07726138 -29.85218522 14.71551663 -21.6652832 15.16113281 C-19.99149572 15.45663977 -18.32085743 15.77647337 -16.6652832 16.16113281 C-16.6446582 15.17113281 -16.6240332 14.18113281 -16.6027832 13.16113281 C-15.90530343 7.98287388 -12.33436701 4.63532302 -8.6652832 1.16113281 C-5.76813427 -0.28744165 -3.23671953 0.01779723 0 0 Z M0.3347168 16.16113281 C0.3347168 41.90113281 0.3347168 67.64113281 0.3347168 94.16113281 C19.4747168 94.16113281 38.6147168 94.16113281 58.3347168 94.16113281 C58.3347168 68.42113281 58.3347168 42.68113281 58.3347168 16.16113281 C39.1947168 16.16113281 20.0547168 16.16113281 0.3347168 16.16113281 Z M-32.6652832 32.16113281 C-33.22948386 44.44497083 -33.65171201 56.72557994 -33.90877533 69.01988602 C-34.03237859 74.73399558 -34.19885372 80.43905468 -34.47583008 86.14794922 C-35.99300105 118.25310491 -32.43662548 139.27696188 -11.18518066 164.11004639 C-8.6652832 167.16113281 -8.6652832 167.16113281 -7.2311554 170.01382446 C-5.79833433 172.45836726 -5.79833433 172.45836726 -2.74125671 172.90371704 C-1.54660294 172.95595428 -0.35194916 173.00819153 0.87890625 173.06201172 C1.53960617 173.096474 2.20030609 173.13093628 2.88102722 173.16644287 C5.06999901 173.27014519 7.2572696 173.33337831 9.44799805 173.38769531 C10.57607911 173.42013399 10.57607911 173.42013399 11.72694969 173.453228 C15.71759999 173.56343327 19.70740667 173.63994949 23.69921875 173.69189453 C26.98341217 173.74049285 30.25595894 173.85112725 33.53613281 174.02001953 C50.96825636 175.50615817 50.96825636 175.50615817 67.03875732 170.33825684 C71.48777556 165.74293251 74.04826393 160.49167968 76.52946472 154.66186523 C78.03867041 151.73522393 79.55861831 149.41233511 81.52241516 146.80102539 C91.32732177 133.59145248 93.14312831 123.77768552 92.60424805 107.55175781 C92.57992458 105.36079435 92.56145603 103.16975894 92.54850769 100.97869873 C92.49946808 95.28212412 92.37232629 89.59003513 92.22735596 83.89520264 C92.09304677 78.05607765 92.03471828 72.21620932 91.96948242 66.37597656 C91.83112234 54.96908491 91.61001514 43.56548539 91.3347168 32.16113281 C86.0547168 32.16113281 80.7747168 32.16113281 75.3347168 32.16113281 C75.32537109 34.11857422 75.31602539 36.07601562 75.30639648 38.09277344 C75.27077846 44.58292221 75.21692316 51.07272258 75.15081406 57.5626297 C75.11141823 61.49489433 75.07919145 65.42693769 75.0637207 69.359375 C75.04850151 73.15924436 75.01396442 76.95850507 74.96640778 80.75810242 C74.95164782 82.2028014 74.94367889 83.64758732 74.94283295 85.09236145 C74.92706281 98.52900608 74.92706281 98.52900608 71.87188721 104.65319824 C67.55015841 108.89273097 62.16776973 109.53654287 56.37719727 109.53344727 C55.39284698 109.53892326 55.39284698 109.53892326 54.38861084 109.54450989 C52.24276981 109.55254498 50.09770072 109.53906827 47.9519043 109.52441406 C46.44931031 109.52389473 44.94671563 109.52441526 43.44412231 109.52592468 C40.30549894 109.52583528 37.16713415 109.51546998 34.02856445 109.49731445 C30.01259509 109.47458909 25.99700168 109.47409373 21.98098564 109.4808321 C18.8822599 109.48417802 15.78361938 109.47753092 12.68490982 109.46770287 C11.20418875 109.46386427 9.72345819 109.46269707 8.242733 109.46428871 C6.17278814 109.4646609 4.10332022 109.45199832 2.03344727 109.43579102 C0.85765106 109.43118362 -0.31814514 109.42657623 -1.52957153 109.42182922 C-4.6612585 109.16146742 -6.83242584 108.47127234 -9.6652832 107.16113281 C-10.3871582 106.93425781 -11.1090332 106.70738281 -11.8527832 106.47363281 C-14.76646156 104.36372779 -14.85965503 101.5788766 -15.6652832 98.16113281 C-15.9437561 94.81373596 -15.9437561 94.81373596 -15.98413086 91.30786133 C-15.99417648 90.66310349 -16.00422211 90.01834564 -16.01457214 89.35404968 C-16.04515469 87.24938753 -16.06236867 85.14485104 -16.0793457 83.04003906 C-16.09807752 81.5702966 -16.1176524 80.10056467 -16.13803101 78.63084412 C-16.18914583 74.78242222 -16.22888132 70.93396553 -16.26617432 67.08538818 C-16.30634421 63.15026388 -16.357377 59.21528171 -16.4074707 55.28027344 C-16.50398522 47.5739838 -16.58746208 39.86763805 -16.6652832 32.16113281 C-21.9452832 32.16113281 -27.2252832 32.16113281 -32.6652832 32.16113281 Z M-101.49479675 69.45585632 C-103.03171557 71.31652691 -103.03171557 71.31652691 -102.4152832 74.78613281 C-102.02160235 77.98377216 -102.02160235 77.98377216 -100.6652832 79.16113281 C-99.03853543 79.25453715 -97.40774269 79.27858452 -95.77832031 79.2746582 C-94.21681496 79.27454491 -94.21681496 79.27454491 -92.62376404 79.27442932 C-90.92535118 79.26668739 -90.92535118 79.26668739 -89.19262695 79.25878906 C-87.46345787 79.25666664 -87.46345787 79.25666664 -85.69935608 79.25450134 C-82.00047257 79.24888286 -78.30164856 79.23632723 -74.6027832 79.22363281 C-72.10213303 79.21862019 -69.60148192 79.21405688 -67.10083008 79.20996094 C-60.95562469 79.19890743 -54.81046405 79.18163041 -48.6652832 79.16113281 C-48.6652832 75.53113281 -48.6652832 71.90113281 -48.6652832 68.16113281 C-55.87351216 68.08707957 -63.08152061 68.03257617 -70.29003906 67.99633789 C-72.74320329 67.981234 -75.19634044 67.9607496 -77.64941406 67.93481445 C-81.17169875 67.89850224 -84.69362702 67.88142245 -88.21606445 67.86816406 C-89.31614334 67.85268021 -90.41622223 67.83719635 -91.54963684 67.82124329 C-92.5704686 67.82101669 -93.59130035 67.8207901 -94.64306641 67.82055664 C-95.99208794 67.81056389 -95.99208794 67.81056389 -97.36836243 67.80036926 C-99.7179926 67.99524023 -99.7179926 67.99524023 -101.49479675 69.45585632 Z M108.3347168 68.16113281 C108.14065202 69.80620499 107.95463744 71.45222876 107.7722168 73.09863281 C107.66780273 74.01515625 107.56338867 74.93167969 107.45581055 75.87597656 C107.41584961 76.63007812 107.37588867 77.38417969 107.3347168 78.16113281 C108.34218099 79.39013743 108.34218099 79.39013743 110.39112854 79.28138733 C111.29491745 79.27916672 112.19870636 79.27694611 113.12988281 79.2746582 C114.66135704 79.27454491 114.66135704 79.27454491 116.22377014 79.27442932 C117.3341716 79.26926804 118.44457306 79.26410675 119.58862305 79.25878906 C120.71920639 79.25737411 121.84978973 79.25595917 123.01463318 79.25450134 C126.64218745 79.248883 130.26968104 79.23632739 133.8972168 79.22363281 C136.34968987 79.21862018 138.8021639 79.21405686 141.25463867 79.20996094 C147.28135225 79.19890761 153.30803019 79.18215165 159.3347168 79.16113281 C159.3347168 78.50113281 159.3347168 77.84113281 159.3347168 77.16113281 C159.9947168 77.16113281 160.6547168 77.16113281 161.3347168 77.16113281 C161.72994315 73.07956886 161.72994315 73.07956886 160.13114929 69.48320007 C157.76230168 67.7398694 156.33053772 67.79844399 153.40429688 67.82055664 C152.40348587 67.82078323 151.40267487 67.82100983 150.37153625 67.82124329 C148.75422859 67.84446907 148.75422859 67.84446907 147.10424805 67.86816406 C145.99869064 67.87240891 144.89313324 67.87665375 143.7540741 67.88102722 C140.21820868 67.89783844 136.68291035 67.93549596 133.1472168 67.97363281 C130.75204273 67.98867645 128.35685974 68.00236541 125.96166992 68.01464844 C120.08582494 68.04774996 114.21031138 68.09797388 108.3347168 68.16113281 Z M2.3347168 188.16113281 C3.958997 204.46230679 3.958997 204.46230679 5.8972168 220.71191406 C6.27003202 223.65116266 6.59732933 226.58880134 6.8972168 229.53613281 C7.1072189 232.98682142 7.1072189 232.98682142 8.3347168 235.16113281 C22.1947168 235.16113281 36.0547168 235.16113281 50.3347168 235.16113281 C51.52644393 232.77767854 51.70449635 230.85012973 52.01831055 228.20019531 C52.14141602 227.16894531 52.26452148 226.13769531 52.39135742 225.07519531 C52.51704102 223.98980469 52.64272461 222.90441406 52.7722168 221.78613281 C52.8940332 220.77035156 53.01584961 219.75457031 53.14135742 218.70800781 C54.34134403 208.53610057 55.31512241 198.35707665 56.3347168 188.16113281 C38.5147168 188.16113281 20.6947168 188.16113281 2.3347168 188.16113281 Z M24.3347168 252.16113281 C24.24212445 266.56459736 24.17100627 280.96799135 24.12746811 295.37169266 C24.10657423 302.05959183 24.07872103 308.74728122 24.03295898 315.43505859 C23.98956637 321.88653314 23.96559325 328.33781189 23.95520782 334.78942108 C23.94780469 337.25346714 23.93334851 339.71750222 23.91179657 342.18146515 C23.88285107 345.62707358 23.87875722 349.0718681 23.88061523 352.51757812 C23.85904358 354.05290443 23.85904358 354.05290443 23.83703613 355.61924744 C23.77621659 361.12817514 23.77621659 361.12817514 26.36309814 365.82635498 C27.33904938 366.48707001 27.33904938 366.48707001 28.3347168 367.16113281 C30.80271727 366.00939926 32.38255245 365.11329716 34.3347168 363.16113281 C34.63244848 361.10465577 34.63244848 361.10465577 34.57522583 358.70663452 C34.57797516 357.76991409 34.58072449 356.83319366 34.58355713 355.86808777 C34.57636658 354.83734634 34.56917603 353.80660492 34.56176758 352.74462891 C34.56205963 351.66169052 34.56235168 350.57875214 34.56265259 349.46299744 C34.56125508 345.87010794 34.54567397 342.27742375 34.5300293 338.68457031 C34.52630067 336.19878248 34.52345299 333.71299319 34.52145386 331.22720337 C34.51458806 325.34464195 34.49881227 319.4621568 34.47875488 313.57962668 C34.45422666 306.22660023 34.44346934 298.87356468 34.43237305 291.52050781 C34.4109021 278.40067733 34.37675179 265.28091239 34.3347168 252.16113281 C31.0347168 252.16113281 27.7347168 252.16113281 24.3347168 252.16113281 Z " fill="currentColor" transform="translate(220.665283203125,30.8388671875)"/>
<path d="M0 0 C0.76977173 -0.0065712 1.53954346 -0.0131424 2.3326416 -0.01991272 C4.86906038 -0.03955407 7.40542028 -0.051286 9.94189453 -0.0612793 C10.8111771 -0.06535482 11.68045967 -0.06943035 12.57608414 -0.07362938 C17.17474374 -0.09444817 21.77337385 -0.10876958 26.37207031 -0.11816406 C31.1121695 -0.12923716 35.8518004 -0.16365932 40.59173393 -0.20333576 C44.24639745 -0.22951536 47.90094936 -0.23785694 51.55569839 -0.24144554 C53.30274758 -0.24630574 55.04979197 -0.25790357 56.79674911 -0.27648354 C59.24508361 -0.3009109 61.69220519 -0.2999042 64.140625 -0.29296875 C64.85566193 -0.30577881 65.57069885 -0.31858887 66.30740356 -0.33178711 C71.76677998 -0.27566975 74.83830873 1.10047412 79.19970703 4.17700195 C80.65283203 7.48950195 80.65283203 7.48950195 81.44970703 11.17700195 C82.45513294 15.65399278 83.28014049 18.63415716 86.19970703 22.17700195 C86.19970703 22.83700195 86.19970703 23.49700195 86.19970703 24.17700195 C87.86276543 24.85261943 89.53065308 25.51633476 91.19970703 26.17700195 C91.80427734 26.45286133 92.40884766 26.7287207 93.03173828 27.01293945 C98.02106065 29.15824966 101.9401485 29.77271632 107.19970703 28.17700195 C109.64930788 26.98348327 111.87780534 25.616581 114.19970703 24.17700195 C114.85970703 24.17700195 115.51970703 24.17700195 116.19970703 24.17700195 C117.623725 21.45786419 118.74652354 18.78103621 119.69970703 15.86450195 C120.09416016 14.68887695 120.09416016 14.68887695 120.49658203 13.48950195 C121.31033861 10.95267699 121.31033861 10.95267699 121.94970703 7.36450195 C123.37297162 3.73517726 124.80573003 2.78802845 128.1841259 0.98792648 C131.51262207 -0.3512204 134.80760436 -0.36368066 138.3347168 -0.30883789 C139.11614044 -0.31263458 139.89756409 -0.31643127 140.70266724 -0.32034302 C143.26590105 -0.32770615 145.82798156 -0.30642849 148.39111328 -0.28393555 C150.18277351 -0.28154867 151.97443628 -0.28064632 153.76609802 -0.28115845 C157.51260147 -0.2780378 161.25872025 -0.26152828 165.00512695 -0.23461914 C169.79896905 -0.20061593 174.59238965 -0.19299177 179.38633823 -0.19450951 C183.08302304 -0.19396481 186.77961636 -0.18298201 190.47627068 -0.16850662 C192.24364468 -0.1621589 194.011029 -0.15820449 195.77841377 -0.15671921 C198.25048483 -0.15236596 200.72211591 -0.13482259 203.1940918 -0.11352539 C203.91893265 -0.11443176 204.6437735 -0.11533813 205.39057922 -0.11627197 C209.68623204 -0.0623615 213.23418239 0.50339792 217.19970703 2.17700195 C219.01674983 4.48960188 219.20299963 6.19910939 219.63720703 9.11450195 C219.03377469 13.33852835 217.50955552 14.54691151 214.19970703 17.17700195 C211.44023441 17.6477637 209.31012108 17.81495396 206.5637207 17.74462891 C205.4360881 17.74572411 205.4360881 17.74572411 204.28567505 17.74684143 C201.81226274 17.74337071 199.34075714 17.70453776 196.86767578 17.6652832 C195.1484734 17.65595315 193.42925768 17.64883795 191.71003723 17.6438446 C187.19368534 17.62478971 182.67814248 17.57570249 178.16210938 17.52032471 C173.55040429 17.46909932 168.93856798 17.44632357 164.32666016 17.42114258 C155.28398776 17.36758183 146.24191477 17.2822877 137.19970703 17.17700195 C137.0556543 18.11793701 136.91160156 19.05887207 136.76318359 20.02832031 C135.0227205 29.75394966 127.96084578 35.90488823 120.55517578 41.74731445 C114.36089092 45.50702964 108.51262652 46.71153194 101.32470703 46.61450195 C100.53531738 46.60692871 99.74592773 46.59935547 98.93261719 46.59155273 C92.69787428 46.41583585 87.61918401 45.40648544 82.19970703 42.17700195 C81.49716797 41.76450195 80.79462891 41.35200195 80.07080078 40.92700195 C73.20664086 36.34221202 68.42926718 29.7113634 65.60327148 22.00463867 C65.33875687 21.28702362 65.07424225 20.56940857 64.80171204 19.83004761 C64.60305038 19.28454254 64.40438873 18.73903748 64.19970703 18.17700195 C62.78816093 18.17486443 62.78816093 18.17486443 61.34809875 18.17268372 C52.47558525 18.15600725 43.60353001 18.11321414 34.73125935 18.04491138 C30.16997528 18.01063429 25.60902638 17.98553032 21.04760742 17.98144531 C16.64471614 17.97716385 12.24258106 17.94871441 7.83992577 17.90357018 C6.16107782 17.89059019 4.48213939 17.88628929 2.80324745 17.89084816 C0.44930208 17.89575097 -1.90243037 17.86968072 -4.25610352 17.83642578 C-4.94878326 17.84505142 -5.64146301 17.85367706 -6.35513306 17.86256409 C-10.15793498 17.77262005 -11.73057463 17.23288655 -14.73664856 14.82328796 C-16.80029297 12.17700195 -16.80029297 12.17700195 -17.36279297 9.17700195 C-16.66194493 5.43914577 -15.55485931 3.78267281 -12.80029297 1.17700195 C-8.59748883 -0.04204969 -4.34204492 0.01623638 0 0 Z " fill="currentColor" transform="translate(148.80029296875,422.822998046875)"/>
<path d="M0 0 C0.66 0.33 1.32 0.66 2 1 C2 1.66 2 2.32 2 3 C2.66 3 3.32 3 4 3 C4 3.66 4 4.32 4 5 C4.66 5 5.32 5 6 5 C6 5.66 6 6.32 6 7 C6.66 7 7.32 7 8 7 C8 7.66 8 8.32 8 9 C8.66 9 9.32 9 10 9 C11.41015625 10.43359375 11.41015625 10.43359375 13.0625 12.4375 C16.57070655 16.58961788 20.35450405 20.35807233 24.27734375 24.1171875 C26 26 26 26 26 28 C26.58910156 28.25136719 27.17820313 28.50273437 27.78515625 28.76171875 C30.27644202 30.15455401 31.62300414 31.6208572 33.4375 33.8125 C36.95720957 37.97011003 40.54840437 41.8387235 44.8125 45.25 C47.50718503 48.63760404 47.73865797 50.66820047 47.484375 54.90625 C47 57 47 57 44.875 59.5625 C41.33933859 61.33033071 39.89612263 61.84034017 36 61 C31.22785152 57.69549486 27.512522 53.593298 24 49 C23.01 48.505 23.01 48.505 22 48 C22 47.34 22 46.68 22 46 C21.34 46 20.68 46 20 46 C20 45.34 20 44.68 20 44 C19.34 44 18.68 44 18 44 C18 43.34 18 42.68 18 42 C17.34 42 16.68 42 16 42 C14.73046875 40.70703125 14.73046875 40.70703125 13.1875 38.8125 C9.16389279 34.04409741 4.75400395 29.72201382 0.26831055 25.39379883 C-1.19058334 23.96517864 -2.5999677 22.48635008 -4 21 C-4 20.34 -4 19.68 -4 19 C-4.66 19 -5.32 19 -6 19 C-6 18.34 -6 17.68 -6 17 C-6.66 17 -7.32 17 -8 17 C-8 16.34 -8 15.68 -8 15 C-8.66 15 -9.32 15 -10 15 C-12.47342266 11.28986601 -12.38503486 9.38939738 -12 5 C-9.14966713 -0.1577452 -5.54905024 -0.2361298 0 0 Z " fill="currentColor" transform="translate(168,319)"/>
<path d="M0 0 C2.4375 1.625 2.4375 1.625 4 4 C4.46337203 8.40203429 4.48038907 10.2794164 2 14 C1.34 14 0.68 14 0 14 C0 14.66 0 15.32 0 16 C-0.66 16 -1.32 16 -2 16 C-2.24999756 16.57669434 -2.49999512 17.15338867 -2.75756836 17.74755859 C-4.17147494 20.31087205 -5.78512074 21.99597808 -7.87890625 24.0390625 C-9.01295898 25.15667969 -9.01295898 25.15667969 -10.16992188 26.296875 C-10.95947266 27.06515625 -11.74902344 27.8334375 -12.5625 28.625 C-14.12847891 30.15663169 -15.69238939 31.69038195 -17.25390625 33.2265625 C-17.94814697 33.90283691 -18.6423877 34.57911133 -19.35766602 35.27587891 C-21.07956495 36.91488551 -21.07956495 36.91488551 -22 39 C-22.66 39 -23.32 39 -24 39 C-24 39.66 -24 40.32 -24 41 C-24.66 41 -25.32 41 -26 41 C-26 41.66 -26 42.32 -26 43 C-26.66 43 -27.32 43 -28 43 C-28 43.66 -28 44.32 -28 45 C-28.680625 45.53625 -29.36125 46.0725 -30.0625 46.625 C-33.2300431 49.18599229 -35.65926062 51.97569234 -38.25390625 55.09765625 C-40.96627137 58.05273861 -42.91919452 59.83902897 -46.9375 60.4375 C-50.91302153 59.86956835 -52.42506202 59.10507227 -55 56 C-55.82770709 52.8554377 -55.76256358 50.15594075 -55 47 C-52.63597708 43.56940935 -49.71137073 40.90372606 -46.625 38.125 C-45.05312982 36.65009584 -43.48275011 35.17360116 -41.9140625 33.6953125 C-40.8614624 32.7364917 -40.8614624 32.7364917 -39.78759766 31.75830078 C-37.80339612 29.92632266 -37.80339612 29.92632266 -36 27 C-35.34 27 -34.68 27 -34 27 C-33.59793335 26.10788818 -33.59793335 26.10788818 -33.18774414 25.19775391 C-31.99020301 22.98187204 -30.79681017 21.57920472 -28.99609375 19.8359375 C-28.42052734 19.27132813 -27.84496094 18.70671875 -27.25195312 18.125 C-26.65318359 17.5475 -26.05441406 16.97 -25.4375 16.375 C-24.24650616 15.21839849 -23.05759995 14.05964222 -21.87109375 12.8984375 C-21.34443115 12.38974121 -20.81776855 11.88104492 -20.27514648 11.35693359 C-18.8835783 10.00599895 -18.8835783 10.00599895 -18 8 C-17.34 8 -16.68 8 -16 8 C-16 7.34 -16 6.68 -16 6 C-15.34 6 -14.68 6 -14 6 C-14 5.34 -14 4.68 -14 4 C-13.34 4 -12.68 4 -12 4 C-12 3.34 -12 2.68 -12 2 C-7.88888063 -1.36364312 -5.04203965 -1.37510172 0 0 Z " fill="currentColor" transform="translate(340,320)"/>
<path d="M0 0 C2.88379007 1.31628209 5.69526728 2.72727972 8.49951172 4.20458984 C12.5406877 6.32047335 16.57974248 8.05855301 20.875 9.625 C26.90305236 11.85515857 32.41564073 14.41564073 37 19 C37.78587596 25.96061566 37.78587596 25.96061566 35.0625 29.5625 C30.18127473 31.85368737 25.58895249 30.9075779 20.5715332 29.14868164 C18.05607693 28.0766727 15.58960015 26.93413083 13.125 25.75 C12.25093506 25.34249512 11.37687012 24.93499023 10.47631836 24.51513672 C8.75422655 23.71190972 7.03432211 22.9039724 5.31689453 22.09082031 C2.4176258 20.7258116 -0.50826196 19.42422667 -3.4375 18.125 C-12.43961864 14.12076271 -12.43961864 14.12076271 -14 11 C-14.5801105 4.73480663 -14.5801105 4.73480663 -12.125 1.625 C-8.0092222 -1.5223595 -4.88299606 -1.32570029 0 0 Z " fill="currentColor" transform="translate(170,377)"/>
<path d="M0 0 C2.4375 1.625 2.4375 1.625 4 4 C4.4496435 7.59714804 4.64209507 9.9296744 2.74951172 13.08447266 C0.78227905 15.23838105 -0.74010197 16.05407737 -3.4296875 17.1484375 C-4.30141602 17.51130859 -5.17314453 17.87417969 -6.07128906 18.24804688 C-7.45912598 18.80588867 -7.45912598 18.80588867 -8.875 19.375 C-10.78459757 20.16226169 -12.69345438 20.95132261 -14.6015625 21.7421875 C-15.9922998 22.31598145 -15.9922998 22.31598145 -17.41113281 22.90136719 C-20.75393522 24.31994611 -23.99148259 25.89783111 -27.25 27.5 C-31.99972548 29.69644041 -36.67089643 31.83094131 -42 31 C-45.0625 29 -45.0625 29 -47 26 C-47.6875 22.5 -47.6875 22.5 -47 19 C-42.54609216 14.56009816 -37.86285057 12.39482987 -32.0625 10.125 C-24.78079625 7.20101588 -24.78079625 7.20101588 -17.66796875 3.89453125 C-17.00337646 3.56501465 -16.33878418 3.23549805 -15.65405273 2.89599609 C-13.86201008 1.99388563 -12.07910028 1.07369777 -10.296875 0.15234375 C-6.37390042 -1.21883812 -4.00589415 -0.97362119 0 0 Z " fill="currentColor" transform="translate(340,377)"/>
<path d="M0 0 C1.58181646 0.0112034 3.16365386 0.01973819 4.74549866 0.02572632 C8.8904969 0.04853538 13.03421523 0.1073872 17.17871094 0.1739502 C21.41518849 0.23554581 25.65187473 0.26277797 29.88867188 0.29296875 C38.1880846 0.35714083 46.4864608 0.4594209 54.78515625 0.5859375 C54.78515625 0.9159375 54.78515625 1.2459375 54.78515625 1.5859375 C53.95101196 1.58736252 53.11686768 1.58878754 52.25744629 1.59025574 C44.37180777 1.60813252 36.48672712 1.64988398 28.60135651 1.71802807 C24.54796544 1.75222617 20.49494838 1.77739676 16.44140625 1.78149414 C12.52475233 1.78579269 8.60894107 1.8143823 4.69255066 1.85936928 C3.20319031 1.87229497 1.71372886 1.87666949 0.22431946 1.87209129 C-8.32854019 1.85193623 -14.23220888 2.27473564 -21.21484375 7.5859375 C-21.87484375 7.2559375 -22.53484375 6.9259375 -23.21484375 6.5859375 C-16.76687545 -1.09844534 -9.29337466 -0.19356482 0 0 Z " fill="currentColor" transform="translate(230.21484375,30.4140625)"/>
<path d="M0 0 C0.33 0.66 0.66 1.32 1 2 C0.34 2 -0.32 2 -1 2 C-1 2.66 -1 3.32 -1 4 C-1.639375 4.103125 -2.27875 4.20625 -2.9375 4.3125 C-3.618125 4.539375 -4.29875 4.76625 -5 5 C-5.33 5.99 -5.66 6.98 -6 8 C-6.99 8.33 -7.98 8.66 -9 9 C-9.66 9.66 -10.32 10.32 -11 11 C-11.49065421 4.62149533 -11.49065421 4.62149533 -9.125 1.625 C-5.65092866 -1.03164279 -4.20915818 -1.18719846 0 0 Z " fill="currentColor" transform="translate(167,377)"/>
<path d="M0 0 C0.99 0.99 1.98 1.98 3 3 C2.01 3.99 1.02 4.98 0 6 C0.33 6.99 0.66 7.98 1 9 C-0.32 8.67 -1.64 8.34 -3 8 C-3 7.34 -3 6.68 -3 6 C-3.66 6 -4.32 6 -5 6 C-5.66 4.35 -6.32 2.7 -7 1 C-5.824375 1.495 -5.824375 1.495 -4.625 2 C-2.15667503 3.11866511 -2.15667503 3.11866511 0 3 C0 2.01 0 1.02 0 0 Z " fill="currentColor" transform="translate(221,272)"/>
<path d="M0 0 C0 0.33 0 0.66 0 1 C-1.37671875 1.02126953 -1.37671875 1.02126953 -2.78125 1.04296875 C-9.79490439 1.31555826 -14.93172932 1.62018699 -20.546875 6.0390625 C-21.02640625 6.35617188 -21.5059375 6.67328125 -22 7 C-22.66 6.67 -23.32 6.34 -24 6 C-17.44615464 -2.06627121 -9.55922576 -0.58065038 0 0 Z " fill="currentColor" transform="translate(231,31)"/>
<path d="M0 0 C1.65 0.33 3.3 0.66 5 1 C4.67 1.66 4.34 2.32 4 3 C3.34 3 2.68 3 2 3 C2 3.66 2 4.32 2 5 C1.34 5 0.68 5 0 5 C-0.33 5.66 -0.66 6.32 -1 7 C-2.32 6.67 -3.64 6.34 -5 6 C-3.35 4.02 -1.7 2.04 0 0 Z " fill="currentColor" transform="translate(315,336)"/>
<path d="M0 0 C6.75 0.875 6.75 0.875 9 2 C9 2.99 9 3.98 9 5 C7.35 5.33 5.7 5.66 4 6 C3.67 5.01 3.34 4.02 3 3 C2.01 3 1.02 3 0 3 C0 2.01 0 1.02 0 0 Z " fill="currentColor" transform="translate(334,378)"/>
<path d="M0 0 C0.33 0 0.66 0 1 0 C1.47183746 4.05780213 1.33329645 5.56195324 -1.1875 8.875 C-4 11 -4 11 -6.8125 11.3125 C-7.534375 11.209375 -8.25625 11.10625 -9 11 C-8.38125 10.95875 -7.7625 10.9175 -7.125 10.875 C-6.42375 10.58625 -5.7225 10.2975 -5 10 C-3.84164327 7.02496878 -3.84164327 7.02496878 -3 4 C-2.34 3.67 -1.68 3.34 -1 3 C-0.67 2.01 -0.34 1.02 0 0 Z " fill="currentColor" transform="translate(367,429)"/>
<path d="M0 0 C7.75 0.875 7.75 0.875 10 2 C9.34 3.32 8.68 4.64 8 6 C6.68 5.34 5.36 4.68 4 4 C4 3.34 4 2.68 4 2 C2.35 2 0.7 2 -1 2 C-0.67 1.34 -0.34 0.68 0 0 Z " fill="currentColor" transform="translate(356,423)"/>
<path d="M0 0 C0.66 0.33 1.32 0.66 2 1 C1.67 1.66 1.34 2.32 1 3 C0.01 3 -0.98 3 -2 3 C-2 2.34 -2 1.68 -2 1 C-2.928125 1.37125 -3.85625 1.7425 -4.8125 2.125 C-6.3903125 2.558125 -6.3903125 2.558125 -8 3 C-8.99 2.34 -9.98 1.68 -11 1 C-7.22482858 -1.56711656 -4.33016827 -0.88207131 0 0 Z " fill="currentColor" transform="translate(340,377)"/>
<path d="M0 0 C0.33 0.66 0.66 1.32 1 2 C3.01669827 3.13350534 3.01669827 3.13350534 5 4 C4.34 5.32 3.68 6.64 3 8 C1.02 5.69 -0.96 3.38 -3 1 C-2.01 0.67 -1.02 0.34 0 0 Z " fill="currentColor" transform="translate(173,344)"/>
<path d="M0 0 C1.625 2.5 1.625 2.5 3 5 C2.01 5.99 1.02 6.98 0 8 C-1.98 4.535 -1.98 4.535 -4 1 C-2 0 -2 0 0 0 Z " fill="currentColor" transform="translate(188,185)"/>
<path d="M0 0 C0.33 0.66 0.66 1.32 1 2 C0.0625 4.625 0.0625 4.625 -1 7 C-2.32 7 -3.64 7 -5 7 C-5 5.35 -5 3.7 -5 2 C-4.360625 1.855625 -3.72125 1.71125 -3.0625 1.5625 C-1.02454854 1.18992819 -1.02454854 1.18992819 0 0 Z " fill="currentColor" transform="translate(182,345)"/>
<path d="M0 0 C2.62113708 0 4.50935112 0.31292445 7 1 C4.9927092 4.0109362 4.16115776 4.63016497 1 6 C0.67 4.02 0.34 2.04 0 0 Z " fill="currentColor" transform="translate(209,235)"/>
<path d="M0 0 C0 3.90838866 -1.50567876 5.11594107 -4 8 C-4.33 6.35 -4.66 4.7 -5 3 C-3.35 2.01 -1.7 1.02 0 0 Z " fill="currentColor" transform="translate(304,202)"/>
<path d="M0 0 C0 1.65 0 3.3 0 5 C-0.99 5.495 -0.99 5.495 -2 6 C-2.66 6.99 -3.32 7.98 -4 9 C-5 6 -5 6 -4.1875 3.375 C-2.5 0 -2.5 0 0 0 Z " fill="currentColor" transform="translate(275,426)"/>
<path d="M0 0 C2.125 0.375 2.125 0.375 4 1 C2.35 2.65 0.7 4.3 -1 6 C-1.625 4.125 -1.625 4.125 -2 2 C-1.34 1.34 -0.68 0.68 0 0 Z " fill="currentColor" transform="translate(276,454)"/>
<path d="M0 0 C0.33 0.99 0.66 1.98 1 3 C0.01 3.66 -0.98 4.32 -2 5 C-3.32 4.01 -4.64 3.02 -6 2 C-2.25 0 -2.25 0 0 0 Z " fill="currentColor" transform="translate(328,379)"/>
<path d="M0 0 C0.99 0.33 1.98 0.66 3 1 C2.67 2.32 2.34 3.64 2 5 C1.01 5 0.02 5 -1 5 C-0.67 3.35 -0.34 1.7 0 0 Z " fill="currentColor" transform="translate(299,353)"/>
<path d="M0 0 C2.99324263 1.0975223 3.84610901 1.67682892 5.25 4.625 C5.4975 5.40875 5.745 6.1925 6 7 C5.34 7 4.68 7 4 7 C4 6.34 4 5.68 4 5 C3.34 5 2.68 5 2 5 C1.34 3.35 0.68 1.7 0 0 Z " fill="currentColor" transform="translate(214,273)"/>
<path d="M0 0 C2.125 0.375 2.125 0.375 4 1 C2.35 2.32 0.7 3.64 -1 5 C-1.33 4.01 -1.66 3.02 -2 2 C-1.34 1.34 -0.68 0.68 0 0 Z " fill="currentColor" transform="translate(110,86)"/>
</svg>
