<svg version="1.1" xmlns="http://www.w3.org/2000/svg" width="100" height="100" viewBox="0 0 512 512">
<path d="M0 0 C0.71220703 -0.01611328 1.42441406 -0.03222656 2.15820312 -0.04882812 C10.53694917 -0.05643825 17.2480214 3.49990111 24.5625 7.25 C25.5525 7.75176758 25.5525 7.75176758 26.5625 8.26367188 C27.89422007 8.93863546 29.22511601 9.61522758 30.55517578 10.29345703 C32.59156748 11.32725647 34.63478773 12.34642916 36.6796875 13.36328125 C45.38525989 17.71076176 53.87068982 22.45690392 62.29980469 27.31347656 C68.32069188 30.77185253 74.43166176 34.05358266 80.5625 37.3125 C80.5625 37.9725 80.5625 38.6325 80.5625 39.3125 C81.35333984 39.44978516 81.35333984 39.44978516 82.16015625 39.58984375 C85.40998136 40.56743342 88.06490961 42.17258095 91 43.875 C91.62124756 44.23505127 92.24249512 44.59510254 92.88256836 44.96606445 C98.50653441 48.24272294 104.05470394 51.63844896 109.57910156 55.08007812 C111.90076698 56.52268854 114.227579 57.95681181 116.5546875 59.390625 C143.43747542 75.96554317 143.43747542 75.96554317 150.375 81.0625 C153.64477805 83.37057863 156.99563937 85.2319962 160.51171875 87.12890625 C162.5625 88.3125 162.5625 88.3125 165 90.3125 C167.36544455 92.15870063 169.43361833 93.28088968 172.125 94.5625 C182.56329093 99.63473619 192.72340717 106.75852351 201.5625 114.3125 C201.5625 114.9725 201.5625 115.6325 201.5625 116.3125 C202.09875 116.539375 202.635 116.76625 203.1875 117 C208.83637348 120.12174587 212.82133155 124.58911209 216.94921875 129.44921875 C218.63956634 131.45464436 218.63956634 131.45464436 221 133.6875 C222.5625 135.3125 222.5625 135.3125 222.5625 137.3125 C223.2225 137.3125 223.8825 137.3125 224.5625 137.3125 C226.19864927 139.34096016 227.70329123 141.363698 229.1875 143.5 C229.63335449 144.13566895 230.07920898 144.77133789 230.53857422 145.42626953 C242.32561817 162.38934492 254.72985027 182.40949853 257.5625 203.3125 C258.49932617 203.28893433 258.49932617 203.28893433 259.45507812 203.26489258 C262.32412417 203.20197956 265.19302442 203.16333269 268.0625 203.125 C269.04476563 203.09986328 270.02703125 203.07472656 271.0390625 203.04882812 C280.4309429 202.95490932 286.84064639 204.91235457 293.8046875 211.42578125 C298.89299983 216.88723649 301.43167731 223.47206058 301.6328125 230.9140625 C301.30743582 237.70869325 299.59902099 243.75276354 295.5625 249.3125 C293.453125 250.46484375 293.453125 250.46484375 291.5625 251.3125 C291.253125 251.9725 290.94375 252.6325 290.625 253.3125 C289.5625 255.3125 289.5625 255.3125 284.5625 257.3125 C284.2325 266.5525 283.9025 275.7925 283.5625 285.3125 C292.07412825 285.27290724 292.07412825 285.27290724 300.58569336 285.22241211 C302.1655603 285.21866577 302.1655603 285.21866577 303.77734375 285.21484375 C305.40337524 285.20698853 305.40337524 285.20698853 307.06225586 285.19897461 C309.5625 285.3125 309.5625 285.3125 310.5625 286.3125 C310.64901611 287.72820123 310.66954904 289.148095 310.66015625 290.56640625 C310.65693359 291.42041016 310.65371094 292.27441406 310.65039062 293.15429688 C310.64201172 294.05212891 310.63363281 294.94996094 310.625 295.875 C310.62048828 296.77669922 310.61597656 297.67839844 310.61132812 298.60742188 C310.59950225 300.84251314 310.5830222 303.07747437 310.5625 305.3125 C254.30539193 305.4628023 198.0482724 305.6078313 141.79113252 305.7457476 C135.15559541 305.76201938 128.52005842 305.77833501 121.88452148 305.79467773 C121.22419329 305.79630334 120.5638651 305.79792894 119.88352696 305.7996038 C97.80099926 305.8539907 75.71848253 305.9119644 53.63596805 305.9714582 C31.67643117 306.0305419 9.71688712 306.08582694 -12.24266833 306.13755554 C-25.80243475 306.16961797 -39.36218673 306.20467448 -52.92193546 306.24351191 C-62.20929793 306.2698292 -71.49666474 306.29247031 -80.78404359 306.31217117 C-86.14935727 306.32366245 -91.51465377 306.33682181 -96.87995148 306.35433006 C-101.78557699 306.37030268 -106.69119033 306.38169071 -111.5968357 306.38933109 C-113.37750085 306.39293187 -115.15816347 306.39825906 -116.93881784 306.40542836 C-119.34772242 306.41488224 -121.75655806 306.41821297 -124.16547871 306.41993046 C-124.86671835 306.42416182 -125.56795799 306.42839318 -126.29044732 306.43275276 C-129.29634399 306.42893208 -131.55879421 306.2720686 -134.4375 305.3125 C-134.46638514 302.16668577 -134.48425923 299.02090531 -134.5 295.875 C-134.50837891 294.97716797 -134.51675781 294.07933594 -134.52539062 293.15429688 C-134.52861328 292.30029297 -134.53183594 291.44628906 -134.53515625 290.56640625 C-134.54039307 289.77564697 -134.54562988 288.9848877 -134.55102539 288.17016602 C-134.4375 286.3125 -134.4375 286.3125 -133.4375 285.3125 C-131.32068683 285.2182826 -129.20069242 285.19507239 -127.08178711 285.19897461 C-126.08670387 285.19875557 -126.08670387 285.19875557 -125.07151794 285.1985321 C-122.86926044 285.19923119 -120.66708655 285.20702335 -118.46484375 285.21484375 C-116.94169664 285.21670794 -115.41854893 285.21813184 -113.895401 285.21913147 C-109.87912349 285.22295654 -105.86288192 285.23278672 -101.84661865 285.24383545 C-97.75126634 285.25404981 -93.65590824 285.25862914 -89.56054688 285.26367188 C-81.51951472 285.274409 -73.47851183 285.29148528 -65.4375 285.3125 C-67.69098677 283.00344561 -69.99045276 281.17766619 -72.625 279.3125 C-77.97122007 275.20204555 -82.13169868 270.19448437 -85.4375 264.3125 C-85.4375 262.9925 -85.4375 261.6725 -85.4375 260.3125 C-92.3675 259.9825 -99.2975 259.6525 -106.4375 259.3125 C-106.52964361 253.47673796 -106.60918646 247.64352876 -106.65722656 241.80761719 C-106.67726497 239.82510801 -106.70450353 237.84265737 -106.73925781 235.86035156 C-106.78811954 233.00050359 -106.81054673 230.14144119 -106.828125 227.28125 C-106.84877014 226.40384155 -106.86941528 225.52643311 -106.89068604 224.62243652 C-106.89289888 218.46808549 -105.54829063 214.62990682 -102.4375 209.3125 C-101.7775 209.3125 -101.1175 209.3125 -100.4375 209.3125 C-100.210625 208.69375 -99.98375 208.075 -99.75 207.4375 C-97.94548744 204.51590823 -96.76121435 204.21267264 -93.4375 203.3125 C-90.84137144 202.99360547 -88.25312231 202.75022937 -85.64453125 202.55859375 C-83.39816119 202.43672259 -83.39816119 202.43672259 -81.4375 201.3125 C-80.67575414 199.3607059 -80.00034436 197.37467532 -79.375 195.375 C-77.49898867 189.43547735 -77.49898867 189.43547735 -76.4375 187.3125 C-77.0975 187.3125 -77.7575 187.3125 -78.4375 187.3125 C-80.0625 185.9375 -80.0625 185.9375 -81.4375 184.3125 C-81.4375 183.6525 -81.4375 182.9925 -81.4375 182.3125 C-81.96601562 182.09980469 -82.49453125 181.88710937 -83.0390625 181.66796875 C-86.37900614 179.78041103 -89.03268531 177.23518268 -91.8125 174.625 C-92.39104736 174.08335205 -92.96959473 173.5417041 -93.56567383 172.98364258 C-101.40657374 165.57496188 -106.32878751 160.10416349 -106.8125 148.8125 C-106.61534778 137.56074096 -102.47330142 126.69778704 -98.4375 116.3125 C-97.88101118 114.84654358 -97.32506752 113.38038016 -96.76953125 111.9140625 C-96.15956102 110.31743811 -95.54888056 108.72108488 -94.9375 107.125 C-94.65285889 106.37629639 -94.36821777 105.62759277 -94.07495117 104.85620117 C-92.13680781 99.84974532 -89.92128636 95.07037806 -87.4375 90.3125 C-86.89609375 89.26707031 -86.3546875 88.22164063 -85.796875 87.14453125 C-79.5729403 75.46710036 -72.6343972 64.44491705 -65.125 53.5625 C-64.51390381 52.66781006 -63.90280762 51.77312012 -63.27319336 50.85131836 C-62.69190674 50.01866455 -62.11062012 49.18601074 -61.51171875 48.328125 C-60.99182373 47.57821289 -60.47192871 46.82830078 -59.9362793 46.05566406 C-58.4375 44.3125 -58.4375 44.3125 -55.4375 43.3125 C-55.26734375 42.48105469 -55.26734375 42.48105469 -55.09375 41.6328125 C-54.08020753 38.04921589 -51.46523883 35.80437823 -48.9375 33.1875 C-45.27542729 29.55482078 -45.27542729 29.55482078 -42.4375 25.3125 C-41.7775 25.3125 -41.1175 25.3125 -40.4375 25.3125 C-40.09912109 24.48878906 -40.09912109 24.48878906 -39.75390625 23.6484375 C-35.1512801 15.48116617 -26.34101505 9.03814337 -18.4375 4.3125 C-17.4475 3.6525 -16.4575 2.9925 -15.4375 2.3125 C-10.1741339 0.47129777 -5.50256572 -0.02476402 0 0 Z M-15.4375 27.3125 C-15.4375 27.9725 -15.4375 28.6325 -15.4375 29.3125 C-16.7575 29.9725 -18.0775 30.6325 -19.4375 31.3125 C-19.4375 31.9725 -19.4375 32.6325 -19.4375 33.3125 C-20.7575 33.9725 -22.0775 34.6325 -23.4375 35.3125 C-23.4375 35.9725 -23.4375 36.6325 -23.4375 37.3125 C-24.4275 37.6425 -25.4175 37.9725 -26.4375 38.3125 C-28.09649675 39.87097144 -28.09649675 39.87097144 -29.625 41.75 C-30.15480469 42.36746094 -30.68460938 42.98492187 -31.23046875 43.62109375 C-32.6311275 45.23750802 -32.6311275 45.23750802 -32.4375 47.3125 C-33.0975 47.3125 -33.7575 47.3125 -34.4375 47.3125 C-35.8508544 48.79235777 -35.8508544 48.79235777 -37.265625 50.75 C-38.09513672 51.84634766 -38.09513672 51.84634766 -38.94140625 52.96484375 C-39.80572266 54.12693359 -39.80572266 54.12693359 -40.6875 55.3125 C-41.24824219 56.05628906 -41.80898437 56.80007812 -42.38671875 57.56640625 C-43.51663156 59.06686784 -44.64292537 60.57006138 -45.765625 62.07592773 C-46.87304055 63.55738712 -47.98755737 65.03356673 -49.109375 66.50415039 C-51.63330367 69.81951319 -54.02500903 73.03368231 -55.9375 76.75 C-57.55052987 79.7973345 -59.30085736 82.62599701 -61.27734375 85.44921875 C-64.54541431 90.30931082 -67.05184566 95.37730877 -69.5 100.6875 C-69.90798828 101.55632812 -70.31597656 102.42515625 -70.73632812 103.3203125 C-71.5634981 105.08703258 -72.38442745 106.85668738 -73.19921875 108.62915039 C-74.02725728 110.42350596 -74.86852789 112.21181218 -75.72265625 113.99389648 C-78.89728338 120.7163872 -81.24900365 127.48799413 -83.3125 134.625 C-83.6321875 135.66978516 -83.951875 136.71457031 -84.28125 137.79101562 C-86.54009781 145.01114595 -86.54009781 145.01114595 -85.4375 152.3125 C-83.71611665 154.70663825 -83.71611665 154.70663825 -81.5 156.6875 C-80.43458984 157.72003906 -80.43458984 157.72003906 -79.34765625 158.7734375 C-77.58677715 160.52163667 -77.58677715 160.52163667 -75.4375 160.3125 C-75.4375 160.9725 -75.4375 161.6325 -75.4375 162.3125 C-73.95323767 163.89441818 -73.95323767 163.89441818 -72.0625 165.4375 C-71.43601562 165.97632813 -70.80953125 166.51515625 -70.1640625 167.0703125 C-68.52141572 168.50717147 -68.52141572 168.50717147 -66.4375 168.3125 C-66.0971875 167.57386719 -65.756875 166.83523437 -65.40625 166.07421875 C-60.27650031 155.33721608 -53.4893768 146.42292884 -45.90625 137.30859375 C-44.23994626 135.45705415 -44.23994626 135.45705415 -44.4375 133.3125 C-43.7775 133.3125 -43.1175 133.3125 -42.4375 133.3125 C-42.4375 132.6525 -42.4375 131.9925 -42.4375 131.3125 C-41.7775 131.3125 -41.1175 131.3125 -40.4375 131.3125 C-38.90512449 129.75866853 -38.90512449 129.75866853 -37.3125 127.75 C-34.14437138 123.99493387 -30.74319764 120.85984343 -26.94140625 117.7578125 C-26.44511719 117.28085938 -25.94882813 116.80390625 -25.4375 116.3125 C-25.4375 115.6525 -25.4375 114.9925 -25.4375 114.3125 C-24.66019531 113.97025391 -24.66019531 113.97025391 -23.8671875 113.62109375 C-19.89994743 111.48439693 -16.36410099 108.70586008 -12.74609375 106.03320312 C-9.11657577 103.39176434 -5.53032859 101.20871875 -1.4375 99.3125 C-1.4375 98.6525 -1.4375 97.9925 -1.4375 97.3125 C-0.2928125 97.003125 -0.2928125 97.003125 0.875 96.6875 C4.02061666 95.51455819 6.54852082 94.22704004 9.4375 92.5625 C15.38970995 89.22664607 21.56032459 86.91061197 27.9609375 84.609375 C30.00555518 83.87313523 32.04197534 83.10938367 34.04296875 82.26171875 C54.07140218 74.7161229 77.42938546 73.87156076 98.5625 73.3125 C94.85556707 70.20480811 90.97365171 67.63173583 86.8125 65.1875 C85.83023438 64.60500488 85.83023438 64.60500488 84.828125 64.01074219 C83.43918437 63.18803162 82.04918775 62.36710154 80.65820312 61.54785156 C78.63876346 60.35745493 76.62362631 59.16008711 74.609375 57.9609375 C55.02998021 46.33641747 35.19358808 35.15738819 14.875 24.875 C13.86675171 24.36102661 13.86675171 24.36102661 12.83813477 23.83666992 C2.11334036 18.46537304 -6.37595609 19.05050408 -15.4375 27.3125 Z M48.5625 98.3125 C47.8509375 98.49973633 47.139375 98.68697266 46.40625 98.87988281 C20.32280583 105.82028455 -7.32632826 121.14868232 -24.4375 142.3125 C-25.22382813 143.09625 -26.01015625 143.88 -26.8203125 144.6875 C-35.04898709 152.94073779 -41.42178616 162.40024424 -47.4375 172.3125 C-47.994375 173.22773438 -48.55125 174.14296875 -49.125 175.0859375 C-55.04536241 185.35406606 -58.68076795 196.68412192 -62.25 207.9375 C-62.4569751 208.58807373 -62.6639502 209.23864746 -62.87719727 209.90893555 C-63.78365729 212.84815604 -64.49065818 215.66553526 -64.94921875 218.7109375 C-65.11035156 219.56945312 -65.27148438 220.42796875 -65.4375 221.3125 C-67.73058963 222.45904482 -69.23659656 222.50979117 -71.7890625 222.62890625 C-73.06523438 222.69174805 -73.06523438 222.69174805 -74.3671875 222.75585938 C-75.25664063 222.79517578 -76.14609375 222.83449219 -77.0625 222.875 C-78.40828125 222.93977539 -78.40828125 222.93977539 -79.78125 223.00585938 C-81.99981239 223.11206715 -84.21863565 223.21279959 -86.4375 223.3125 C-86.4375 228.5925 -86.4375 233.8725 -86.4375 239.3125 C-78.68358559 239.40290438 -70.92995964 239.47627491 -63.17566299 239.51974869 C-59.57491714 239.54061513 -55.97455084 239.56891421 -52.37402344 239.61425781 C-48.89862087 239.65775125 -45.42358312 239.68164421 -41.94792938 239.69200897 C-39.97804216 239.70298615 -38.00830153 239.734207 -36.03863525 239.76568604 C-34.83769226 239.76598816 -33.63674927 239.76629028 -32.39941406 239.76660156 C-31.34240295 239.77548401 -30.28539185 239.78436646 -29.1963501 239.79351807 C-25.71734477 239.18693766 -24.58004591 238.06960387 -22.4375 235.3125 C-21.63341025 232.83106173 -21.0223681 230.53639073 -20.5 228 C-20.16565776 226.55371028 -19.82701153 225.10840972 -19.484375 223.6640625 C-19.31228516 222.93477539 -19.14019531 222.20548828 -18.96289062 221.45410156 C-14.82695342 204.59516051 -7.29496921 189.06884187 4.5625 176.3125 C5.88507813 174.85263672 5.88507813 174.85263672 7.234375 173.36328125 C25.97143526 153.28947008 53.03437873 139.88618188 80.640625 138.87890625 C83.03113964 138.85589841 85.42195821 138.85501165 87.8125 138.875 C89.07304199 138.88112305 90.33358398 138.88724609 91.63232422 138.89355469 C101.74135585 139.06184437 110.91865194 140.34120779 120.5625 143.3125 C122.06683594 143.76302734 122.06683594 143.76302734 123.6015625 144.22265625 C133.52004068 147.52405172 143.71418636 152.29171557 151.81640625 158.953125 C153.60409271 160.40734792 153.60409271 160.40734792 155.9296875 161.69140625 C177.61347078 175.04269714 190.06726988 200.60491007 196.5625 224.3125 C197.12282981 226.96755115 197.62156797 229.57656537 197.9453125 232.26953125 C198.87875687 235.35935027 200.28285589 237.02875579 202.5625 239.3125 C205.90554117 240.07715646 205.90554117 240.07715646 209.73022461 239.9753418 C210.44454147 239.98570969 211.15885834 239.99607758 211.89482117 240.00675964 C214.25208274 240.03382626 216.6074831 240.02417006 218.96484375 240.01171875 C220.60625222 240.0176281 222.24765638 240.024875 223.88905334 240.03340149 C227.32820092 240.04528174 230.76670134 240.03857551 234.20581055 240.01928711 C238.6092096 239.99641152 243.01067758 240.02316262 247.41388607 240.06434917 C250.80352347 240.08994983 254.1927003 240.08734119 257.58239937 240.07645607 C259.20548823 240.07497081 260.82861263 240.08264301 262.45161247 240.09970665 C264.72405183 240.11971817 266.99309695 240.10126438 269.26538086 240.07299805 C271.20253212 240.07036201 271.20253212 240.07036201 273.17881775 240.06767273 C277.89008147 239.01620938 278.93888833 237.29268727 281.5625 233.3125 C281.73755956 229.72377905 280.71526917 228.50326949 278.47387695 225.7043457 C274.91164724 222.77779103 272.27594508 222.5804925 267.85546875 222.60546875 C267.13007401 222.59034744 266.40467926 222.57522614 265.65730286 222.55964661 C263.35454987 222.51687173 261.05311016 222.50794259 258.75 222.5 C257.18290804 222.47684739 255.61584714 222.45148044 254.04882812 222.42382812 C250.21993655 222.36107806 246.39186016 222.32866299 242.5625 222.3125 C242.17723145 220.72791992 242.17723145 220.72791992 241.78417969 219.11132812 C239.17474202 208.35281218 239.17474202 208.35281218 235.8125 197.8125 C235.44016235 196.77295166 235.44016235 196.77295166 235.06030273 195.71240234 C229.04808153 179.46782546 219.96960389 165.08850144 209.5625 151.3125 C208.51642578 149.91644531 208.51642578 149.91644531 207.44921875 148.4921875 C206.51529297 147.41324219 206.51529297 147.41324219 205.5625 146.3125 C204.9025 146.3125 204.2425 146.3125 203.5625 146.3125 C203.29695313 145.72082031 203.03140625 145.12914062 202.7578125 144.51953125 C199.23232522 138.0100531 192.15411576 133.02543328 186.5625 128.3125 C185.69625 127.5803125 184.83 126.848125 183.9375 126.09375 C183.050625 125.3615625 182.16375 124.629375 181.25 123.875 C180.42886719 123.19566406 179.60773438 122.51632813 178.76171875 121.81640625 C176.59381828 120.03026317 176.59381828 120.03026317 173.5625 120.3125 C173.5625 119.6525 173.5625 118.9925 173.5625 118.3125 C147.48230939 102.576966 119.4238681 93.64066739 88.875 93.875 C88.04377625 93.87770905 87.21255249 93.88041809 86.35614014 93.88320923 C73.39473386 93.94715893 61.10160941 94.80589687 48.5625 98.3125 Z M37.5625 173.3125 C36.64726562 173.82425781 35.73203125 174.33601563 34.7890625 174.86328125 C34.05429688 175.34152344 33.31953125 175.81976563 32.5625 176.3125 C32.5625 176.9725 32.5625 177.6325 32.5625 178.3125 C32.02625 178.539375 31.49 178.76625 30.9375 179 C25.40739828 182.05610885 21.33143841 186.32419916 17.5625 191.3125 C17.5625 191.9725 17.5625 192.6325 17.5625 193.3125 C16.9025 193.3125 16.2425 193.3125 15.5625 193.3125 C12.95049454 196.79292995 10.80054239 200.58398678 8.5625 204.3125 C8.01722656 205.17617187 7.47195312 206.03984375 6.91015625 206.9296875 C2.97410118 213.51982551 1.10399808 220.01518339 -0.5625 227.42578125 C-1.51455718 231.65478523 -2.64850415 235.80963764 -3.82421875 239.98046875 C-4.46315144 242.41004081 -4.96854068 244.84498509 -5.4375 247.3125 C-6.0975 247.3125 -6.7575 247.3125 -7.4375 247.3125 C-7.52 247.93125 -7.6025 248.55 -7.6875 249.1875 C-8.4375 251.3125 -8.4375 251.3125 -10.23876953 252.28442383 C-11.32714111 252.79332153 -11.32714111 252.79332153 -12.4375 253.3125 C-13.04319824 253.72846436 -13.64889648 254.14442871 -14.27294922 254.57299805 C-23.14165346 260.13635751 -33.47055259 259.09650631 -43.5625 259.125 C-45.4922154 259.14817344 -47.42190573 259.17354463 -49.3515625 259.20117188 C-54.04696866 259.26365474 -58.74171543 259.29628132 -63.4375 259.3125 C-63.1075 259.9725 -62.7775 260.6325 -62.4375 261.3125 C-61.7775 261.3125 -61.1175 261.3125 -60.4375 261.3125 C-60.4375 261.9725 -60.4375 262.6325 -60.4375 263.3125 C-58.73557615 264.3027653 -57.02561989 265.27923206 -55.3125 266.25 C-53.88550781 267.06791016 -53.88550781 267.06791016 -52.4296875 267.90234375 C-49.37493568 269.34198527 -46.77615613 269.92117384 -43.4375 270.3125 C-43.30472656 271.14394531 -43.17195313 271.97539062 -43.03515625 272.83203125 C-42.85855469 273.91871094 -42.68195313 275.00539063 -42.5 276.125 C-42.32597656 277.20394531 -42.15195313 278.28289062 -41.97265625 279.39453125 C-41.49878079 282.36183356 -41.49878079 282.36183356 -40.4375 285.3125 C-13.0475 285.3125 14.3425 285.3125 42.5625 285.3125 C41.68469262 280.9234631 40.77201782 278.56124527 38.6875 274.75 C31.49327902 260.60367125 30.82948042 247.04413567 35.3125 231.8828125 C40.27281735 217.71490606 49.97778623 205.97765919 63.5625 199.3125 C71.73801462 195.59269231 79.00030357 194.63667169 87.9375 194.75 C89.72160278 194.76208496 89.72160278 194.76208496 91.54174805 194.77441406 C100.13932464 194.97039041 107.03386033 195.89959803 114.5625 200.3125 C115.655625 200.951875 116.74875 201.59125 117.875 202.25 C118.761875 202.930625 119.64875 203.61125 120.5625 204.3125 C121.18382812 204.71855469 121.80515625 205.12460938 122.4453125 205.54296875 C131.26279732 211.5274594 136.40452789 220.68671841 140.5625 230.3125 C141.04396484 231.41078125 141.04396484 231.41078125 141.53515625 232.53125 C146.12595227 245.00113313 144.5417049 260.27344263 139.5625 272.3125 C137.81393132 275.66361128 135.96485726 278.88270074 133.953125 282.08203125 C132.47432275 284.01585286 132.47432275 284.01585286 132.5625 285.3125 C160.2825 285.3125 188.0025 285.3125 216.5625 285.3125 C219.06680302 275.43887824 219.06680302 275.43887824 220.75 265.5625 C220.98783203 263.77585937 220.98783203 263.77585937 221.23046875 261.953125 C221.39482422 260.64601563 221.39482422 260.64601563 221.5625 259.3125 C220.94842285 259.3031543 220.3343457 259.29380859 219.70166016 259.28417969 C216.86285567 259.22980259 214.02558268 259.14629448 211.1875 259.0625 C209.73923828 259.04123047 209.73923828 259.04123047 208.26171875 259.01953125 C200.44546705 258.75724092 193.42052419 257.35500688 187.16015625 252.41796875 C186.65355469 251.78503906 186.14695312 251.15210938 185.625 250.5 C185.10035156 249.87480469 184.57570313 249.24960937 184.03515625 248.60546875 C180.36439118 242.88998043 178.92156743 237.06987844 177.625 230.5 C176.21735455 223.7653691 174.42011894 217.59205758 171.5625 211.3125 C170.88934546 209.64844315 170.22111961 207.982363 169.5625 206.3125 C168.9025 206.3125 168.2425 206.3125 167.5625 206.3125 C167.48 205.796875 167.3975 205.28125 167.3125 204.75 C166.24109775 201.26794268 164.42726395 198.44049115 162.5625 195.3125 C161.9025 195.3125 161.2425 195.3125 160.5625 195.3125 C160.31242188 194.74917969 160.06234375 194.18585938 159.8046875 193.60546875 C150.11184963 175.71334349 128.47945341 166.28627372 110.0625 160.22265625 C85.28678661 153.77986471 58.69811774 159.59356266 37.5625 173.3125 Z M58.5625 228.3125 C53.23731437 235.36884138 50.98512261 243.7879344 51.75 252.625 C52.38490567 256.93530407 53.39709418 261.11703904 54.5625 265.3125 C55.2225 265.3125 55.8825 265.3125 56.5625 265.3125 C56.65789062 265.88613281 56.75328125 266.45976562 56.8515625 267.05078125 C57.72049448 269.8151308 59.01729774 271.34078523 60.9375 273.5 C61.54335937 274.19480469 62.14921875 274.88960938 62.7734375 275.60546875 C64.5528347 277.54600587 64.5528347 277.54600587 67.5625 278.3125 C67.5625 278.9725 67.5625 279.6325 67.5625 280.3125 C68.97728135 280.96245297 70.39441487 281.60728722 71.8125 282.25 C72.60140625 282.60964844 73.3903125 282.96929687 74.203125 283.33984375 C82.56416787 286.78669751 93.08071526 286.54245162 101.5625 283.625 C111.53407575 279.35357169 118.13585451 272.77116501 122.734375 262.76171875 C126.30354543 252.20572885 125.01468671 242.39076187 120.5625 232.3125 C119.06157326 229.66011603 117.5696852 227.63660917 115.5625 225.3125 C114.9025 225.3125 114.2425 225.3125 113.5625 225.3125 C113.32144531 224.70664063 113.08039063 224.10078125 112.83203125 223.4765625 C111.29093411 220.8495846 109.93152435 220.08459672 107.25 218.6875 C106.49074219 218.28273437 105.73148438 217.87796875 104.94921875 217.4609375 C104.16160156 217.08195313 103.37398437 216.70296875 102.5625 216.3125 C101.83160156 215.94125 101.10070312 215.57 100.34765625 215.1875 C83.62274039 209.93310848 69.96262046 216.21221466 58.5625 228.3125 Z M241.5625 259.3125 C240.61866034 265.99819086 240.61866034 265.99819086 239.67797852 272.68432617 C239.55865967 273.52455322 239.43934082 274.36478027 239.31640625 275.23046875 C239.19595947 276.08406982 239.0755127 276.9376709 238.95141602 277.81713867 C238.56011305 280.32781514 238.06082853 282.82085736 237.5625 285.3125 C245.8125 285.3125 254.0625 285.3125 262.5625 285.3125 C262.5625 276.7325 262.5625 268.1525 262.5625 259.3125 C255.6325 259.3125 248.7025 259.3125 241.5625 259.3125 Z " fill="currentColor" transform="translate(161.4375,21.6875)"/>
<path d="M0 0 C0.70744354 0.00141495 1.41488708 0.0028299 2.14376831 0.00428772 C4.40578419 0.00989025 6.66770148 0.02244307 8.9296875 0.03515625 C10.46223815 0.04017093 11.99479036 0.04473389 13.52734375 0.04882812 C17.28649638 0.05986048 21.04557522 0.07712673 24.8046875 0.09765625 C24.4746875 1.41765625 24.1446875 2.73765625 23.8046875 4.09765625 C22.4846875 4.42765625 21.1646875 4.75765625 19.8046875 5.09765625 C19.8046875 5.75765625 19.8046875 6.41765625 19.8046875 7.09765625 C18.14936127 8.11631854 16.48208612 9.11576438 14.8046875 10.09765625 C14.4746875 10.75765625 14.1446875 11.41765625 13.8046875 12.09765625 C15.36521363 12.3009312 16.92837691 12.48392082 18.4921875 12.66015625 C20.01005859 12.83224609 20.01005859 12.83224609 21.55859375 13.0078125 C24.79927338 13.24282955 24.79927338 13.24282955 27.83203125 12.34375 C31.67155478 11.41897195 33.92293436 11.19050742 37.8046875 12.09765625 C43.5464348 16.24734886 48.12172723 21.84443026 52.86425781 27.06054688 C56.70247508 31.08999892 61.14323765 34.08230426 65.8046875 37.09765625 C66.63871094 37.66871094 67.47273438 38.23976563 68.33203125 38.828125 C71.74254261 41.15523243 75.07594662 43.31253198 78.8046875 45.09765625 C78.32814086 49.95843199 77.42195849 53.01471351 74.8046875 57.09765625 C74.09325662 59.08217396 73.41477414 61.07967737 72.8046875 63.09765625 C79.15513788 61.96868729 83.21717343 58.8146227 88.25390625 54.875 C91.9755763 52.28179958 91.9755763 52.28179958 94.8046875 52.09765625 C97.15625 52.91015625 97.15625 52.91015625 99.8046875 54.09765625 C111.79361307 58.23399715 123.94528968 58.85948835 136.50341797 59.4140625 C138.47592529 59.50880859 138.47592529 59.50880859 140.48828125 59.60546875 C141.67993896 59.6533252 142.87159668 59.70118164 144.09936523 59.75048828 C144.99212158 59.86505371 145.88487793 59.97961914 146.8046875 60.09765625 C148.45389383 63.39606891 148.46955457 67.09388755 148.8671875 70.72265625 C149.00350586 71.92535156 149.00350586 71.92535156 149.14257812 73.15234375 C149.36666403 75.13373493 149.586115 77.1156493 149.8046875 79.09765625 C154.22041964 74.64690236 154.22041964 74.64690236 156.66015625 68.984375 C157.766836 65.06808382 158.77084735 61.86233558 161.8046875 59.09765625 C167.65969934 56.35194657 174.06125638 55.17448417 180.33203125 53.73046875 C186.96892808 52.18020197 192.73166639 49.69633855 198.76489258 46.5847168 C203.58893776 44.09765625 203.58893776 44.09765625 206.8046875 44.09765625 C206.8046875 43.43765625 206.8046875 42.77765625 206.8046875 42.09765625 C208.87014393 40.84362913 210.24170449 40.06728787 212.6875 40.19921875 C215.83859953 41.53640121 217.01781532 43.74004275 218.9296875 46.53515625 C221.63918856 50.50682815 221.63918856 50.50682815 224.8046875 54.09765625 C225.1346875 45.84765625 225.4646875 37.59765625 225.8046875 29.09765625 C226.4646875 29.09765625 227.1246875 29.09765625 227.8046875 29.09765625 C228.0109375 28.54078125 228.2171875 27.98390625 228.4296875 27.41015625 C229.77315503 25.15068814 230.85626452 24.09779065 232.8671875 22.47265625 C235.81293463 20.42646228 235.81293463 20.42646228 236.8046875 18.09765625 C237.4646875 18.09765625 238.1246875 18.09765625 238.8046875 18.09765625 C238.8046875 17.43765625 238.8046875 16.77765625 238.8046875 16.09765625 C239.4646875 16.09765625 240.1246875 16.09765625 240.8046875 16.09765625 C241.06902588 15.5655957 241.33336426 15.03353516 241.60571289 14.48535156 C242.00137451 13.69741211 242.39703613 12.90947266 242.8046875 12.09765625 C243.47455688 10.61797363 243.47455688 10.61797363 244.15795898 9.10839844 C246.28254985 5.37782431 248.11721392 2.39780335 251.8046875 0.09765625 C259.22767092 -1.93226196 267.27017257 -1.02593855 274.8671875 -0.65234375 C276.99399026 -0.59209163 279.12095669 -0.53734907 281.24804688 -0.48828125 C286.43765892 -0.35661435 291.6193662 -0.14994403 296.8046875 0.09765625 C298.75051071 5.93512589 295.2371785 13.12174061 292.64453125 18.5078125 C291.75019405 20.06889571 290.78641705 21.59000016 289.8046875 23.09765625 C284.45857109 22.66418735 280.21853788 20.56355629 275.44140625 18.30859375 C272.61960609 17.0126559 269.78076245 15.98243529 266.8046875 15.09765625 C266.1240625 16.33515625 266.1240625 16.33515625 265.4296875 17.59765625 C264.8934375 18.42265625 264.3571875 19.24765625 263.8046875 20.09765625 C263.1446875 20.09765625 262.4846875 20.09765625 261.8046875 20.09765625 C261.66160156 20.979375 261.66160156 20.979375 261.515625 21.87890625 C260.65261041 24.57227047 259.49062728 25.68454759 257.4296875 27.59765625 C255.39688209 29.53069207 253.67178106 31.2763925 251.9921875 33.53515625 C251.6003125 34.05078125 251.2084375 34.56640625 250.8046875 35.09765625 C250.1446875 35.09765625 249.4846875 35.09765625 248.8046875 35.09765625 C247.07713475 39.62120802 246.53381031 43.52064381 246.3671875 48.34765625 C245.7104993 59.349875 243.59080597 67.04305093 235.8046875 75.09765625 C225.54920272 84.02435729 225.54920272 84.02435729 221.48046875 84.1953125 C217.30738161 82.48343296 215.48132696 79.18079842 212.9921875 75.53515625 C212.49009766 74.82423828 211.98800781 74.11332031 211.47070312 73.38085938 C210.23595954 71.62869943 209.01859932 69.8643125 207.8046875 68.09765625 C201.23540259 68.86479314 195.29762535 71.34773622 189.1484375 73.65820312 C184.54480002 75.33256826 180.78761875 76.54841483 175.8046875 76.09765625 C175.65 77.18626953 175.65 77.18626953 175.4921875 78.296875 C173.16879957 87.76204062 164.16684059 95.76120544 156.16796875 100.73828125 C151.66368981 102.55882605 147.36702615 102.98370261 142.5546875 103.41015625 C141.64460937 103.50876953 140.73453125 103.60738281 139.796875 103.70898438 C134.78011494 104.18907491 134.78011494 104.18907491 132.8046875 104.09765625 C129.97041173 101.26338048 130.17018262 98.85358132 129.6796875 94.91015625 C129.42832031 92.97076172 129.42832031 92.97076172 129.171875 90.9921875 C128.82671245 87.33126129 128.73797064 83.77184912 128.8046875 80.09765625 C128.14984375 80.13246094 127.495 80.16726563 126.8203125 80.203125 C120.3690403 80.39447629 114.93412724 79.51381455 108.71875 77.8515625 C102.17188126 76.15780155 97.18726783 74.94863009 91.0546875 78.34765625 C90.37921875 78.7859375 89.70375 79.22421875 89.0078125 79.67578125 C82.73611242 83.72347421 78.03283691 84.67720475 70.6796875 84.66015625 C69.28387451 84.66088135 69.28387451 84.66088135 67.85986328 84.66162109 C59.90072085 84.46905002 54.41389519 82.66961713 47.8046875 78.09765625 C46.8146875 77.43765625 45.8246875 76.77765625 44.8046875 76.09765625 C46.52031016 70.59986544 48.48058186 65.40483621 51.03515625 60.23828125 C51.99088643 57.57970187 52.28846522 55.89824102 51.8046875 53.09765625 C49.62116091 51.03857 49.62116091 51.03857 46.8046875 49.41015625 C45.11039357 48.34886936 43.4356585 47.25389819 41.8046875 46.09765625 C41.8046875 45.43765625 41.8046875 44.77765625 41.8046875 44.09765625 C41.2684375 43.87078125 40.7321875 43.64390625 40.1796875 43.41015625 C35.89275905 41.04106421 32.5184063 38.16823444 29.8046875 34.09765625 C27.08297686 33.78728574 24.53131466 33.6392686 21.8046875 33.59765625 C9.58846715 33.09895692 1.17193697 30.48544047 -8.1953125 22.09765625 C-8.1953125 21.43765625 -8.1953125 20.77765625 -8.1953125 20.09765625 C-8.8553125 20.09765625 -9.5153125 20.09765625 -10.1953125 20.09765625 C-11.2030077 18.33119055 -12.20122964 16.55931802 -13.1953125 14.78515625 C-13.7521875 13.79902344 -14.3090625 12.81289063 -14.8828125 11.796875 C-16.1953125 9.09765625 -16.1953125 9.09765625 -16.1953125 6.09765625 C-11.97309028 3.09765625 -11.97309028 3.09765625 -9.1953125 3.09765625 C-9.1953125 2.43765625 -9.1953125 1.77765625 -9.1953125 1.09765625 C-6.23720774 -0.38139613 -3.240597 -0.02425278 0 0 Z " fill="currentColor" transform="translate(109.1953125,343.90234375)"/>
<path d="M0 0 C1.49377188 0.82476635 2.98852465 1.64775931 4.484375 2.46875 C5.13631836 2.83419922 5.78826172 3.19964844 6.45996094 3.57617188 C8.3998506 4.63554625 8.3998506 4.63554625 11.25 5.5 C14.27924868 9.82749811 14.74170342 13.35850405 13.953125 18.44140625 C13.25 20.5 13.25 20.5 10.5625 23.0625 C6.56785266 24.7960262 3.57235061 25.35863583 -0.61938477 23.80883789 C-2.67876742 22.84918752 -4.68306278 21.81953887 -6.6875 20.75 C-7.36490234 20.40195313 -8.04230469 20.05390625 -8.74023438 19.6953125 C-10.75582017 18.65176856 -12.75421524 17.58086487 -14.75 16.5 C-15.40758301 16.15187256 -16.06516602 15.80374512 -16.74267578 15.44506836 C-21.13986154 13.05069087 -23.16516722 11.35355038 -24.75 6.5 C-24.55696195 2.5427199 -23.12868548 -0.35673705 -20.75 -3.5 C-13.57961575 -7.88190148 -6.48717505 -3.65681944 0 0 Z " fill="currentColor" transform="translate(180.75,63.5)"/>
<path d="M0 0 C0 3 0 3 -2.44921875 5.7421875 C-3.5211532 6.79414802 -4.60095717 7.83813498 -5.6875 8.875 C-6.48317383 9.65037109 -6.48317383 9.65037109 -7.29492188 10.44140625 C-8.35104842 11.47031971 -9.40986764 12.49647692 -10.47143555 13.51977539 C-12.6744739 15.6531441 -14.83720928 17.82594474 -17 20 C-18.33333333 21.33333333 -19.66666667 22.66666667 -21 24 C-21.66 23.67 -22.32 23.34 -23 23 C-21.38405168 20.95880212 -19.7143618 18.95927063 -18 17 C-17.34 17 -16.68 17 -16 17 C-15.78214844 16.45601562 -15.56429687 15.91203125 -15.33984375 15.3515625 C-13.55205391 12.2138089 -11.12568015 9.87468546 -8.5625 7.375 C-8.07201172 6.88515625 -7.58152344 6.3953125 -7.07617188 5.890625 C-4.81112438 3.6530882 -2.65832501 1.77221668 0 0 Z " fill="currentColor" transform="translate(137,30)"/>
<path d="M0 0 C1.94888306 -0.36076355 1.94888306 -0.36076355 4.35791016 -0.34057617 C5.25869293 -0.34034958 6.15947571 -0.34012299 7.08755493 -0.33988953 C8.06155243 -0.32440567 9.03554993 -0.30892181 10.0390625 -0.29296875 C11.03505463 -0.28872391 12.03104675 -0.28447906 13.05722046 -0.28010559 C16.24675225 -0.2632768 19.43565833 -0.22561676 22.625 -0.1875 C24.78384506 -0.1724586 26.9427 -0.15876925 29.1015625 -0.14648438 C34.40125612 -0.11335967 39.70058337 -0.06311896 45 0 C45 0.99 45 1.98 45 3 C44.505 2.505 44.505 2.505 44 2 C38.10632929 1.7065608 32.21009146 1.68584706 26.30981445 1.64990234 C24.32043738 1.63337416 22.33111892 1.60612574 20.34204102 1.56787109 C17.47380762 1.51297439 14.60697001 1.49120547 11.73828125 1.4765625 C10.4113903 1.44255844 10.4113903 1.44255844 9.05769348 1.40786743 C4.63953789 1.4229081 1.86559045 1.65540051 -1.60864258 4.53271484 C-2.39779053 5.34691895 -3.18693848 6.16112305 -4 7 C-2.79618552 4.50638429 -1.54571278 2.31856917 0 0 Z " fill="currentColor" transform="translate(361,344)"/>
</svg>
