<svg version="1.1" xmlns="http://www.w3.org/2000/svg" width="100" height="100" viewBox="0 0 512 512">
<path d="M0 0 C1.25759628 -0.01036789 2.51519257 -0.02073578 3.81089783 -0.03141785 C7.2491422 -0.05840927 10.68665926 -0.05378071 14.12496257 -0.04171729 C17.00017651 -0.03457135 19.87525717 -0.04309518 22.75046068 -0.05162269 C29.53591163 -0.07155711 36.32101012 -0.06602654 43.10644531 -0.04394531 C50.09589837 -0.02158597 57.08442758 -0.03917776 64.07379335 -0.0769946 C70.0850857 -0.10827143 76.09609271 -0.11613162 82.10745627 -0.10504085 C85.69321883 -0.09856653 89.27844861 -0.10049365 92.86414909 -0.12436485 C96.86443715 -0.14964149 100.86301346 -0.12595094 104.86328125 -0.09765625 C106.63478546 -0.1182309 106.63478546 -0.1182309 108.44207764 -0.13922119 C114.82073473 -0.04906526 118.67796187 0.52905674 123.31156254 5.08410931 C125.97992169 8.63974142 125.61198587 12.25427153 125.59399414 16.51831055 C125.59187172 17.5107653 125.59187172 17.5107653 125.58970642 18.52326965 C125.58411785 20.63234007 125.57156754 22.74130357 125.55883789 24.8503418 C125.55382141 26.28198089 125.54925876 27.71362164 125.54516602 29.14526367 C125.53415219 32.65115768 125.51689544 36.1569893 125.49633789 39.6628418 C126.5146167 39.62513672 127.53289551 39.58743164 128.58203125 39.54858398 C129.9375619 39.51808308 131.29311364 39.48850986 132.64868164 39.4597168 C133.31750366 39.43248535 133.98632568 39.40525391 134.67541504 39.37719727 C142.21931796 39.25726974 146.13837215 42.80950441 151.49633789 47.6628418 C152.66232366 48.66407599 153.83178444 49.66127339 155.00415039 50.6550293 C157.43793836 52.72230829 159.85653044 54.80542213 162.26586914 56.90112305 C165.29887247 59.52049518 168.44370171 61.93313655 171.67993164 64.2956543 C181.06093119 71.3566217 181.06093119 71.3566217 182.49633789 75.6628418 C182.59651362 78.36192389 182.63977221 81.03529562 182.63677979 83.73458862 C182.64123647 84.98270881 182.64123647 84.98270881 182.64578319 86.25604355 C182.65447977 89.05425072 182.65597924 91.85241515 182.6574707 94.65063477 C182.66209815 96.65279227 182.66712271 98.6549489 182.67251587 100.65710449 C182.68564783 106.10336953 182.69208623 111.54962223 182.69652653 116.99590063 C182.69945561 120.39657222 182.70356007 123.79724042 182.7080307 127.19791031 C182.72170693 137.83231302 182.73137331 148.46670802 182.73523259 159.10111892 C182.7397156 171.38751748 182.7572743 183.67380491 182.78623319 195.96016967 C182.80782788 205.45067794 182.81793567 214.94115489 182.81927371 224.43168747 C182.82032321 230.10314141 182.82626188 235.77449091 182.84409332 241.44591904 C182.86053603 246.77943142 182.862748 252.11276042 182.85395432 257.44628906 C182.85318193 259.40506607 182.857553 261.36385279 182.86741257 263.32260513 C182.88007354 265.99433274 182.87428726 268.66540508 182.86383057 271.33712769 C182.87591517 272.50284201 182.87591517 272.50284201 182.88824391 273.69210613 C182.84688532 278.20285901 182.25723263 281.06268931 179.49633789 284.6628418 C175.55435891 288.11207341 172.32312215 288.78895663 167.17211914 288.76049805 C166.1440918 288.75727539 165.11606445 288.75405273 164.05688477 288.75073242 C162.44910156 288.73816406 162.44910156 288.73816406 160.80883789 288.7253418 C159.72538086 288.72083008 158.64192383 288.71631836 157.52563477 288.71166992 C154.84917896 288.69987937 152.1727515 288.68194388 149.49633789 288.6628418 C149.49633789 294.9328418 149.49633789 301.2028418 149.49633789 307.6628418 C151.24301758 307.63963867 152.98969727 307.61643555 154.78930664 307.5925293 C157.08747945 307.5737687 159.38565688 307.55556881 161.68383789 307.5378418 C162.83432617 307.52108398 163.98481445 307.50432617 165.17016602 307.48706055 C166.28198242 307.48061523 167.39379883 307.47416992 168.53930664 307.4675293 C169.56048584 307.45705566 170.58166504 307.44658203 171.63378906 307.43579102 C174.66817884 307.67647183 176.78645928 308.29358403 179.49633789 309.6628418 C184.19630021 315.65934545 182.49633789 320.3844142 182.49633789 328.6628418 C191.40633789 328.6628418 200.31633789 328.6628418 209.49633789 328.6628418 C209.43833008 326.10791992 209.38032227 323.55299805 209.32055664 320.9206543 C209.28143736 318.41515193 209.25114939 315.90968505 209.22167969 313.40405273 C209.19670851 311.67765799 209.16271882 309.95136709 209.11914062 308.2253418 C208.84903163 297.24302798 208.77217219 288.48973645 216.16918945 279.66772461 C223.16151475 272.71153536 232.21262738 270.39805605 241.87915039 270.38549805 C244.46078155 270.47592066 247.04169769 270.58950317 249.62133789 270.7253418 C250.91426758 270.76594727 252.20719727 270.80655273 253.53930664 270.84838867 C264.06820779 271.29289467 273.00914441 272.27520815 280.80883789 279.77612305 C287.86596576 287.66638407 288.79938294 296.81469853 288.75512695 306.95922852 C288.76038391 308.45844345 288.76038391 308.45844345 288.76574707 309.98794556 C288.77450756 313.27287868 288.76873437 316.55759419 288.76196289 319.8425293 C288.76331138 322.13884523 288.76525345 324.43516087 288.76776123 326.73147583 C288.77070499 331.53788987 288.76643967 336.34422941 288.75708008 341.15063477 C288.74569896 347.29257595 288.75224138 353.43434205 288.76422501 359.57627678 C288.77147478 364.31708072 288.76914115 369.05784361 288.76396942 373.79864883 C288.76264087 376.06232855 288.76425261 378.32601207 288.76892853 380.58968735 C288.77404364 383.76244631 288.7662132 386.93492757 288.75512695 390.10766602 C288.75917542 391.0316217 288.76322388 391.95557739 288.76739502 392.90753174 C288.70166653 403.13171628 287.35678466 411.77709749 280.49633789 419.6628418 C273.83932448 425.74664857 268.09151286 427.97277292 259.04711914 427.9987793 C258.23446091 428.0054361 257.42180267 428.0120929 256.58451843 428.01895142 C254.86740369 428.02905264 253.15024989 428.03376922 251.43310547 428.03344727 C248.83436492 428.03779905 246.23735407 428.07408394 243.63891602 428.11206055 C226.1940259 428.23347744 226.1940259 428.23347744 219.49633789 423.6628418 C217.69215834 421.70953914 216.18715378 419.79990173 214.75024414 417.56518555 C213.611668 415.61641688 213.611668 415.61641688 211.91040039 414.4284668 C209.59491304 411.5373058 209.64953478 408.04571699 209.30883789 404.4753418 C208.90665039 400.6081543 208.90665039 400.6081543 208.49633789 396.6628418 C199.91633789 396.3328418 191.33633789 396.0028418 182.49633789 395.6628418 C182.68196289 399.7465918 182.86758789 403.8303418 183.05883789 408.0378418 C183.50983161 418.99102023 183.42418232 429.74282653 182.49633789 440.6628418 C183.42575195 440.62803711 184.35516602 440.59323242 185.31274414 440.55737305 C198.40799867 440.27061565 198.40799867 440.27061565 203.49633789 443.6628418 C207.01118371 448.42489097 206.83650665 452.99336242 206.49633789 458.6628418 C205.83633789 458.6628418 205.17633789 458.6628418 204.49633789 458.6628418 C204.40352539 459.5909668 204.40352539 459.5909668 204.30883789 460.5378418 C203.49633789 462.6628418 203.49633789 462.6628418 201.26700252 463.77957499 C198.44941439 464.67780065 196.29913527 464.91538813 193.35320377 464.9201107 C192.33328061 464.92655959 191.31335745 464.93300849 190.26252753 464.9396528 C189.1489185 464.9365556 188.03530947 464.93345839 186.88795471 464.93026733 C185.10542601 464.937064 185.10542601 464.937064 183.28688663 464.94399798 C179.99183673 464.95446902 176.69700509 464.95596771 173.40195405 464.95360923 C169.84700416 464.95320103 166.29208682 464.96424034 162.7371521 464.97372437 C155.77412382 464.99033387 148.8111294 464.99583386 141.84808297 464.99694912 C136.18892335 464.99789948 130.5297749 465.00200917 124.87061882 465.00835037 C108.8273271 465.02596152 92.78406214 465.03518927 76.74076069 465.03368942 C75.87594834 465.03360951 75.01113598 465.0335296 74.12011719 465.03344727 C73.25424966 465.0333655 72.38838213 465.03328374 71.49627619 465.0331995 C57.45853918 465.03238632 43.42090939 465.05153255 29.38320339 465.079724 C14.97083032 465.10843967 0.55850956 465.12226507 -13.85389286 465.12053645 C-21.94600615 465.11987216 -30.03800699 465.12538157 -38.13009453 465.14689255 C-45.01865599 465.1650869 -51.90705401 465.16946603 -58.79562908 465.1558737 C-62.31035907 465.14933553 -65.82477533 465.14925703 -69.33947563 465.1665802 C-73.14922816 465.18516463 -76.95852057 465.17277871 -80.76829529 465.15731812 C-81.87967359 465.16760524 -82.9910519 465.17789237 -84.13610834 465.18849123 C-90.22384992 465.13373243 -93.89533473 464.78618746 -98.50366211 460.6628418 C-100.2899589 457.81512227 -101.09225757 454.99463912 -101.50366211 451.6628418 C-100.05348246 446.85912171 -97.5761875 444.48228245 -93.50366211 441.6628418 C-88.72407589 439.27304869 -82.84740196 440.6628418 -77.50366211 440.6628418 C-77.50366211 425.8128418 -77.50366211 410.9628418 -77.50366211 395.6628418 C-86.08366211 395.9928418 -94.66366211 396.3228418 -103.50366211 396.6628418 C-103.70991211 398.7872168 -103.91616211 400.9115918 -104.12866211 403.1003418 C-105.42560649 412.02584098 -108.50006114 417.53027733 -115.56616211 423.1003418 C-121.18272402 427.1318617 -126.14843266 427.97164409 -132.98803711 427.96362305 C-133.80306702 427.96790817 -134.61809692 427.9721933 -135.45782471 427.97660828 C-137.17914911 427.98233725 -138.90049772 427.98286241 -140.62182617 427.97851562 C-143.23130576 427.97536876 -145.83963606 427.99878629 -148.44897461 428.02416992 C-150.1286607 428.02644464 -151.80834979 428.02714561 -153.48803711 428.02612305 C-154.25710388 428.03533279 -155.02617065 428.04454254 -155.81854248 428.05403137 C-162.31549667 427.99963651 -168.96976434 427.03599146 -173.84350586 422.47143555 C-174.6343457 421.29774414 -174.6343457 421.29774414 -175.44116211 420.1003418 C-175.98643555 419.31530273 -176.53170898 418.53026367 -177.09350586 417.72143555 C-177.7915332 416.70243164 -177.7915332 416.70243164 -178.50366211 415.6628418 C-179.16366211 415.0028418 -179.82366211 414.3428418 -180.50366211 413.6628418 C-183.48011277 406.13417249 -183.65509495 398.57885778 -183.66479492 390.60351562 C-183.66975983 389.61715118 -183.67472473 388.63078674 -183.67984009 387.61453247 C-183.69438922 384.36630544 -183.70125189 381.11812725 -183.70678711 377.86987305 C-183.70961449 376.75491644 -183.71244186 375.63995983 -183.71535492 374.49121666 C-183.730319 368.59000793 -183.73956579 362.68882347 -183.74389648 356.78759766 C-183.74937443 350.71641006 -183.77339639 344.64544749 -183.80186844 338.57433033 C-183.82056725 333.88406238 -183.82570429 329.19384783 -183.82723236 324.50354576 C-183.83024347 322.26662657 -183.83821936 320.02970798 -183.85141754 317.7928257 C-184.01341451 288.22478188 -184.01341451 288.22478188 -176.50366211 280.1628418 C-175.82303711 279.3894043 -175.14241211 278.6159668 -174.44116211 277.8190918 C-165.69666072 271.40025567 -156.15112989 271.04946147 -145.69677734 271.19628906 C-143.44090413 271.22534512 -141.18737868 271.21683832 -138.93139648 271.20385742 C-130.10608192 271.21526654 -121.48967179 271.33381419 -113.91772461 276.3894043 C-113.32733398 277.01588867 -112.73694336 277.64237305 -112.12866211 278.2878418 C-111.21987305 279.20436523 -111.21987305 279.20436523 -110.29272461 280.1394043 C-103.38308417 289.88531636 -104.0220318 299.19954848 -104.25366211 310.7253418 C-104.2737559 312.46685774 -104.29200158 314.20839604 -104.30834961 315.94995117 C-104.34869839 320.18859093 -104.42701964 324.42408745 -104.50366211 328.6628418 C-95.59366211 328.6628418 -86.68366211 328.6628418 -77.50366211 328.6628418 C-77.50366211 324.3728418 -77.50366211 320.0828418 -77.50366211 315.6628418 C-76.31616211 311.9753418 -76.31616211 311.9753418 -74.50366211 309.6628418 C-70.75740619 307.76991937 -67.71316423 307.42479562 -63.54663086 307.4675293 C-62.43481445 307.47397461 -61.32299805 307.48041992 -60.17749023 307.48706055 C-59.02700195 307.50381836 -57.87651367 307.52057617 -56.69116211 307.5378418 C-55.52133789 307.54686523 -54.35151367 307.55588867 -53.14624023 307.56518555 C-50.26529295 307.58870348 -47.38445122 307.62457301 -44.50366211 307.6628418 C-44.50366211 301.3928418 -44.50366211 295.1228418 -44.50366211 288.6628418 C-46.90711914 288.69764648 -46.90711914 288.69764648 -49.35913086 288.7331543 C-51.46980328 288.75191583 -53.58048074 288.77011562 -55.69116211 288.7878418 C-56.74625977 288.80459961 -57.80135742 288.82135742 -58.88842773 288.83862305 C-59.91000977 288.84506836 -60.9315918 288.85151367 -61.98413086 288.8581543 C-62.921521 288.86862793 -63.85891113 288.87910156 -64.82470703 288.88989258 C-69.98017346 288.45294883 -73.18161702 286.57810922 -76.50366211 282.6628418 C-77.7455165 278.93727863 -77.65174925 275.47833167 -77.65083313 271.5978241 C-77.65450982 270.76644954 -77.65818651 269.93507497 -77.66197461 269.07850724 C-77.6730195 266.28263796 -77.67685663 263.48680582 -77.68066406 260.69091797 C-77.68692803 258.69038271 -77.69357477 256.68984861 -77.70057678 254.6893158 C-77.71799085 249.24711943 -77.72853934 243.80493185 -77.73678231 238.36271453 C-77.74193088 234.9640454 -77.74800664 231.56537901 -77.75429344 228.16671181 C-77.77334539 217.53711458 -77.78757736 206.9075243 -77.79590541 196.27791327 C-77.8056833 183.99998196 -77.83201729 171.72223067 -77.8724063 159.44436282 C-77.9025409 149.95893517 -77.9173717 140.47355921 -77.92068642 130.98808461 C-77.92303964 125.32047342 -77.93203566 119.65305455 -77.9571476 113.98549461 C-77.98038723 108.65440313 -77.98467804 103.32363117 -77.97438622 97.99250221 C-77.97388977 96.03575199 -77.98024211 94.07898626 -77.99394226 92.12228394 C-78.01160114 89.45074146 -78.00458485 86.78035319 -77.9914093 84.10881042 C-78.00237855 83.33458038 -78.01334779 82.56035034 -78.02464944 81.76265877 C-77.95173375 75.63847249 -75.93152519 72.0689876 -71.64770508 67.82348633 C-71.02009277 67.31930176 -70.39248047 66.81511719 -69.74584961 66.2956543 C-69.04282715 65.72411621 -68.33980469 65.15257813 -67.61547852 64.5637207 C-66.8773291 63.97768066 -66.13917969 63.39164063 -65.37866211 62.7878418 C-64.61602051 62.17215332 -63.85337891 61.55646484 -63.06762695 60.92211914 C-61.55897793 59.70577688 -60.04750515 58.49292698 -58.53295898 57.28393555 C-56.86445812 55.9510619 -55.20606722 54.60554225 -53.55053711 53.2565918 C-51.98222921 51.98170925 -50.40082754 50.72269966 -48.80444336 49.4831543 C-47.15389221 48.17728531 -45.55153292 46.80961595 -43.98413086 45.4050293 C-36.06942287 38.7534299 -30.41240533 38.87555494 -20.50366211 39.6628418 C-20.51413574 38.81052979 -20.52460938 37.95821777 -20.53540039 37.08007812 C-20.56958866 33.90251674 -20.59461284 30.72504947 -20.61352539 27.54736328 C-20.62355137 26.17493597 -20.63717567 24.80252985 -20.65454102 23.43017578 C-20.67893838 21.45183653 -20.68910695 19.47333812 -20.69897461 17.49487305 C-20.70944824 16.30611572 -20.71992188 15.1173584 -20.73071289 13.89257812 C-20.39103875 9.06080472 -19.41754762 6.69731359 -16.19996643 3.05517578 C-11.46741802 -0.74765061 -5.79541591 -0.0418853 0 0 Z M3.49633789 24.6628418 C3.49633789 29.6128418 3.49633789 34.5628418 3.49633789 39.6628418 C35.83633789 39.6628418 68.17633789 39.6628418 101.49633789 39.6628418 C101.49633789 34.7128418 101.49633789 29.7628418 101.49633789 24.6628418 C69.15633789 24.6628418 36.81633789 24.6628418 3.49633789 24.6628418 Z M-39.50366211 72.6628418 C-40.60305764 73.59355919 -41.71383921 74.51129631 -42.84350586 75.4050293 C-44.59382856 76.84213636 -46.34382188 78.27964467 -48.09350586 79.7175293 C-50.50366211 81.6628418 -50.50366211 81.6628418 -52.82006836 83.0456543 C-53.65344727 83.84616211 -53.65344727 83.84616211 -54.50366211 84.6628418 C-54.50366211 86.6428418 -54.50366211 88.6228418 -54.50366211 90.6628418 C16.11633789 90.6628418 86.73633789 90.6628418 159.49633789 90.6628418 C160.17543276 84.73347862 160.17543276 84.73347862 156.79321289 81.7409668 C155.62573107 80.77997836 154.44268822 79.83764366 153.24633789 78.9128418 C152.36655273 78.19161133 152.36655273 78.19161133 151.46899414 77.45581055 C148.58758532 75.13125826 145.84738696 73.25893966 142.49633789 71.6628418 C140.82967122 69.99617513 139.16300456 68.32950846 137.49633789 66.6628418 C133.53320985 63.77887796 130.72397131 63.27869058 125.85690308 63.24151611 C125.20294025 63.23260275 124.54897742 63.22368938 123.87519753 63.21450591 C121.69133858 63.18856243 119.50797522 63.1839307 117.32397461 63.17944336 C115.75488745 63.16555005 114.18581038 63.15047488 112.616745 63.13430786 C108.35817758 63.09500673 104.09975192 63.07561432 99.84103155 63.06227589 C97.17699257 63.05346999 94.51299194 63.04115288 91.84897232 63.02776337 C83.50408326 62.98675234 75.1592823 62.95774775 66.81429946 62.94615769 C57.19949603 62.93272879 47.58597495 62.88014421 37.97156131 62.79315591 C30.52843638 62.72816455 23.08567092 62.69803737 15.64226544 62.69403434 C11.2020368 62.69089928 6.76301421 62.67338048 2.32308578 62.6195755 C-1.85868355 62.56988457 -6.0383515 62.56377887 -10.22031212 62.58999252 C-11.74768292 62.59229104 -13.27517046 62.57944026 -14.80225182 62.54961777 C-25.72792742 62.34891171 -31.73751894 64.79929112 -39.50366211 72.6628418 Z M-54.50366211 113.6628418 C-54.50366211 163.4928418 -54.50366211 213.3228418 -54.50366211 264.6628418 C-38.66366211 264.6628418 -22.82366211 264.6628418 -6.50366211 264.6628418 C-6.52428711 261.0947168 -6.54491211 257.5265918 -6.56616211 253.8503418 C-6.57522031 244.20141319 -6.46418147 234.55799096 -6.19116211 224.9128418 C-6.15744507 223.19230591 -6.15744507 223.19230591 -6.12304688 221.43701172 C-6.08751709 220.36169189 -6.0519873 219.28637207 -6.01538086 218.1784668 C-5.98919678 217.23261719 -5.9630127 216.28676758 -5.93603516 215.31225586 C-5.42349717 212.17162217 -4.3513221 210.2351243 -2.50366211 207.6628418 C0.01687384 206.40257382 1.35054769 206.74409734 4.12133789 207.1003418 C5.34723633 207.2530957 5.34723633 207.2530957 6.59790039 207.40893555 C7.22438477 207.49272461 7.85086914 207.57651367 8.49633789 207.6628418 C10.11651578 211.24380574 10.75793372 214.08215625 10.81518555 218.00390625 C10.83505524 219.0446077 10.85492493 220.08530914 10.87539673 221.157547 C10.88694794 222.26917709 10.89849915 223.38080719 10.91040039 224.52612305 C10.92976654 225.67324265 10.94913269 226.82036224 10.96908569 228.00224304 C11.02878256 231.6598674 11.07522791 235.31752339 11.12133789 238.9753418 C11.15952672 241.45777727 11.19857897 243.94019961 11.23852539 246.42260742 C11.33609826 252.50261661 11.41574723 258.5824889 11.49633789 264.6628418 C22.38633789 264.6628418 33.27633789 264.6628418 44.49633789 264.6628418 C44.56981445 258.99354492 44.56981445 258.99354492 44.64477539 253.2097168 C44.69877197 249.55261241 44.75608475 245.89557401 44.8137207 242.23852539 C44.85202355 239.69528104 44.88687409 237.15198227 44.91821289 234.60864258 C44.96383451 230.95463602 45.02183467 227.30100453 45.08227539 223.6472168 C45.0938266 222.50855164 45.10537781 221.36988647 45.11727905 220.19671631 C45.13714874 219.13591858 45.15701843 218.07512085 45.17749023 216.98217773 C45.1908139 216.04952087 45.20413757 215.11686401 45.21786499 214.15594482 C45.51174854 211.52487388 46.07640818 209.88580762 47.49633789 207.6628418 C50.48631614 206.16785267 53.19676564 206.54706733 56.49633789 206.6628418 C57.98133789 207.1578418 57.98133789 207.1578418 59.49633789 207.6628418 C60.67823183 210.69355841 60.6479244 213.75803223 60.70166016 216.98217773 C60.73157799 218.57337433 60.73157799 218.57337433 60.76210022 220.19671631 C60.77881271 221.33538147 60.79552521 222.47404663 60.81274414 223.6472168 C60.83352524 224.81794739 60.85430634 225.98867798 60.87571716 227.19488525 C60.94109417 230.93414448 61.0000428 234.67347384 61.05883789 238.4128418 C61.10203436 240.9480053 61.14564901 243.48316171 61.18969727 246.01831055 C61.29755023 252.23308346 61.39671244 258.44790973 61.49633789 264.6628418 C72.38633789 264.6628418 83.27633789 264.6628418 94.49633789 264.6628418 C94.51051758 260.89491211 94.52469727 257.12698242 94.53930664 253.24487305 C94.56992299 249.59430989 94.60901314 245.94392898 94.64892578 242.29345703 C94.67211807 239.75706429 94.68650434 237.22057508 94.69189453 234.68408203 C94.70117447 231.03706656 94.74214842 227.39157116 94.78930664 223.74487305 C94.78537399 222.61136917 94.78144135 221.4778653 94.77738953 220.31001282 C94.92274748 212.46072037 94.92274748 212.46072037 97.81396484 208.43896484 C101.3079853 206.12541257 103.38514092 206.05377558 107.49633789 206.6628418 C110.11226942 208.49399387 110.46623245 209.57252546 111.49633789 212.6628418 C111.61167978 214.36498291 111.6727483 216.07105588 111.70166016 217.77685547 C111.72160538 218.81770798 111.7415506 219.85856049 111.76210022 220.93095398 C111.78716896 222.61388298 111.78716896 222.61388298 111.81274414 224.33081055 C111.83352524 225.48076004 111.85430634 226.63070953 111.87571716 227.81550598 C111.94117131 231.49372305 112.00007863 235.17201227 112.05883789 238.8503418 C112.10202703 241.34188576 112.14564144 243.83342239 112.18969727 246.32495117 C112.29764979 252.43750845 112.39675455 258.55011946 112.49633789 264.6628418 C128.00633789 264.6628418 143.51633789 264.6628418 159.49633789 264.6628418 C159.49633789 214.8328418 159.49633789 165.0028418 159.49633789 113.6628418 C88.87633789 113.6628418 18.25633789 113.6628418 -54.50366211 113.6628418 Z M-20.50366211 288.6628418 C-20.83366211 294.9328418 -21.16366211 301.2028418 -21.50366211 307.6628418 C27.33633789 307.6628418 76.17633789 307.6628418 126.49633789 307.6628418 C125.83633789 307.3328418 125.17633789 307.0028418 124.49633789 306.6628418 C124.82633789 306.0028418 125.15633789 305.3428418 125.49633789 304.6628418 C125.49633789 299.3828418 125.49633789 294.1028418 125.49633789 288.6628418 C77.31633789 288.6628418 29.13633789 288.6628418 -20.50366211 288.6628418 Z M-158.50366211 295.6628418 C-158.52699259 309.59663452 -158.5445756 323.53042422 -158.55547428 337.46423244 C-158.56070379 343.9335186 -158.56780267 350.40279168 -158.57910156 356.87207031 C-158.58992803 363.1095448 -158.59593843 369.34700667 -158.59853935 375.58448982 C-158.60039404 377.97004457 -158.60401547 380.35559859 -158.60939217 382.74114799 C-158.6165994 386.06979771 -158.61765319 389.39839458 -158.6171875 392.72705078 C-158.62078278 393.72398453 -158.62437805 394.72091827 -158.62808228 395.74806213 C-158.62670761 396.64975128 -158.62533295 397.55144043 -158.62391663 398.48045349 C-158.62483842 399.26858649 -158.62576021 400.05671949 -158.62670994 400.86873531 C-158.69946866 402.68605748 -158.69946866 402.68605748 -157.50366211 403.6628418 C-152.86350886 403.9169973 -148.21244905 403.84806977 -143.56616211 403.8503418 C-142.25196289 403.86258789 -140.93776367 403.87483398 -139.58374023 403.88745117 C-138.33141602 403.88938477 -137.0790918 403.89131836 -135.78881836 403.89331055 C-134.05450562 403.89947388 -134.05450562 403.89947388 -132.28515625 403.90576172 C-129.36309511 403.95087809 -129.36309511 403.95087809 -127.50366211 401.6628418 C-127.18273742 399.51676019 -127.18273742 399.51676019 -127.19506836 397.04956055 C-127.16993164 396.13110352 -127.14479492 395.21264648 -127.11889648 394.26635742 C-127.0839533 392.33412901 -127.05265789 390.40183093 -127.02514648 388.46948242 C-126.76437352 379.36786993 -126.76437352 379.36786993 -123.50366211 375.6628418 C-118.91606114 372.04221884 -114.64261754 372.19217605 -109.04663086 372.15112305 C-108.14366776 372.13317184 -107.24070465 372.11522064 -106.31037903 372.09672546 C-103.43735367 372.04271159 -100.5644936 372.00875542 -97.69116211 371.9753418 C-95.7386652 371.94216084 -93.78619007 371.90767046 -91.83374023 371.87182617 C-87.05702491 371.78453388 -82.28105564 371.72438974 -77.50366211 371.6628418 C-77.50366211 365.3928418 -77.50366211 359.1228418 -77.50366211 352.6628418 C-80.46592773 352.64866211 -83.42819336 352.63448242 -86.48022461 352.61987305 C-89.35973386 352.58923005 -92.239014 352.55014714 -95.1184082 352.51025391 C-97.1144191 352.48710471 -99.11055162 352.47268543 -101.10668945 352.46728516 C-103.98196936 352.45797309 -106.85534462 352.41693363 -109.73022461 352.36987305 C-111.06182114 352.37577202 -111.06182114 352.37577202 -112.4203186 352.38179016 C-116.69933549 352.28177671 -119.63098762 352.01642945 -123.05200195 349.30615234 C-126.235583 345.87370542 -126.62578563 343.54488867 -126.66137695 339.03955078 C-126.6716391 338.10525742 -126.68190125 337.17096405 -126.69247437 336.20835876 C-126.6997757 335.2020491 -126.70707703 334.19573944 -126.71459961 333.15893555 C-126.74265328 331.03588076 -126.77131762 328.91283398 -126.80053711 326.78979492 C-126.84191623 323.43636167 -126.87879713 320.08308019 -126.9050293 316.72949219 C-126.93251492 313.49732562 -126.97836925 310.265842 -127.02709961 307.03393555 C-127.03035248 306.02560165 -127.03360535 305.01726776 -127.03695679 303.9783783 C-127.06180649 302.58166649 -127.06180649 302.58166649 -127.0871582 301.15673828 C-127.09928848 299.92454811 -127.09928848 299.92454811 -127.11166382 298.66746521 C-127.30570297 297.67517662 -127.30570297 297.67517662 -127.50366211 296.6628418 C-130.97362734 294.34953164 -132.32371805 294.41653078 -136.41381836 294.43237305 C-138.14535156 294.43527344 -138.14535156 294.43527344 -139.91186523 294.43823242 C-141.72074219 294.45660156 -141.72074219 294.45660156 -143.56616211 294.4753418 C-144.77594727 294.47598633 -145.98573242 294.47663086 -147.23217773 294.47729492 C-153.04509655 294.20795776 -153.04509655 294.20795776 -158.50366211 295.6628418 Z M232.49633789 296.6628418 C232.04173295 298.72079052 232.04173295 298.72079052 232.11157227 301.125 C232.10146118 302.04968582 232.0913501 302.97437164 232.08093262 303.92707825 C232.08395386 304.92913803 232.0869751 305.93119781 232.09008789 306.96362305 C232.07925171 307.9921489 232.06841553 309.02067474 232.05725098 310.08036804 C232.02287665 313.37875616 232.00737703 316.67679782 231.99633789 319.9753418 C231.98177769 324.3051029 231.94807538 328.63408873 231.90258789 332.96362305 C231.90560913 333.95961014 231.90863037 334.95559723 231.91174316 335.98176575 C231.81506285 344.91386137 231.81506285 344.91386137 228.49633789 348.6628418 C224.09693988 352.39928173 219.54034643 352.13420409 214.03930664 352.17456055 C212.68486198 352.20148735 212.68486198 352.20148735 211.30305481 352.22895813 C208.43002945 352.28297201 205.55716938 352.31692817 202.68383789 352.3503418 C200.73134098 352.38352275 198.77886585 352.41801313 196.82641602 352.45385742 C192.04970069 352.54114971 187.27373143 352.60129386 182.49633789 352.6628418 C182.49633789 358.9328418 182.49633789 365.2028418 182.49633789 371.6628418 C185.38641602 371.71182617 188.27649414 371.76081055 191.25415039 371.8112793 C194.06409729 371.86534363 196.8739614 371.92262969 199.68383789 371.98022461 C201.63136587 372.01842413 203.57896224 372.05329254 205.52661133 372.0847168 C208.33187235 372.13056376 211.13666628 372.18852545 213.94165039 372.2487793 C214.80750763 372.26033051 215.67336487 372.27188171 216.56546021 372.28378296 C221.2083921 372.39623284 225.19249174 372.7116184 229.49633789 374.6628418 C232.66863298 380.45412469 231.91515811 387.8648078 232.06274414 394.31518555 C232.09239258 395.22913086 232.12204102 396.14307617 232.15258789 397.0847168 C232.180625 398.33140137 232.180625 398.33140137 232.20922852 399.60327148 C232.31635376 401.88466183 232.31635376 401.88466183 234.49633789 403.6628418 C237.3942211 403.95822071 237.3942211 403.95822071 240.78149414 403.89331055 C242.65998047 403.89041016 242.65998047 403.89041016 244.57641602 403.88745117 C245.89061523 403.87520508 247.20481445 403.86295898 248.55883789 403.8503418 C249.8769043 403.84969727 251.1949707 403.84905273 252.55297852 403.84838867 C258.40537714 404.39675303 258.40537714 404.39675303 263.49633789 402.6628418 C263.59176884 401.27140491 263.61822364 399.87515813 263.61659241 398.48045349 C263.61796707 397.57876434 263.61934174 396.6770752 263.62075806 395.74806213 C263.61716278 394.75112839 263.6135675 393.75419464 263.60986328 392.72705078 C263.61000931 391.68327271 263.61015533 390.63949463 263.61030579 389.56408691 C263.60960616 386.09568237 263.60181142 382.62733077 263.59399414 379.15893555 C263.59213014 376.76139861 263.59070615 374.3638613 263.58970642 371.96632385 C263.58587983 365.64188595 263.57604835 359.31747085 263.56500244 352.99304199 C263.55479134 346.54508777 263.55020945 340.09712989 263.54516602 333.64916992 C263.53442621 320.98705079 263.51753908 308.32494751 263.49633789 295.6628418 C259.16199239 293.49566905 253.31963264 294.47787818 248.55883789 294.4753418 C247.35291992 294.4630957 246.14700195 294.45084961 244.90454102 294.43823242 C243.75018555 294.43629883 242.59583008 294.43436523 241.40649414 294.43237305 C240.34567627 294.42826416 239.2848584 294.42415527 238.19189453 294.41992188 C235.27315937 294.4665636 235.27315937 294.4665636 232.49633789 296.6628418 Z M-54.50366211 330.6628418 C-54.50366211 366.9628418 -54.50366211 403.2628418 -54.50366211 440.6628418 C-47.90366211 440.6628418 -41.30366211 440.6628418 -34.50366211 440.6628418 C-34.49749878 436.88520386 -34.49749878 436.88520386 -34.49121094 433.03125 C-34.47401124 424.7090622 -34.42950596 416.38718165 -34.37157154 408.06518269 C-34.33728503 403.01963167 -34.31218897 397.97438397 -34.30810547 392.92871094 C-34.3038261 388.0590135 -34.27539337 383.19000049 -34.23023033 378.32051659 C-34.21724377 376.46303481 -34.21295175 374.60547118 -34.21750832 372.7479496 C-34.22240619 370.14501735 -34.19636006 367.54409177 -34.16308594 364.94140625 C-34.17171158 364.17392059 -34.18033722 363.40643494 -34.18922424 362.61569214 C-34.10899364 358.8703023 -33.7206283 356.93886897 -31.38357067 353.96563435 C-27.87959363 351.16383282 -26.22585485 351.0349955 -21.78588867 351.02792358 C-21.12360889 351.02012363 -20.46132912 351.01232368 -19.77898026 351.00428736 C-17.5668446 350.98439386 -15.35643453 351.00011892 -13.14428711 351.01586914 C-11.55561318 351.00909174 -9.96694711 351.00018792 -8.3782959 350.98931885 C-4.06828026 350.9665331 0.24113667 350.97535861 4.55116272 350.99121428 C9.06252653 351.00387711 13.57383924 350.9921321 18.08520508 350.98428345 C25.66114502 350.97518799 33.23684121 350.98717202 40.81274414 351.01098633 C49.57037769 351.03819749 58.32742923 351.02938325 67.08504868 351.0018543 C74.6053859 350.97916122 82.12554795 350.97596409 89.64590836 350.98904765 C94.13696075 350.9968411 98.62773961 350.99788676 103.11877441 350.9813652 C107.34120413 350.9669167 111.56288382 350.97694846 115.78523254 351.00583649 C117.33440404 351.01244537 118.88363871 351.0105529 120.43278503 350.99952316 C122.54889544 350.98584628 124.66260678 351.00300304 126.77856445 351.02792358 C127.9621051 351.02980871 129.14564575 351.03169384 130.36505127 351.03363609 C134.45357275 351.85519009 135.94900749 353.42209548 138.49633789 356.6628418 C138.99418511 359.61473723 139.18888693 361.99401671 139.15576172 364.94140625 C139.16624542 365.76143631 139.17672913 366.58146637 139.18753052 367.42634583 C139.21624549 370.12665814 139.20999341 372.82568562 139.20336914 375.52612305 C139.21648637 377.40229395 139.23179067 379.27845073 139.24919128 381.15458679 C139.28905133 386.08492478 139.29923238 391.01489342 139.30322266 395.94537354 C139.31255218 400.97956554 139.34996461 406.01354037 139.38500977 411.04760742 C139.4495962 420.91939318 139.48023145 430.79085776 139.49633789 440.6628418 C146.09633789 440.6628418 152.69633789 440.6628418 159.49633789 440.6628418 C159.49633789 404.3628418 159.49633789 368.0628418 159.49633789 330.6628418 C88.87633789 330.6628418 18.25633789 330.6628418 -54.50366211 330.6628418 Z M-11.50366211 373.6628418 C-11.50366211 395.7728418 -11.50366211 417.8828418 -11.50366211 440.6628418 C30.73633789 440.6628418 72.97633789 440.6628418 116.49633789 440.6628418 C116.49633789 418.5528418 116.49633789 396.4428418 116.49633789 373.6628418 C106.59633789 373.6628418 96.69633789 373.6628418 86.49633789 373.6628418 C86.32608269 382.98126478 86.32608269 382.98126478 86.19848633 392.30029297 C86.16787109 393.46536377 86.13725586 394.63043457 86.10571289 395.83081055 C86.08476562 397.01956787 86.06381836 398.2083252 86.04223633 399.43310547 C85.39828487 403.24295961 84.17169378 404.92645357 81.49633789 407.6628418 C78.11301041 409.15931357 74.39603617 408.76183878 70.74633789 408.7253418 C69.57586914 408.71631836 68.40540039 408.70729492 67.19946289 408.69799805 C66.30743164 408.68639648 65.41540039 408.67479492 64.49633789 408.6628418 C64.51954102 409.84362305 64.54274414 411.0244043 64.56665039 412.2409668 C64.58541286 413.79825213 64.60361255 415.35554431 64.62133789 416.9128418 C64.6380957 417.69014648 64.65485352 418.46745117 64.67211914 419.26831055 C64.72095239 424.9818002 63.95893444 427.81308734 60.37133789 432.3503418 C56.79854945 435.22410642 54.0666566 436.13686702 49.49633789 435.6628418 C45.70073431 433.69475105 43.86746569 432.21953349 41.49633789 428.6628418 C41.17749023 426.48632812 41.17749023 426.48632812 41.08227539 423.99487305 C41.02426758 422.65585937 41.02426758 422.65585937 40.96508789 421.28979492 C40.93415039 420.36102539 40.90321289 419.43225586 40.87133789 418.4753418 C40.81333008 417.06478516 40.81333008 417.06478516 40.75415039 415.62573242 C40.65990602 413.30496469 40.57429764 410.98420432 40.49633789 408.6628418 C39.6880957 408.61385742 38.87985352 408.56487305 38.04711914 408.5144043 C36.97848633 408.43963867 35.90985352 408.36487305 34.80883789 408.2878418 C33.7530957 408.21823242 32.69735352 408.14862305 31.60961914 408.0769043 C28.51150226 407.66485864 26.24109366 407.15298941 23.49633789 405.6628418 C21.22936349 402.26610796 21.19176438 399.16181313 21.08227539 395.1472168 C21.04666504 394.02025391 21.01105469 392.89329102 20.97436523 391.73217773 C20.94036621 390.30679687 20.90636719 388.88141602 20.87133789 387.4128418 C20.74758789 382.8753418 20.62383789 378.3378418 20.49633789 373.6628418 C9.93633789 373.6628418 -0.62366211 373.6628418 -11.50366211 373.6628418 Z M44.49633789 373.6628418 C44.49633789 377.6228418 44.49633789 381.5828418 44.49633789 385.6628418 C50.43633789 385.6628418 56.37633789 385.6628418 62.49633789 385.6628418 C62.49633789 381.7028418 62.49633789 377.7428418 62.49633789 373.6628418 C56.55633789 373.6628418 50.61633789 373.6628418 44.49633789 373.6628418 Z " fill="currentColor" transform="translate(197.503662109375,17.337158203125)"/>
<path d="M0 0 C11.85735943 0.01488957 23.71429682 0.05654957 35.57143402 0.13209057 C41.07762567 0.1663353 46.58354058 0.19146669 52.08984375 0.19555664 C57.4069146 0.1998449 62.72336145 0.22835205 68.04023743 0.27343178 C70.06549949 0.2863898 72.09083628 0.29072049 74.11613464 0.28615379 C76.96026419 0.28123581 79.80257841 0.30739334 82.64648438 0.34057617 C83.47799011 0.33195053 84.30949585 0.32332489 85.16619873 0.31443787 C91.24431114 0.43279101 95.24642726 2.22358514 100 6 C103 9.28125 103 9.28125 103 12 C103.99 12.495 103.99 12.495 105 13 C105.22297226 15.87453422 105.42878171 18.7486182 105.625 21.625 C105.68945312 22.43324219 105.75390625 23.24148437 105.8203125 24.07421875 C106.12931281 28.8250985 106.13623576 32.60957681 104 37 C102.125 38.828125 102.125 38.828125 100 40.25 C97.78150794 41.76705707 95.90700636 43.09299364 94 45 C93.34 44.67 92.68 44.34 92 44 C91.505 44.99 91.505 44.99 91 46 C79.95974058 46.06970034 68.91953405 46.12291274 57.87909889 46.15543652 C52.75183938 46.17105116 47.62473109 46.19221232 42.49755859 46.22631836 C37.54383241 46.2590621 32.59025113 46.27688457 27.63642502 46.28463173 C25.75231014 46.29014838 23.86820264 46.3009207 21.98414993 46.31719017 C-1.09755593 46.50847023 -1.09755593 46.50847023 -6.97348022 41.22575378 C-11 36.86586701 -11 36.86586701 -11 34 C-11.66 33.67 -12.32 33.34 -13 33 C-13.02894547 29.54168414 -13.04678 26.08339928 -13.0625 22.625 C-13.07087891 21.64015625 -13.07925781 20.6553125 -13.08789062 19.640625 C-13.09111328 18.69960937 -13.09433594 17.75859375 -13.09765625 16.7890625 C-13.10289307 15.91975098 -13.10812988 15.05043945 -13.11352539 14.15478516 C-13 12 -13 12 -12 10 C-11.34 10 -10.68 10 -10 10 C-9.773125 9.4225 -9.54625 8.845 -9.3125 8.25 C-7.64018419 5.3831729 -5.72780269 3.86288964 -3 2 C-2.01 2 -1.02 2 0 2 C0 1.34 0 0.68 0 0 Z M4 19 C3.83946185 20.87321948 3.83946185 20.87321948 3.875 23 C3.87242187 23.721875 3.86984375 24.44375 3.8671875 25.1875 C3.80304724 27.02089415 3.80304724 27.02089415 5 28 C7.55051474 28.10037731 10.07397179 28.13617487 12.625 28.12939453 C13.42333252 28.13114685 14.22166504 28.13289917 15.04418945 28.13470459 C17.6961481 28.13912367 20.34804062 28.13618492 23 28.1328125 C24.83463555 28.13348552 26.66927101 28.13445553 28.50390625 28.13571167 C32.35417528 28.13718872 36.20442116 28.13503386 40.0546875 28.13037109 C45.00156497 28.1246738 49.94838819 28.12795277 54.89526367 28.13394356 C58.68522555 28.13754898 62.47517446 28.13641067 66.26513672 28.13381577 C68.08968105 28.13314644 69.91422655 28.1339751 71.73876953 28.13629532 C74.28421161 28.13882154 76.82956459 28.1349817 79.375 28.12939453 C80.51739136 28.13243088 80.51739136 28.13243088 81.68286133 28.13552856 C85.13096549 28.43319095 85.13096549 28.43319095 88 27 C88.16053815 25.12678052 88.16053815 25.12678052 88.125 23 C88.12757813 22.278125 88.13015625 21.55625 88.1328125 20.8125 C88.19695276 18.97910585 88.19695276 18.97910585 87 18 C84.44948526 17.89962269 81.92602821 17.86382513 79.375 17.87060547 C78.57666748 17.86885315 77.77833496 17.86710083 76.95581055 17.86529541 C74.3038519 17.86087633 71.65195938 17.86381508 69 17.8671875 C67.16536445 17.86651448 65.33072899 17.86554447 63.49609375 17.86428833 C59.64582472 17.86281128 55.79557884 17.86496614 51.9453125 17.86962891 C46.99843503 17.8753262 42.05161181 17.87204723 37.10473633 17.86605644 C33.31477445 17.86245102 29.52482554 17.86358933 25.73486328 17.86618423 C23.91031895 17.86685356 22.08577345 17.8660249 20.26123047 17.86370468 C17.71578839 17.86117846 15.17043541 17.8650183 12.625 17.87060547 C11.48260864 17.86756912 11.48260864 17.86756912 10.31713867 17.86447144 C6.86903451 17.56680905 6.86903451 17.56680905 4 19 Z " fill="currentColor" transform="translate(204,147)"/>
<path d="M0 0 C4.95 0 9.9 0 15 0 C15.33 0.66 15.66 1.32 16 2 C11.05 2.33 6.1 2.66 1 3 C0.67 2.01 0.34 1.02 0 0 Z " fill="currentColor" transform="translate(227,458)"/>
<path d="M0 0 C0.33 0 0.66 0 1 0 C1 1.98 1 3.96 1 6 C0.67 6 0.34 6 0 6 C0 4.02 0 2.04 0 0 Z " fill="currentColor" transform="translate(338,440)"/>
<path d="M0 0 C1 4 1 4 1 4 Z " fill="currentColor" transform="translate(338,402)"/>
<path d="M0 0 C1 4 1 4 1 4 Z " fill="currentColor" transform="translate(338,383)"/>
</svg>
