<svg version="1.1" xmlns="http://www.w3.org/2000/svg" width="100" height="100" viewBox="0 0 256 256">
<path d="M0 0 C0.77429855 -0.00335861 1.54859711 -0.00671722 2.34635925 -0.01017761 C4.90808716 -0.0196831 7.46974969 -0.02163047 10.03149414 -0.02270508 C11.81124397 -0.02591774 13.59099353 -0.02928182 15.3707428 -0.03279114 C19.10231132 -0.03878125 22.83385669 -0.04063114 26.56542969 -0.04003906 C31.34832999 -0.0399374 36.13108197 -0.05359432 40.91394711 -0.07081127 C44.58993717 -0.08192592 48.26589129 -0.08395844 51.94189644 -0.08342934 C53.70535354 -0.08461008 55.46881155 -0.08903713 57.23225212 -0.0967617 C59.69790945 -0.10655159 62.1632438 -0.10368766 64.62890625 -0.09765625 C65.35787109 -0.10327576 66.08683594 -0.10889526 66.83789062 -0.11468506 C70.48810175 -0.09197874 73.33753446 0.00622447 76.37915039 2.14526367 C77.6209256 4.62881408 77.4995172 6.27633989 77.49267578 9.05395508 C77.49260025 10.07486237 77.49252472 11.09576965 77.4924469 12.14761353 C77.48728561 13.2528537 77.48212433 14.35809387 77.47680664 15.49682617 C77.47468422 17.19057877 77.47468422 17.19057877 77.47251892 18.91854858 C77.46690783 22.53581356 77.45435342 26.15301731 77.44165039 29.77026367 C77.43663682 32.21817945 77.43207367 34.66609619 77.42797852 37.11401367 C77.41693479 43.12445133 77.40018583 49.13485313 77.37915039 55.14526367 C78.95212891 55.11384277 78.95212891 55.11384277 80.55688477 55.08178711 C84.47796774 55.00893875 88.39899188 54.96330256 92.32055664 54.92553711 C94.0120655 54.90552307 95.70350606 54.87830294 97.39477539 54.84350586 C99.83765593 54.79453302 102.2796155 54.77219334 104.72290039 54.75463867 C105.46906616 54.73399353 106.21523193 54.71334839 106.98400879 54.69207764 C113.5500568 54.68932296 118.60919409 56.80479537 123.62133789 61.03979492 C124.16016602 61.67272461 124.69899414 62.3056543 125.25415039 62.95776367 C125.80844727 63.58295898 126.36274414 64.2081543 126.93383789 64.85229492 C128.79600334 67.80659524 129.54129291 70.77349738 130.37915039 74.14526367 C132.16772461 74.11045898 132.16772461 74.11045898 133.99243164 74.07495117 C135.55883163 74.05619189 137.12523839 74.03799186 138.69165039 74.02026367 C139.47733398 74.00350586 140.26301758 73.98674805 141.07250977 73.96948242 C141.82983398 73.96303711 142.5871582 73.9565918 143.36743164 73.94995117 C144.06392822 73.93947754 144.7604248 73.92900391 145.47802734 73.91821289 C147.37915039 74.14526367 147.37915039 74.14526367 150.37915039 76.14526367 C151.47620377 79.43642381 151.50771258 81.85968381 151.51286316 85.32554626 C151.51926064 87.26673088 151.51926064 87.26673088 151.52578735 89.24713135 C151.52543783 90.68444827 151.52497629 92.12176517 151.52441406 93.55908203 C151.52740567 95.0702574 151.5308082 96.581432 151.53459167 98.09260559 C151.54343523 102.20000762 151.54576992 106.30738882 151.54640746 110.41479945 C151.54735636 113.84184285 151.55103439 117.26888138 151.55457956 120.69592291 C151.56272529 128.77986908 151.56516366 136.86380411 151.56445312 144.94775391 C151.56385213 153.2916628 151.57440806 161.63550708 151.59019679 169.97939962 C151.60326365 177.13955138 151.60863739 184.299682 151.60799772 191.4598456 C151.6077425 195.73787586 151.61060681 200.01584871 151.62117577 204.29386711 C151.63084252 208.31657786 151.63094575 212.33917613 151.62365913 216.36189079 C151.62261155 217.83892989 151.62498645 219.31597594 151.63101959 220.79300308 C151.63871754 222.80798709 151.63290529 224.82300927 151.62638855 226.83799744 C151.62693332 227.96606277 151.62747808 229.09412809 151.62803936 230.25637722 C151.3802064 233.1330064 151.03207419 234.79248731 149.37915039 237.14526367 C145.38515868 238.47659424 141.55372313 238.28634071 137.38954163 238.27897644 C136.45875068 238.281242 135.52795973 238.28350755 134.56896299 238.28584176 C131.43675062 238.29219345 128.30458139 238.29135165 125.17236328 238.29052734 C122.93213342 238.29351808 120.69190408 238.29692041 118.45167542 238.30070496 C112.35673479 238.30955729 106.2618082 238.31188357 100.16686177 238.31252074 C95.08459049 238.31346881 90.00232249 238.31714589 84.92005247 238.32069284 C73.61865572 238.32837611 62.31726563 238.33136103 51.01586706 238.33068749 C50.33757917 238.33064753 49.65929129 238.33060757 48.96044922 238.33056641 C48.2813348 238.33052553 47.60222038 238.33048464 46.90252673 238.33044253 C35.89291047 238.33003595 24.88332839 238.33960823 13.87372202 238.35370477 C2.573482 238.36805948 -8.72674184 238.37479221 -20.02699286 238.374111 C-26.37299571 238.37385555 -32.71895988 238.37673237 -39.06495476 238.38728905 C-45.0312509 238.39694279 -50.99747116 238.39706798 -56.96376991 238.38977242 C-59.15678391 238.38872321 -61.34980256 238.39110925 -63.54280853 238.39713287 C-66.53004842 238.40480832 -69.51702334 238.40023757 -72.5042572 238.39250183 C-73.37769569 238.39764539 -74.25113418 238.40278896 -75.15104049 238.40808839 C-76.35153293 238.40119019 -76.35153293 238.40119019 -77.57627773 238.39415264 C-78.26574252 238.39437001 -78.9552073 238.39458738 -79.66556495 238.39481133 C-82.04449576 238.09119487 -83.60911553 237.44803319 -85.62084961 236.14526367 C-86.71790299 232.85410354 -86.7494118 230.43084353 -86.75456238 226.96498108 C-86.75882736 225.670858 -86.76309235 224.37673492 -86.76748657 223.043396 C-86.76713705 221.60607907 -86.76667551 220.16876217 -86.76611328 218.73144531 C-86.76910489 217.22026995 -86.77250742 215.70909534 -86.77629089 214.19792175 C-86.78513445 210.09051972 -86.78746914 205.98313852 -86.78810668 201.87572789 C-86.78905558 198.44868449 -86.79273361 195.02164596 -86.79627877 191.59460443 C-86.80442451 183.51065827 -86.80686288 175.42672324 -86.80615234 167.34277344 C-86.80555135 158.99886455 -86.81610728 150.65502026 -86.83189601 142.31112772 C-86.84496287 135.15097596 -86.85033661 127.99084534 -86.84969693 120.83068174 C-86.84944172 116.55265148 -86.85230602 112.27467864 -86.86287498 107.99666023 C-86.87254174 103.97394948 -86.87264497 99.95135122 -86.86535835 95.92863655 C-86.86431077 94.45159745 -86.86668567 92.97455141 -86.87271881 91.49752426 C-86.88041676 89.48254026 -86.87460451 87.46751808 -86.86808777 85.45252991 C-86.86863254 84.32446458 -86.8691773 83.19639925 -86.86973858 82.03415012 C-86.62311626 79.17157302 -86.20142275 77.52178505 -84.62084961 75.14526367 C-81.72170049 73.69568911 -79.20656661 74.02593443 -75.96801758 74.03173828 C-74.94345459 74.03151924 -74.94345459 74.03151924 -73.89819336 74.03129578 C-71.6364425 74.03199345 -69.37477361 74.03977902 -67.11303711 74.04760742 C-65.54647873 74.04947212 -63.97991977 74.05089578 -62.4133606 74.05189514 C-58.28695063 74.05571625 -54.16057577 74.06554307 -50.03417969 74.07659912 C-45.08491237 74.08861884 -40.13563332 74.09321742 -35.18635559 74.09905243 C-27.66449583 74.10875503 -20.14271313 74.12791442 -12.62084961 74.14526367 C-12.62084961 58.30526367 -12.62084961 42.46526367 -12.62084961 26.14526367 C-17.11709961 26.22776367 -21.61334961 26.31026367 -26.24584961 26.39526367 C-28.35660889 26.4189502 -28.35660889 26.4189502 -30.51000977 26.44311523 C-39.39246429 26.58743034 -39.39246429 26.58743034 -46.62084961 31.14526367 C-49.77977477 34.83067635 -50.16031662 38.22575697 -49.95678711 42.93041992 C-49.39595358 46.6280084 -48.22469975 48.477905 -45.62084961 51.14526367 C-39.43565583 54.90952242 -31.75751606 54.595719 -24.74145508 54.76757812 C-18.82100961 54.94510367 -18.82100961 54.94510367 -16.62084961 57.14526367 C-16.87084961 60.70776367 -16.87084961 60.70776367 -17.62084961 64.14526367 C-21.5290152 66.09934646 -26.3227158 65.46138513 -30.62084961 65.52026367 C-31.6250293 65.55764648 -32.62920898 65.5950293 -33.66381836 65.63354492 C-41.76282508 65.72784125 -48.39022968 63.93174956 -54.5324707 58.43432617 C-59.29570011 53.43484059 -61.68343103 47.63973955 -62.05834961 40.77026367 C-61.80910909 34.2220356 -59.4402634 28.41953091 -55.37084961 23.33276367 C-48.31571225 17.72072259 -43.215805 15.00619569 -34.10522461 15.04760742 C-32.85483398 15.05083008 -31.60444336 15.05405273 -30.31616211 15.05737305 C-28.36323242 15.06994141 -28.36323242 15.06994141 -26.37084961 15.08276367 C-24.3947168 15.08953125 -24.3947168 15.08953125 -22.37866211 15.09643555 C-19.1260122 15.10822051 -15.87345376 15.12467356 -12.62084961 15.14526367 C-12.64405273 14.38600586 -12.66725586 13.62674805 -12.69116211 12.84448242 C-12.70920898 11.85061523 -12.72725586 10.85674805 -12.74584961 9.83276367 C-12.76905273 8.84663086 -12.79225586 7.86049805 -12.81616211 6.84448242 C-12.62084961 4.14526367 -12.62084961 4.14526367 -10.62084961 1.14526367 C-7.02428988 -0.05358957 -3.74346404 -0.00232081 0 0 Z M-1.62084961 11.14526367 C-1.62084961 49.75526367 -1.62084961 88.36526367 -1.62084961 128.14526367 C1.01915039 128.80526367 3.65915039 129.46526367 6.37915039 130.14526367 C7.9616103 133.31018349 7.62081262 136.73568452 7.69555664 140.21557617 C7.71420776 140.92125732 7.73285889 141.62693848 7.7520752 142.35400391 C7.82042528 144.99262859 7.88054056 147.63146138 7.94165039 150.27026367 C8.15821289 159.11838867 8.15821289 159.11838867 8.37915039 168.14526367 C24.21915039 168.14526367 40.05915039 168.14526367 56.37915039 168.14526367 C56.70915039 161.21526367 57.03915039 154.28526367 57.37915039 147.14526367 C58.36915039 146.15526367 59.35915039 145.16526367 60.37915039 144.14526367 C63.00415039 144.33276367 63.00415039 144.33276367 65.37915039 145.14526367 C66.77801364 147.94299017 66.50889636 150.2691526 66.51196289 153.39526367 C66.51325195 154.64307617 66.51454102 155.89088867 66.51586914 157.17651367 C66.51200195 158.48620117 66.50813477 159.79588867 66.50415039 161.14526367 C66.50801758 162.45495117 66.51188477 163.76463867 66.51586914 165.11401367 C66.51393555 166.98573242 66.51393555 166.98573242 66.51196289 168.89526367 C66.51083496 170.04510742 66.50970703 171.19495117 66.50854492 172.37963867 C66.37915039 175.14526367 66.37915039 175.14526367 65.37915039 177.14526367 C62.73054612 177.73881981 60.08717717 177.88735636 57.37915039 178.14526367 C57.61891602 179.7462793 57.61891602 179.7462793 57.86352539 181.37963867 C58.39880856 187.88942035 58.2544185 193.40198424 54.46557617 198.94458008 C40.76240977 215.04475296 40.76240977 215.04475296 33.1887207 216.94628906 C30.37915039 217.14526367 30.37915039 217.14526367 28.50024414 216.16870117 C27.9446582 215.6247168 27.38907227 215.08073242 26.81665039 214.52026367 C26.15407227 213.88475586 25.49149414 213.24924805 24.80883789 212.59448242 C24.00704102 211.78624023 23.20524414 210.97799805 22.37915039 210.14526367 C21.25773658 209.04660417 20.13526168 207.9490271 19.01196289 206.85229492 C8.30184625 196.31962921 8.30184625 196.31962921 7.81665039 186.52026367 C7.751875 185.31756836 7.751875 185.31756836 7.68579102 184.09057617 C7.57963582 182.10901257 7.47888184 180.12716097 7.37915039 178.14526367 C5.43008789 177.95963867 5.43008789 177.95963867 3.44165039 177.77026367 C1.22680664 177.55932617 1.22680664 177.55932617 -0.62084961 177.14526367 C-2.20315769 173.98064752 -1.86242774 170.55447 -1.93725586 167.07495117 C-1.95803696 166.27872345 -1.97881805 165.48249573 -2.00022888 164.66213989 C-2.0656911 162.11493682 -2.12459376 159.56762942 -2.18334961 157.02026367 C-2.22653801 155.2949924 -2.2701524 153.56973174 -2.31420898 151.84448242 C-2.42136905 147.61151683 -2.52264584 143.37844614 -2.62084961 139.14526367 C-3.73459961 139.04213867 -4.84834961 138.93901367 -5.99584961 138.83276367 C-7.19209961 138.60588867 -8.38834961 138.37901367 -9.62084961 138.14526367 C-11.77753797 134.91023113 -11.88314005 133.95704631 -11.93969727 130.21484375 C-11.9597583 129.20006958 -11.97981934 128.18529541 -12.00048828 127.13977051 C-12.01184814 126.07552856 -12.02320801 125.01128662 -12.03491211 123.91479492 C-12.05255615 122.93490601 -12.0702002 121.95501709 -12.08837891 120.94543457 C-12.15147234 117.28304492 -12.19764076 113.62037949 -12.24584961 109.95776367 C-12.36959961 101.76963867 -12.49334961 93.58151367 -12.62084961 85.14526367 C-33.41084961 85.14526367 -54.20084961 85.14526367 -75.62084961 85.14526367 C-75.62084961 132.00526367 -75.62084961 178.86526367 -75.62084961 227.14526367 C-4.34084961 227.14526367 66.93915039 227.14526367 140.37915039 227.14526367 C140.37915039 180.28526367 140.37915039 133.42526367 140.37915039 85.14526367 C121.23915039 84.81526367 102.09915039 84.48526367 82.37915039 84.14526367 C82.37915039 81.83526367 82.37915039 79.52526367 82.37915039 77.14526367 C86.03577943 74.70751098 88.87330468 74.79839823 93.10961914 74.73120117 C93.86003983 74.71183502 94.61046051 74.69246887 95.38362122 74.67251587 C97.77784906 74.61278908 100.17212517 74.56636302 102.56665039 74.52026367 C104.19102019 74.48207747 105.81536987 74.44302536 107.43969727 74.40307617 C111.41935144 74.30709343 115.3991004 74.22303731 119.37915039 74.14526367 C117.07382348 70.14849293 115.23802235 67.11829345 110.69848633 65.57324219 C107.51172462 64.98520079 104.44719777 65.03432905 101.20727539 65.04760742 C100.18364899 65.04972984 100.18364899 65.04972984 99.13934326 65.05189514 C96.96923355 65.05747283 94.79922869 65.07002113 92.62915039 65.08276367 C91.15389147 65.08778156 89.67863092 65.09234396 88.20336914 65.09643555 C84.59526241 65.10743493 80.98721664 65.12468414 77.37915039 65.14526367 C77.36702011 66.45071892 77.36702011 66.45071892 77.35464478 67.782547 C77.27675015 75.97863318 77.18947509 84.17455395 77.09162331 92.37042713 C77.04164691 96.58415742 76.99531708 100.79786247 76.95727539 105.01171875 C76.92043942 109.07723969 76.87408425 113.1425502 76.82108688 117.20789146 C76.80253391 118.76000978 76.78742928 120.31217322 76.77580643 121.8643589 C76.75895916 124.03609457 76.72992874 126.20734734 76.69799805 128.37890625 C76.68467438 129.6157869 76.67135071 130.85266754 76.65762329 132.12702942 C76.37915039 135.14526367 76.37915039 135.14526367 74.37915039 138.14526367 C71.82284546 138.50602722 71.82284546 138.50602722 68.55249023 138.48583984 C67.33137543 138.48561325 66.11026062 138.48538666 64.85214233 138.4851532 C63.51478716 138.46983219 62.17743569 138.45418418 60.84008789 138.43823242 C59.47531601 138.43263789 58.11053811 138.42836712 56.74575806 138.42536926 C53.15184932 138.41390908 49.55830373 138.38443238 45.96453857 138.35125732 C42.29810499 138.32058138 38.63161279 138.30686926 34.96508789 138.29174805 C27.76960975 138.25956331 20.57443093 138.2083534 13.37915039 138.14526367 C13.37915039 135.83526367 13.37915039 133.52526367 13.37915039 131.14526367 C29.20599116 123.23184328 48.68788823 128.50630984 66.37915039 128.14526367 C66.37915039 89.53526367 66.37915039 50.92526367 66.37915039 11.14526367 C43.93915039 11.14526367 21.49915039 11.14526367 -1.62084961 11.14526367 Z M18.37915039 179.14526367 C17.22329192 190.33318743 17.22329192 190.33318743 21.22290039 195.16088867 C22.4120221 196.27160675 23.63188587 197.35025826 24.87915039 198.39526367 C25.49918945 198.96116211 26.11922852 199.52706055 26.75805664 200.11010742 C28.27226298 201.48454087 29.82227707 202.81935507 31.37915039 204.14526367 C35.18063164 202.00136524 38.44985451 199.63258396 41.69165039 196.70776367 C42.5746582 195.94592773 43.45766602 195.1840918 44.36743164 194.39916992 C47.43087518 190.08171788 47.43087518 190.08171788 46.37915039 179.14526367 C37.13915039 179.14526367 27.89915039 179.14526367 18.37915039 179.14526367 Z " fill="currentColor" transform="translate(95.620849609375,8.854736328125)"/>
<path d="M0 0 C4.29 0 8.58 0 13 0 C15.06015502 4.12031004 15.25097037 5.82229489 15.25396729 10.30053711 C15.26242676 12.24378372 15.26242676 12.24378372 15.27105713 14.22628784 C15.26716861 15.6599737 15.26307228 17.09365901 15.25878906 18.52734375 C15.26149941 20.03866749 15.26506059 21.5499899 15.26940918 23.06130981 C15.27853029 27.16454937 15.27499008 31.2676884 15.26865101 35.37092972 C15.26358959 39.66387453 15.26828286 43.95681071 15.27142334 48.24975586 C15.27506257 55.45916286 15.27026502 62.6685289 15.26074219 69.87792969 C15.24985772 78.21448137 15.25338332 86.55093524 15.264395 94.88748455 C15.2734691 102.04341564 15.27475255 109.19931728 15.26951766 116.35525227 C15.26639864 120.62990739 15.26598676 124.90451653 15.27259064 129.1791687 C15.27836526 133.19779925 15.27436509 137.21630359 15.26280212 141.2349205 C15.26015616 142.71034409 15.26091955 144.18577829 15.26532745 145.66119766 C15.27078655 147.6739489 15.26272928 149.68672332 15.25396729 151.69946289 C15.25283621 153.38961266 15.25283621 153.38961266 15.25168228 155.11390686 C15.00108175 157.9875953 14.65076428 159.64886149 13 162 C9.00600829 163.33133057 5.17457274 163.14107703 1.01039124 163.13371277 C0.07960029 163.13597833 -0.85119066 163.13824388 -1.8101874 163.14057809 C-4.94239977 163.14692978 -8.074569 163.14608798 -11.20678711 163.14526367 C-13.44701697 163.14825441 -15.68724631 163.15165674 -17.92747498 163.15544128 C-24.0224156 163.16429362 -30.11734219 163.1666199 -36.21228862 163.16725707 C-41.2945599 163.16820514 -46.3768279 163.17188222 -51.45909792 163.17542917 C-62.76049467 163.18311244 -74.06188477 163.18609736 -85.36328333 163.18542381 C-86.04157122 163.18538386 -86.71985911 163.1853439 -87.41870117 163.18530273 C-88.09781559 163.18526185 -88.77693002 163.18522097 -89.47662366 163.18517885 C-100.48623992 163.18477228 -111.495822 163.19434455 -122.50542837 163.2084411 C-133.80566839 163.22279581 -145.10589223 163.22952854 -156.40614325 163.22884732 C-162.7521461 163.22859188 -169.09811027 163.23146869 -175.44410515 163.24202538 C-181.41040129 163.25167911 -187.37662155 163.25180431 -193.3429203 163.24450874 C-195.5359343 163.24345954 -197.72895295 163.24584557 -199.92195892 163.2518692 C-202.90919881 163.25954464 -205.89617373 163.2549739 -208.88340759 163.24723816 C-209.75684608 163.25238172 -210.63028457 163.25752529 -211.53019089 163.26282471 C-212.73068332 163.25592652 -212.73068332 163.25592652 -213.95542812 163.24888897 C-214.64489291 163.24910634 -215.33435769 163.24932371 -216.04471534 163.24954766 C-218.42364615 162.94593119 -219.98826592 162.30276952 -222 161 C-223.10077208 157.69768375 -223.12308443 155.27076853 -223.12025452 151.7928009 C-223.12162918 150.49289719 -223.12300385 149.19299347 -223.12442017 147.85369873 C-223.120881 146.41003395 -223.11724619 144.9663694 -223.11352539 143.52270508 C-223.11324337 142.00504051 -223.11340155 140.4873758 -223.1139679 138.9697113 C-223.11425528 134.84604161 -223.10836796 130.7224009 -223.10139394 126.59873796 C-223.09515071 122.29057349 -223.09455583 117.9824084 -223.09336853 113.67424011 C-223.09025808 105.51449473 -223.08204853 97.35476272 -223.07201904 89.19502324 C-223.06084903 79.90613586 -223.05534521 70.61724785 -223.05032361 61.32835543 C-223.0398657 42.21889604 -223.02227178 23.10944909 -223 4 C-222.34 3.67 -221.68 3.34 -221 3 C-220.99365209 4.20459067 -220.99365209 4.20459067 -220.98717594 5.4335165 C-220.88401475 24.94498186 -220.77539912 44.45640982 -220.66066074 63.96781063 C-220.60530736 73.40325094 -220.55182195 82.83869502 -220.50268555 92.27416992 C-220.45986955 100.49506059 -220.4135982 108.71592317 -220.36312145 116.9367705 C-220.33649961 121.29240674 -220.31164611 125.64803733 -220.29092598 130.00370598 C-220.27139192 134.09859344 -220.24725804 138.19342735 -220.21950912 142.28826714 C-220.21012151 143.79557832 -220.20245243 145.30290128 -220.19658089 146.81023026 C-220.18834875 148.85930427 -220.17348313 150.90834851 -220.15821838 152.9573822 C-220.15176583 154.10685805 -220.14531328 155.2563339 -220.1386652 156.44064236 C-220.28931399 158.93329151 -220.28931399 158.93329151 -219 160 C-216.04399785 160.10020519 -213.11128268 160.13438289 -210.15478516 160.12698364 C-209.21541925 160.12854363 -208.27605335 160.13010362 -207.30822182 160.13171089 C-204.13515313 160.13572521 -200.96213161 160.13252958 -197.7890625 160.12939453 C-195.52455619 160.13074838 -193.2600501 160.13252822 -190.99554443 160.13470459 C-184.8263063 160.13928087 -178.65708481 160.13748857 -172.48784637 160.1343255 C-166.04739841 160.1318029 -159.60695192 160.13413916 -153.16650391 160.13571167 C-141.6546764 160.13765054 -130.14285744 160.1345327 -118.63103127 160.12945233 C-108.18305354 160.12498429 -97.73508691 160.12576022 -87.28710938 160.13037109 C-75.16840309 160.13571675 -63.04970553 160.13771775 -50.93099785 160.13475883 C-44.5107382 160.13319559 -38.09048621 160.13300355 -31.67022705 160.13629532 C-25.63585901 160.13917283 -19.60151205 160.13720057 -13.5671463 160.13140106 C-11.34546188 160.13007281 -9.12377571 160.13046867 -6.90209198 160.13266373 C-3.88310854 160.1353727 -0.86419383 160.13199722 2.15478516 160.12698364 C3.0461083 160.12921436 3.93743145 160.13144509 4.85576439 160.13374341 C8.73985344 160.50588338 8.73985344 160.50588338 12 159 C12.10900658 156.98805453 12.146908 154.97224673 12.15821838 152.9573822 C12.1680072 151.64339951 12.17779602 150.32941681 12.18788147 148.97561646 C12.19378645 147.5057987 12.19959684 146.03598057 12.20532227 144.56616211 C12.21489527 143.02908562 12.22490499 141.4920118 12.23532104 139.9549408 C12.26243889 135.76920008 12.28341107 131.58344801 12.30332303 127.39766765 C12.32514031 123.02807576 12.35254976 118.65851915 12.37937927 114.28895569 C12.42936393 106.0087551 12.47428126 97.728535 12.51740164 89.44829613 C12.56672478 80.02400336 12.62166111 70.59974598 12.67708123 61.1754874 C12.79098986 41.78369109 12.89780946 22.39186142 13 3 C10.43106162 1.71553081 8.23423663 1.67022856 5.375 1.4375 C4.37210938 1.35371094 3.36921875 1.26992187 2.3359375 1.18359375 C1.17964844 1.09271484 1.17964844 1.09271484 0 1 C0 0.67 0 0.34 0 0 Z " fill="currentColor" transform="translate(232,84)"/>
<path d="M0 0 C1.10601562 -0.01611328 2.21203125 -0.03222656 3.3515625 -0.04882812 C4.41117188 -0.04947266 5.47078125 -0.05011719 6.5625 -0.05078125 C7.53316406 -0.05376221 8.50382812 -0.05674316 9.50390625 -0.05981445 C12 0.3125 12 0.3125 13.81713867 1.49536133 C15.44494402 3.9960332 15.37240767 5.77824148 15.36328125 8.75 C15.36263672 9.80960938 15.36199219 10.86921875 15.36132812 11.9609375 C15.34521484 13.06695312 15.32910156 14.17296875 15.3125 15.3125 C15.31733398 16.97152344 15.31733398 16.97152344 15.32226562 18.6640625 C15.26707949 26.91188076 15.26707949 26.91188076 13 30.3125 C10.41796875 30.68481445 10.41796875 30.68481445 7.1875 30.67578125 C5.45113281 30.67481445 5.45113281 30.67481445 3.6796875 30.67382812 C2.46539062 30.65771484 1.25109375 30.64160156 0 30.625 C-1.21429688 30.62822266 -2.42859375 30.63144531 -3.6796875 30.63476562 C-12.73318452 30.57931548 -12.73318452 30.57931548 -15 28.3125 C-15.45906021 23.99692601 -15.32401051 19.64965845 -15.3125 15.3125 C-15.32861328 14.09820312 -15.34472656 12.88390625 -15.36132812 11.6328125 C-15.36197266 10.47523437 -15.36261719 9.31765625 -15.36328125 8.125 C-15.36626221 7.05894531 -15.36924316 5.99289063 -15.37231445 4.89453125 C-15.24945068 4.04246094 -15.12658691 3.19039062 -15 2.3125 C-10.32754625 -0.80246916 -5.49414246 -0.01600857 0 0 Z M-5 11.3125 C-5 14.2825 -5 17.2525 -5 20.3125 C-2.03 20.3125 0.94 20.3125 4 20.3125 C4 17.3425 4 14.3725 4 11.3125 C1.03 11.3125 -1.94 11.3125 -5 11.3125 Z " fill="currentColor" transform="translate(138,33.6875)"/>
<path d="M0 0 C4.76886487 -0.04950115 9.53757959 -0.08576738 14.30664062 -0.10986328 C15.92841192 -0.11991023 17.55016516 -0.13355015 19.171875 -0.15087891 C21.50525374 -0.17518493 23.8383926 -0.18649613 26.171875 -0.1953125 C27.25647003 -0.21079636 27.25647003 -0.21079636 28.36297607 -0.22659302 C32.07798039 -0.22741782 34.84581045 -0.06235471 38 2 C35.41904547 3.29047727 34.76803436 2.69375388 32 2 C29.61166853 1.85139192 27.22009126 1.75221573 24.828125 1.68359375 C24.1457074 1.66281265 23.46328979 1.64203156 22.76019287 1.62062073 C20.59022644 1.55547948 18.42014376 1.49640596 16.25 1.4375 C14.77472779 1.39428103 13.29946713 1.35066568 11.82421875 1.30664062 C8.21626834 1.19983482 4.60818867 1.09846847 1 1 C1.00999275 2.30212433 1.00999275 2.30212433 1.02018738 3.6305542 C1.08029875 11.8114546 1.12597454 19.99228082 1.15543652 28.17335129 C1.17109243 32.37933524 1.19232919 36.5851367 1.22631836 40.79101562 C1.2589147 44.84994551 1.27685357 48.90869987 1.28463173 52.96775055 C1.29017477 54.51631687 1.30099901 56.06487358 1.31719017 57.61336517 C1.33896871 59.78249368 1.34196684 61.95089693 1.34057617 64.12011719 C1.35056892 65.97210724 1.35056892 65.97210724 1.36076355 67.86151123 C0.96535438 71.30140213 0.60657683 72.72594899 -2 75 C-4.58044434 75.50120544 -4.58044434 75.50120544 -7.70898438 75.50170898 C-9.46595642 75.51578041 -9.46595642 75.51578041 -11.25842285 75.53013611 C-12.52408081 75.51890213 -13.78973877 75.50766815 -15.09375 75.49609375 C-16.39195679 75.49754898 -17.69016357 75.49900421 -19.02770996 75.50050354 C-21.77502713 75.50188782 -24.52182241 75.48932598 -27.26904297 75.46655273 C-30.78999899 75.43816695 -34.3100879 75.4409045 -37.83110809 75.45364285 C-41.18957965 75.46227149 -44.54779308 75.4471544 -47.90625 75.43359375 C-49.17190796 75.43652939 -50.43756592 75.43946503 -51.74157715 75.44248962 C-52.91289185 75.42980545 -54.08420654 75.41712128 -55.29101562 75.40405273 C-56.83964294 75.39594826 -56.83964294 75.39594826 -58.41955566 75.38768005 C-61 75 -61 75 -62.83728027 73.63490295 C-64.47589732 71.33083965 -64.35374462 69.75920805 -64 67 C-62 65 -62 65 -58.875 64.875 C-57.92625 64.91625 -56.9775 64.9575 -56 65 C-56 65.33 -56 65.66 -56 66 C-58.475 66.495 -58.475 66.495 -61 67 C-61.33 68.98 -61.66 70.96 -62 73 C-56.52718419 73.0252007 -51.05440401 73.04308972 -45.58154297 73.05493164 C-43.72964895 73.05988152 -41.87775865 73.06664311 -40.02587891 73.07543945 C-26.98260598 73.13572647 -14.02037028 72.78097569 -1 72 C-1.0169693 71.15697327 -1.0339386 70.31394653 -1.05142212 69.44537354 C-1.20952004 61.50006671 -1.35770954 53.55465015 -1.49477577 45.60895157 C-1.56559207 41.52400487 -1.64023595 37.43920295 -1.72363281 33.35449219 C-1.80397663 29.41241389 -1.87425878 25.47027274 -1.93757248 21.52788544 C-1.963493 20.02393741 -1.99303657 18.52004731 -2.02626419 17.01624298 C-2.07219189 14.90963046 -2.10522442 12.80317988 -2.13525391 10.69628906 C-2.15746002 9.49715881 -2.17966614 8.29802856 -2.20254517 7.06256104 C-2.00705224 4.10663256 -1.55512592 2.48037105 0 0 Z " fill="currentColor" transform="translate(172,73)"/>
<path d="M0 0 C1.97636414 1.20431519 1.97636414 1.20431519 4 3 C4.44978333 5.17630005 4.44978333 5.17630005 4.37817383 7.73095703 C4.36107864 8.68849884 4.34398346 9.64604065 4.32637024 10.63259888 C4.28698837 11.66391937 4.24760651 12.69523987 4.20703125 13.7578125 C4.18154709 14.81660614 4.15606293 15.87539978 4.12980652 16.96627808 C4.07243421 19.20417966 4.00539181 21.44185103 3.92944336 23.67919922 C3.81274091 27.11790145 3.72302726 30.55646005 3.63867188 33.99609375 C3.57968764 36.16670969 3.51919257 38.33728522 3.45703125 40.5078125 C3.42777054 41.54318146 3.39850983 42.57855042 3.36836243 43.64529419 C3.33550644 44.59653168 3.30265045 45.54776917 3.26879883 46.52783203 C3.24118973 47.36927765 3.21358063 48.21072327 3.18513489 49.07766724 C3 51 3 51 2 52 C-0.22811408 52.11884233 -2.45998931 52.16745763 -4.69116211 52.18945312 C-5.39035263 52.19774643 -6.08954315 52.20603973 -6.80992126 52.21458435 C-8.33282613 52.23202084 -9.85575836 52.24717772 -11.37870598 52.26036072 C-13.78636176 52.28132854 -16.19388025 52.3083563 -18.60145569 52.33703613 C-23.71341811 52.39683243 -28.8254439 52.44893326 -33.9375 52.5 C-39.85575653 52.55916455 -45.77394561 52.62143553 -51.69207954 52.69187927 C-54.0685372 52.71851123 -56.44500138 52.73929266 -58.82151794 52.7598877 C-60.27416304 52.77648816 -61.72680508 52.79335978 -63.17944336 52.81054688 C-64.4510582 52.82307495 -65.72267303 52.83560303 -67.03282166 52.84851074 C-69.92929629 52.79755385 -69.92929629 52.79755385 -72 54 C-71.67 53.01 -71.34 52.02 -71 51 C-68.10085089 49.55042544 -65.585717 49.88067076 -62.34716797 49.88647461 C-61.32260498 49.88625557 -61.32260498 49.88625557 -60.27734375 49.8860321 C-58.0155929 49.88672977 -55.753924 49.89451535 -53.4921875 49.90234375 C-51.92562912 49.90420845 -50.35907016 49.90563211 -48.79251099 49.90663147 C-44.66610102 49.91045257 -40.53972616 49.9202794 -36.41333008 49.93133545 C-31.46406276 49.94335517 -26.51478371 49.94795375 -21.56550598 49.95378876 C-14.04364623 49.96349136 -6.52186353 49.98265075 1 50 C1 34.16 1 18.32 1 2 C0.01 1.505 0.01 1.505 -1 1 C-0.67 0.67 -0.34 0.34 0 0 Z " fill="currentColor" transform="translate(82,33)"/>
<path d="M0 0 C2.96102497 2.16074795 3.86895034 3.31562954 4.5625 6.9375 C3.79395747 11.12178713 2.46194162 12.56927503 -1 15 C-4.5990842 15 -6.90058264 14.76959215 -9.875 12.6875 C-11.21403811 10.67894284 -11.78673789 9.41697056 -12 7 C-11.18725604 3.66774977 -10.36632679 2.29702172 -7.6875 0.125 C-4.47932459 -1.21795715 -3.22839912 -1.24169197 0 0 Z " fill="currentColor" transform="translate(144,79)"/>
<path d="M0 0 C1.29349365 0.00523682 2.5869873 0.01047363 3.91967773 0.01586914 C4.9496714 0.01799156 4.9496714 0.01799156 6.00047302 0.02015686 C8.20144949 0.0257706 10.40232557 0.03832532 12.60327148 0.05102539 C14.09220231 0.05603863 15.58113473 0.06060184 17.07006836 0.06469727 C20.72703954 0.07489518 24.38379265 0.0944676 28.04077148 0.11352539 C28.04077148 5.06352539 28.04077148 10.01352539 28.04077148 15.11352539 C26.06077148 16.10352539 26.06077148 16.10352539 24.04077148 17.11352539 C24.04077148 17.77352539 24.04077148 18.43352539 24.04077148 19.11352539 C22.39624023 20.73461914 22.39624023 20.73461914 20.22827148 22.55102539 C17.72974431 24.65816216 15.31656588 26.76593937 13.04077148 29.11352539 C8.10746478 27.91757225 5.82648498 24.88214351 2.75561523 21.10571289 C0.99391911 18.91255482 0.99391911 18.91255482 -1.89672852 16.92602539 C-5.32396107 12.25252645 -4.51346732 6.71925497 -3.95922852 1.11352539 C-2.95922852 0.11352539 -2.95922852 0.11352539 0 0 Z M-1.95922852 2.11352539 C-3.11508698 13.30144915 -3.11508698 13.30144915 0.88452148 18.12915039 C2.07364319 19.23986847 3.29350697 20.31851998 4.54077148 21.36352539 C5.16081055 21.92942383 5.78084961 22.49532227 6.41967773 23.07836914 C7.93388408 24.45280259 9.48389816 25.78761679 11.04077148 27.11352539 C14.84225273 24.96962696 18.1114756 22.60084568 21.35327148 19.67602539 C22.2362793 18.91418945 23.11928711 18.15235352 24.02905273 17.36743164 C27.09249627 13.0499796 27.09249627 13.0499796 26.04077148 2.11352539 C16.80077148 2.11352539 7.56077148 2.11352539 -1.95922852 2.11352539 Z " fill="currentColor" transform="translate(115.959228515625,185.886474609375)"/>
<path d="M0 0 C2.475 0.99 2.475 0.99 5 2 C5.495 5.465 5.495 5.465 6 9 C1.85758584 10.00013174 -2.01480304 10.11516542 -6.26953125 10.09765625 C-6.95053391 10.0962413 -7.63153656 10.09482635 -8.33317566 10.09336853 C-10.49299647 10.08780298 -12.65271089 10.07525703 -14.8125 10.0625 C-16.28320162 10.05748054 -17.75390488 10.05291841 -19.22460938 10.04882812 C-22.8164404 10.03784488 -26.4082098 10.02060422 -30 10 C-30.67893704 11.8813003 -30.67893704 11.8813003 -31 14 C-29.14567913 16.27144074 -29.14567913 16.27144074 -27 18 C-28.65 17.67 -30.3 17.34 -32 17 C-32.33 14.69 -32.66 12.38 -33 10 C-29.46315174 6.59399926 -26.06578049 6.53088583 -21.390625 6.48828125 C-20.66381531 6.47033005 -19.93700562 6.45237885 -19.18817139 6.43388367 C-16.87550593 6.37986759 -14.56304579 6.3459144 -12.25 6.3125 C-10.6783569 6.27931907 -9.10674086 6.24482868 -7.53515625 6.20898438 C-3.69025254 6.12414672 0.15459122 6.05729494 4 6 C2.68 4.02 1.36 2.04 0 0 Z " fill="currentColor" transform="translate(210,76)"/>
<path d="M0 0 C0.66 0 1.32 0 2 0 C1.16127934 6.11819113 -4.53314143 10.04480279 -8.6875 14.1875 C-9.58662109 15.11498047 -10.48574219 16.04246094 -11.41210938 16.99804688 C-12.72985352 18.3196582 -12.72985352 18.3196582 -14.07421875 19.66796875 C-15.27437622 20.87876099 -15.27437622 20.87876099 -16.4987793 22.11401367 C-19.40981986 24.30901498 -21.38913614 24.7808172 -25 25 C-26.84375 24.05859375 -26.84375 24.05859375 -28.5 22.4375 C-29.16 21.80585938 -29.82 21.17421875 -30.5 20.5234375 C-31.325 19.69070312 -32.15 18.85796875 -33 18 C-34.20763245 16.8039794 -35.41602889 15.60872994 -36.625 14.4140625 C-40.10438882 10.96325814 -43.5567145 7.48681018 -47 4 C-46.67 3.01 -46.34 2.02 -46 1 C-44.86067708 2.39973958 -43.72135417 3.79947917 -42.58203125 5.19921875 C-40.49417151 7.57577021 -38.2400229 9.76662405 -36 12 C-35.18660156 12.88300781 -34.37320313 13.76601562 -33.53515625 14.67578125 C-32.71917969 15.54589844 -31.90320313 16.41601562 -31.0625 17.3125 C-30.24910156 18.19550781 -29.43570313 19.07851562 -28.59765625 19.98828125 C-26.1348813 22.20756124 -26.1348813 22.20756124 -23 22.58203125 C-19.06022466 21.81767379 -17.65381984 20.29364477 -14.9375 17.375 C-14.07769531 16.46234375 -13.21789062 15.5496875 -12.33203125 14.609375 C-9.81233825 11.79002002 -7.37884849 8.93857755 -5 6 C-3.66666667 4.66666667 -2.33333333 3.33333333 -1 2 C-0.67 1.34 -0.34 0.68 0 0 Z " fill="currentColor" transform="translate(151,202)"/>
<path d="M0 0 C0.99 0.33 1.98 0.66 3 1 C2.46890625 1.31453125 1.9378125 1.6290625 1.390625 1.953125 C-6.40722948 6.6773726 -9.54576511 10.18706564 -12 19 C-12.4021875 20.2375 -12.4021875 20.2375 -12.8125 21.5 C-13.35336341 28.71151215 -10.85323531 33.90867609 -6.33984375 39.37109375 C-5 41 -5 41 -4 43 C-7.57478396 41.55767936 -9.11081448 39.83879097 -11.1875 36.625 C-11.69667969 35.85414062 -12.20585938 35.08328125 -12.73046875 34.2890625 C-15.80004839 28.75437429 -15.92920609 22.40372232 -14.28125 16.3671875 C-11.42973452 8.66349648 -7.20684288 4.07343293 0 0 Z " fill="currentColor" transform="translate(49,26)"/>
<path d="M0 0 C2.70108504 0.090916 5.36930311 0.23740766 8.0625 0.4375 C9.20041992 0.51581055 9.20041992 0.51581055 10.36132812 0.59570312 C12.24121722 0.72575835 14.12065685 0.86228038 16 1 C16 1.33 16 1.66 16 2 C11.05 2 6.1 2 1 2 C0.70751373 10.08102201 0.70751373 10.08102201 4.29296875 17.0234375 C6.78022891 19.4721083 9.30204231 21.78679333 12 24 C8.07575145 24 7.22546662 22.73405902 4.375 20.125 C3.57835938 19.40570313 2.78171875 18.68640625 1.9609375 17.9453125 C-0.57359828 15.43097223 -0.97376731 14.59332168 -1.1328125 10.99609375 C-1.13023438 9.82175781 -1.12765625 8.64742187 -1.125 7.4375 C-1.12757812 6.26058594 -1.13015625 5.08367187 -1.1328125 3.87109375 C-1 1 -1 1 0 0 Z " fill="currentColor" transform="translate(113,186)"/>
<path d="M0 0 C7.66666667 7.66666667 15.33333333 15.33333333 23 23 C19.05832302 22.44699865 17.22698069 20.6133078 14.453125 17.8515625 C13.60878906 17.01109375 12.76445313 16.170625 11.89453125 15.3046875 C11.02183594 14.42039063 10.14914063 13.53609375 9.25 12.625 C8.36183594 11.7484375 7.47367187 10.871875 6.55859375 9.96875 C5.71941406 9.12570313 4.88023438 8.28265625 4.015625 7.4140625 C3.24508789 6.6401416 2.47455078 5.8662207 1.68066406 5.06884766 C0 3 0 3 0 0 Z " fill="currentColor" transform="translate(104,203)"/>
<path d="M0 0 C8.91 0 17.82 0 27 0 C26.67 1.32 26.34 2.64 26 4 C25.67 3.67 25.34 3.34 25 3 C23.1500004 2.771774 21.29234486 2.60495062 19.43359375 2.46484375 C18.30888672 2.37783203 17.18417969 2.29082031 16.02539062 2.20117188 C14.84138672 2.11416016 13.65738281 2.02714844 12.4375 1.9375 C11.24962891 1.84662109 10.06175781 1.75574219 8.83789062 1.66210938 C5.89221095 1.43733864 2.94627326 1.21682804 0 1 C0 0.67 0 0.34 0 0 Z " fill="currentColor" transform="translate(117,186)"/>
<path d="M0 0 C-0.33 11.88 -0.66 23.76 -1 36 C-1.33 36 -1.66 36 -2 36 C-2 24.78 -2 13.56 -2 2 C-2.99 1.67 -3.98 1.34 -5 1 C-3 0 -3 0 0 0 Z " fill="currentColor" transform="translate(85,92)"/>
<path d="M0 0 C2.0078125 1.1171875 2.0078125 1.1171875 4 3 C4.2421875 5.8828125 4.2421875 5.8828125 3.875 9.125 C3.76929687 10.20007813 3.66359375 11.27515625 3.5546875 12.3828125 C3.37164062 13.24648438 3.18859375 14.11015625 3 15 C2.01 15.495 2.01 15.495 1 16 C1 11.38 1 6.76 1 2 C0.34 1.67 -0.32 1.34 -1 1 C-0.67 0.67 -0.34 0.34 0 0 Z " fill="currentColor" transform="translate(82,33)"/>
<path d="M0 0 C0.86625 0.2784375 0.86625 0.2784375 1.75 0.5625 C4.20692525 1.04023546 5.64397534 0.75729364 8 0 C6.515 1.98 6.515 1.98 5 4 C2.525 3.01 2.525 3.01 0 2 C0 1.34 0 0.68 0 0 Z " fill="currentColor" transform="translate(124,211)"/>
</svg>
