<svg version="1.1" xmlns="http://www.w3.org/2000/svg" width="100" height="100" viewBox="0 0 512 512">
<path d="M0 0 C9.65394831 10.32747959 5.6875 21.37781646 5.6875 35.875 C138.3475 35.875 271.0075 35.875 407.6875 35.875 C407.6875 27.295 407.6875 18.715 407.6875 9.875 C410.66925554 2.91757041 411.84585949 1.05539056 418 -2.4375 C423.30018206 -3.79336053 427.33994976 -2.86233881 432 -0.3125 C435.77589897 2.76090614 437.73547208 5.11044959 438.6875 9.875 C438.77658235 11.4523455 438.81478439 13.03297268 438.81613445 14.61283112 C438.8193589 15.56784531 438.82258335 16.52285951 438.8259055 17.50681353 C438.8243569 18.55309656 438.8228083 19.59937959 438.82121277 20.67736816 C438.82347833 21.79121242 438.82574388 22.90505668 438.82807809 24.05265379 C438.83442677 27.79878484 438.83358815 31.54487978 438.83276367 35.29101562 C438.83575471 37.97160986 438.83912871 40.65220124 438.84294128 43.33279419 C438.85125116 49.86816885 438.85399633 56.4035345 438.85455366 62.938914 C438.8550289 68.25431616 438.85708406 73.56971535 438.86025429 78.88511658 C438.86906374 93.96318032 438.8736735 109.04123695 438.87292381 124.11930329 C438.87286388 125.33883703 438.87286388 125.33883703 438.87280273 126.58300781 C438.87276185 127.39702653 438.87272097 128.21104524 438.87267885 129.04973119 C438.87227286 142.22662986 438.8818298 155.40349989 438.8959411 168.58039027 C438.91032402 182.11812545 438.91721015 195.65584668 438.91634732 209.19358969 C438.91601589 216.79067792 438.91873895 224.38773617 438.92952538 231.9848175 C438.93865586 238.45707798 438.94078497 244.92929491 438.93401595 251.40155905 C438.93076284 254.70024253 438.93174833 257.99882571 438.9393692 261.29750443 C438.94711609 264.8839976 438.94242624 268.470274 438.93473816 272.0567627 C438.93988172 273.08519995 438.94502529 274.11363721 438.95032471 275.17323923 C438.85900412 294.55170134 432.67832384 313.01342165 418.6875 326.875 C401.07502419 343.81137309 378.55775113 345.03774403 355.41184998 345.00871277 C354.04357229 345.01058717 352.67529514 345.01289033 351.30701882 345.01557809 C347.59401047 345.02162434 343.88102487 345.02157111 340.16801274 345.02038372 C336.14547267 345.02017788 332.12293957 345.02571552 328.10040283 345.03044128 C320.23903215 345.03870752 312.37766896 345.04149424 304.51629429 345.04205366 C298.12327392 345.04253049 291.730256 345.0445935 285.3372364 345.04775429 C267.18005477 345.05654778 249.02287901 345.0611754 230.86569523 345.06042381 C229.88915887 345.06038386 228.91262251 345.0603439 227.90649414 345.06030273 C226.43988621 345.06024141 226.43988621 345.06024141 224.94364984 345.06017885 C209.08842852 345.05977215 193.23323092 345.06935112 177.37801646 345.0834411 C161.06687331 345.0978211 144.75574171 345.10471048 128.44459206 345.10384732 C119.29941527 345.10351605 110.15426339 345.10623309 101.00909233 345.11702538 C93.22659064 345.1261515 85.44412517 345.1282881 77.66162043 345.12151595 C73.69630966 345.11826216 69.73106831 345.11815271 65.76576424 345.1268692 C62.12703963 345.13478524 58.48843891 345.13325134 54.84971715 345.12458507 C52.92914362 345.12234653 51.00856609 345.12983816 49.08800787 345.13782471 C29.48302254 345.06087255 10.31718094 341.19733851 -4.6015625 327.609375 C-19.85307311 312.14893959 -25.47066184 293.78638843 -25.45294189 272.55796814 C-25.45591302 271.43717835 -25.45888414 270.31638857 -25.4619453 269.16163546 C-25.47059823 265.41626171 -25.47213763 261.67092005 -25.47363281 257.92553711 C-25.4782632 255.23624014 -25.48326787 252.54694604 -25.48867798 249.85765076 C-25.5022199 242.5603682 -25.50827864 235.26309117 -25.51268864 227.96579814 C-25.5154563 223.40742486 -25.51969443 218.84905369 -25.52419281 214.29068184 C-25.53637669 201.66217018 -25.54667993 189.03366019 -25.5500679 176.40514278 C-25.55028747 175.5980592 -25.55050703 174.79097562 -25.55073325 173.95943496 C-25.55095153 173.15047223 -25.55116981 172.34150949 -25.5513947 171.50803274 C-25.55183816 169.86888055 -25.55228472 168.22972836 -25.55273438 166.59057617 C-25.5529558 165.77750791 -25.55317723 164.96443965 -25.55340537 164.12673295 C-25.55735689 150.94023105 -25.5748256 137.75378429 -25.5980939 124.56730371 C-25.62180685 111.01929577 -25.63426961 97.47131553 -25.63543582 83.9232865 C-25.63635225 76.32025077 -25.64209712 68.71728705 -25.66025543 61.11427116 C-25.67565518 54.64378138 -25.68077739 48.17338589 -25.67251733 41.70288127 C-25.66861126 38.40271758 -25.67117136 35.10278348 -25.68357468 31.80263519 C-25.69623976 28.22327537 -25.6904466 24.64440435 -25.67999268 21.06504822 C-25.69207728 19.50463874 -25.69207728 19.50463874 -25.70440602 17.91270584 C-25.65717468 11.00734843 -25.09733013 5.65983013 -20 0.5625 C-13.07647139 -3.78483192 -6.92435416 -4.44203852 0 0 Z M5.6875 65.875 C5.6875 68.515 5.6875 71.155 5.6875 73.875 C138.3475 73.875 271.0075 73.875 407.6875 73.875 C407.6875 71.235 407.6875 68.595 407.6875 65.875 C275.0275 65.875 142.3675 65.875 5.6875 65.875 Z M5.6875 103.875 C5.6875 131.925 5.6875 159.975 5.6875 188.875 C138.3475 188.875 271.0075 188.875 407.6875 188.875 C407.6875 160.825 407.6875 132.775 407.6875 103.875 C275.0275 103.875 142.3675 103.875 5.6875 103.875 Z M43.6875 218.875 C43.6875 221.185 43.6875 223.495 43.6875 225.875 C44.61816284 225.91258423 44.61816284 225.91258423 45.56762695 225.95092773 C48.37862397 226.06696721 51.18929241 226.18965759 54 226.3125 C54.97646484 226.35181641 55.95292969 226.39113281 56.95898438 226.43164062 C57.89677734 226.47353516 58.83457031 226.51542969 59.80078125 226.55859375 C60.66485596 226.59525146 61.52893066 226.63190918 62.41918945 226.66967773 C64.6875 226.875 64.6875 226.875 67.6875 227.875 C67.375 231.25 67.375 231.25 66.6875 234.875 C63.55632433 236.96245045 62.61803776 237.15153996 59.01953125 237.2890625 C58.12685547 237.32773437 57.23417969 237.36640625 56.31445312 237.40625 C55.38568359 237.4371875 54.45691406 237.468125 53.5 237.5 C52.55962891 237.53867187 51.61925781 237.57734375 50.65039062 237.6171875 C48.32974934 237.71142674 46.00865159 237.79430123 43.6875 237.875 C43.6875 240.845 43.6875 243.815 43.6875 246.875 C50.9475 247.205 58.2075 247.535 65.6875 247.875 C66.3475 249.525 67.0075 251.175 67.6875 252.875 C67.0275 253.865 66.3675 254.855 65.6875 255.875 C63.44091797 256.30737305 63.44091797 256.30737305 60.6796875 256.38671875 C59.20048828 256.43989258 59.20048828 256.43989258 57.69140625 256.49414062 C56.65886719 256.51669922 55.62632813 256.53925781 54.5625 256.5625 C53.52222656 256.59666016 52.48195313 256.63082031 51.41015625 256.66601562 C48.83604493 256.74867058 46.26228171 256.81776155 43.6875 256.875 C43.62643722 258.46696701 43.58296597 260.05961494 43.546875 261.65234375 C43.52077148 262.53913818 43.49466797 263.42593262 43.46777344 264.33959961 C43.83336794 268.55815399 45.56398972 270.10643407 48.6875 272.875 C52.16227836 274.14957368 55.62326849 273.99542149 59.29199219 273.98852539 C59.94606552 273.98867142 60.60013885 273.98881744 61.27403259 273.9889679 C63.42751426 273.98827341 65.58090852 273.98050283 67.734375 273.97265625 C69.23081414 273.97079042 70.72725388 273.96936729 72.22369385 273.96836853 C76.15608415 273.96455635 80.08843732 273.95473717 84.02081299 273.94366455 C88.74235772 273.93162071 93.46391488 273.927042 98.18547058 273.92121124 C105.35283951 273.91152471 112.52012704 273.89235908 119.6875 273.875 C119.6875 256.055 119.6875 238.235 119.6875 219.875 C109.0189685 219.05278006 109.0189685 219.05278006 98.40673828 218.76147461 C97.16650909 218.76155014 95.92627991 218.76162567 94.64846802 218.76170349 C92.72259354 218.76944542 92.72259354 218.76944542 90.7578125 218.77734375 C89.38776705 218.77921572 88.01772092 218.78063593 86.64767456 218.78163147 C83.09354709 218.78539542 79.53946245 218.79517102 75.98535156 218.80633545 C72.33789651 218.81668357 68.69043434 218.82115738 65.04296875 218.82617188 C57.92446196 218.83680076 50.80598382 218.85380059 43.6875 218.875 Z M139.6875 218.875 C139.6875 237.025 139.6875 255.175 139.6875 273.875 C146.82375 273.936875 153.96 273.99875 161.3125 274.0625 C163.55498535 274.08981201 165.7974707 274.11712402 168.10791016 274.14526367 C169.89745547 274.15403053 171.68700679 274.161674 173.4765625 274.16796875 C174.39590576 274.18331665 175.31524902 274.19866455 176.26245117 274.21447754 C181.48491186 274.21659877 185.20879375 273.88117658 189.6875 270.875 C191.83532833 267.65325751 191.93399148 266.8316269 191.91455078 263.12817383 C191.91430908 262.15400513 191.91406738 261.17983643 191.91381836 260.17614746 C191.90358643 259.15508911 191.89335449 258.13403076 191.8828125 257.08203125 C191.88079834 256.14145874 191.87878418 255.20088623 191.87670898 254.23181152 C191.8662419 250.71699144 191.83831932 247.20224084 191.8125 243.6875 C191.77125 235.829375 191.73 227.97125 191.6875 219.875 C174.5275 219.545 157.3675 219.215 139.6875 218.875 Z M5.6875 219.875 C5.59448831 228.45522294 5.5235782 237.03523238 5.48025131 245.61583614 C5.45944802 249.60092518 5.43126503 253.58566724 5.38574219 257.57055664 C5.34202273 261.42204217 5.31830841 265.27319567 5.30799103 269.12491035 C5.30064611 270.58842756 5.28630393 272.05192826 5.26457977 273.51530266 C5.09227169 285.61223583 7.13238691 294.9150153 15.6875 303.875 C26.35291938 312.97766155 33.93301294 314.18667628 47.625 314 C48.88119141 313.99097656 50.13738281 313.98195313 51.43164062 313.97265625 C54.51712522 313.94919249 57.60221205 313.91636201 60.6875 313.875 C60.6875 310.575 60.6875 307.275 60.6875 303.875 C59.016875 303.79765625 59.016875 303.79765625 57.3125 303.71875 C44.95842175 302.89986823 33.79184107 300.17309184 24.3125 291.76953125 C16.57713189 282.61712372 13.9385157 271.81604826 13.98046875 260.109375 C13.95778679 258.37025848 13.95778679 258.37025848 13.93464661 256.5960083 C13.89209332 252.93880266 13.88296247 249.28242753 13.875 245.625 C13.8518307 243.1262805 13.82646037 240.62758038 13.79882812 238.12890625 C13.7362956 232.04426268 13.7011052 225.9599394 13.6875 219.875 C11.0475 219.875 8.4075 219.875 5.6875 219.875 Z M222.6875 219.875 C222.6875 229.775 222.6875 239.675 222.6875 249.875 C240.31607628 249.9201605 257.94460313 249.95699713 275.57322121 249.97862434 C283.75863339 249.98893348 291.94400707 250.0029869 300.12939453 250.02587891 C307.26442566 250.04582386 314.3994289 250.05871907 321.53448713 250.06317699 C325.31185127 250.06578249 329.08913561 250.07189903 332.86647415 250.08646011 C336.42376495 250.1000615 339.98094327 250.10421748 343.5382576 250.10121536 C345.46226691 250.10202564 347.38626404 250.1127739 349.3102417 250.12384033 C350.46281464 250.121091 351.61538757 250.11834167 352.80288696 250.11550903 C354.29895698 250.11827441 354.29895698 250.11827441 355.82525063 250.12109566 C359.14245114 249.83588339 361.6448351 249.24469846 364.6875 247.875 C371.08216435 240.94885694 371.08216435 240.94885694 368.6875 219.875 C320.5075 219.875 272.3275 219.875 222.6875 219.875 Z M399.6875 219.875 C399.66768066 220.48384033 399.64786133 221.09268066 399.62744141 221.7199707 C398.463956 255.69567313 398.463956 255.69567313 387.5 267.6875 C378.6436608 275.83846705 368.03316161 279.10114139 356.25 279.2890625 C355.10168701 279.31811172 355.10168701 279.31811172 353.93017578 279.3477478 C351.51605925 279.40690946 349.10189335 279.45367144 346.6875 279.5 C345.03774111 279.53823837 343.38800093 279.57729339 341.73828125 279.6171875 C337.72145876 279.71407568 333.70480417 279.79414324 329.6875 279.875 C329.6875 291.095 329.6875 302.315 329.6875 313.875 C336.62583783 313.9671698 343.5620245 314.04670951 350.50048828 314.09472656 C352.85733261 314.11475732 355.21412778 314.14198992 357.57080078 314.17675781 C360.97180362 314.22565172 364.3721455 314.24805502 367.7734375 314.265625 C369.33655167 314.29659271 369.33655167 314.29659271 370.9312439 314.32818604 C381.35099043 314.3313332 390.03913184 311.03146066 397.6875 303.875 C407.03711783 293.75563452 408.12785005 284.72375153 407.98046875 271.4375 C407.97486471 269.94678171 407.97059843 268.45605785 407.96760559 266.96533203 C407.95622028 263.065739 407.92680868 259.16648791 407.89349365 255.26702881 C407.86265553 251.27832666 407.84907106 247.28956858 407.83398438 243.30078125 C407.8019319 235.4920326 407.75081346 227.68356444 407.6875 219.875 C405.0475 219.875 402.4075 219.875 399.6875 219.875 Z M216.41210938 281.99169922 C214.91175333 284.56421235 213.78844048 287.11259082 212.6875 289.875 C206.2740339 297.40286269 198.31367077 301.19218484 188.6875 302.875 C186.90918288 302.98425027 185.12784703 303.04998192 183.34643555 303.08032227 C182.3057341 303.10026749 181.26503265 303.12021271 180.1927948 303.14076233 C178.52534966 303.16583107 178.52534966 303.16583107 176.82421875 303.19140625 C175.67709915 303.21218735 174.52997955 303.23296844 173.34809875 303.25437927 C169.69045902 303.31966619 166.03274862 303.37866286 162.375 303.4375 C159.89257087 303.48070504 157.41014884 303.52431997 154.92773438 303.56835938 C148.84772833 303.67532626 142.76765133 303.77665252 136.6875 303.875 C136.6875 307.175 136.6875 310.475 136.6875 313.875 C174.9675 313.875 213.2475 313.875 252.6875 313.875 C252.6875 302.655 252.6875 291.435 252.6875 279.875 C244.458125 279.565625 244.458125 279.565625 236.0625 279.25 C234.34208496 279.15895996 232.62166992 279.06791992 230.84912109 278.97412109 C223.03748363 278.51983964 223.03748363 278.51983964 216.41210938 281.99169922 Z M283.6875 279.875 C283.6875 291.095 283.6875 302.315 283.6875 313.875 C288.6375 313.875 293.5875 313.875 298.6875 313.875 C298.6875 302.655 298.6875 291.435 298.6875 279.875 C293.7375 279.875 288.7875 279.875 283.6875 279.875 Z M90.6875 303.875 C90.6875 307.175 90.6875 310.475 90.6875 313.875 C95.9675 313.875 101.2475 313.875 106.6875 313.875 C106.6875 310.575 106.6875 307.275 106.6875 303.875 C101.4075 303.875 96.1275 303.875 90.6875 303.875 Z " fill="currentColor" transform="translate(43.3125,79.125)"/>
<path d="M0 0 C6.91058104 4.63297796 11.12733184 9.83963145 13 18 C14.22875046 26.30376628 12.19495233 33.4763776 7.375 40.30078125 C2.22777382 46.16647442 -3.33659524 48.15949754 -11 49 C-19.66260563 49.16019043 -26.9704763 46.65742152 -33.42578125 40.796875 C-37.90116703 35.68849421 -40.11665301 28.75291318 -40 22 C-39.10980635 14.09781941 -36.5586356 7.8040302 -30.3125 2.75 C-20.93711599 -3.7553685 -10.32141734 -5.19569652 0 0 Z M-16 18 C-18.35014158 20.837578 -18.35014158 20.837578 -17.6875 24.125 C-17.29355679 26.88086422 -17.29355679 26.88086422 -16 28 C-11.6590631 27.85841338 -11.6590631 27.85841338 -8 26 C-7.74994614 23.04182893 -7.74994614 23.04182893 -8 20 C-9.88659875 17.69337401 -9.88659875 17.69337401 -13 17.6875 C-13.99 17.790625 -14.98 17.89375 -16 18 Z " fill="currentColor" transform="translate(421,203)"/>
<path d="M0 0 C0.66 0 1.32 0 2 0 C2 0.99 2 1.98 2 3 C2.66 3 3.32 3 4 3 C4 93.42 4 183.84 4 277 C3.34 277 2.68 277 2 277 C2 279.31 2 281.62 2 284 C0 282 0 282 -0.24839699 279.94341075 C-0.24763755 279.08752113 -0.24687811 278.23163151 -0.24609566 277.34980583 C-0.25007775 276.36350618 -0.25405985 275.37720653 -0.25816262 274.36101902 C-0.25233693 273.26959728 -0.24651125 272.17817554 -0.24050903 271.05368042 C-0.24221788 269.9004098 -0.24392673 268.74713919 -0.24568737 267.55892098 C-0.2484206 264.34813627 -0.24213764 261.13751144 -0.23213124 257.92674565 C-0.22351965 254.46798906 -0.22641527 251.00924036 -0.22793579 247.55047607 C-0.2289861 241.55472915 -0.22269431 235.55902565 -0.21146011 229.56328964 C-0.19522777 220.89439579 -0.18999944 212.22552301 -0.18748413 203.55661561 C-0.18310346 189.49297271 -0.16978429 175.42935297 -0.15087891 161.36572266 C-0.13252972 147.70166134 -0.11836852 134.0376063 -0.10986328 120.37353516 C-0.10933783 119.53172785 -0.10881239 118.68992054 -0.10827102 117.82260393 C-0.105661 113.59963714 -0.10313357 109.37667031 -0.10064721 105.15370345 C-0.07990313 70.10245246 -0.0446675 35.05122836 0 0 Z " fill="currentColor" transform="translate(478,86)"/>
<path d="M0 0 C2.75569447 2.18159145 4.43588747 3.87177494 6 7 C6.38112297 11.03990348 6.4240682 13.29321967 4.3125 16.8125 C1.74448761 19.24170091 0.47001481 20.30599704 -3 21 C-7.98955635 20.72280243 -11.10430571 19.9612329 -14.5625 16.25 C-16.1497881 12.66134863 -16.72324061 10.85728324 -16 7 C-11.87592269 0.47147909 -7.48091866 -1.18867792 0 0 Z " fill="currentColor" transform="translate(355,235)"/>
<path d="M0 0 C2.70567626 1.82339052 4.53728718 3.07457436 6 6 C6.3751455 10.97067782 6.15878799 14.05151502 3 18 C0.03155522 20.30879038 -3.25244719 20.48905775 -6.96484375 20.37109375 C-10.76689017 19.67782233 -12.54835644 17.87021685 -15 15 C-16.05666579 12.24814845 -16.34370214 9.9271966 -16 7 C-14.31672123 3.50395947 -12.98214784 1.61052434 -9.6875 -0.4375 C-6.09951584 -1.18847343 -3.55523301 -0.88880825 0 0 Z " fill="currentColor" transform="translate(355,197)"/>
<path d="M0 0 C3.43742918 -0.05802698 6.87473253 -0.09360486 10.3125 -0.125 C11.28896484 -0.14175781 12.26542969 -0.15851563 13.27148438 -0.17578125 C14.20927734 -0.18222656 15.14707031 -0.18867188 16.11328125 -0.1953125 C16.97735596 -0.20578613 17.84143066 -0.21625977 18.73168945 -0.22705078 C21 0 21 0 24 2 C24.875 4.375 24.875 4.375 25 7 C23.5625 9.3125 23.5625 9.3125 22 11 C21.34 10.67 20.68 10.34 20 10 C18.50238238 9.90459888 17.00065172 9.86926514 15.5 9.8671875 C14.613125 9.86589844 13.72625 9.86460937 12.8125 9.86328125 C11.4203125 9.86908203 11.4203125 9.86908203 10 9.875 C9.071875 9.87113281 8.14375 9.86726563 7.1875 9.86328125 C5.8571875 9.86521484 5.8571875 9.86521484 4.5 9.8671875 C3.27796875 9.86887939 3.27796875 9.86887939 2.03125 9.87060547 C-0.06850952 9.87198497 -0.06850952 9.87198497 -2 11 C-2.66 10.34 -3.32 9.68 -4 9 C-3.649375 8.21625 -3.29875 7.4325 -2.9375 6.625 C-2.628125 5.75875 -2.31875 4.8925 -2 4 C-2.33 3.34 -2.66 2.68 -3 2 C4.59 2.33 12.18 2.66 20 3 C20 2.34 20 1.68 20 1 C13.4 1 6.8 1 0 1 C0 0.67 0 0.34 0 0 Z " fill="currentColor" transform="translate(87,305)"/>
<path d="M0 0 C-1.32 0.33 -2.64 0.66 -4 1 C-4 1.66 -4 2.32 -4 3 C-28.255 2.505 -28.255 2.505 -53 2 C-53.33 1.34 -53.66 0.68 -54 0 C-46.63116948 -0.1679713 -39.26219645 -0.32790864 -31.89306641 -0.48217773 C-29.3845624 -0.53565045 -26.87609735 -0.59098374 -24.36767578 -0.64819336 C-20.76864017 -0.72995731 -17.16951892 -0.80509744 -13.5703125 -0.87890625 C-12.44319855 -0.90594131 -11.31608459 -0.93297638 -10.15481567 -0.96083069 C-9.11388763 -0.98092697 -8.07295959 -1.00102325 -7.00048828 -1.02172852 C-5.62148849 -1.05170677 -5.62148849 -1.05170677 -4.21463013 -1.08229065 C-2 -1 -2 -1 0 0 Z " fill="currentColor" transform="translate(425,394)"/>
<path d="M0 0 C0.85291122 0.00141495 1.70582245 0.0028299 2.58457947 0.00428772 C5.27387191 0.00982686 7.96307703 0.02236745 10.65234375 0.03515625 C12.49023316 0.04017913 14.3281239 0.04474065 16.16601562 0.04882812 C20.64065797 0.05977625 25.11523613 0.07699786 29.58984375 0.09765625 C29.58984375 0.42765625 29.58984375 0.75765625 29.58984375 1.09765625 C28.4090625 1.14664063 27.22828125 1.195625 26.01171875 1.24609375 C24.45440438 1.32114504 22.89711384 1.39669186 21.33984375 1.47265625 C20.56253906 1.50359375 19.78523438 1.53453125 18.984375 1.56640625 C14.97599146 1.77196438 12.13589932 2.07886224 8.58984375 4.09765625 C7.92984375 3.76765625 7.26984375 3.43765625 6.58984375 3.09765625 C3.53471294 3.0273223 0.49266225 3.10076063 -2.5625 3.16015625 C-5.41015625 3.09765625 -5.41015625 3.09765625 -8.41015625 2.09765625 C-10.13810977 2.02962658 -11.8685099 2.0126998 -13.59765625 2.03515625 C-14.49871094 2.04417969 -15.39976562 2.05320312 -16.328125 2.0625 C-17.35873047 2.07990234 -17.35873047 2.07990234 -18.41015625 2.09765625 C-18.41015625 1.76765625 -18.41015625 1.43765625 -18.41015625 1.09765625 C-12.22808393 0.31713248 -6.22682333 -0.03984302 0 0 Z " fill="currentColor" transform="translate(146.41015625,114.90234375)"/>
<path d="M0 0 C0.66 0 1.32 0 2 0 C2.33 16.5 2.66 33 3 50 C1.515 50.495 1.515 50.495 0 51 C0 34.17 0 17.34 0 0 Z " fill="currentColor" transform="translate(234,298)"/>
<path d="M0 0 C3.87493616 -0.05834395 7.74975836 -0.09371201 11.625 -0.125 C13.26662109 -0.15013672 13.26662109 -0.15013672 14.94140625 -0.17578125 C24.98079979 -0.23662606 24.98079979 -0.23662606 30 2 C29.67 2.66 29.34 3.32 29 4 C25.57512955 4 22.39291998 3.48855352 19 3 C15.69022151 2.61924121 12.37666117 2.27773708 9.0625 1.9375 C8.18787109 1.84662109 7.31324219 1.75574219 6.41210938 1.66210938 C4.27486349 1.44020953 2.13744873 1.21993728 0 1 C0 0.67 0 0.34 0 0 Z " fill="currentColor" transform="translate(330,328)"/>
<path d="M0 0 C0.33 0.66 0.66 1.32 1 2 C0.67 2.66 0.34 3.32 0 4 C0.66 4 1.32 4 2 4 C3.125 11.625 3.125 11.625 2 15 C-1.15921695 10.85352775 -2.70157408 8.26180564 -2 3 C-1.34 2.01 -0.68 1.02 0 0 Z " fill="currentColor" transform="translate(341,239)"/>
<path d="M0 0 C3.42242447 1.14080816 3.88074799 1.882589 5.875 4.75 C8.34921793 8.18916292 10.91872717 11.09997852 14 14 C8.67267898 12.07624519 4.6877393 9.32355642 1 5 C0.25 2.25 0.25 2.25 0 0 Z " fill="currentColor" transform="translate(51,374)"/>
<path d="M0 0 C0.99 0.66 1.98 1.32 3 2 C2.67 4.31 2.34 6.62 2 9 C-0.97 9 -3.94 9 -7 9 C-5.68 8.67 -4.36 8.34 -3 8 C-1.75 5.08333333 -1.75 5.08333333 -1 2 C-0.67 1.34 -0.34 0.68 0 0 Z " fill="currentColor" transform="translate(354,207)"/>
<path d="M0 0 C-1.67741935 3.74193548 -1.67741935 3.74193548 -3.5625 5.25 C-5.93029216 8.13252959 -5.70012705 11.34155006 -6 15 C-8 12 -8 12 -7.9375 8.625 C-6.88997304 4.57456244 -4.77047017 0 0 0 Z " fill="currentColor" transform="translate(347,197)"/>
<path d="M0 0 C0 0.66 0 1.32 0 2 C-5.63860076 3.91712426 -9.69788304 4.58881031 -15.17578125 1.953125 C-15.77777344 1.63859375 -16.37976563 1.3240625 -17 1 C-15.10440036 0.83069605 -13.20850769 0.66467136 -11.3125 0.5 C-10.25675781 0.4071875 -9.20101562 0.314375 -8.11328125 0.21875 C-5.39363975 0.0276585 -2.72460144 -0.04043935 0 0 Z " fill="currentColor" transform="translate(220,115)"/>
<path d="M0 0 C0.99 0.495 0.99 0.495 2 1 C2 1.99 2 2.98 2 4 C2.66 4 3.32 4 4 4 C4.69685498 5.6210103 5.38222861 7.24696066 6.0625 8.875 C6.44535156 9.77992188 6.82820313 10.68484375 7.22265625 11.6171875 C8 14 8 14 7 16 C0 5.23282443 0 5.23282443 0 0 Z " fill="currentColor" transform="translate(58,352)"/>
<path d="M0 0 C0 0.66 0 1.32 0 2 C-6.75 3.125 -6.75 3.125 -9 2 C-9.33 2.99 -9.66 3.98 -10 5 C-12.475 4.01 -12.475 4.01 -15 3 C-9.97583178 -0.34944548 -5.90048743 -0.09834146 0 0 Z " fill="currentColor" transform="translate(412,200)"/>
<path d="M0 0 C3.96 0.33 7.92 0.66 12 1 C10.35 2.32 8.7 3.64 7 5 C6.34 4.67 5.68 4.34 5 4 C5 3.34 5 2.68 5 2 C4.01 2.33 3.02 2.66 2 3 C1.34 2.67 0.68 2.34 0 2 C0 1.34 0 0.68 0 0 Z " fill="currentColor" transform="translate(320,115)"/>
<path d="M0 0 C0.33 0.66 0.66 1.32 1 2 C0.00390625 4.1640625 0.00390625 4.1640625 -1.4375 6.625 C-1.91058594 7.44226563 -2.38367188 8.25953125 -2.87109375 9.1015625 C-3.24363281 9.72804688 -3.61617188 10.35453125 -4 11 C-4.66 10.34 -5.32 9.68 -6 9 C-6 8.01 -6 7.02 -6 6 C-4.68 5.67 -3.36 5.34 -2 5 C-2.33 4.01 -2.66 3.02 -3 2 C-2.01 1.34 -1.02 0.68 0 0 Z " fill="currentColor" transform="translate(475,384)"/>
<path d="M0 0 C0.66 0 1.32 0 2 0 C2.75 2.75 2.75 2.75 3 6 C1.0625 8.375 1.0625 8.375 -1 10 C-0.67 8.35 -0.34 6.7 0 5 C-0.66 4.67 -1.32 4.34 -2 4 C-1.34 4 -0.68 4 0 4 C0 2.68 0 1.36 0 0 Z " fill="currentColor" transform="translate(428,233)"/>
<path d="M0 0 C1.32 0.33 2.64 0.66 4 1 C2.54462432 1.83848804 1.08559627 2.67063934 -0.375 3.5 C-1.59316406 4.19609375 -1.59316406 4.19609375 -2.8359375 4.90625 C-5 6 -5 6 -7 6 C-7 5.34 -7 4.68 -7 4 C-4 2 -4 2 0 2 C0 1.34 0 0.68 0 0 Z " fill="currentColor" transform="translate(451,411)"/>
<path d="M0 0 C1.17219543 0.78345715 2.33763668 1.57702836 3.5 2.375 C4.47453125 3.03628906 4.47453125 3.03628906 5.46875 3.7109375 C6.22671875 4.34902344 6.22671875 4.34902344 7 5 C7 5.66 7 6.32 7 7 C3.22454612 5.90931332 0.52956528 5.0916909 -2 2 C-1.34 2 -0.68 2 0 2 C0 1.34 0 0.68 0 0 Z " fill="currentColor" transform="translate(47,409)"/>
<path d="M0 0 C0.33 0 0.66 0 1 0 C1.33 5.61 1.66 11.22 2 17 C1.01 17.33 0.02 17.66 -1 18 C-0.505 9.09 -0.505 9.09 0 0 Z " fill="currentColor" transform="translate(235,331)"/>
<path d="M0 0 C0.4125 0.515625 0.825 1.03125 1.25 1.5625 C0.59 2.8825 -0.07 4.2025 -0.75 5.5625 C-1.08 4.5725 -1.41 3.5825 -1.75 2.5625 C-3.4 2.2325 -5.05 1.9025 -6.75 1.5625 C-5.75 -0.4375 -5.75 -0.4375 -3.875 -1.25 C-1.75 -1.4375 -1.75 -1.4375 0 0 Z " fill="currentColor" transform="translate(110.75,328.4375)"/>
<path d="M0 0 C3.3 0.33 6.6 0.66 10 1 C8.515 2.485 8.515 2.485 7 4 C6.01 3.67 5.02 3.34 4 3 C2.66893378 2.65772583 1.33599921 2.32248257 0 2 C0 1.34 0 0.68 0 0 Z " fill="currentColor" transform="translate(372,328)"/>
<path d="M0 0 C4.875 1.75 4.875 1.75 6 4 C4.35 4.66 2.7 5.32 1 6 C0.67 4.02 0.34 2.04 0 0 Z " fill="currentColor" transform="translate(472,78)"/>
<path d="M0 0 C0 0.99 0 1.98 0 3 C-2.8125 5.75 -2.8125 5.75 -6 8 C-6.99 7.67 -7.98 7.34 -9 7 C-6.03 4.69 -3.06 2.38 0 0 Z " fill="currentColor" transform="translate(443,382)"/>
<path d="M0 0 C8.19256018 -0.63019694 8.19256018 -0.63019694 11.5625 2 C12.036875 2.66 12.51125 3.32 13 4 C11.35 4 9.7 4 8 4 C8 3.01 8 2.02 8 1 C5.36 1 2.72 1 0 1 C0 0.67 0 0.34 0 0 Z " fill="currentColor" transform="translate(346,235)"/>
<path d="M0 0 C3 1 3 1 4 3 C4.039992 4.99960012 4.04346799 7.00047242 4 9 C2.01388388 7.01388388 1.08545288 5.55856751 0 3 C0 2.01 0 1.02 0 0 Z " fill="currentColor" transform="translate(427,210)"/>
<path d="M0 0 C0.99 0 1.98 0 3 0 C1.95125002 2.62187494 1.35068687 3.79371361 -1.125 5.25 C-1.74375 5.4975 -2.3625 5.745 -3 6 C-2.42655063 3.13275314 -2.1385485 2.1385485 0 0 Z " fill="currentColor" transform="translate(393,204)"/>
<path d="M0 0 C2 1 2 1 5 4 C2.03 3.67 -0.94 3.34 -4 3 C-2.68 2.01 -1.36 1.02 0 0 Z " fill="currentColor" transform="translate(91,378)"/>
<path d="M0 0 C6.52307692 0.61538462 6.52307692 0.61538462 8.9375 2.5625 C9.288125 3.036875 9.63875 3.51125 10 4 C8.35 4 6.7 4 5 4 C4.67 3.01 4.34 2.02 4 1 C1.98491642 0.26676204 1.98491642 0.26676204 0 0 Z " fill="currentColor" transform="translate(348,196)"/>
</svg>
