<svg version="1.1" xmlns="http://www.w3.org/2000/svg" width="100" height="100" viewBox="0 0 512 512">
<path d="M0 0 C2.875 1.4375 2.875 1.4375 5 4 C6.18894239 8.4998167 6.32037219 12.53104798 5 17 C6.2065625 17.12375 6.2065625 17.12375 7.4375 17.25 C15.78004162 19.00632455 25.64350507 23.58228968 31.66796875 29.69140625 C32.32732422 30.33916016 32.32732422 30.33916016 33 31 C35.62892424 30.83039198 36.78485562 30.19209319 38.75 28.4375 C42.06685357 26.31839911 45.16818415 26.26825693 49 27 C51.43119623 28.87015094 52.64069173 30.28138345 54 33 C54.375 36.3125 54.375 36.3125 54 40 C51.625 42.75 51.625 42.75 49 45 C48.34 45.99 47.68 46.98 47 48 C47.80369042 50.50103661 48.67808951 52.74294413 49.75 55.125 C53.32374388 63.55141641 55.33528454 70.77967505 55 80 C56.216875 80.0825 57.43375 80.165 58.6875 80.25 C62.86724317 80.82165226 65.30673078 81.54924881 68 85 C68.86775523 89.61522914 68.92303733 93.54444113 66.375 97.5625 C61.56928799 100.47122043 57.35420664 100.14732999 52 99 C51.91105469 100.010625 51.82210938 101.02125 51.73046875 102.0625 C51.13709447 106.17987545 49.43735213 109.46674726 47.3125 113 C46.77882813 113.91193115 46.77882813 113.91193115 46.234375 114.84228516 C43.54395471 119.33957821 40.60596354 123.21373828 37 127 C38.20381448 129.49361571 39.45428722 131.68143083 41 134 C41.67226891 140.94677871 41.67226891 140.94677871 39.125 144.9375 C36.60831351 147.38016629 35.66691781 147.92589802 32.1875 148.3125 C27.05607493 147.80941911 24.47898983 144.49904164 21 141 C20.12859375 141.68964844 19.2571875 142.37929687 18.359375 143.08984375 C17.78848145 143.54020996 17.21758789 143.99057617 16.62939453 144.45458984 C15.36865227 145.44936102 14.10922609 146.44580226 12.85107422 147.44384766 C9.74932461 149.89193892 6.63399 152.28940011 3.3984375 154.55859375 C2.84575195 154.95119385 2.29306641 155.34379395 1.72363281 155.74829102 C0.20181769 156.82085925 -1.33239642 157.87577091 -2.8671875 158.9296875 C-5.22739477 160.81469586 -5.22739477 160.81469586 -5.4453125 163.5703125 C-5.12003335 166.2485302 -5.12003335 166.2485302 -3 169 C-2.44622397 173.90487343 -2.24360829 175.89979388 -5.0625 180 C-8.79836042 182.54356454 -10.55999051 182.77894903 -15 182 C-18.07065368 180.09311005 -20.45255755 177.54744245 -23 175 C-24.14662109 175.99966797 -24.14662109 175.99966797 -25.31640625 177.01953125 C-33.5646597 184.13988521 -42.13857255 190.66340526 -51 197 C-50.3503125 197.90621094 -49.700625 198.81242188 -49.03125 199.74609375 C-46.26358063 204.17968718 -46.35021407 205.88293582 -47 211 C-48.94916259 214.52348621 -50.12336234 215.70157016 -53.9375 217 C-59.53014901 217 -62.81506495 213.36326727 -67 210 C-67.85980469 210.67804688 -68.71960938 211.35609375 -69.60546875 212.0546875 C-77.69438073 218.42605921 -85.8248864 224.73965553 -94 231 C-92.60240095 234.54518884 -92.60240095 234.54518884 -91 238 C-90.62400098 241.98558966 -90.63358492 244.32579625 -92.5625 247.875 C-95.79810712 250.69578569 -97.72490097 251.0737086 -102 251 C-105.55280952 249.08694872 -108.20452898 246.86124681 -111 244 C-111.85980469 244.67804688 -112.71960938 245.35609375 -113.60546875 246.0546875 C-121.69438073 252.42605921 -129.8248864 258.73965553 -138 265 C-137.855625 265.61746094 -137.71125 266.23492187 -137.5625 266.87109375 C-134.88381146 279.09261024 -135.93154403 288.86308807 -141.625 300.25 C-145.35509908 304.56906209 -149.50741752 308.47794056 -154 312 C-154.66 312 -155.32 312 -156 312 C-154.91805966 315.57040313 -153.42653911 317.68874752 -150.875 320.3125 C-148.57768501 322.90332944 -147.51605685 324.6382681 -147.3125 328.125 C-148.14525105 332.81868774 -149.11849114 334.27468527 -153 337 C-156.3125 338.25 -156.3125 338.25 -160 338 C-163.04085756 336.0190985 -165.48131872 333.59769873 -168 331 C-168.90492188 330.09507812 -169.80984375 329.19015625 -170.7421875 328.2578125 C-171.48726563 327.51273437 -172.23234375 326.76765625 -173 326 C-180.12128551 331.40193405 -187.14679091 336.89913761 -194.0625 342.5625 C-199.63818135 347.12315707 -205.28273243 351.53450832 -211.0703125 355.82421875 C-219.25954664 361.90608997 -227.27652377 368.18378472 -235.1484375 374.671875 C-240.69667825 379.20167155 -246.35361343 383.5936367 -252 388 C-252.72203613 388.56444824 -253.44407227 389.12889648 -254.18798828 389.71044922 C-268.90764188 401.21499574 -268.90764188 401.21499574 -276.25 406.6875 C-284.88803743 413.13043177 -293.33856484 419.80322316 -301.66577148 426.64233398 C-310.02663461 433.50293008 -318.60384117 440.02875523 -327.2890625 446.47265625 C-330.15499491 448.60345462 -332.98750709 450.76175032 -335.7734375 452.99609375 C-348.09909572 462.87299284 -358.21038977 466.90863121 -374 466 C-386.30867274 464.09695698 -395.42935682 456.42619298 -403 447 C-403.82242187 446.02675781 -404.64484375 445.05351562 -405.4921875 444.05078125 C-412 436.29614486 -412 436.29614486 -412 434 C-412.66 434 -413.32 434 -414 434 C-415.37804084 432.03053783 -416.7032746 430.02392713 -418 428 C-420.20544145 425.11201585 -422.43891744 422.24819554 -424.68359375 419.390625 C-430.46008763 411.27975169 -432.80818569 404.47351084 -432.5625 394.5 C-432.57345703 393.53191406 -432.58441406 392.56382812 -432.59570312 391.56640625 C-432.49807351 381.86853069 -429.19939607 374.30861496 -423.9375 366.3125 C-423.55392334 365.72710449 -423.17034668 365.14170898 -422.77514648 364.53857422 C-419.41550465 359.47525324 -415.79516104 354.61444917 -412.16015625 349.74731445 C-408.39313599 344.65488543 -405.01238698 339.38245108 -401.70166016 333.98535156 C-398.87551067 329.38068661 -395.95305753 324.85782185 -392.9375 320.375 C-389.26699155 314.91622156 -385.66133996 309.42231924 -382.13500977 303.86914062 C-379.52409958 299.76720897 -376.77893938 295.78406043 -373.8984375 291.8671875 C-372.81146578 290.03095337 -372.81146578 290.03095337 -373.23046875 287.93359375 C-374.01370897 285.75676592 -374.01370897 285.75676592 -375.9375 283.1875 C-380.7999034 275.67287657 -380.76222135 267.75577344 -380 259 C-378.27243126 251.12753488 -373.76585472 245.47881001 -368 240 C-367.34 239.67 -366.68 239.34 -366 239 C-366.268125 238.195625 -366.53625 237.39125 -366.8125 236.5625 C-367.204375 235.386875 -367.59625 234.21125 -368 233 C-368.25265625 232.26523438 -368.5053125 231.53046875 -368.765625 230.7734375 C-369.02859375 230.00257813 -369.2915625 229.23171875 -369.5625 228.4375 C-369.81128906 227.71433594 -370.06007813 226.99117187 -370.31640625 226.24609375 C-374.83858355 211.3875112 -372.32126127 195.679565 -365.51318359 182.09350586 C-357.61411337 167.31790439 -344.77416125 157.3993593 -329 152 C-315.42622821 148.27433187 -298.10408779 150.04232843 -285.84375 156.71875 C-282.35901154 158.88295599 -279.02556302 161.05286239 -276.0078125 163.83984375 C-274.01843519 165.29504342 -274.01843519 165.29504342 -271.5859375 164.43359375 C-268.7254866 162.84781508 -266.21725672 161.05682931 -263.625 159.0625 C-254.44082904 152.35099046 -247.37891545 150.89421198 -236 152 C-231.5473195 153.22693525 -227.58371331 155.07659712 -223.6015625 157.3984375 C-220.84901383 158.34486258 -220.84901383 158.34486258 -218.125 156.359375 C-217.06871468 155.50739594 -216.02777703 154.63616102 -215 153.75 C-213.86112072 152.81976909 -212.7217833 151.89009886 -211.58203125 150.9609375 C-210.99760254 150.47463867 -210.41317383 149.98833984 -209.81103516 149.48730469 C-206.82961629 147.0388275 -203.75584414 144.71286709 -200.6875 142.375 C-199.5867995 141.52921825 -198.4864977 140.6829172 -197.38671875 139.8359375 C-196.59910156 139.23007813 -195.81148437 138.62421875 -195 138 C-196.08784968 134.75016865 -196.08784968 134.75016865 -198 132 C-198.68733452 127.24757272 -198.65805254 123.97710832 -195.9375 119.9375 C-192.19734441 117.47058887 -190.40488582 117.22721301 -186 118 C-182.92934632 119.90688995 -180.54744245 122.45255755 -178 125 C-177.22398437 124.32195312 -176.44796875 123.64390625 -175.6484375 122.9453125 C-167.75766583 116.1227616 -159.57907746 109.92946733 -151 104 C-151.61277612 101.03824877 -152.25372522 99.61941217 -154 97 C-154.78431373 90.05322129 -154.78431373 90.05322129 -151.8125 86.0625 C-148.94347842 83.95855084 -147.53868291 83 -144 83 C-140.32012377 84.7053085 -137.74807973 87.04835881 -135 90 C-131.06163569 88.348734 -128.10975794 85.656551 -124.9375 82.875 C-119.1782361 77.90359485 -113.23817761 73.36297392 -107 69 C-108.39759905 65.45481116 -108.39759905 65.45481116 -110 62 C-110.49728335 57.60733038 -110.53221932 55.69948825 -107.8125 52.125 C-104.91466027 49.9355211 -103.60496065 49 -100 49 C-95.75244631 50.64701062 -93.12321583 52.75588549 -90 56 C-89.15179688 55.33355469 -88.30359375 54.66710937 -87.4296875 53.98046875 C-74.71484375 43.99023438 -74.71484375 43.99023438 -62 34 C-62.6496875 33.08347656 -63.299375 32.16695312 -63.96875 31.22265625 C-66.39452625 27.37406892 -66.65039209 25.47144564 -66 21 C-64.20437595 18.24670979 -62.94745078 16.47372539 -60 15 C-57.03604618 14.59582448 -54.91095074 14.43617829 -52.30859375 16.046875 C-50.11549322 17.84363206 -48.2790438 19.44191241 -47 22 C-43.83344459 20.95900701 -40.68719764 19.88615696 -37.5546875 18.74609375 C-29.62652534 15.92663056 -22.49978851 14.17411112 -14 14 C-13.87044922 12.98679687 -13.87044922 12.98679687 -13.73828125 11.953125 C-12.59871703 4.71846044 -12.59871703 4.71846044 -9.8125 1.375 C-6.19834865 -0.39191844 -3.98000943 -0.56857278 0 0 Z M-49.84765625 48.30078125 C-53.07523787 51.0876408 -56.39393384 53.74500358 -59.75 56.375 C-60.61975464 57.05695435 -60.61975464 57.05695435 -61.50708008 57.75268555 C-65.9616514 61.22653417 -70.47312284 64.62117286 -75 68 C-85.21175301 75.62211704 -95.1899244 83.50685464 -105.0625 91.5625 C-114.68087533 99.40806769 -124.46999188 106.98002467 -134.5625 114.2109375 C-137.10875236 116.07982144 -139.6136863 117.92902061 -142 120 C-142 120.66 -142 121.32 -142 122 C-142.53753906 122.06316406 -143.07507813 122.12632812 -143.62890625 122.19140625 C-147.01234781 123.34523229 -149.31137557 125.59926727 -151.9375 127.9375 C-159.62412902 134.60619057 -167.64621642 140.76873386 -175.8125 146.8359375 C-177.1460764 147.82779827 -178.47940625 148.81999062 -179.8125 149.8125 C-180.80866333 150.55391235 -180.80866333 150.55391235 -181.82495117 151.31030273 C-187.54447898 155.59668206 -193.09649456 160.07261175 -198.59692383 164.63598633 C-202.27244131 167.66987561 -205.98476079 170.43024691 -210 173 C-207.59851956 177.25062038 -204.77644583 181.00088402 -201.75 184.8125 C-201.26345947 185.4297998 -200.77691895 186.04709961 -200.27563477 186.68310547 C-197.09396091 190.69535368 -193.81901764 194.59167286 -190.33984375 198.3515625 C-189 200 -189 200 -187.94140625 202.1484375 C-187.1407368 204.17738321 -187.1407368 204.17738321 -185 205 C-184.505 205.928125 -184.01 206.85625 -183.5 207.8125 C-180.51215689 213.25305014 -176.28768495 217.7762317 -172.28271484 222.47900391 C-168.51321287 226.94874074 -164.75750679 231.49050375 -161.40234375 236.28125 C-160.93957031 236.8484375 -160.47679687 237.415625 -160 238 C-159.34 238 -158.68 238 -158 238 C-157.690625 239.0209375 -157.690625 239.0209375 -157.375 240.0625 C-155.54591134 243.97009851 -152.89720966 246.83857939 -150 250 C-145.34719388 247.44005841 -141.44091211 244.19094371 -137.375 240.8125 C-131.96143971 236.36113224 -126.48643178 232.09277243 -120.77734375 228.0234375 C-115.05434526 223.8539393 -109.54102627 219.40680054 -104 215 C-102.65035156 213.92878906 -102.65035156 213.92878906 -101.2734375 212.8359375 C-97.00117884 209.4316933 -92.77071719 205.98307242 -88.5625 202.5 C-84.11195631 198.84843189 -79.53718269 195.43645871 -74.86328125 192.078125 C-66.72154651 186.16898055 -58.85628482 179.9193583 -51.0625 173.5625 C-40.70009991 165.11213621 -30.24348558 156.87836571 -19.4375 149 C-13.2913258 144.51584182 -7.33850776 139.91559 -1.59863281 134.92211914 C2.78591212 131.11863284 7.35949937 127.60197687 12.04052734 124.17089844 C13.39520614 123.15898997 14.7029374 122.0847774 16 121 C16 120.34 16 119.68 16 119 C16.88751953 118.59007812 16.88751953 118.59007812 17.79296875 118.171875 C27.18948065 113.18257665 32.427339 101.81482071 35.4375 92 C38.09039976 78.0201125 34.72651998 65.25187567 28 53 C27.34 53 26.68 53 26 53 C25.62294922 51.88431641 25.62294922 51.88431641 25.23828125 50.74609375 C21.60815563 42.69568899 12.94644459 38.50310432 5.20703125 35.1875 C-15.44319418 27.54113151 -33.79372897 34.43451216 -49.84765625 48.30078125 Z M-332 174 C-333.18335938 174.67095703 -333.18335938 174.67095703 -334.390625 175.35546875 C-342.85609067 180.58331427 -347.53167388 186.74557214 -351 196 C-351.4125 197.051875 -351.825 198.10375 -352.25 199.1875 C-354.13472049 208.7681625 -353.52113016 217.90374709 -350 227 C-342.64904482 221.57918389 -335.51395976 215.9064089 -328.47265625 210.08984375 C-320.40505006 203.44575152 -312.18979275 197.07829195 -303.73461914 190.93310547 C-298.40519198 187.05956392 -293.17788239 183.07397227 -288 179 C-290.45684644 176.43105579 -292.73185447 174.94648939 -295.9375 173.375 C-296.79214844 172.94960937 -297.64679688 172.52421875 -298.52734375 172.0859375 C-308.61576092 167.65532143 -322.52400853 168.57314673 -332 174 Z M-261 182 C-260.50113281 182.6084375 -260.00226563 183.216875 -259.48828125 183.84375 C-257.47549684 186.30100924 -255.46469457 188.75987599 -253.45507812 191.21972656 C-252.45696502 192.4409079 -251.4582349 193.66158513 -250.45898438 194.88183594 C-230.16088235 219.67823529 -230.16088235 219.67823529 -228 224 C-227.34 224 -226.68 224 -226 224 C-225.76023438 224.71542969 -225.52046875 225.43085938 -225.2734375 226.16796875 C-223.80478356 229.43414699 -221.98144669 231.61669449 -219.625 234.3125 C-215.52315204 239.08700558 -211.68199925 244.00341705 -207.9375 249.0625 C-203.13762019 255.53279903 -198.1467096 261.8007738 -193 268 C-188.12015681 273.9673511 -183.46639672 280.04708317 -178.96484375 286.3046875 C-176.06962913 290.27625427 -173.04670187 294.14401795 -170 298 C-163.71245635 295.7544487 -157.97988498 291.67531038 -154.9375 285.5625 C-153.69117284 280.82645679 -153.59140466 276.47232882 -156.05004883 272.15698242 C-157.44109318 270.30114262 -158.9071559 268.55515703 -160.4375 266.8125 C-161.53627788 265.50224186 -162.63391551 264.19102675 -163.73046875 262.87890625 C-164.28138184 262.22937988 -164.83229492 261.57985352 -165.39990234 260.91064453 C-167.76553803 258.08588639 -170.01444121 255.17810561 -172.25 252.25 C-172.65702148 251.72035645 -173.06404297 251.19071289 -173.48339844 250.64501953 C-176.11638685 247.20425497 -178.66388712 243.70893294 -181.1875 240.1875 C-183.42066741 237.08859174 -185.68581837 234.14236792 -188.25 231.3125 C-191.68738705 227.49144104 -194.74516109 223.43076695 -197.8125 219.3125 C-198.32441895 218.62583252 -198.83633789 217.93916504 -199.36376953 217.23168945 C-200.39970915 215.84051009 -201.43519121 214.44898989 -202.47021484 213.05712891 C-204.84505194 209.86364385 -207.22501162 206.67463721 -209.625 203.5 C-210.03854736 202.94223877 -210.45209473 202.38447754 -210.87817383 201.80981445 C-211.87117353 200.50231263 -212.9297558 199.24506497 -214 198 C-214.66 198 -215.32 198 -216 198 C-216.24363281 197.28328125 -216.48726562 196.5665625 -216.73828125 195.828125 C-218.16434967 192.6316125 -219.92357213 190.41527825 -222.1875 187.75 C-225.74366759 183.524907 -229.13184417 179.23232141 -232.39453125 174.77734375 C-235.28463773 171.57783414 -238.32735155 170.64013285 -242.5625 170.375 C-250.19962227 170.47713091 -256.88333989 175.82500983 -261 182 Z M-276 192 C-276.84820312 192.66644531 -277.69640625 193.33289063 -278.5703125 194.01953125 C-279.12960449 194.45894043 -279.68889648 194.89834961 -280.26513672 195.35107422 C-281.52471185 196.34081126 -282.78414783 197.33072541 -284.04345703 198.32080078 C-287.18729326 200.79212537 -290.3326555 203.26139077 -293.484375 205.72265625 C-294.61478292 206.60651563 -295.74499084 207.49063087 -296.875 208.375 C-297.44984131 208.82488281 -298.02468262 209.27476562 -298.61694336 209.73828125 C-301.69493604 212.15685571 -304.74701108 214.6022143 -307.76953125 217.08984375 C-314.8735947 222.93636115 -322.06025722 228.58443186 -329.5 234 C-335.7290056 238.54210198 -341.86993107 243.16460433 -347.875 248 C-348.52275391 248.515625 -349.17050781 249.03125 -349.83789062 249.5625 C-354.20494664 253.11912674 -358.44280953 256.88561906 -361 262 C-361.2357855 264.04068634 -361.2357855 264.04068634 -361.25 266.3125 C-361.27578125 267.07175781 -361.3015625 267.83101563 -361.328125 268.61328125 C-360.55206793 274.25817258 -355.86130012 278.99495751 -352.5 283.4375 C-351.97172607 284.13834717 -351.44345215 284.83919434 -350.89916992 285.5612793 C-342.3388341 296.88103752 -333.48182572 307.94391745 -324.44287109 318.88476562 C-312.86715714 332.91145125 -312.86715714 332.91145125 -308.578125 339.66796875 C-305.13293248 344.75900819 -301.18926676 349.49840728 -297.35302734 354.29736328 C-296.08326837 355.89521588 -294.8319671 357.50768705 -293.58203125 359.12109375 C-292.87433594 360.02988281 -292.16664063 360.93867188 -291.4375 361.875 C-290.81746094 362.67679688 -290.19742188 363.47859375 -289.55859375 364.3046875 C-289.04425781 364.86414063 -288.52992188 365.42359375 -288 366 C-287.34 366 -286.68 366 -286 366 C-285.63261719 367.05767578 -285.63261719 367.05767578 -285.2578125 368.13671875 C-283.82532472 371.39763037 -282.00478131 373.96134115 -279.875 376.8125 C-279.15054688 377.78832031 -278.42609375 378.76414062 -277.6796875 379.76953125 C-277.12539063 380.50558594 -276.57109375 381.24164063 -276 382 C-271.37338023 379.07792435 -267.15783967 375.77623669 -262.90234375 372.33984375 C-255.59438028 366.44822852 -248.27067057 360.57469601 -240.625 355.125 C-235.28195069 351.28836107 -230.20792005 347.15998511 -225.12036133 342.99536133 C-211.68230176 331.99683131 -197.92432377 321.37498634 -184 311 C-185.55774115 305.93734127 -188.65157068 302.47880067 -192 298.5 C-193.1798179 297.07540389 -194.35818571 295.64960569 -195.53515625 294.22265625 C-196.41324951 293.15942139 -196.41324951 293.15942139 -197.30908203 292.07470703 C-199.75109254 289.07843137 -202.10055513 286.01599294 -204.4375 282.9375 C-207.40330115 279.04698217 -210.42754001 275.26958417 -213.6484375 271.58984375 C-216.90213317 267.76251966 -219.81439491 263.65824496 -222.734375 259.57421875 C-230.67450117 248.50069569 -239.33750933 238.0116553 -247.98046875 227.484375 C-250.4751805 224.41544526 -252.90888208 221.30348392 -255.32421875 218.171875 C-256.4453048 216.71890566 -257.57297681 215.27099518 -258.70703125 213.828125 C-262.64943911 208.80889694 -266.41555095 203.68843827 -270.10546875 198.48046875 C-271.91886914 196.10622288 -273.83798371 194.05655208 -276 192 Z M-360 305 C-361.70951379 307.19404478 -361.70951379 307.19404478 -363.49609375 310.05859375 C-364.21007324 311.15671387 -364.92405273 312.25483398 -365.65966797 313.38623047 C-366.04064636 313.97635925 -366.42162476 314.56648804 -366.81414795 315.17449951 C-368.8142797 318.25350206 -370.86508844 321.29840141 -372.91015625 324.34765625 C-373.76395542 325.62546163 -374.61746825 326.90345838 -375.47070312 328.18164062 C-376.76865505 330.12550557 -378.06694211 332.06914112 -379.36645508 334.01196289 C-384.08133154 341.06169082 -388.74323831 348.1333499 -393.27319336 355.30395508 C-397.20022771 361.43519223 -401.31261445 367.44707849 -405.390625 373.47851562 C-406.07125 374.49236328 -406.751875 375.50621094 -407.453125 376.55078125 C-408.36819824 377.90683472 -408.36819824 377.90683472 -409.30175781 379.2902832 C-413.72204694 386.34330061 -415.26093832 391.70933056 -414 400 C-411.25913321 406.94560562 -406.04964983 412.55314308 -401.296875 418.20703125 C-399.04458523 420.94578496 -396.94593101 423.74736912 -394.875 426.625 C-394.22273438 427.52734375 -393.57046875 428.4296875 -392.8984375 429.359375 C-391.66674611 431.07259183 -390.44232278 432.79106636 -389.2265625 434.515625 C-384.78998922 440.57827265 -380.19325775 444.60224742 -373 447 C-363.21076614 448.32649996 -355.97316207 445.42943047 -348.13525391 439.6171875 C-343.99842407 436.40091312 -339.99091343 433.03579503 -335.98730469 429.65625 C-332.96378371 427.13640156 -329.85986806 424.72431391 -326.75 422.3125 C-322.50101049 419.00516242 -318.34762209 415.6203617 -314.25 412.125 C-306.52056532 405.61379144 -298.24456451 399.83508089 -290 394 C-290.93601246 392.58235006 -291.8738792 391.16592432 -292.8125 389.75 C-293.33457031 388.96109375 -293.85664063 388.1721875 -294.39453125 387.359375 C-296.59240378 384.10087618 -296.59240378 384.10087618 -299 381 C-299.66 381 -300.32 381 -301 381 C-301.2475 380.28972656 -301.495 379.57945312 -301.75 378.84765625 C-303.15254032 375.65249407 -304.88555965 373.21270296 -307 370.4375 C-307.39517822 369.91792725 -307.79035645 369.39835449 -308.19750977 368.86303711 C-311.81714904 364.14649439 -315.63806704 359.60457399 -319.46875 355.05859375 C-322.90957476 350.90093049 -326.17691601 346.62245413 -329.44921875 342.33203125 C-332.01739486 338.96666487 -334.62920615 335.63696819 -337.25 332.3125 C-341.71998331 326.63408319 -346.17886123 320.94711127 -350.625 315.25 C-351.24149414 314.46278564 -351.85798828 313.67557129 -352.49316406 312.86450195 C-353.35119629 311.76368286 -353.35119629 311.76368286 -354.2265625 310.640625 C-354.99347412 309.65884277 -354.99347412 309.65884277 -355.77587891 308.65722656 C-357 307 -357 307 -358 305 C-358.66 305 -359.32 305 -360 305 Z " fill="currentColor" transform="translate(432,17)"/>
<path d="M0 0 C2.48103991 2.02400624 3.56533526 3.92092677 5.02734375 6.7265625 C7.8425227 11.34508796 11.60475658 15.31970684 15.10546875 19.4296875 C17.60177517 22.39453143 19.99045904 25.44559298 22.390625 28.48828125 C23.96522291 30.43173182 25.57091456 32.32370324 27.2109375 34.2109375 C30.55875894 38.10047252 33.66983846 42.14692062 36.75 46.25 C37.29527344 46.96478516 37.84054688 47.67957031 38.40234375 48.41601562 C38.91667969 49.09986328 39.43101563 49.78371094 39.9609375 50.48828125 C40.4254834 51.10356689 40.8900293 51.71885254 41.36865234 52.3527832 C42.375 53.9375 42.375 53.9375 42.375 55.9375 C43.035 55.9375 43.695 55.9375 44.375 55.9375 C45.47298298 59.68894184 45.49596711 61.6108888 44.125 65.3125 C41.44330909 69.49010013 37.58355765 71.93977346 33.55078125 74.72265625 C30.16713631 77.08246766 26.92217365 79.5673617 23.6875 82.125 C23.10943604 82.58124756 22.53137207 83.03749512 21.93579102 83.50756836 C17.24460183 87.2238987 12.5860832 90.98057123 7.9375 94.75 C7.2875708 95.27682373 6.6376416 95.80364746 5.96801758 96.34643555 C2.21323951 99.40318837 -1.4828719 102.5148583 -5.12768555 105.70214844 C-8.66539618 108.62091834 -11.59234922 109.11380605 -16.0625 108.875 C-21.89785789 107.99873339 -24.84170951 105.23030206 -28.34765625 100.72265625 C-30.05692864 98.38863953 -31.72615828 96.02994285 -33.39013672 93.66357422 C-36.28856366 89.61219453 -39.32358576 85.65981859 -42.32470703 81.68432617 C-43.29458213 80.39626624 -44.25858278 79.10375949 -45.21630859 77.80664062 C-46.14623677 76.57275326 -47.10754587 75.36183124 -48.10009766 74.17773438 C-51.07212419 70.48543831 -52.39292644 67.71558159 -52.06445312 62.91455078 C-51.2820532 59.39462045 -49.4629896 56.76480379 -47.375 53.875 C-46.57636095 52.7186643 -45.77948038 51.56111208 -44.984375 50.40234375 C-44.62827148 49.903396 -44.27216797 49.40444824 -43.90527344 48.89038086 C-42.81896825 47.23337185 -41.82304845 45.51766219 -40.84863281 43.79248047 C-38.32209129 39.33149818 -35.51236046 35.06922505 -32.6875 30.79296875 C-31.84457397 29.51647209 -31.84457397 29.51647209 -30.98461914 28.21418762 C-29.80263342 26.42745189 -28.61926037 24.64163323 -27.43457031 22.85668945 C-26.22406559 21.02933687 -25.01770734 19.19923101 -23.81542969 17.36645508 C-22.07339794 14.71092466 -20.31943678 12.06365421 -18.5625 9.41796875 C-18.0269751 8.59717331 -17.4914502 7.77637787 -16.93969727 6.93070984 C-16.43237061 6.17264542 -15.92504395 5.41458099 -15.40234375 4.63354492 C-14.96140381 3.96626877 -14.52046387 3.29899261 -14.06616211 2.61149597 C-10.26816599 -1.80010365 -5.22285343 -2.1140121 0 0 Z M-5.625 24.9375 C-7.05095509 26.7658913 -8.40950425 28.60955052 -9.75 30.5 C-10.17724365 31.10118652 -10.6044873 31.70237305 -11.04467773 32.32177734 C-15.37948603 38.48794933 -19.54563787 44.76566329 -23.6875 51.0625 C-24.35475098 52.06998291 -25.02200195 53.07746582 -25.70947266 54.11547852 C-26.33257324 55.06994873 -26.95567383 56.02441895 -27.59765625 57.0078125 C-28.15718994 57.86133301 -28.71672363 58.71485352 -29.29321289 59.59423828 C-30.54017535 61.78825216 -31.31334063 63.44089888 -31.625 65.9375 C-30.40969266 68.22497373 -30.40969266 68.22497373 -28.625 69.9375 C-27.965 69.9375 -27.305 69.9375 -26.625 69.9375 C-26.40070312 70.45828125 -26.17640625 70.9790625 -25.9453125 71.515625 C-24.13075891 74.84409609 -21.83585825 77.71042576 -19.5 80.6875 C-19.03207031 81.28949219 -18.56414063 81.89148438 -18.08203125 82.51171875 C-16.93274993 83.98936616 -15.77928765 85.46376005 -14.625 86.9375 C-10.90832544 85.29752849 -7.85940669 82.93066635 -4.6875 80.4375 C-3.52998801 79.53770883 -2.37243471 78.63797082 -1.21484375 77.73828125 C-0.62300293 77.27631348 -0.03116211 76.8143457 0.57861328 76.33837891 C3.46123801 74.09041741 6.35434171 71.85613641 9.25 69.625 C9.79156738 69.20750488 10.33313477 68.79000977 10.89111328 68.35986328 C14.66052049 65.46327343 18.47659124 62.65732007 22.375 59.9375 C21.95347656 59.38320313 21.53195313 58.82890625 21.09765625 58.2578125 C20.54980469 57.53335938 20.00195312 56.80890625 19.4375 56.0625 C18.89222656 55.34320313 18.34695312 54.62390625 17.78515625 53.8828125 C16.375 51.9375 16.375 51.9375 15.375 49.9375 C14.715 49.9375 14.055 49.9375 13.375 49.9375 C13.1275 49.23625 12.88 48.535 12.625 47.8125 C10.08445343 41.93222897 10.08445343 41.93222897 5.375 37.9375 C4.7871875 36.9165625 4.7871875 36.9165625 4.1875 35.875 C1.70212537 31.84697905 -1.33509879 28.33706458 -4.625 24.9375 C-4.955 24.9375 -5.285 24.9375 -5.625 24.9375 Z " fill="currentColor" transform="translate(79.625,346.0625)"/>
<path d="M0 0 C2.8125 1.3125 2.8125 1.3125 5 3 C6.23534045 6.70602135 6.45528745 9.09753614 6 13 C2.96603283 18.31244053 -2.26957193 22.00751949 -7.0234375 25.69140625 C-9.25989157 27.4259789 -11.46811527 29.18028198 -13.6640625 30.96484375 C-24.76908582 39.97725066 -24.76908582 39.97725066 -29.625 43.0625 C-34.02254535 45.87364114 -37.90725917 49.22589836 -41.85424805 52.62133789 C-47.50219887 57.46930491 -53.34442517 62.04552638 -59.22070312 66.61181641 C-61.02344643 68.01829259 -62.81756507 69.43509618 -64.609375 70.85546875 C-70.82135417 75.77592351 -77.08018154 80.58830241 -83.51953125 85.2109375 C-86.53079677 87.38284239 -89.4898103 89.61904445 -92.44140625 91.87109375 C-95.70373926 94.23403671 -97.99277818 94.46237175 -102 94 C-106.23449245 91.49067114 -107.72357601 90.03658997 -109 85.25 C-108.63760922 81.27849292 -106.92853919 79.4825707 -104.0625 76.8125 C-102.06289349 75.16693147 -100.05601385 73.57132397 -98 72 C-97.36223633 71.50838379 -96.72447266 71.01676758 -96.06738281 70.51025391 C-93.2085349 68.31087944 -90.34363184 66.12008916 -87.46435547 63.94750977 C-82.91799343 60.51041996 -78.50416007 56.97080411 -74.1875 53.25 C-69.29121372 49.03540829 -64.24477353 45.09435665 -59.046875 41.2578125 C-55.18976984 38.39959867 -51.39212215 35.46827863 -47.59399414 32.5324707 C-43.99409707 29.75359318 -40.36355875 27.02343018 -36.68359375 24.3515625 C-34.91123488 22.98278088 -34.91123488 22.98278088 -33.16015625 21.12890625 C-30.61090563 18.61653448 -27.84946095 16.46629593 -25 14.3125 C-23.84243695 13.43621241 -22.68488513 12.55990998 -21.52734375 11.68359375 C-20.94194824 11.24128418 -20.35655273 10.79897461 -19.75341797 10.34326172 C-18.04574409 9.03504372 -16.36638461 7.6973766 -14.69140625 6.34765625 C-13.65886719 5.53167969 -12.62632812 4.71570313 -11.5625 3.875 C-10.17224609 2.75738281 -10.17224609 2.75738281 -8.75390625 1.6171875 C-5.51649739 -0.28392919 -3.69534121 -0.42363718 0 0 Z " fill="currentColor" transform="translate(373,127)"/>
<path d="M0 0 C6.60037031 4.57394083 12.49793394 10.8738226 14 19 C14.9241356 29.33213905 13.275958 37.39014532 6.5625 45.4375 C0.33009715 52.00000894 -6.47824693 54.03604722 -15.375 54.3125 C-23.01768259 54.15327745 -30.5179916 52.63428641 -36 47 C-41.79092005 40.60029092 -44.96024224 33.63013149 -45.375 24.9375 C-44.58846836 16.67891774 -41.82825426 9.99225276 -36 4 C-25.02661184 -4.86917215 -12.62243756 -7.10798394 0 0 Z M-24 18 C-26.18534347 22.2329552 -26.21097815 25.24296076 -24.9375 29.8125 C-22.82061643 33.2951149 -21.82614464 34.63959302 -18 36 C-14.00596081 36.18299383 -10.97662761 35.60100161 -7.5625 33.5 C-5.25737004 29.81179207 -4.80692564 26.31714264 -5 22 C-6.64853213 17.78708457 -8.90329785 15.85327002 -13 14 C-17.73770297 13.14964306 -20.48223308 14.87309607 -24 18 Z " fill="currentColor" transform="translate(435,73)"/>
<path d="M0 0 C2.91963173 1.98783437 4.61102978 3.4314697 5.48046875 6.9375 C5.64382215 9.26859715 5.72151631 10.75905521 5 13 C-1.3255362 20.23963103 -9.52685079 26.00387138 -17 32 C-18.01964844 32.82628906 -19.03929687 33.65257812 -20.08984375 34.50390625 C-23.88390661 37.39768301 -25.98143416 38.9332088 -30.8125 39.25 C-34.69145962 37.72883937 -36.56471319 36.39464222 -39 33 C-39.77442464 28.74066448 -39.50016589 26.79336658 -37.1875 23.125 C-30.5711823 16.15948776 -22.53636538 10.5131115 -14.75 4.9375 C-14.08895264 4.44805908 -13.42790527 3.95861816 -12.74682617 3.4543457 C-8.40223476 0.41416524 -5.47004345 -0.7413612 0 0 Z " fill="currentColor" transform="translate(173,285)"/>
<path d="M0 0 C3.07504636 2.02822207 4.66581629 3.49753176 5.48046875 7.16015625 C5.73905515 11.34646047 5.72751247 13.16148838 2.875 16.44921875 C-0.2126193 19.18864185 -3.36175076 21.78689938 -6.625 24.3125 C-7.23674072 24.78671387 -7.84848145 25.26092773 -8.47875977 25.74951172 C-9.72296592 26.71062739 -10.96880083 27.6696385 -12.21630859 28.62646484 C-13.85829075 29.89087651 -15.48648114 31.17314509 -17.11328125 32.45703125 C-26.09812744 39.35411235 -26.09812744 39.35411235 -32 39 C-35.57387602 37.41161066 -36.81089572 36.28365642 -39 33 C-39.34155364 28.98674471 -39.1873467 26.3804449 -37 23 C-34.95037963 21.21381953 -32.91751461 19.56635968 -30.75 17.9375 C-29.48935784 16.97034593 -28.2289483 16.0028886 -26.96875 15.03515625 C-25.99228516 14.29096436 -25.99228516 14.29096436 -24.99609375 13.53173828 C-21.10872374 10.5486953 -17.28158855 7.48823953 -13.44433594 4.44116211 C-8.64696641 0.65754737 -6.24842998 -0.63543356 0 0 Z " fill="currentColor" transform="translate(152,257)"/>
<path d="M0 0 C3.375 2 3.375 2 6 5 C6.78615917 9.06182237 6.97454157 11.26261503 4.95703125 14.859375 C1.82642413 18.82305684 -1.91631224 21.46623983 -6.16796875 24.1171875 C-8.50926663 25.67374692 -10.70743664 27.28612796 -12.92578125 29.0078125 C-13.62654785 29.54962158 -14.32731445 30.09143066 -15.04931641 30.6496582 C-16.45284699 31.74116846 -17.84992498 32.84103728 -19.23974609 33.94995117 C-23.08962667 36.92494474 -25.95120075 38.8750661 -31 39 C-34.52906067 37.39588152 -35.82772908 36.25840638 -38 33 C-38.53842887 29.76942679 -38.79996136 28.06842323 -38 25 C-35.78625918 22.11280189 -32.90825506 20.15363494 -30 18 C-28.87444874 17.11336611 -27.75227185 16.22243818 -26.6328125 15.328125 C-6.47395092 -0.74699434 -6.47395092 -0.74699434 0 0 Z " fill="currentColor" transform="translate(194,312)"/>
<path d="M0 0 C0.66 0.33 1.32 0.66 2 1 C-0.31 3.31 -2.62 5.62 -5 8 C-5.99 7.67 -6.98 7.34 -8 7 C-5.36 4.69 -2.72 2.38 0 0 Z " fill="currentColor" transform="translate(404,73)"/>
<path d="M0 0 C0 0.33 0 0.66 0 1 C-1.5778125 1.37125 -1.5778125 1.37125 -3.1875 1.75 C-6.8133541 2.76700786 -9.19910772 4.45373429 -12 7 C-9.69656113 0.26687101 -6.85869086 -0.25881852 0 0 Z " fill="currentColor" transform="translate(246,135)"/>
<path d="M0 0 C0 3 0 3 -1.3125 4.38671875 C-2.875 5.59114583 -4.4375 6.79557292 -6 8 C-6 5 -6 5 -4.6875 3.61328125 C-3.125 2.40885417 -1.5625 1.20442708 0 0 Z " fill="currentColor" transform="translate(445,139)"/>
</svg>
