<svg version="1.1" xmlns="http://www.w3.org/2000/svg" width="100" height="100" viewBox="0 0 500 500" stoke="currentColor" stroke-width="0">
<path d="M0 0 C1.70472834 -0.01152344 1.70472834 -0.01152344 3.44389564 -0.02327967 C4.7031085 -0.0215467 5.96232136 -0.01981374 7.25969219 -0.01802826 C8.60254324 -0.02319285 9.94539121 -0.02921841 11.28823489 -0.03603506 C14.9909916 -0.05221365 18.69367087 -0.05575633 22.39645875 -0.05723 C26.38498948 -0.06092445 30.3734797 -0.07601574 34.36198711 -0.08950043 C43.08919316 -0.11669554 51.81638088 -0.12872094 60.54362226 -0.13752174 C65.99008688 -0.14304184 71.43654438 -0.15151567 76.88300419 -0.16053009 C91.95439013 -0.18491923 107.02577035 -0.20551705 122.0971756 -0.21228027 C123.06228881 -0.21271941 124.02740203 -0.21315854 125.0217611 -0.21361098 C126.47295042 -0.21426581 126.47295042 -0.21426581 127.9534567 -0.21493387 C129.91398959 -0.21582081 131.87452247 -0.21671394 133.83505535 -0.21761322 C134.80755321 -0.21805608 135.78005107 -0.21849894 136.78201856 -0.21895522 C152.5439905 -0.22685314 168.30577761 -0.26176533 184.06767813 -0.30833226 C200.23938046 -0.35572535 216.41098998 -0.38068242 232.5827629 -0.38301611 C241.66701675 -0.38485157 250.75102983 -0.39640486 259.83521748 -0.43265533 C267.57006004 -0.46341182 275.30458746 -0.47372563 283.03947953 -0.45717913 C286.98759487 -0.44934943 290.93507516 -0.45130367 294.88311291 -0.47929382 C298.49630967 -0.50467628 302.10839121 -0.5024651 305.72158536 -0.4781124 C307.6504645 -0.47231645 309.57936205 -0.49614477 311.50809032 -0.52095652 C319.69551812 -0.42665702 319.69551812 -0.42665702 322.52804983 1.56405354 C323.89018059 3.16011047 323.89018059 3.16011047 325.67660809 6.26285553 C326.18707684 7.04789459 326.69754559 7.83293365 327.22348309 8.64176178 C327.81902996 9.72264069 327.81902996 9.72264069 328.42660809 10.82535553 C329.03762371 11.91010162 329.03762371 11.91010162 329.66098309 13.01676178 C330.8334319 15.60967743 331.62357643 17.39472675 331.67660809 20.26285553 C329.33700409 23.08696706 326.73984257 25.21161073 323.89535809 27.51676178 C321.02190765 29.95671753 318.74703336 32.10273274 316.67660809 35.26285553 C316.66023709 39.69939524 317.99249103 43.20431196 319.67660809 47.26285553 C320.03538827 48.58956788 320.36929499 49.92328562 320.67660809 51.26285553 C321.17295504 53.09718124 321.67320127 54.93045473 322.17660809 56.76285553 C323.58476754 61.88855594 323.58476754 61.88855594 324.0967741 63.97525787 C324.90666505 67.17049079 325.79330585 70.34404854 326.67270184 73.52066803 C327.07067401 74.9659294 327.46845419 76.41124366 327.86606121 77.85660553 C328.48744444 80.11458279 329.10978723 82.37226987 329.73544598 84.62906647 C333.94225738 99.81300027 333.94225738 99.81300027 335.30185223 107.27799225 C335.65313709 109.28471831 335.65313709 109.28471831 336.23544598 111.30387115 C338.00249454 119.15046644 335.19845676 130.28180651 331.27817059 137.07926178 C325.71198001 144.66828747 319.80269658 148.35135699 310.67660809 150.26285553 C305.85855754 150.66885876 301.06803165 150.66042201 296.23520184 150.62613678 C294.85857932 150.62561662 293.48195607 150.62614033 292.10533428 150.6276474 C289.23680643 150.62755828 286.36856313 150.61725248 283.50009441 150.59903717 C279.84667838 150.5763306 276.19367606 150.5758164 272.54020882 150.58255482 C269.70296413 150.58591594 266.8658116 150.57922499 264.02858448 150.56942558 C262.0341051 150.56377532 260.03960999 150.56500056 258.0451231 150.56639862 C241.28478736 150.43633826 241.28478736 150.43633826 236.05160809 146.07535553 C235.26785809 145.14723053 234.48410809 144.21910553 233.67660809 143.26285553 C232.49504616 142.11089994 231.30714405 140.96542372 230.11410809 139.82535553 C227.91039568 137.63601516 226.04362413 135.50113237 224.36410809 132.88785553 C222.94027448 130.18196425 222.94027448 130.18196425 220.67660809 129.26285553 C219.83606658 127.85337607 219.05172074 126.40996965 218.30160809 124.95035553 C216.8920853 122.3250163 215.79105206 120.37729951 213.67660809 118.26285553 C211.0512995 115.63754695 209.6121725 112.6687234 207.92270184 109.38394928 C206.8064385 107.25212015 206.8064385 107.25212015 205.19905758 105.88834763 C203.67660809 104.26285553 203.67660809 104.26285553 202.89863491 102.25281143 C201.84283606 99.54868602 200.91375574 98.14384809 198.67660809 96.26285553 C192.93343589 95.01502294 187.21365418 95.23492347 181.3611784 95.32633209 C179.5622533 95.3252744 177.76332727 95.32064297 175.96441936 95.31270599 C172.09149295 95.30322993 168.21977157 95.31892202 164.34699535 95.3540802 C158.21941937 95.40942551 152.09264844 95.40820219 145.96487713 95.3992691 C136.26803105 95.39176366 126.57171916 95.42152703 116.87499213 95.46748805 C99.52410149 95.54942755 82.17319792 95.58687281 64.82211661 95.58287978 C58.73534687 95.58319262 52.64918599 95.60575622 46.56255674 95.64641523 C42.76868423 95.6682071 38.97490532 95.67374671 35.18097591 95.67534065 C33.42703299 95.67958224 31.67309051 95.69070935 29.91924191 95.70938683 C17.79428704 95.83416667 8.75457299 94.92818567 -0.32339191 86.26285553 C-5.78677701 80.79947044 -6.34373733 76.37029448 -6.38589191 68.88785553 C-6.3699744 67.34613027 -6.35081103 65.80441913 -6.32339191 64.26285553 C-8.30339191 64.59285553 -10.28339191 64.92285553 -12.32339191 65.26285553 C-12.32339191 74.50285553 -12.32339191 83.74285553 -12.32339191 93.26285553 C-8.03339191 93.59285553 -3.74339191 93.92285553 0.67660809 94.26285553 C2.74596385 97.36688918 2.93178717 98.08185572 2.94223309 101.60660553 C2.94610027 102.85764069 2.94610027 102.85764069 2.95004559 104.13394928 C2.94231121 105.00148834 2.93457684 105.8690274 2.92660809 106.76285553 C2.93820965 108.06416412 2.93820965 108.06416412 2.95004559 109.39176178 C2.94746746 110.22578522 2.94488934 111.05980865 2.94223309 111.91910553 C2.93997723 112.68029694 2.93772137 113.44148834 2.93539715 114.22574615 C2.67660809 116.26285553 2.67660809 116.26285553 0.67660809 119.26285553 C-0.00401691 119.42785553 -0.68464191 119.59285553 -1.38589191 119.76285553 C-2.02526691 119.92785553 -2.66464191 120.09285553 -3.32339191 120.26285553 C-4.64964672 124.24161995 -4.43752971 128.03862054 -4.40517902 132.18473053 C-4.40211246 133.09718536 -4.39904591 134.0096402 -4.39588642 134.94974518 C-4.38872962 136.93209456 -4.37933872 138.91443684 -4.36799145 140.89676666 C-4.35063244 144.03149637 -4.34031224 147.16617533 -4.33207417 150.30094147 C-4.30758971 159.21407628 -4.27198421 168.12714262 -4.22744465 177.04019928 C-4.20070388 182.49010517 -4.1836338 187.93997155 -4.17257595 193.38993073 C-4.16635586 195.46961682 -4.15633782 197.54929506 -4.14249706 199.6289444 C-4.12334026 202.53300782 -4.11639317 205.43686257 -4.11221027 208.34098053 C-4.10344868 209.20445099 -4.09468708 210.06792145 -4.08565998 210.95755768 C-4.09549578 216.92101132 -4.09549578 216.92101132 -6.32339191 220.26285553 C-9.30290181 220.52939499 -12.07225011 220.61053336 -15.04995441 220.55582428 C-15.91277027 220.55157944 -16.77558613 220.54733459 -17.66454792 220.54296112 C-20.42614389 220.52613945 -23.18701574 220.48848151 -25.94839191 220.45035553 C-27.81817306 220.43531317 -29.68796562 220.42162399 -31.55776691 220.4093399 C-36.1465885 220.37622459 -40.73486735 220.32441892 -45.32339191 220.26285553 C-46.23810894 217.51870447 -46.43811617 215.99614904 -46.40568256 213.181633 C-46.39864307 212.35292191 -46.39160358 211.52421082 -46.38435078 210.67038727 C-46.37140476 209.76480072 -46.35845875 208.85921417 -46.34512043 207.92618561 C-46.33551289 206.96989761 -46.32590534 206.01360962 -46.31600666 205.0283432 C-46.28298791 201.86295017 -46.24266639 198.69769392 -46.20229816 195.53238678 C-46.17799987 193.33949518 -46.15415616 191.1465985 -46.1307497 188.9536972 C-46.06787993 183.17833423 -45.9988214 177.40306107 -45.92849445 171.62778473 C-45.85783718 165.73600102 -45.79300461 159.84415357 -45.72768879 153.95230865 C-45.59863913 142.38908757 -45.46305448 130.82595296 -45.32339191 119.26285553 C-46.27214191 119.30410553 -47.22089191 119.34535553 -48.19839191 119.38785553 C-51.32339191 119.26285553 -51.32339191 119.26285553 -53.32339191 117.26285553 C-53.58218098 115.13980865 -53.58218098 115.13980865 -53.58901691 112.54410553 C-53.59159504 111.61211334 -53.59417316 110.68012115 -53.59682941 109.71988678 C-53.58909504 108.74406647 -53.58136066 107.76824615 -53.57339191 106.76285553 C-53.58499348 105.29912506 -53.58499348 105.29912506 -53.59682941 103.80582428 C-53.59425129 102.87383209 -53.59167316 101.9418399 -53.58901691 100.98160553 C-53.58676105 100.1250235 -53.5845052 99.26844147 -53.58218098 98.3859024 C-53.32339191 96.26285553 -53.32339191 96.26285553 -51.32339191 94.26285553 C-45.38339191 93.76785553 -45.38339191 93.76785553 -39.32339191 93.26285553 C-39.32339191 81.38285553 -39.32339191 69.50285553 -39.32339191 57.26285553 C-40.97339191 56.93285553 -42.62339191 56.60285553 -44.32339191 56.26285553 C-44.11714191 56.84035553 -43.91089191 57.41785553 -43.69839191 58.01285553 C-43.2338402 60.80016581 -43.99154573 61.84316552 -45.32339191 64.26285553 C-49.03090558 64.46713244 -52.73696663 64.59080141 -56.44839191 64.70035553 C-58.01847004 64.78833405 -58.01847004 64.78833405 -59.62026691 64.8780899 C-67.28028028 65.04777375 -67.28028028 65.04777375 -70.31875324 62.76139069 C-71.82266379 60.99796288 -73.07057404 59.2088939 -74.32339191 57.26285553 C-76.57166987 54.95692942 -78.8383895 52.70204663 -81.22573566 50.54019928 C-82.20220051 49.62947662 -82.20220051 49.62947662 -83.19839191 48.70035553 C-83.81456379 48.14219147 -84.43073566 47.5840274 -85.06557941 47.00894928 C-85.48065754 46.43273834 -85.89573566 45.8565274 -86.32339191 45.26285553 C-86.02482207 43.9213098 -85.68657737 42.58836872 -85.32339191 41.26285553 C-85.25412223 38.50315145 -85.22921831 35.77089511 -85.26089191 33.01285553 C-85.26540363 32.2677774 -85.26991535 31.52269928 -85.27456379 30.75504303 C-85.28629946 28.92427913 -85.30423341 27.0935568 -85.32339191 25.26285553 C-84.33339191 24.93285553 -83.34339191 24.60285553 -82.32339191 24.26285553 C-81.62251868 22.94718121 -80.96464962 21.60859353 -80.32339191 20.26285553 C-76.56736876 14.72917257 -72.47649964 9.16412973 -65.63686848 7.67984772 C-59.32234613 7.10120938 -52.56269301 6.99602997 -46.32339191 8.26285553 C-44.32339191 10.26285553 -44.32339191 10.26285553 -44.19839191 13.38785553 C-44.23964191 14.33660553 -44.28089191 15.28535553 -44.32339191 16.26285553 C-42.67339191 15.93285553 -41.02339191 15.60285553 -39.32339191 15.26285553 C-38.89026691 13.80879303 -38.89026691 13.80879303 -38.44839191 12.32535553 C-37.32339191 9.26285553 -37.32339191 9.26285553 -35.32339191 8.26285553 C-33.1451423 8.17726435 -30.96423937 8.15572141 -28.78432941 8.16519928 C-27.48237629 8.16842194 -26.18042316 8.17164459 -24.83901691 8.1749649 C-23.45880793 8.18332087 -22.07859959 8.19178582 -20.69839191 8.20035553 C-19.31037266 8.20537052 -17.92235169 8.20993343 -16.53432941 8.2140274 C-13.13064059 8.22584577 -9.72703753 8.24232119 -6.32339191 8.26285553 C-6.63276691 6.83973053 -6.63276691 6.83973053 -6.94839191 5.38785553 C-7.07214191 4.35660553 -7.19589191 3.32535553 -7.32339191 2.26285553 C-4.71526819 -0.3452682 -3.63452948 0.00918169 0 0 Z M2.67660809 9.26285553 C2.61473309 19.34848053 2.55285809 29.43410553 2.48910809 39.82535553 C2.46179607 42.99846344 2.43448406 46.17157135 2.40634441 49.44083405 C2.39757956 51.96613942 2.38993562 54.49144904 2.38363934 57.01676178 C2.36829144 58.31964142 2.35294353 59.62252106 2.33713055 60.9648819 C2.32379337 70.03440454 2.32379337 70.03440454 5.67660809 78.26285553 C11.07203089 83.65827833 16.72826378 86.58741312 24.36660957 86.63614178 C25.05341836 86.62534745 25.74022715 86.61455313 26.44784832 86.6034317 C27.5791031 86.60397411 27.5791031 86.60397411 28.73321152 86.60452747 C31.15082099 86.60230572 33.56771811 86.57954168 35.98520184 86.55582428 C37.48719226 86.551408 38.98918731 86.54835081 40.49118328 86.54666901 C46.03222908 86.53100318 51.57317574 86.4891193 57.11410809 86.45035553 C69.50973309 86.38848053 81.90535809 86.32660553 94.67660809 86.26285553 C94.67660809 60.85285553 94.67660809 35.44285553 94.67660809 9.26285553 C64.31660809 9.26285553 33.95660809 9.26285553 2.67660809 9.26285553 Z M103.67660809 9.26285553 C104.00660809 16.52285553 104.33660809 23.78285553 104.67660809 31.26285553 C104.75318343 37.24248877 104.82212447 43.21008142 104.80697918 49.18839264 C104.80155402 51.72564261 104.80701105 54.26271973 104.81332684 56.7999649 C104.81689818 66.66508448 104.48936602 76.42922505 103.67660809 86.26285553 C104.73393642 86.25952461 104.73393642 86.25952461 105.81262493 86.2561264 C122.03345542 86.20742375 138.25354066 86.19703107 154.4743681 86.24404144 C161.75352774 86.26367846 169.0311936 86.25463855 176.31018353 86.18886566 C179.84730906 86.16421319 183.38357622 86.17427956 186.92068768 86.19672394 C188.49809505 86.19912994 190.07560998 86.18587853 191.65274334 86.1563797 C196.109366 86.07723219 200.34895088 86.05228696 204.67660809 87.26285553 C206.80781006 89.42569839 207.78781327 91.20009936 208.83041668 94.0384903 C209.75114097 96.45877853 210.7755882 97.55064742 212.67660809 99.26285553 C213.60327337 100.57494797 214.4967296 101.91083863 215.36410809 103.26285553 C217.81987138 106.99881623 220.3358694 110.68139459 222.92660809 114.32535553 C223.59176434 115.26508209 224.25692059 116.20480865 224.94223309 117.17301178 C225.51457684 117.86266022 226.08692059 118.55230865 226.67660809 119.26285553 C227.33660809 119.26285553 227.99660809 119.26285553 228.67660809 119.26285553 C228.74750652 119.78879303 228.81840496 120.31473053 228.89145184 120.85660553 C231.08203895 127.57004663 237.65240707 135.77194737 243.98910809 139.01285553 C248.76908418 140.63318641 252.94532609 141.38782683 257.98593426 141.39225006 C259.02018032 141.39540222 260.05442638 141.39855438 261.12001324 141.40180206 C262.77804722 141.39876572 262.77804722 141.39876572 264.46957684 141.39566803 C265.61195309 141.39662476 266.75432934 141.39758148 267.93132305 141.3985672 C270.34112891 141.39924672 272.75093662 141.39740835 275.16073895 141.39322662 C278.86073154 141.38786043 282.56060356 141.39318694 286.26059246 141.39957428 C288.60108752 141.39891375 290.94158251 141.3976331 293.28207684 141.39566803 C294.39350552 141.39769226 295.5049342 141.39971649 296.65004253 141.40180206 C297.67483212 141.3986499 298.6996217 141.39549774 299.75546551 141.39225006 C300.65971767 141.39145447 301.56396984 141.39065887 302.49562359 141.38983917 C304.72298343 141.40403004 304.72298343 141.40403004 306.67660809 140.26285553 C307.58410809 140.15973053 308.49160809 140.05660553 309.42660809 139.95035553 C316.18071905 138.52160129 320.85358171 133.80163772 324.67660809 128.26285553 C329.08458223 119.1928884 326.55395363 109.41333281 323.67660809 100.26285553 C323.10628652 98.20250464 322.54356119 96.14003329 321.98910809 94.07535553 C321.6120573 92.692836 321.6120573 92.692836 321.22738934 91.28238678 C320.95475262 90.28271881 320.95475262 90.28271881 320.67660809 89.26285553 C320.01660809 89.26285553 319.35660809 89.26285553 318.67660809 89.26285553 C318.8686784 88.71242584 319.06074871 88.16199615 319.25863934 87.59488678 C319.78490378 84.65862627 319.2145764 82.800029 318.36410809 79.95035553 C317.96772137 78.59490631 317.96772137 78.59490631 317.56332684 77.21207428 C317.27070965 76.23883209 316.97809246 75.2655899 316.67660809 74.26285553 C314.76995583 67.61805251 312.88270023 60.96828046 311.05282879 54.30191803 C310.67663109 52.94115442 310.29543085 51.58176405 309.9092741 50.22379303 C309.34611143 48.24015842 308.80080004 46.25231879 308.25863934 44.26285553 C307.76714397 42.49941803 307.76714397 42.49941803 307.26571941 40.70035553 C306.61389768 36.89693656 306.84954842 34.01978127 307.67660809 30.26285553 C309.30551434 28.33707428 309.30551434 28.33707428 311.23910809 26.95035553 C312.41139101 26.0894234 313.56475382 25.20052897 314.67660809 24.26285553 C314.67660809 23.60285553 314.67660809 22.94285553 314.67660809 22.26285553 C315.31598309 22.01535553 315.95535809 21.76785553 316.61410809 21.51285553 C318.75127583 20.43920766 318.75127583 20.43920766 319.67660809 18.57535553 C319.8678283 15.25378128 319.8678283 15.25378128 315.67660809 9.26285553 C245.71660809 9.26285553 175.75660809 9.26285553 103.67660809 9.26285553 Z M-67.74136066 21.27506256 C-68.28405598 21.84853424 -68.82675129 22.42200592 -69.38589191 23.01285553 C-69.94792316 23.6005069 -70.50995441 24.18815826 -71.08901691 24.79361725 C-74.31105704 28.43011472 -76.34694982 31.41458327 -76.82339191 36.38785553 C-76.10574946 43.05041267 -71.63789678 46.92557059 -66.82729816 51.08316803 C-64.32339191 53.26285553 -64.32339191 53.26285553 -63.32339191 55.26285553 C-60.02339191 55.26285553 -56.72339191 55.26285553 -53.32339191 55.26285553 C-53.32339191 42.72285553 -53.32339191 30.18285553 -53.32339191 17.26285553 C-61.91742192 16.84211915 -61.91742192 16.84211915 -67.74136066 21.27506256 Z M-28.32339191 17.26285553 C-28.65339191 42.67285553 -28.98339191 68.08285553 -29.32339191 94.26285553 C-27.01339191 94.26285553 -24.70339191 94.26285553 -22.32339191 94.26285553 C-22.32339191 68.85285553 -22.32339191 43.44285553 -22.32339191 17.26285553 C-24.30339191 17.26285553 -26.28339191 17.26285553 -28.32339191 17.26285553 Z M-13.32339191 17.26285553 C-13.32339191 29.80285553 -13.32339191 42.34285553 -13.32339191 55.26285553 C-11.01339191 55.26285553 -8.70339191 55.26285553 -6.32339191 55.26285553 C-6.32339191 42.72285553 -6.32339191 30.18285553 -6.32339191 17.26285553 C-8.63339191 17.26285553 -10.94339191 17.26285553 -13.32339191 17.26285553 Z M-44.32339191 25.26285553 C-44.32339191 32.52285553 -44.32339191 39.78285553 -44.32339191 47.26285553 C-42.34339191 47.26285553 -40.36339191 47.26285553 -38.32339191 47.26285553 C-38.32339191 40.00285553 -38.32339191 32.74285553 -38.32339191 25.26285553 C-40.30339191 25.26285553 -42.28339191 25.26285553 -44.32339191 25.26285553 Z M-44.32339191 103.26285553 C-44.32339191 105.57285553 -44.32339191 107.88285553 -44.32339191 110.26285553 C-43.35401691 110.38660553 -42.38464191 110.51035553 -41.38589191 110.63785553 C-39.86995441 110.94723053 -39.86995441 110.94723053 -38.32339191 111.26285553 C-36.85235813 114.20492309 -37.09992599 116.88289912 -37.00698566 120.16910553 C-36.98615925 120.89734528 -36.96533283 121.62558502 -36.94387531 122.37589264 C-36.87661255 124.83809402 -36.81812349 127.30040156 -36.76089191 129.76285553 C-36.73971302 130.61146149 -36.71853413 131.46006744 -36.69671345 132.33438873 C-36.05457363 158.63750523 -36.2343634 184.95424515 -36.32339191 211.26285553 C-29.06339191 211.26285553 -21.80339191 211.26285553 -14.32339191 211.26285553 C-13.99339191 178.59285553 -13.66339191 145.92285553 -13.32339191 112.26285553 C-11.01339191 111.60285553 -8.70339191 110.94285553 -6.32339191 110.26285553 C-6.32339191 107.95285553 -6.32339191 105.64285553 -6.32339191 103.26285553 C-18.86339191 103.26285553 -31.40339191 103.26285553 -44.32339191 103.26285553 Z " fill="currentColor" transform="translate(124.32339191436768,170.73714447021484)"/>
<path d="M0 0 C2.25451698 0.03446302 4.50513614 0.02058953 6.75976562 0.0012207 C8.2076988 0.00811696 9.65562199 0.01778737 11.10351562 0.03051758 C12.40369629 0.04139404 13.70387695 0.05227051 15.04345703 0.06347656 C20.15671375 0.82464743 23.20449143 3.13262503 26.75195312 6.78442383 C29.81444203 11.37815719 31.88470765 16.3701874 33.62695312 21.59692383 C34.26446688 23.22520572 34.9112029 24.8498912 35.56445312 26.47192383 C35.90347656 27.3149707 36.2425 28.15801758 36.59179688 29.02661133 C36.93339844 29.87481445 37.275 30.72301758 37.62695312 31.59692383 C38.9369269 34.85300003 40.21805851 38.11766808 41.46679688 41.39770508 C41.80775391 42.29295898 42.14871094 43.18821289 42.5 44.1105957 C43.0269043 45.49601562 43.0269043 45.49601562 43.56445312 46.90942383 C43.91185547 47.82143555 44.25925781 48.73344727 44.6171875 49.6730957 C45.30152654 51.47093557 45.98457845 53.26926597 46.66625977 55.06811523 C47.2752604 56.67117204 47.88851677 58.27262386 48.50756836 59.87182617 C49.86903908 63.41672488 51.05819225 66.87379336 51.81445312 70.59692383 C51.97300781 71.36004883 52.1315625 72.12317383 52.29492188 72.90942383 C52.40449219 73.46629883 52.5140625 74.02317383 52.62695312 74.59692383 C53.28695312 74.59692383 53.94695312 74.59692383 54.62695312 74.59692383 C55.2987993 76.69944244 55.96426281 78.80400146 56.62695312 80.90942383 C57.18382812 82.66706055 57.18382812 82.66706055 57.75195312 84.46020508 C58.62695312 87.59692383 58.62695312 87.59692383 58.62695312 90.59692383 C59.28695312 90.59692383 59.94695312 90.59692383 60.62695312 90.59692383 C59.46296437 101.4897738 59.46296437 101.4897738 56.31445312 105.65942383 C54.98414063 106.61848633 54.98414063 106.61848633 53.62695312 107.59692383 C52.58667969 108.38812622 52.58667969 108.38812622 51.52539062 109.1953125 C47.48977345 111.14683526 43.99022769 111.00910999 39.56445312 110.96020508 C38.69554443 110.96070358 37.82663574 110.96120209 36.93139648 110.9617157 C35.09909776 110.9593811 33.26679548 110.94968888 31.43457031 110.93310547 C28.63642577 110.90950373 25.83923453 110.91255045 23.04101562 110.91918945 C21.2571558 110.91361239 19.47329997 110.90650233 17.68945312 110.89770508 C16.85599365 110.89861649 16.02253418 110.89952789 15.16381836 110.90046692 C10.90131705 110.84866341 7.47232413 110.66064326 3.62695312 108.59692383 C-0.08272453 104.43758827 -1.70315422 100.09004358 -2.37304688 94.59692383 C-3.03304688 94.26692383 -3.69304687 93.93692383 -4.37304688 93.59692383 C-5.00585938 90.87426758 -5.00585938 90.87426758 -5.49804688 87.53442383 C-5.665625 86.42969727 -5.83320313 85.3249707 -6.00585938 84.18676758 C-6.12703125 83.33211914 -6.24820312 82.4774707 -6.37304688 81.59692383 C-7.03304688 81.59692383 -7.69304687 81.59692383 -8.37304688 81.59692383 C-8.68681208 80.05551416 -8.99899153 78.51378168 -9.31054688 76.97192383 C-9.49488281 76.06313477 -9.67921875 75.1543457 -9.86914062 74.21801758 C-10.26337562 72.16738439 -10.58281287 70.10234112 -10.87304688 68.03442383 C-11.03804688 67.23004883 -11.20304687 66.42567383 -11.37304688 65.59692383 C-12.03304688 65.26692383 -12.69304687 64.93692383 -13.37304688 64.59692383 C-14.04882812 62.43676758 -14.04882812 62.43676758 -14.68554688 59.53442383 C-15.90185488 54.3527035 -17.3318103 49.29326258 -18.93554688 44.22192383 C-19.14542236 43.55668701 -19.35529785 42.8914502 -19.5715332 42.20605469 C-21.76928995 35.23801688 -21.76928995 35.23801688 -24.22460938 28.35864258 C-26.42174604 22.46632153 -27.71484807 16.79954644 -25.75195312 10.65161133 C-20.58564063 0.04344967 -10.46421582 -0.17737899 0 0 Z M-16.37304688 13.59692383 C-16.74366793 18.229687 -16.24137903 21.38452502 -14.23632812 25.56567383 C-12.78568639 28.9789485 -11.95232248 32.56057256 -11.02148438 36.14379883 C-10.5362014 37.97968863 -9.97354591 39.79542672 -9.37304688 41.59692383 C-8.71304687 41.59692383 -8.05304688 41.59692383 -7.37304688 41.59692383 C-7.57285156 42.15637695 -7.77265625 42.71583008 -7.97851562 43.29223633 C-8.482759 46.23781645 -7.81201329 47.7164781 -6.68554688 50.47192383 C-4.53643422 56.01202393 -2.88269206 61.60949066 -1.30273438 67.33520508 C-0.7347459 69.32793774 -0.13330027 71.31199415 0.52539062 73.27661133 C1.50565439 76.23130708 2.40479677 79.19281487 3.28320312 82.17895508 C3.58355469 83.19280273 3.88390625 84.20665039 4.19335938 85.2512207 C4.82106681 87.37465776 5.44337726 89.49969696 6.06054688 91.6262207 C6.36089844 92.63362305 6.66125 93.64102539 6.97070312 94.67895508 C7.24076172 95.599104 7.51082031 96.51925293 7.7890625 97.46728516 C8.42224399 99.77314748 8.42224399 99.77314748 10.62695312 100.59692383 C11.61695313 100.10192383 11.61695313 100.10192383 12.62695312 99.59692383 C12.95695312 100.58692383 13.28695312 101.57692383 13.62695312 102.59692383 C17.78951432 102.67146005 21.95171493 102.72570637 26.11474609 102.76171875 C27.5288775 102.77674208 28.9429628 102.79716687 30.35693359 102.82324219 C32.39757709 102.85991337 34.43760105 102.87671419 36.47851562 102.88989258 C38.31663818 102.91345825 38.31663818 102.91345825 40.19189453 102.9375 C44.01770842 102.55818157 46.40175338 101.67121119 49.62695312 99.59692383 C50.9652105 95.50343067 50.88378093 92.65333267 49.31445312 88.72192383 C47.97930465 85.53371698 47.97930465 85.53371698 45.62695312 84.59692383 C46.12195313 83.11192383 46.12195313 83.11192383 46.62695312 81.59692383 C45.81503535 79.02575873 45.81503535 79.02575873 44.50195312 76.22192383 C42.58981916 71.83619828 40.76538904 67.44416654 39.06445312 62.97192383 C35.43301094 53.1231764 35.43301094 53.1231764 31.06445312 43.59692383 C29.41818511 40.16123406 28.39701555 36.72375725 27.37304688 33.06176758 C26.59629582 30.49564236 25.64979215 28.07520046 24.62695312 25.59692383 C24.17578125 24.44836914 23.72460938 23.29981445 23.25976562 22.11645508 C22.75800241 20.88043628 22.25538351 19.64476453 21.75195312 18.40942383 C21.50832031 17.78100586 21.2646875 17.15258789 21.01367188 16.50512695 C19.58700537 12.97486885 19.58700537 12.97486885 16.88012695 10.4230957 C12.21979539 8.71429063 7.0943494 9.27051318 2.18945312 9.28442383 C1.05701172 9.26831055 -0.07542969 9.25219727 -1.2421875 9.2355957 C-2.33595703 9.23495117 -3.42972656 9.23430664 -4.55664062 9.23364258 C-5.55236084 9.23066162 -6.54808105 9.22768066 -7.57397461 9.22460938 C-11.12644601 9.6971361 -13.821317 11.04519395 -16.37304688 13.59692383 Z " fill="currentColor" transform="translate(366.373046875,186.403076171875)"/>
<path d="M0 0 C4.80597648 3.02630361 6.92474298 6.94986957 9.125 12.0625 C9.62 13.031875 10.115 14.00125 10.625 15 C11.55447516 20.69303536 9.74554132 25.71738973 6.5 30.4140625 C1.92982879 35.8312913 -1.46983186 38.17987356 -8.625 38.875 C-15.32278283 39.34057759 -19.17516354 37.91241823 -25.125 34.9375 C-29.44425891 30.3097226 -31.13181927 24.74453381 -31.375 18.5 C-31.09488064 12.23232922 -29.6093777 7.58230882 -24.93359375 3.2734375 C-17.45606596 -2.53782719 -8.83337886 -4.31294169 0 0 Z M-17.875 10.0625 C-20.14410423 11.96561968 -20.75084103 13.23529087 -21.1875 16.14453125 C-21.39549919 20.06401604 -21.17720352 22.49435738 -19.3125 26 C-16.15864067 28.66865021 -13.97485053 29.50658806 -9.875 30.0625 C-5.54798812 28.90863016 -3.51944684 27.9486144 -0.875 24.3125 C0.63068253 19.41903176 -0.12582925 15.93542686 -2 11.25 C-6.73743026 5.72299803 -12.08797056 6.72382917 -17.875 10.0625 Z " fill="currentColor" transform="translate(171.875,211.9375)"/>
<path d="M0 0 C1 4 1 4 1 4 Z " fill="currentColor" transform="translate(69,221)"/>
</svg>
