<svg version="1.1" xmlns="http://www.w3.org/2000/svg" width="100" height="100" viewBox="0 0 512 512">
<path d="M0 0 C0.94751129 -0.01582626 1.89502258 -0.03165253 2.87124634 -0.04795837 C3.91432953 -0.06007355 4.95741272 -0.07218872 6.03210449 -0.08467102 C7.12824066 -0.10087997 8.22437683 -0.11708893 9.35372925 -0.13378906 C19.48069101 -0.27415526 29.60856704 -0.35360734 39.73630524 -0.41270733 C47.2160802 -0.45720323 54.69401154 -0.53419619 62.17296267 -0.65429181 C68.07495692 -0.74584633 73.97655904 -0.78218189 79.8792572 -0.80016518 C82.38314213 -0.81608532 84.88698072 -0.84928517 87.39039612 -0.90032005 C108.26029175 -1.30532191 108.26029175 -1.30532191 112.95887756 2.44424438 C115.47570801 5.18266296 115.47570801 5.18266296 117.54837036 7.92358398 C119.86740476 10.61526397 121.01430276 10.99976824 124.49865723 11.36698914 C126.23716453 11.38671204 127.9768584 11.3549857 129.71374512 11.27738953 C130.65013321 11.27832108 131.5865213 11.27925262 132.55128479 11.2802124 C135.51559111 11.27538054 138.47322007 11.20371859 141.43640137 11.12504578 C145.34133007 11.07039787 149.24597414 11.04227652 153.15124512 11.02738953 C154.07770844 11.02194122 155.00417175 11.01649292 155.95870972 11.01087952 C164.98700671 11.03841074 172.59865829 12.67312116 180.49890137 17.18754578 C181.38577637 17.68254578 182.27265137 18.17754578 183.18640137 18.68754578 C185.28158864 20.04658617 186.91165422 21.26614134 188.49890137 23.18754578 C188.49890137 23.84754578 188.49890137 24.50754578 188.49890137 25.18754578 C189.0957373 25.42215515 189.69257324 25.65676453 190.30749512 25.89848328 C196.92571347 29.79155289 200.05014418 40.12758093 202.0643425 47.16241932 C202.51014061 49.23992279 202.63012771 51.09185251 202.63934326 53.21456909 C202.64505341 54.00640594 202.65076355 54.7982428 202.65664673 55.61407471 C202.65776459 56.47387436 202.65888245 57.33367401 202.66003418 58.2195282 C202.66499908 59.13224487 202.66996399 60.04496155 202.67507935 60.9853363 C202.68968208 64.00457007 202.69650064 67.02375125 202.70202637 70.04301453 C202.70778036 72.14566041 202.71353806 74.24830628 202.71929932 76.35095215 C202.72980461 80.76173649 202.73565004 85.17250264 202.73913574 89.58329773 C202.74461263 95.22104671 202.76862556 100.85855323 202.7971077 106.49622631 C202.8157814 110.84152923 202.82094225 115.18677438 202.82247162 119.53211403 C202.82548911 121.60963068 202.83348698 123.68714654 202.8466568 125.76462364 C202.86381256 128.6794638 202.86181355 131.59371981 202.85534668 134.5085907 C202.86456146 135.3582692 202.87377625 136.20794769 202.88327026 137.08337402 C202.80873314 147.86996057 198.77228858 156.2651863 191.49890137 164.18754578 C184.1775171 169.87330164 178.7538415 171.18754578 169.49890137 171.18754578 C169.49890137 176.46754578 169.49890137 181.74754578 169.49890137 187.18754578 C164.87890137 187.18754578 160.25890137 187.18754578 155.49890137 187.18754578 C155.49890137 182.56754578 155.49890137 177.94754578 155.49890137 173.18754578 C154.5179248 173.32031921 153.53694824 173.45309265 152.52624512 173.58988953 C151.16299624 173.76852214 149.79971303 173.94689291 148.43640137 174.12504578 C147.79895996 174.2120575 147.16151855 174.29906921 146.50476074 174.38871765 C139.19710445 175.33276894 131.85023202 175.73810624 124.49890137 176.18754578 C124.54886513 177.02081139 124.54886513 177.02081139 124.59983826 177.87091064 C124.93534824 183.72715615 125.1593101 189.58062808 125.32287598 195.44413757 C125.39767614 197.62235038 125.49957415 199.79982642 125.63049316 201.97538757 C125.81552797 205.13258932 125.89808466 208.27976468 125.96374512 211.44145203 C126.0411644 212.39210037 126.11858368 213.34274872 126.198349 214.32220459 C126.20708245 221.56697407 122.97075678 226.14506471 118.23693848 231.31034851 C110.84251094 238.62818801 104.17370386 240.10900381 94.00344849 240.11784363 C92.0773802 240.07109339 90.15138282 240.02133913 88.22546387 239.96879578 C86.20580693 239.96364928 84.18612996 239.96387289 82.16647339 239.96916199 C77.96068125 239.96423397 73.75974964 239.90875764 69.55505371 239.81352234 C64.18390803 239.69400464 58.81905744 239.68145135 53.44683266 239.70391083 C49.28712938 239.71314414 45.12882484 239.67668633 40.96946335 239.6255188 C38.98973743 239.60454255 37.00985325 239.59504135 35.03001785 239.59759521 C17.74523409 239.56367739 17.74523409 239.56367739 11.71911621 233.72465515 C8.49890137 229.76749531 8.49890137 229.76749531 8.49890137 227.18754578 C7.85952637 226.87817078 7.22015137 226.56879578 6.56140137 226.25004578 C4.49890137 225.18754578 4.49890137 225.18754578 3.49890137 224.18754578 C3.40332101 222.74540578 3.37701742 221.29860498 3.37864685 219.853302 C3.37658485 218.45028336 3.37658485 218.45028336 3.3744812 217.0189209 C3.37807648 215.9845842 3.38167175 214.9502475 3.38537598 213.88456726 C3.38522995 212.8017749 3.38508392 211.71898254 3.38493347 210.6033783 C3.38563314 207.00511203 3.39342803 203.4068968 3.40124512 199.80863953 C3.40310911 197.32142159 3.4045331 194.83420329 3.40553284 192.34698486 C3.40896787 186.45733387 3.41685859 180.56770187 3.42688233 174.67805868 C3.4391389 167.31729204 3.44452346 159.95652313 3.45007324 152.5957489 C3.46081322 139.45967179 3.47770047 126.32360995 3.49890137 113.18754578 C2.57664513 112.8895533 2.57664513 112.8895533 1.63575745 112.58554077 C0.82755051 112.32102615 0.01934357 112.05651154 -0.81335449 111.78398132 C-1.61381699 111.52344467 -2.41427948 111.26290802 -3.23899841 110.99447632 C-14.27331105 107.05834484 -23.18242408 98.45935274 -28.59094238 88.26567078 C-29.50109863 86.18754578 -29.50109863 86.18754578 -30.50109863 82.18754578 C-33.47109863 81.85754578 -36.44109863 81.52754578 -39.50109863 81.18754578 C-39.50109863 82.83754578 -39.50109863 84.48754578 -39.50109863 86.18754578 C-41.48109863 86.18754578 -43.46109863 86.18754578 -45.50109863 86.18754578 C-45.50109863 96.74754578 -45.50109863 107.30754578 -45.50109863 118.18754578 C-41.87109863 118.18754578 -38.24109863 118.18754578 -34.50109863 118.18754578 C-33.50109863 119.18754578 -33.50109863 119.18754578 -33.36828613 121.65629578 C-33.37086426 122.65660828 -33.37344238 123.65692078 -33.37609863 124.68754578 C-33.37223145 126.18801453 -33.37223145 126.18801453 -33.36828613 127.71879578 C-33.50109863 130.18754578 -33.50109863 130.18754578 -34.50109863 131.18754578 C-36.16726978 131.2281841 -37.83497958 131.23026678 -39.50109863 131.18754578 C-39.48999557 132.34742004 -39.47889252 133.50729431 -39.467453 134.70231628 C-39.36596672 145.64854894 -39.29108015 156.59468577 -39.24203777 167.54128265 C-39.21597659 173.16868747 -39.18064146 178.7957116 -39.12390137 184.42289734 C-39.06945847 189.85644253 -39.03965193 195.28962222 -39.02671242 200.72341919 C-39.01749464 202.79343416 -38.99949428 204.86342978 -38.97244835 206.93328857 C-38.9359952 209.83943959 -38.93116012 212.74409248 -38.93347168 215.6504364 C-38.9154953 216.50064362 -38.89751892 217.35085083 -38.8789978 218.2268219 C-38.93169817 224.37550702 -40.64717543 228.39891105 -44.50109863 233.18754578 C-50.1753254 238.45647063 -54.88672389 238.39522178 -62.25109863 238.43754578 C-63.57367676 238.46848328 -63.57367676 238.46848328 -64.92297363 238.50004578 C-71.20584232 238.5374438 -76.21571288 237.93915032 -81.20812988 233.75785828 C-86.01374472 227.47489894 -86.79365687 222.84806184 -86.72814941 215.17460632 C-86.72844147 214.2765477 -86.72873352 213.37848907 -86.72903442 212.45321655 C-86.72764434 209.4934666 -86.71209816 206.53397035 -86.69641113 203.57426453 C-86.69267986 201.51874936 -86.68983343 199.46323242 -86.68783569 197.40771484 C-86.68020822 192.00393238 -86.66056726 186.60025784 -86.63842773 181.19651794 C-86.61795028 175.6798702 -86.60882991 170.16320497 -86.59875488 164.64653015 C-86.57732059 153.82682134 -86.54319527 143.00719254 -86.50109863 132.18754578 C-88.48109863 131.85754578 -90.46109863 131.52754578 -92.50109863 131.18754578 C-92.52796416 129.2084518 -92.54743239 127.22925607 -92.56359863 125.25004578 C-92.5752002 124.14789734 -92.58680176 123.0457489 -92.59875488 121.91020203 C-92.50109863 119.18754578 -92.50109863 119.18754578 -91.50109863 118.18754578 C-87.87109863 118.18754578 -84.24109863 118.18754578 -80.50109863 118.18754578 C-80.50109863 107.62754578 -80.50109863 97.06754578 -80.50109863 86.18754578 C-82.48109863 86.18754578 -84.46109863 86.18754578 -86.50109863 86.18754578 C-86.50109863 84.53754578 -86.50109863 82.88754578 -86.50109863 81.18754578 C-89.47109863 81.18754578 -92.44109863 81.18754578 -95.50109863 81.18754578 C-95.50109863 82.83754578 -95.50109863 84.48754578 -95.50109863 86.18754578 C-107.38109863 86.18754578 -119.26109863 86.18754578 -131.50109863 86.18754578 C-131.50109863 83.54754578 -131.50109863 80.90754578 -131.50109863 78.18754578 C-132.08069336 78.04945496 -132.66028809 77.91136414 -133.25744629 77.76908875 C-136.87066008 76.8325626 -140.35746418 75.55192733 -143.87609863 74.31254578 C-144.61859863 74.05602234 -145.36109863 73.7994989 -146.12609863 73.53520203 C-156.96390943 69.72473498 -156.96390943 69.72473498 -159.50109863 67.18754578 C-159.58949534 64.81186058 -159.61640169 62.46545904 -159.59875488 60.08988953 C-159.59733994 59.38103104 -159.59592499 58.67217255 -159.59446716 57.9418335 C-159.58885306 55.66952865 -159.57629826 53.39732102 -159.56359863 51.12504578 C-159.55858545 49.58793782 -159.55402222 48.05082833 -159.54992676 46.51371765 C-159.53887906 42.73828936 -159.52160505 38.96293407 -159.50109863 35.18754578 C-158.87131104 34.93650085 -158.24152344 34.68545593 -157.59265137 34.42680359 C-153.50483078 32.79490531 -149.41899776 31.15975011 -145.34875488 29.48442078 C-144.71775879 29.22660828 -144.0867627 28.96879578 -143.43664551 28.70317078 C-142.15904029 28.18093799 -140.88305722 27.65472337 -139.60852051 27.12504578 C-136.73669501 25.95845967 -134.63354981 25.18754578 -131.50109863 25.18754578 C-131.52172363 23.88817078 -131.54234863 22.58879578 -131.56359863 21.25004578 C-131.58509318 19.89588944 -131.57258062 18.53998495 -131.50109863 17.18754578 C-129.66550027 15.35194741 -126.73112367 16.05710223 -124.27062988 16.05473328 C-122.99252441 16.05344421 -121.71441895 16.05215515 -120.39758301 16.05082703 C-119.39151001 16.05396912 -119.39151001 16.05396912 -118.3651123 16.05717468 C-116.33939967 16.06247823 -114.3139133 16.05725391 -112.28820801 16.05082703 C-110.36138184 16.05276062 -110.36138184 16.05276062 -108.39562988 16.05473328 C-106.62989624 16.05642517 -106.62989624 16.05642517 -104.82849121 16.05815125 C-101.63435769 16.18236364 -98.63732283 16.58730293 -95.50109863 17.18754578 C-95.50109863 19.16754578 -95.50109863 21.14754578 -95.50109863 23.18754578 C-92.53109863 23.18754578 -89.56109863 23.18754578 -86.50109863 23.18754578 C-86.50109863 21.20754578 -86.50109863 19.22754578 -86.50109863 17.18754578 C-81.70025096 15.95237623 -76.99933518 16.0432577 -72.07922363 16.05473328 C-71.1786322 16.05377655 -70.27804077 16.05281982 -69.35015869 16.05183411 C-67.45401947 16.05115549 -65.55787789 16.05298753 -63.66174316 16.05717468 C-60.74746557 16.06255248 -57.83334036 16.05720614 -54.91906738 16.05082703 C-53.07661912 16.05148737 -51.23417096 16.05276764 -49.39172363 16.05473328 C-48.51574524 16.05270905 -47.63976685 16.05068481 -46.73724365 16.04859924 C-40.61606548 16.07257893 -40.61606548 16.07257893 -39.50109863 17.18754578 C-39.4602908 19.18712941 -39.45855507 21.18799832 -39.50109863 23.18754578 C-38.51109863 22.85754578 -37.52109863 22.52754578 -36.50109863 22.18754578 C-34.50148299 22.14833763 -32.50060499 22.1431123 -30.50109863 22.18754578 C-30.27422363 21.56879578 -30.04734863 20.95004578 -29.81359863 20.31254578 C-28.11693421 17.56556528 -26.44858152 17.32119304 -23.50109863 16.18754578 C-23.17109863 15.19754578 -22.84109863 14.20754578 -22.50109863 13.18754578 C-20.22075629 11.35692961 -17.95913184 9.66433594 -15.56359863 8.00004578 C-14.91713379 7.53662781 -14.27066895 7.07320984 -13.60461426 6.5957489 C-8.77088877 3.18754578 -8.77088877 3.18754578 -6.50109863 3.18754578 C-6.50109863 2.52754578 -6.50109863 1.86754578 -6.50109863 1.18754578 C-4.13066348 0.0023282 -2.64606952 0.0386617 0 0 Z M-2.50109863 15.18754578 C-2.50109863 15.84754578 -2.50109863 16.50754578 -2.50109863 17.18754578 C-3.07344238 17.46598328 -3.64578613 17.74442078 -4.23547363 18.03129578 C-6.46727429 19.1702837 -8.60980737 20.3869096 -10.75109863 21.68754578 C-11.45750488 22.11035828 -12.16391113 22.53317078 -12.89172363 22.96879578 C-13.42281738 23.37098328 -13.95391113 23.77317078 -14.50109863 24.18754578 C-14.50109863 24.84754578 -14.50109863 25.50754578 -14.50109863 26.18754578 C-15.16109863 26.18754578 -15.82109863 26.18754578 -16.50109863 26.18754578 C-16.57716218 34.0711906 -16.6297044 41.95474077 -16.66589355 49.83866882 C-16.67928566 52.52074131 -16.7001594 55.2026007 -16.72741699 57.88456726 C-16.76380474 61.73952829 -16.78082663 65.5941631 -16.79406738 69.44926453 C-16.80955124 70.64838974 -16.8250351 71.84751495 -16.84098816 73.08297729 C-16.84121475 74.20376175 -16.84144135 75.3245462 -16.8416748 76.47929382 C-16.84833664 77.46302475 -16.85499847 78.44675568 -16.86186218 79.46029663 C-16.4349734 82.68742995 -15.44227019 84.59332673 -13.50109863 87.18754578 C-12.84109863 87.18754578 -12.18109863 87.18754578 -11.50109863 87.18754578 C-11.50109863 87.84754578 -11.50109863 88.50754578 -11.50109863 89.18754578 C-10.84109863 89.18754578 -10.18109863 89.18754578 -9.50109863 89.18754578 C-9.50109863 89.84754578 -9.50109863 90.50754578 -9.50109863 91.18754578 C-8.01473105 92.54814667 -8.01473105 92.54814667 -6.12609863 93.81254578 C-5.18637207 94.48156921 -5.18637207 94.48156921 -4.22766113 95.16410828 C-2.5488722 96.35751547 -2.5488722 96.35751547 -0.50109863 96.18754578 C-0.50109863 96.84754578 -0.50109863 97.50754578 -0.50109863 98.18754578 C6.60334743 101.17552285 12.91776304 101.56312268 20.56140137 101.37504578 C21.61778809 101.36151062 22.6741748 101.34797546 23.76257324 101.33403015 C26.34157391 101.29902109 28.92030817 101.24522765 31.49890137 101.18754578 C31.49890137 95.90754578 31.49890137 90.62754578 31.49890137 85.18754578 C29.30233887 84.01192078 29.30233887 84.01192078 27.06140137 82.81254578 C22.62390137 80.43754578 22.62390137 80.43754578 21.49890137 78.18754578 C20.83890137 78.18754578 20.17890137 78.18754578 19.49890137 78.18754578 C18.8322347 76.18754578 18.16556803 74.18754578 17.49890137 72.18754578 C17.10702637 71.30067078 16.71515137 70.41379578 16.31140137 69.50004578 C14.83002152 63.46057408 15.27121596 56.8867706 18.18640137 51.31254578 C21.27872952 47.13372394 24.38487895 44.18316713 29.15979004 41.93437195 C31.78687201 40.37776022 31.78687201 40.37776022 32.06652832 37.36845398 C32.04034424 36.25301208 32.01416016 35.13757019 31.98718262 33.98832703 C31.97106934 32.77983093 31.95495605 31.57133484 31.93835449 30.32621765 C31.89645996 29.06358093 31.85456543 27.80094421 31.81140137 26.50004578 C31.77756348 24.58868835 31.77756348 24.58868835 31.74304199 22.63871765 C31.68402399 19.48715618 31.60173112 16.33793299 31.49890137 13.18754578 C27.299699 13.13800891 23.10065268 13.10176167 18.90124512 13.0776825 C17.47348059 13.0676415 16.04573654 13.05400597 14.61804199 13.03666687 C12.56265196 13.01233426 10.50753445 13.00104376 8.45202637 12.99223328 C7.2161377 12.98175964 5.98024902 12.97128601 4.70690918 12.960495 C1.68230766 13.17456497 0.02904486 13.59101419 -2.50109863 15.18754578 Z M44.49890137 13.18754578 C44.49890137 22.09754578 44.49890137 31.00754578 44.49890137 40.18754578 C47.46890137 41.83754578 50.43890137 43.48754578 53.49890137 45.18754578 C55.65515137 47.35551453 55.65515137 47.35551453 56.99890137 49.37504578 C57.46296387 50.04922546 57.92702637 50.72340515 58.40515137 51.41801453 C60.74215175 55.19894729 60.69636486 57.9719429 60.74890137 62.43754578 C60.77468262 63.74207703 60.80046387 65.04660828 60.82702637 66.39067078 C60.48067228 70.3984824 59.50106077 72.74079035 57.49890137 76.18754578 C57.18952637 76.93004578 56.88015137 77.67254578 56.56140137 78.43754578 C55.1659036 80.73601268 53.96547864 81.12091776 51.49890137 82.18754578 C50.24257816 82.88460252 48.99292866 83.59377445 47.74890137 84.31254578 C46.67640137 84.93129578 45.60390137 85.55004578 44.49890137 86.18754578 C44.49890137 91.13754578 44.49890137 96.08754578 44.49890137 101.18754578 C66.27890137 101.18754578 88.05890137 101.18754578 110.49890137 101.18754578 C110.49890137 98.21754578 110.49890137 95.24754578 110.49890137 92.18754578 C95.64890137 92.18754578 80.79890137 92.18754578 65.49890137 92.18754578 C65.49890137 87.89754578 65.49890137 83.60754578 65.49890137 79.18754578 C80.34890137 79.18754578 95.19890137 79.18754578 110.49890137 79.18754578 C110.49890137 75.88754578 110.49890137 72.58754578 110.49890137 69.18754578 C97.62890137 69.18754578 84.75890137 69.18754578 71.49890137 69.18754578 C71.49890137 64.89754578 71.49890137 60.60754578 71.49890137 56.18754578 C84.36890137 56.18754578 97.23890137 56.18754578 110.49890137 56.18754578 C110.49890137 53.21754578 110.49890137 50.24754578 110.49890137 47.18754578 C95.64890137 47.18754578 80.79890137 47.18754578 65.49890137 47.18754578 C65.49890137 42.89754578 65.49890137 38.60754578 65.49890137 34.18754578 C77.20854495 34.24887376 88.9179678 34.3260642 100.62737179 34.42326069 C106.06508324 34.46790442 111.5027208 34.50717382 116.94055176 34.53398132 C122.19266983 34.56007403 127.44450266 34.60051876 132.69644356 34.65073204 C134.69576012 34.66736042 136.69512597 34.6788997 138.69450188 34.68515968 C141.50452138 34.69484466 144.3138177 34.72295622 147.12365723 34.75517273 C148.35149681 34.7530201 148.35149681 34.7530201 149.60414124 34.75082397 C154.62019052 34.83165574 158.76571876 35.69295331 163.46912479 37.44884014 C165.49505992 38.24917689 165.49505992 38.24917689 167.69665432 38.59601307 C168.29139585 38.79121886 168.88613737 38.98642466 169.49890137 39.18754578 C169.99390137 40.67254578 169.99390137 40.67254578 170.49890137 42.18754578 C171.15890137 42.18754578 171.81890137 42.18754578 172.49890137 42.18754578 C172.49890137 42.84754578 172.49890137 43.50754578 172.49890137 44.18754578 C173.15890137 44.18754578 173.81890137 44.18754578 174.49890137 44.18754578 C174.93202637 45.51785828 174.93202637 45.51785828 175.37390137 46.87504578 C176.04590504 48.85372325 176.76102336 50.81972235 177.56140137 52.75004578 C179.36636498 57.44295116 179.62487643 61.8230624 179.6282959 66.82621765 C179.63092438 67.7954995 179.63092438 67.7954995 179.63360596 68.78436279 C179.63798688 70.90836823 179.63509977 73.03228957 179.63171387 75.15629578 C179.63238799 76.63932816 179.63335892 78.12236044 179.63461304 79.60539246 C179.63608492 82.70879675 179.63395184 85.81217219 179.62927246 88.91557312 C179.62357548 92.88667344 179.62685721 96.85770617 179.63284492 100.82880402 C179.63646429 103.8897604 179.63530562 106.95070084 179.63271713 110.01165771 C179.63205167 111.47563688 179.63286294 112.93961751 179.63519669 114.40359497 C179.63774581 116.45206008 179.63385086 118.50041683 179.6282959 120.5488739 C179.62750031 121.71293762 179.62670471 122.87700134 179.62588501 124.07633972 C179.51059238 126.90110622 179.14668598 129.44176529 178.49890137 132.18754578 C177.83890137 132.18754578 177.17890137 132.18754578 176.49890137 132.18754578 C175.31110501 133.63216296 174.12622731 135.08101087 173.01062012 136.58207703 C168.80662353 141.04678658 164.82978705 141.57149785 158.95007324 141.8066864 C158.03806152 141.829245 157.1260498 141.85180359 156.18640137 141.87504578 C155.25505371 141.90920593 154.32370605 141.94336609 153.36413574 141.9785614 C151.07613796 142.06069466 148.78754024 142.12580575 146.49890137 142.18754578 C146.49890137 148.12754578 146.49890137 154.06754578 146.49890137 160.18754578 C164.98638886 161.03349445 164.98638886 161.03349445 181.49890137 154.18754578 C186.66095185 149.23053001 189.50638516 144.47381918 189.75959778 137.1410675 C189.77441414 135.58191668 189.77839974 134.02263839 189.77355957 132.46342468 C189.7786705 131.60733109 189.78378143 130.75123749 189.78904724 129.86920166 C189.80290031 127.05076526 189.80198959 124.2325746 189.79968262 121.41410828 C189.8035721 119.44644582 189.80790729 117.4787842 189.81266785 115.51112366 C189.820121 111.39054135 189.81984548 107.27004473 189.8145752 103.14945984 C189.80878396 97.88157016 189.82570769 92.61403246 189.84891987 87.34620094 C189.86368682 83.283157 189.86452484 79.22019722 189.86141014 75.1571312 C189.86192193 73.21555764 189.86713291 71.2739792 189.87722206 69.33243179 C189.88962565 66.61154386 189.88277124 63.89133387 189.87121582 61.17045593 C189.87885956 60.37642868 189.8865033 59.58240143 189.89437866 58.76431274 C189.80575126 49.27290974 185.88922124 41.03814112 179.56140137 34.04692078 C171.04635294 25.83598122 161.63324023 23.58712925 150.03015137 23.68363953 C148.98742065 23.67421829 147.94468994 23.66479706 146.87036133 23.65509033 C143.57966878 23.62668452 140.28970602 23.62335546 136.99890137 23.62504578 C133.67964071 23.62143893 130.36089929 23.61198243 127.04174805 23.58428955 C124.98623277 23.56748024 122.93054502 23.56464174 120.875 23.57730103 C119.94973511 23.57041763 119.02447021 23.56353424 118.07116699 23.55644226 C117.25829224 23.55740402 116.44541748 23.55836578 115.60791016 23.55935669 C113.00577216 23.10060881 112.2371705 22.10455749 110.49890137 20.18754578 C109.83890137 20.18754578 109.17890137 20.18754578 108.49890137 20.18754578 C108.23077637 19.58942078 107.96265137 18.99129578 107.68640137 18.37504578 C106.43911196 16.0774074 105.56238734 14.78761631 103.49890137 13.18754578 C100.81483504 12.75170724 100.81483504 12.75170724 97.74230957 12.8469696 C96.5613118 12.8471962 95.38031403 12.84742279 94.16352844 12.84765625 C92.88845932 12.86314011 91.6133902 12.87862396 90.29968262 12.89457703 C88.99436081 12.89882187 87.689039 12.90306671 86.34416199 12.90744019 C82.87684858 12.91888489 79.40991324 12.94834823 75.94274902 12.98155212 C72.40357673 13.01226144 68.86434142 13.02611175 65.32507324 13.0410614 C58.38268224 13.07162667 51.44132891 13.13034543 44.49890137 13.18754578 Z M-117.50109863 30.18754578 C-118.96230133 31.41988162 -118.96230133 31.41988162 -118.61462402 35.15653992 C-118.61446483 36.92860184 -118.60876648 38.70066838 -118.59875488 40.47270203 C-118.59733994 41.40352097 -118.59592499 42.3343399 -118.59446716 43.29336548 C-118.58885035 46.27895769 -118.57629503 49.26447607 -118.56359863 52.25004578 C-118.5585858 54.2689249 -118.55402252 56.2878052 -118.54992676 58.3066864 C-118.53887546 63.26700149 -118.52159959 68.2272611 -118.50109863 73.18754578 C-115.20109863 73.18754578 -111.90109863 73.18754578 -108.50109863 73.18754578 C-108.50109863 58.99754578 -108.50109863 44.80754578 -108.50109863 30.18754578 C-111.47109863 30.18754578 -114.44109863 30.18754578 -117.50109863 30.18754578 Z M-73.50109863 30.18754578 C-73.50109863 44.37754578 -73.50109863 58.56754578 -73.50109863 73.18754578 C-66.57109863 73.18754578 -59.64109863 73.18754578 -52.50109863 73.18754578 C-52.50109863 58.99754578 -52.50109863 44.80754578 -52.50109863 30.18754578 C-59.43109863 30.18754578 -66.36109863 30.18754578 -73.50109863 30.18754578 Z M-95.50109863 36.18754578 C-95.50109863 46.74754578 -95.50109863 57.30754578 -95.50109863 68.18754578 C-92.86109863 68.18754578 -90.22109863 68.18754578 -87.50109863 68.18754578 C-86.16112931 67.07406982 -86.16112931 67.07406982 -86.38757324 64.22831726 C-86.39281006 62.93482361 -86.39804688 61.64132996 -86.40344238 60.30863953 C-86.40485733 59.62197708 -86.40627228 58.93531464 -86.4077301 58.22784424 C-86.41334384 56.02686777 -86.42589856 53.82599169 -86.43859863 51.62504578 C-86.44361187 50.13611495 -86.44817508 48.64718254 -86.45227051 47.1582489 C-86.4633177 43.50131503 -86.4805915 39.84444019 -86.50109863 36.18754578 C-89.47109863 36.18754578 -92.44109863 36.18754578 -95.50109863 36.18754578 Z M-39.50109863 36.18754578 C-39.50109863 46.74754578 -39.50109863 57.30754578 -39.50109863 68.18754578 C-36.20109863 68.18754578 -32.90109863 68.18754578 -29.50109863 68.18754578 C-29.50109863 57.62754578 -29.50109863 47.06754578 -29.50109863 36.18754578 C-32.80109863 36.18754578 -36.10109863 36.18754578 -39.50109863 36.18754578 Z M-139.56359863 41.62504578 C-140.6477002 42.07750671 -141.73180176 42.52996765 -142.84875488 42.99613953 C-145.37343694 43.94145603 -145.37343694 43.94145603 -146.50109863 45.18754578 C-146.70539518 47.30639285 -146.81503602 49.43474847 -146.87609863 51.56254578 C-146.9495752 53.30664734 -146.9495752 53.30664734 -147.02453613 55.08598328 C-146.8177573 58.25655309 -146.8177573 58.25655309 -144.60266113 59.91410828 C-140.35325774 61.65882554 -135.90100142 62.86757494 -131.50109863 64.18754578 C-131.50109863 55.93754578 -131.50109863 47.68754578 -131.50109863 39.18754578 C-134.50329547 39.18754578 -136.80917864 40.46615393 -139.56359863 41.62504578 Z M124.49890137 48.18754578 C123.40091379 52.02621807 123.36684923 55.76139522 123.3536377 59.73442078 C123.34725784 61.03927429 123.34087799 62.34412781 123.33430481 63.68852234 C123.33277623 65.10486311 123.33166222 66.52120437 123.33093262 67.93754578 C123.327717 69.39815809 123.32435269 70.85877007 123.32084656 72.31938171 C123.31486988 75.37570442 123.31300524 78.4319989 123.31359863 81.48832703 C123.31370037 85.39894452 123.3000302 89.3093809 123.28282642 93.21995544 C123.27169513 96.23459196 123.26967974 99.24918476 123.27020836 102.26383972 C123.26903064 103.70549648 123.26462055 105.14715446 123.25687599 106.58879089 C123.24705046 108.60606028 123.25122501 110.62338307 123.25598145 112.64067078 C123.25455643 113.7869696 123.25313141 114.93326843 123.25166321 116.11430359 C123.61845698 120.67365676 124.87310085 123.3935448 127.68981934 126.96733093 C131.20446355 129.74520113 133.00780543 129.78355652 137.44421387 129.71098328 C138.09590546 129.70628021 138.74759705 129.70157715 139.41903687 129.69673157 C141.48842853 129.67549352 143.55520231 129.61895169 145.62390137 129.56254578 C147.02101253 129.54602533 148.41815121 129.5316807 149.81530762 129.51957703 C156.75928866 129.56931136 156.75928866 129.56931136 163.49890137 128.18754578 C163.49890137 127.52754578 163.49890137 126.86754578 163.49890137 126.18754578 C164.15890137 126.18754578 164.81890137 126.18754578 165.49890137 126.18754578 C166.82979247 123.52576357 166.6115913 121.50015182 166.59655762 118.52348328 C166.59333496 117.4019989 166.5901123 116.28051453 166.58679199 115.12504578 C166.57841309 113.94942078 166.57003418 112.77379578 166.56140137 111.56254578 C166.55688965 110.3791864 166.55237793 109.19582703 166.54772949 107.97660828 C166.53591603 105.04687071 166.51944394 102.11723305 166.49890137 99.18754578 C164.84890137 98.52754578 163.19890137 97.86754578 161.49890137 97.18754578 C161.49890137 96.52754578 161.49890137 95.86754578 161.49890137 95.18754578 C160.32924344 94.1425722 159.11122045 93.15144978 157.87390137 92.18754578 C150.6513227 86.04067032 146.09020712 77.86848762 145.25036621 68.37944031 C145.08037372 65.16964112 144.96542808 61.96301481 144.87390137 58.75004578 C144.83522949 57.63694031 144.79655762 56.52383484 144.75671387 55.3769989 C144.66299171 52.64734101 144.57727843 49.91768014 144.49890137 47.18754578 C141.54050781 47.16065129 138.5823571 47.14075836 135.62390137 47.12504578 C134.36126465 47.11247742 134.36126465 47.11247742 133.07312012 47.09965515 C132.26745605 47.0964325 131.46179199 47.09320984 130.63171387 47.08988953 C129.88808594 47.08465271 129.14445801 47.07941589 128.3782959 47.07402039 C126.40757569 47.06967941 126.40757569 47.06967941 124.49890137 48.18754578 Z M157.49890137 49.18754578 C157.08438163 65.45387389 157.08438163 65.45387389 163.49890137 80.18754578 C164.48890137 80.84754578 165.47890137 81.50754578 166.49890137 82.18754578 C166.58666321 78.50019803 166.6395474 74.81312231 166.68640137 71.12504578 C166.71153809 70.08670593 166.7366748 69.04836609 166.76257324 67.9785614 C166.82050283 61.89595416 166.40577301 57.56640275 163.49890137 52.18754578 C162.83890137 52.18754578 162.17890137 52.18754578 161.49890137 52.18754578 C161.49890137 51.52754578 161.49890137 50.86754578 161.49890137 50.18754578 C160.17890137 49.85754578 158.85890137 49.52754578 157.49890137 49.18754578 Z M29.49890137 57.18754578 C27.88450877 60.41633097 27.91707417 63.6965826 28.49890137 67.18754578 C31.05594485 70.82939558 32.72162845 71.9654678 36.99890137 73.18754578 C40.98002702 73.18754578 42.46400573 72.71662547 45.49890137 70.18754578 C48.02177084 67.24419806 48.76716433 64.99117745 48.62390137 61.18754578 C48.04535006 57.79337812 46.96936015 56.27837873 44.24890137 54.18754578 C42.07035393 52.88307949 40.41949102 52.1681774 37.93640137 51.56254578 C34.20668613 52.51888302 32.27973351 54.5331151 29.49890137 57.18754578 Z M-67.50109863 86.18754578 C-67.50109863 96.74754578 -67.50109863 107.30754578 -67.50109863 118.18754578 C-64.53109863 118.18754578 -61.56109863 118.18754578 -58.50109863 118.18754578 C-58.50109863 107.62754578 -58.50109863 97.06754578 -58.50109863 86.18754578 C-61.47109863 86.18754578 -64.44109863 86.18754578 -67.50109863 86.18754578 Z M16.49890137 114.18754578 C16.49890137 135.96754578 16.49890137 157.74754578 16.49890137 180.18754578 C29.09362568 180.21661044 29.09362568 180.21661044 41.68835449 180.2363739 C46.82190987 180.24236193 51.95544748 180.24946116 57.08898926 180.26298523 C61.22569537 180.27381553 65.36238245 180.27982291 69.49910164 180.28242302 C71.08082441 180.28427701 72.66254608 180.28789713 74.24426079 180.29327583 C76.45212975 180.30048817 78.65991909 180.30153664 80.86779785 180.30107117 C82.75642799 180.30440208 82.75642799 180.30440208 84.68321228 180.30780029 C87.40225432 180.50962304 87.40225432 180.50962304 88.49890137 179.18754578 C88.59299616 177.16260346 88.61633258 175.13434708 88.61242676 173.10722351 C88.61224548 171.12788818 88.61224548 171.12788818 88.61206055 169.10856628 C88.60702406 167.69609022 88.60185742 166.28361462 88.59655762 164.87113953 C88.59555054 163.5943634 88.59454346 162.31758728 88.59350586 161.00212097 C88.58825403 156.2097535 88.57429293 151.41739878 88.56140137 146.62504578 C88.53046387 130.56848328 88.53046387 130.56848328 88.49890137 114.18754578 C64.73890137 114.18754578 40.97890137 114.18754578 16.49890137 114.18754578 Z M101.49890137 114.18754578 C101.49890137 150.81754578 101.49890137 187.44754578 101.49890137 225.18754578 C105.51055399 223.19410811 105.51055399 223.19410811 108.49890137 220.18754578 C108.49890137 219.52754578 108.49890137 218.86754578 108.49890137 218.18754578 C109.15890137 218.18754578 109.81890137 218.18754578 110.49890137 218.18754578 C110.82890137 200.36754578 111.15890137 182.54754578 111.49890137 164.18754578 C118.42890137 163.52754578 125.35890137 162.86754578 132.49890137 162.18754578 C132.49890137 155.58754578 132.49890137 148.98754578 132.49890137 142.18754578 C129.85890137 141.85754578 127.21890137 141.52754578 124.49890137 141.18754578 C121.73469262 139.74995014 119.74139987 137.71337073 117.56140137 135.50004578 C116.70348999 134.64503479 116.70348999 134.64503479 115.82824707 133.77275085 C110.87215774 128.37657664 110.10880195 124.12023881 110.26062012 116.79301453 C110.37856934 115.5033075 110.37856934 115.5033075 110.49890137 114.18754578 C107.52890137 114.18754578 104.55890137 114.18754578 101.49890137 114.18754578 Z M-73.50109863 134.18754578 C-73.89796629 137.10257238 -74.03773426 139.6419371 -74.00280762 142.55863953 C-74.0082106 143.41257294 -74.01361359 144.26650635 -74.0191803 145.14631653 C-74.0317018 147.97291069 -74.01515409 150.79849308 -73.99719238 153.62504578 C-73.99734729 155.58655348 -73.99883492 157.5480615 -74.00160217 159.50956726 C-74.0029877 163.62209083 -73.9904024 167.7342663 -73.96765137 171.84672546 C-73.93926635 177.12308306 -73.94200204 182.39886204 -73.95474148 187.67526245 C-73.96169039 191.72612974 -73.95391839 195.77686285 -73.94148445 199.82771301 C-73.93696228 201.77340684 -73.93663981 203.71911503 -73.94054985 205.66481018 C-73.94345435 208.38232539 -73.92699182 211.09903811 -73.90515137 213.81645203 C-73.90965302 214.62381805 -73.91415466 215.43118408 -73.91879272 216.26301575 C-73.88580618 220.44959074 -73.88580618 220.44959074 -72.19264221 224.18363953 C-69.32251459 225.88701808 -66.23906865 225.65896737 -63.00109863 225.62504578 C-62.32434082 225.64502625 -61.64758301 225.66500671 -60.95031738 225.68559265 C-57.03131012 225.68178122 -57.03131012 225.68178122 -53.80856323 223.67436218 C-51.95183175 220.1428323 -52.08272709 216.79723611 -52.11291504 212.90238953 C-52.10765808 212.06942352 -52.10240112 211.23645752 -52.09698486 210.37825012 C-52.08378945 207.62699082 -52.09252125 204.87631089 -52.10266113 202.12504578 C-52.10064026 200.21220285 -52.09772872 198.29936067 -52.09396362 196.38652039 C-52.08954089 192.3783891 -52.09596971 188.37045843 -52.10998535 184.36235046 C-52.12707717 179.22401968 -52.11723572 174.08615899 -52.09926796 168.94784546 C-52.08842877 164.99817867 -52.09187709 161.04862339 -52.09965134 157.09895325 C-52.10165297 155.20431971 -52.09919537 153.30967605 -52.09221268 151.41505432 C-52.084596 148.76733067 -52.09620527 146.12036891 -52.11291504 143.47270203 C-52.10684235 142.6892038 -52.10076965 141.90570557 -52.09451294 141.09846497 C-52.13200927 137.8923055 -52.30491565 135.55621396 -53.82443237 132.70072937 C-56.49493621 130.29061193 -58.93038643 130.69482733 -62.43859863 130.75004578 C-63.66449707 130.75133484 -64.89039551 130.7526239 -66.15344238 130.75395203 C-69.83572431 131.23088702 -71.02322263 131.47309762 -73.50109863 134.18754578 Z M16.49890137 193.18754578 C16.49890137 201.43754578 16.49890137 209.68754578 16.49890137 218.18754578 C17.15890137 218.18754578 17.81890137 218.18754578 18.49890137 218.18754578 C18.82890137 219.17754578 19.15890137 220.16754578 19.49890137 221.18754578 C20.15890137 221.18754578 20.81890137 221.18754578 21.49890137 221.18754578 C21.49890137 221.84754578 21.49890137 222.50754578 21.49890137 223.18754578 C22.15890137 223.18754578 22.81890137 223.18754578 23.49890137 223.18754578 C23.49890137 223.84754578 23.49890137 224.50754578 23.49890137 225.18754578 C44.94890137 225.18754578 66.39890137 225.18754578 88.49890137 225.18754578 C88.49890137 214.62754578 88.49890137 204.06754578 88.49890137 193.18754578 C64.73890137 193.18754578 40.97890137 193.18754578 16.49890137 193.18754578 Z " fill="currentColor" transform="translate(228.5010986328125,130.8124542236328)"/>
<path d="M0 0 C2.0898686 -0.0171578 4.17813146 -0.06103617 6.26757812 -0.10522461 C7.6061082 -0.11535709 8.94465169 -0.12387146 10.28320312 -0.13061523 C12.10223145 -0.15248901 12.10223145 -0.15248901 13.95800781 -0.17480469 C19.11344807 0.53711945 22.1569664 3.02570366 25.67382812 6.73266602 C28.71603333 11.35231095 28.64744321 15.85897944 28.36132812 21.29516602 C27.12047801 26.82258926 24.42890313 31.26931163 19.61865234 34.44604492 C14.87808012 36.2292712 9.57684349 35.66695388 4.57177734 35.66577148 C2.49948524 35.67013829 0.42933663 35.70646287 -1.64257812 35.74438477 C-3.61677734 35.75018555 -3.61677734 35.75018555 -5.63085938 35.75610352 C-6.83081543 35.76432129 -8.03077148 35.77253906 -9.26708984 35.78100586 C-14.35025329 35.04852974 -18.36432476 32.22438256 -21.63867188 28.29516602 C-24.84192844 23.14622769 -24.22755276 17.13308389 -23.63867188 11.29516602 C-18.50215651 0.45141135 -10.65243176 0.06092077 0 0 Z M-10.63867188 16.29516602 C-10.56333941 18.92245741 -10.56333941 18.92245741 -9.63867188 21.29516602 C-5.99487199 23.11706596 -1.71284703 22.52277006 2.29882812 22.54516602 C3.67844727 22.57610352 3.67844727 22.57610352 5.0859375 22.60766602 C6.41141602 22.61540039 6.41141602 22.61540039 7.76367188 22.62329102 C8.57312256 22.63263672 9.38257324 22.64198242 10.21655273 22.65161133 C12.87875939 22.20917289 13.78268005 21.45565775 15.36132812 19.29516602 C15.28599566 16.66787462 15.28599566 16.66787462 14.36132812 14.29516602 C10.71752824 12.47326607 6.43550328 13.06756197 2.42382812 13.04516602 C1.04420898 13.01422852 1.04420898 13.01422852 -0.36328125 12.98266602 C-1.68875977 12.97493164 -1.68875977 12.97493164 -3.04101562 12.96704102 C-3.85046631 12.95769531 -4.65991699 12.94834961 -5.49389648 12.9387207 C-8.15610314 13.38115915 -9.0600238 14.13467428 -10.63867188 16.29516602 Z " fill="currentColor" transform="translate(278.638671875,254.704833984375)"/>
<path d="M0 0 C0.79792969 0.00386719 1.59585938 0.00773438 2.41796875 0.01171875 C3.21589844 0.00785156 4.01382813 0.00398437 4.8359375 0 C10.79136108 0.01011108 10.79136108 0.01011108 11.91796875 1.13671875 C12.01670691 3.13471447 12.04768674 5.13629033 12.04296875 7.13671875 C12.04683594 8.77640625 12.04683594 8.77640625 12.05078125 10.44921875 C11.91796875 13.13671875 11.91796875 13.13671875 10.91796875 14.13671875 C8.07461827 14.2365885 5.26099712 14.27549756 2.41796875 14.26171875 C1.62003906 14.26558594 0.82210937 14.26945313 0 14.2734375 C-5.95542358 14.26332642 -5.95542358 14.26332642 -7.08203125 13.13671875 C-7.18076941 11.13872303 -7.21174924 9.13714717 -7.20703125 7.13671875 C-7.20960938 6.04359375 -7.2121875 4.95046875 -7.21484375 3.82421875 C-6.96791791 -1.17239819 -4.399251 0.00746902 0 0 Z " fill="currentColor" transform="translate(239.08203125,152.86328125)"/>
<path d="M0 0 C0.66 0.33 1.32 0.66 2 1 C-0.31 3.64 -2.62 6.28 -5 9 C-5.33 8.34 -5.66 7.68 -6 7 C-4.02 4.69 -2.04 2.38 0 0 Z " fill="currentColor" transform="translate(262,257)"/>
<path d="M0 0 C2.475 0.495 2.475 0.495 5 1 C5.33 2.65 5.66 4.3 6 6 C3.97945196 4.35830472 1.97956942 2.69088222 0 1 C0 0.67 0 0.34 0 0 Z " fill="currentColor" transform="translate(405,162)"/>
</svg>
