<svg version="1.1" xmlns="http://www.w3.org/2000/svg" width="100" height="100" viewBox="0 0 512 512">
<path d="M0 0 C1.11016983 -0.0033284 2.22033966 -0.0066568 3.364151 -0.01008606 C5.6961323 -0.01511561 8.0281207 -0.01749562 10.36010742 -0.01733398 C13.89709463 -0.01952317 17.43377078 -0.03772918 20.97070312 -0.05664062 C23.25130103 -0.05957498 25.5319004 -0.0615595 27.8125 -0.0625 C28.8534935 -0.06968552 29.894487 -0.07687103 30.96702576 -0.08427429 C47.55577208 -0.03347401 60.9159032 3.27170493 72.97265625 15.16796875 C74.54950845 17.54553877 75.81624591 19.81604549 76.97265625 22.41796875 C77.91545571 24.51934349 77.91545571 24.51934349 80.97265625 25.16796875 C82.7265625 27.41796875 82.7265625 27.41796875 84.53515625 30.16796875 C86.71446718 33.76584895 86.71446718 33.76584895 89.97265625 36.16796875 C90.63932292 37.50130208 91.30598958 38.83463542 91.97265625 40.16796875 C92.96814843 41.17245634 93.96920999 42.17142693 94.97265625 43.16796875 C96.42713991 44.88287425 97.8628324 46.61379758 99.28515625 48.35546875 C100.47625 49.81339844 100.47625 49.81339844 101.69140625 51.30078125 C104.10198436 54.3305147 106.3824799 57.42660291 108.5859375 60.609375 C111.65491388 64.05873156 115.17576367 64.46058215 119.59765625 64.98046875 C134.03277178 67.08424119 147.01201145 71.56242273 159.97265625 78.16796875 C160.9471875 78.64105469 161.92171875 79.11414063 162.92578125 79.6015625 C175.19041705 85.90684321 185.87430302 93.83119843 195.97265625 103.16796875 C196.51486816 103.65571777 197.05708008 104.1434668 197.61572266 104.64599609 C212.14737488 117.79035759 223.15534792 134.26281927 230.97265625 152.16796875 C231.42995117 153.174646 231.42995117 153.174646 231.89648438 154.20166016 C245.34563938 184.09725054 247.51414509 220.53908929 238.97265625 252.16796875 C238.55693359 253.87339844 238.55693359 253.87339844 238.1328125 255.61328125 C234.21886521 270.00650678 227.35057153 283.8832536 218.97265625 296.16796875 C217.59273957 298.47871681 216.27984919 300.81502145 214.97265625 303.16796875 C214.31265625 303.16796875 213.65265625 303.16796875 212.97265625 303.16796875 C212.64265625 304.48796875 212.31265625 305.80796875 211.97265625 307.16796875 C211.31265625 307.16796875 210.65265625 307.16796875 209.97265625 307.16796875 C209.66328125 307.80734375 209.35390625 308.44671875 209.03515625 309.10546875 C207.97265625 311.16796875 207.97265625 311.16796875 206.97265625 312.16796875 C218.85265625 312.49796875 230.73265625 312.82796875 242.97265625 313.16796875 C243.10834812 327.35472795 243.21836838 341.54105435 243.28352928 355.72831631 C243.31480733 362.31643776 243.35721785 368.90409122 243.42529297 375.49194336 C243.49060809 381.85269313 243.52638881 388.2129935 243.54191971 394.57405281 C243.55298398 396.99772272 243.57459023 399.42136875 243.60703659 401.84484673 C243.65075889 405.24662808 243.6565834 408.64656569 243.65380859 412.04858398 C243.67538025 413.04480774 243.6969519 414.04103149 243.71917725 415.06744385 C243.6560539 422.24558578 241.63053286 426.71533915 236.97265625 432.16796875 C234.5234375 434.32421875 234.5234375 434.32421875 232.28515625 435.66796875 C231.53878906 436.13203125 230.79242188 436.59609375 230.0234375 437.07421875 C225.99972471 439.22019891 222.7787337 439.27495962 218.28515625 439.23046875 C217.10566406 439.22144531 215.92617188 439.21242188 214.7109375 439.203125 C213.80730469 439.19152344 212.90367187 439.17992187 211.97265625 439.16796875 C211.9883667 439.97427734 212.00407715 440.78058594 212.02026367 441.61132812 C212.08297601 445.29680245 212.12176245 448.9821641 212.16015625 452.66796875 C212.19786133 454.570625 212.19786133 454.570625 212.23632812 456.51171875 C212.3154961 466.64521923 211.22073273 473.74731902 203.97265625 481.16796875 C194.40838631 487.77071348 179.27164534 487.32098435 167.97265625 486.16796875 C164.53813626 485.3230403 161.88889172 484.14893048 158.97265625 482.16796875 C158.40417969 481.80574219 157.83570313 481.44351562 157.25 481.0703125 C152.55757402 477.66916836 151.8008697 474.82439566 148.97265625 469.16796875 C148.97265625 459.26796875 148.97265625 449.36796875 148.97265625 439.16796875 C92.54265625 439.16796875 36.11265625 439.16796875 -22.02734375 439.16796875 C-22.02734375 448.40796875 -22.02734375 457.64796875 -22.02734375 467.16796875 C-26.02734375 476.16796875 -26.02734375 476.16796875 -27.02734375 478.16796875 C-27.68734375 478.16796875 -28.34734375 478.16796875 -29.02734375 478.16796875 C-29.02734375 478.82796875 -29.02734375 479.48796875 -29.02734375 480.16796875 C-37.48224587 487.89816497 -51.87057137 486.75208177 -62.6875 486.46875 C-71.67298748 486.00388446 -76.42113151 482.38362208 -82.3984375 475.875 C-86.32059811 469.35687698 -86.32784196 461.89671976 -86.21484375 454.48046875 C-86.21387695 453.2574707 -86.21387695 453.2574707 -86.21289062 452.00976562 C-86.18097993 447.62381789 -85.89903568 443.48458718 -85.02734375 439.16796875 C-85.88457031 439.20277344 -86.74179688 439.23757813 -87.625 439.2734375 C-94.28591525 439.43113673 -99.20356781 439.49584072 -105.02734375 436.16796875 C-106.05859375 435.63171875 -107.08984375 435.09546875 -108.15234375 434.54296875 C-112.73802641 430.75479612 -115.16293495 425.76119514 -117.02734375 420.16796875 C-117.1161155 418.22016046 -117.14495683 416.26940593 -117.14086914 414.31958008 C-117.14079361 413.11856155 -117.14071808 411.91754303 -117.14064026 410.68013 C-117.13547897 409.3831871 -117.13031769 408.0862442 -117.125 406.75 C-117.12313452 405.40907341 -117.12171123 404.06814614 -117.12071228 402.72721863 C-117.11689731 399.20087802 -117.10707574 395.67457871 -117.0960083 392.14825439 C-117.08577225 388.54871184 -117.08115515 384.9491624 -117.07617188 381.34960938 C-117.06598344 374.28902605 -117.04640924 367.22855607 -117.02734375 360.16796875 C-106.79734375 360.16796875 -96.56734375 360.16796875 -86.02734375 360.16796875 C-86.02734375 349.93796875 -86.02734375 339.70796875 -86.02734375 329.16796875 C-101.20734375 329.16796875 -116.38734375 329.16796875 -132.02734375 329.16796875 C-132.02734375 331.80796875 -132.02734375 334.44796875 -132.02734375 337.16796875 C-137.30734375 337.16796875 -142.58734375 337.16796875 -148.02734375 337.16796875 C-148.02734375 334.52796875 -148.02734375 331.88796875 -148.02734375 329.16796875 C-155.94734375 329.16796875 -163.86734375 329.16796875 -172.02734375 329.16796875 C-172.15234375 316.54296875 -172.15234375 316.54296875 -171.02734375 313.16796875 C-163.43734375 313.16796875 -155.84734375 313.16796875 -148.02734375 313.16796875 C-148.02734375 310.52796875 -148.02734375 307.88796875 -148.02734375 305.16796875 C-142.74734375 305.16796875 -137.46734375 305.16796875 -132.02734375 305.16796875 C-132.02734375 307.80796875 -132.02734375 310.44796875 -132.02734375 313.16796875 C-78.89734375 312.83796875 -25.76734375 312.50796875 28.97265625 312.16796875 C26.33265625 310.18796875 23.69265625 308.20796875 20.97265625 306.16796875 C10.81830786 298.50983347 10.81830786 298.50983347 6.97265625 294.16796875 C6.97265625 293.50796875 6.97265625 292.84796875 6.97265625 292.16796875 C6.31265625 292.16796875 5.65265625 292.16796875 4.97265625 292.16796875 C1.48320406 288.34663932 -1.47494138 284.13565633 -3.02734375 279.16796875 C-3.68734375 279.16796875 -4.34734375 279.16796875 -5.02734375 279.16796875 C-5.94589041 277.50233746 -6.8620689 275.83540016 -7.77734375 274.16796875 C-8.2878125 273.23984375 -8.79828125 272.31171875 -9.32421875 271.35546875 C-12.79982944 264.85065608 -15.82248387 258.48853935 -18.15234375 251.48046875 C-18.52939453 250.41022461 -18.52939453 250.41022461 -18.9140625 249.31835938 C-27.83008678 222.73366918 -24.85426302 192.11676766 -13.015625 167.0078125 C-10.59505293 162.15293638 -7.72920211 157.53292713 -4.69628906 153.0378418 C-3.39473348 151.10678945 -3.39473348 151.10678945 -2.02734375 148.16796875 C-2.83575986 144.72156324 -5.09303107 143.03517226 -7.77734375 140.85546875 C-10.44933559 138.60157635 -12.81438757 136.37336848 -15.02734375 133.66796875 C-18.28712324 129.69680092 -22.09294309 126.45329316 -26.02734375 123.16796875 C-24.31872016 118.04209797 -21.34841035 115.12988719 -17.609375 111.3515625 C-15.83290555 109.35270514 -15.83290555 109.35270514 -16.0390625 107.20703125 C-17.35984082 104.48194712 -19.06751647 102.41575126 -21.02734375 100.10546875 C-21.83816406 99.13996094 -22.64898437 98.17445312 -23.484375 97.1796875 C-24.32355469 96.18582031 -25.16273438 95.19195312 -26.02734375 94.16796875 C-27.5929706 92.2538554 -29.15557859 90.33726797 -30.71484375 88.41796875 C-33.13013582 85.4594449 -35.56537558 82.53358127 -38.08984375 79.66796875 C-50.47209162 65.34883294 -55.50429712 53.84601439 -54.39111328 34.94091797 C-53.52953409 28.3732559 -50.43687624 22.75194799 -47.02734375 17.16796875 C-46.36734375 17.16796875 -45.70734375 17.16796875 -45.02734375 17.16796875 C-44.76179688 16.56984375 -44.49625 15.97171875 -44.22265625 15.35546875 C-40.86994572 9.21978936 -34.23638904 5.84638044 -28.02734375 3.16796875 C-27.2656337 2.83291824 -26.50392365 2.49786774 -25.71913147 2.15266418 C-17.77755045 -0.75248265 -8.35309466 0.00891214 0 0 Z M-33.02734375 27.16796875 C-37.95276342 35.32038751 -38.95752798 42.89421002 -37.02734375 52.16796875 C-35.40448222 55.53030461 -33.39652345 58.29784309 -31.02734375 61.16796875 C-30.50914062 61.90917969 -29.9909375 62.65039062 -29.45703125 63.4140625 C-28.98523438 63.99285156 -28.5134375 64.57164063 -28.02734375 65.16796875 C-27.36734375 65.16796875 -26.70734375 65.16796875 -26.02734375 65.16796875 C-25.77984375 65.70421875 -25.53234375 66.24046875 -25.27734375 66.79296875 C-23.72081838 69.75036695 -21.99298702 72.46520926 -20.02734375 75.16796875 C-19.36734375 75.16796875 -18.70734375 75.16796875 -18.02734375 75.16796875 C-17.75921875 75.97234375 -17.49109375 76.77671875 -17.21484375 77.60546875 C-16.82296875 78.45109375 -16.43109375 79.29671875 -16.02734375 80.16796875 C-14.54234375 80.66296875 -14.54234375 80.66296875 -13.02734375 81.16796875 C-11.83984375 83.73046875 -11.83984375 83.73046875 -11.02734375 86.16796875 C-10.36734375 86.16796875 -9.70734375 86.16796875 -9.02734375 86.16796875 C-8.80046875 86.70421875 -8.57359375 87.24046875 -8.33984375 87.79296875 C-6.59352319 90.95297738 -4.38705885 93.43566705 -2.02734375 96.16796875 C2.01686276 94.38851788 5.43344112 91.77267202 8.97265625 89.16796875 C8.42201259 85.01847549 6.13003364 82.66286435 3.47265625 79.54296875 C-0.95012367 74.3224089 -0.95012367 74.3224089 -2.02734375 72.16796875 C-2.68734375 72.16796875 -3.34734375 72.16796875 -4.02734375 72.16796875 C-4.25421875 71.44609375 -4.48109375 70.72421875 -4.71484375 69.98046875 C-6.29605276 66.59216373 -8.3647229 64.79271448 -11.02734375 62.16796875 C-12.82648609 60.16653445 -14.55511167 58.11067852 -16.27734375 56.04296875 C-16.72335938 55.51832031 -17.169375 54.99367187 -17.62890625 54.453125 C-21.63405998 49.65907736 -22.44981496 46.39941911 -22.02734375 40.16796875 C-19.72501817 34.51680596 -19.72501817 34.51680596 -17.02734375 33.16796875 C-15.10525338 33.02569501 -13.17840073 32.9460723 -11.25170898 32.89575195 C-9.43357948 32.84744987 -9.43357948 32.84744987 -7.57872009 32.798172 C-2.74533578 32.70202926 2.08794679 32.62126326 6.92199802 32.56771564 C10.58743411 32.5268247 14.25018198 32.46667901 17.91430664 32.35864258 C21.46363837 32.25435661 25.01057959 32.20022991 28.56135368 32.1802578 C30.55871232 32.15675423 32.55528991 32.08359006 34.55140686 32.00935364 C43.49464565 32.02726967 43.49464565 32.02726967 47.72140503 35.28939819 C50.01805569 37.81390872 52.00530751 40.38219984 53.97265625 43.16796875 C55.31693669 44.82188677 56.6697805 46.46892245 58.03515625 48.10546875 C60.17146261 50.75061974 62.08034958 53.34308167 63.86328125 56.2421875 C67.17734053 61.90395787 67.17734053 61.90395787 72.67578125 64.89453125 C75.54163289 64.91802184 78.15071463 64.65364416 80.97265625 64.16796875 C81.71773438 64.0803125 82.4628125 63.99265625 83.23046875 63.90234375 C84.81837041 63.7094812 86.39777853 63.44794701 87.97265625 63.16796875 C85.03856621 57.73670032 85.03856621 57.73670032 80.97265625 53.16796875 C80.45703125 52.44609375 79.94140625 51.72421875 79.41015625 50.98046875 C78.93578125 50.38234375 78.46140625 49.78421875 77.97265625 49.16796875 C77.31265625 49.16796875 76.65265625 49.16796875 75.97265625 49.16796875 C75.59753906 48.32878906 75.59753906 48.32878906 75.21484375 47.47265625 C73.77243761 44.79649391 72.03267426 42.63689623 70.09765625 40.29296875 C67.77584427 37.44959031 65.551517 34.65138359 63.59765625 31.54296875 C63.06140625 30.75921875 62.52515625 29.97546875 61.97265625 29.16796875 C61.31265625 29.16796875 60.65265625 29.16796875 59.97265625 29.16796875 C59.66328125 28.33265625 59.66328125 28.33265625 59.34765625 27.48046875 C56.55434433 22.78262597 52.17364966 19.69021072 46.97265625 18.16796875 C40.4640086 16.96311417 33.99590736 16.97184356 27.390625 16.9296875 C26.18126785 16.92161575 24.97191071 16.91354401 23.72590637 16.90522766 C21.17332372 16.89143348 18.62072298 16.88069059 16.06811523 16.87280273 C13.46812504 16.86127032 10.86815874 16.84079893 8.26831055 16.8112793 C4.49641962 16.76849024 0.72522886 16.75241918 -3.046875 16.7421875 C-4.77391411 16.71592537 -4.77391411 16.71592537 -6.5358429 16.68913269 C-16.90936194 16.71677714 -25.93849226 19.20786177 -33.02734375 27.16796875 Z M-0.02734375 48.16796875 C1.97827342 51.56146879 4.05186235 54.66652993 6.53515625 57.73046875 C7.23125 58.59027344 7.92734375 59.45007813 8.64453125 60.3359375 C11.99603387 64.41284924 15.3780179 68.46351684 18.7734375 72.50390625 C20.5740196 74.6850732 22.30225873 76.88671389 23.97265625 79.16796875 C29.73501094 77.35068098 35.23214234 75.01448685 40.78320312 72.64648438 C44.49749961 71.08866279 47.95541657 69.74867864 51.97265625 69.16796875 C50.63826109 65.26742906 48.98120874 62.78123467 46.16015625 59.79296875 C42.22344913 55.60498245 42.22344913 55.60498245 40.96890259 53.41889954 C38.77464685 49.63927858 38.77464685 49.63927858 35.09791565 47.55194092 C32.8317431 47.35817372 30.66266682 47.37960902 28.390625 47.484375 C27.57644608 47.49427963 26.76226715 47.50418427 25.92341614 47.51438904 C23.33379643 47.55344415 20.74848445 47.64123264 18.16015625 47.73046875 C16.40045205 47.76559485 14.64068109 47.79753161 12.88085938 47.82617188 C8.57647607 47.90317499 4.27529525 48.02388244 -0.02734375 48.16796875 Z M61.66015625 83.10546875 C60.99878662 83.26305664 60.33741699 83.42064453 59.65600586 83.58300781 C55.604094 84.61052859 51.73950752 85.94439286 47.85083008 87.45532227 C46.24590666 88.06428775 44.6110895 88.59345836 42.97265625 89.10546875 C28.2093834 94.33412788 11.57246192 104.58060354 0.97265625 116.16796875 C0.97265625 116.82796875 0.97265625 117.48796875 0.97265625 118.16796875 C0.31265625 118.16796875 -0.34734375 118.16796875 -1.02734375 118.16796875 C-1.02734375 118.82796875 -1.02734375 119.48796875 -1.02734375 120.16796875 C-2.01734375 120.66296875 -2.01734375 120.66296875 -3.02734375 121.16796875 C0.62648636 125.64391063 4.36203723 129.47326294 8.7578125 133.2109375 C13.03087753 136.98660871 16.97185744 141.10843065 20.97265625 145.16796875 C22.63790869 146.83604844 24.30478317 148.50250937 25.97265625 150.16796875 C27.24357514 151.43871652 28.51440051 152.70955783 29.78515625 153.98046875 C30.46835938 154.66367188 31.1515625 155.346875 31.85546875 156.05078125 C41.97265625 166.16796875 41.97265625 166.16796875 44.31347656 168.51098633 C46.74873339 170.94423091 49.18849102 173.37283005 51.63006592 175.79972839 C54.03205778 178.18830408 56.43136046 180.57957367 58.83056641 182.97094727 C60.09824055 184.23355071 61.36680453 185.49526134 62.63623047 186.75610352 C64.47467125 188.58246487 66.30990722 190.41199318 68.14453125 192.2421875 C68.71427673 192.8067717 69.28402222 193.3713559 69.87103271 193.95304871 C73.85878531 197.94022688 73.85878531 197.94022688 74.97265625 200.16796875 C74.31265625 200.16796875 73.65265625 200.16796875 72.97265625 200.16796875 C71.22483586 202.0449218 71.22483586 202.0449218 69.47265625 204.41796875 C68.86421875 205.206875 68.25578125 205.99578125 67.62890625 206.80859375 C63.2184249 213.09144926 63.38630116 218.60209668 63.97265625 226.16796875 C65.83683906 232.08949063 70.49343625 237.35243649 76.03125 240.2421875 C77.99561356 241.0034248 79.9399351 241.61870155 81.97265625 242.16796875 C82.79765625 242.43609375 83.62265625 242.70421875 84.47265625 242.98046875 C92.26254995 243.56471078 98.0229434 239.7104881 103.97265625 235.16796875 C104.63265625 234.50796875 105.29265625 233.84796875 105.97265625 233.16796875 C109.42785042 233.48477231 111.10361253 234.94140739 113.46875 237.37109375 C114.43071289 238.34755859 114.43071289 238.34755859 115.41210938 239.34375 C116.07146484 240.02824219 116.73082031 240.71273437 117.41015625 241.41796875 C118.06564453 242.08699219 118.72113281 242.75601563 119.39648438 243.4453125 C120.68494878 244.76091608 121.97064217 246.07923979 123.25341797 247.40039062 C125.47027889 249.67958305 127.71932741 251.92483597 129.97265625 254.16796875 C131.38958364 255.58437464 132.80621912 257.00107258 134.22265625 258.41796875 C134.99609375 259.19140625 135.76953125 259.96484375 136.56640625 260.76171875 C152.70182292 276.89713542 168.83723958 293.03255208 184.97265625 309.16796875 C189.6512557 307.6084356 191.88353223 303.89345231 194.97265625 300.16796875 C195.93945312 299.04841797 195.93945312 299.04841797 196.92578125 297.90625 C202.58247952 291.16943415 206.83847843 283.88624667 210.97265625 276.16796875 C211.52050781 275.15476562 212.06835938 274.1415625 212.6328125 273.09765625 C220.92854398 257.18512783 226.44538243 239.18697834 226.97265625 221.16796875 C227.01261719 219.94851562 227.05257812 218.7290625 227.09375 217.47265625 C227.57488708 188.54782698 218.79592957 164.21285623 204.97265625 139.16796875 C204.31265625 139.16796875 203.65265625 139.16796875 202.97265625 139.16796875 C202.87791016 138.37132812 202.87791016 138.37132812 202.78125 137.55859375 C201.6142223 134.108251 199.36349384 131.64796906 197.03515625 128.91796875 C196.35163086 128.08652344 196.35163086 128.08652344 195.65429688 127.23828125 C194.4766806 125.83824551 193.22916663 124.49765361 191.97265625 123.16796875 C191.31265625 123.16796875 190.65265625 123.16796875 189.97265625 123.16796875 C189.71484375 122.5853125 189.45703125 122.00265625 189.19140625 121.40234375 C187.87431608 118.98767845 186.42177241 117.35056698 184.47265625 115.41796875 C183.86421875 114.804375 183.25578125 114.19078125 182.62890625 113.55859375 C181.07781348 111.95362787 181.07781348 111.95362787 178.97265625 112.16796875 C178.97265625 111.50796875 178.97265625 110.84796875 178.97265625 110.16796875 C177.60966149 109.21387242 176.23766152 108.27060864 174.828125 107.38671875 C172.02176858 105.54338569 169.42923912 103.43120243 166.8046875 101.33984375 C164.91391718 99.89854385 164.91391718 99.89854385 161.97265625 100.16796875 C161.97265625 99.50796875 161.97265625 98.84796875 161.97265625 98.16796875 C148.82609047 91.34152719 148.82609047 91.34152719 134.97265625 86.16796875 C134.32554687 85.96574707 133.6784375 85.76352539 133.01171875 85.55517578 C109.70667072 78.39854889 85.42001392 77.44129562 61.66015625 83.10546875 Z M10.97265625 160.16796875 C8.67616976 162.72943445 7.97265625 163.64764447 7.97265625 167.16796875 C7.31265625 167.16796875 6.65265625 167.16796875 5.97265625 167.16796875 C-6.20420274 191.22877259 -10.87563793 217.56968617 -2.65234375 243.73046875 C-1.81759041 246.22710686 -0.93059594 248.69432064 -0.02734375 251.16796875 C0.30394531 252.11285156 0.63523438 253.05773437 0.9765625 254.03125 C3.22537449 260.08140109 6.10676681 265.9766315 9.97265625 271.16796875 C10.63265625 271.16796875 11.29265625 271.16796875 11.97265625 271.16796875 C12.63265625 272.81796875 13.29265625 274.46796875 13.97265625 276.16796875 C14.63265625 276.16796875 15.29265625 276.16796875 15.97265625 276.16796875 C16.19953125 276.70421875 16.42640625 277.24046875 16.66015625 277.79296875 C19.7162651 283.32307047 23.98435541 287.39903034 28.97265625 291.16796875 C29.63265625 291.16796875 30.29265625 291.16796875 30.97265625 291.16796875 C30.97265625 291.82796875 30.97265625 292.48796875 30.97265625 293.16796875 C33.19268757 294.81221655 35.39565493 296.31550759 37.72265625 297.79296875 C38.67398438 298.42332031 38.67398438 298.42332031 39.64453125 299.06640625 C43.10737953 301.28840057 44.76172954 302.16796875 48.97265625 302.16796875 C48.97265625 302.82796875 48.97265625 303.48796875 48.97265625 304.16796875 C60.82169047 309.40942389 73.00025614 312.76415863 85.97265625 313.16796875 C87.05933594 313.21953125 88.14601563 313.27109375 89.265625 313.32421875 C109.65302382 313.87709736 128.06567849 307.30550306 144.97265625 296.16796875 C145.30265625 295.50796875 145.63265625 294.84796875 145.97265625 294.16796875 C142.10890435 289.68067188 138.21843542 285.30201689 133.97265625 281.16796875 C125.30598958 272.50130208 116.63932292 263.83463542 107.97265625 255.16796875 C104.28788228 255.54396609 100.90471123 256.18788367 97.34765625 257.23046875 C86.21740092 260.1160905 76.13837947 257.77271814 65.98828125 253.0703125 C63.84079015 252.06901045 63.84079015 252.06901045 60.97265625 251.16796875 C60.287789 249.84389206 59.62395422 248.50887634 58.97265625 247.16796875 C57.65936968 245.81488562 56.32766544 244.47926797 54.97265625 243.16796875 C54.64265625 242.50796875 54.31265625 241.84796875 53.97265625 241.16796875 C53.31265625 241.16796875 52.65265625 241.16796875 51.97265625 241.16796875 C51.83988281 240.43578125 51.70710938 239.70359375 51.5703125 238.94921875 C51.02434162 236.40849152 50.27662589 234.11250145 49.41015625 231.66796875 C46.81654393 223.162446 47.12522543 214.53229679 49.97265625 206.16796875 C49.97265625 204.84796875 49.97265625 203.52796875 49.97265625 202.16796875 C50.63265625 202.16796875 51.29265625 202.16796875 51.97265625 202.16796875 C51.49672069 197.88454868 49.0250394 196.01223486 45.97265625 193.16796875 C30.97265625 178.16796875 30.97265625 178.16796875 28.59765625 175.73046875 C26.62037003 173.80026077 24.65577062 172.05004922 22.53515625 170.29296875 C19.36836048 167.63783867 16.79266821 164.72644965 14.234375 161.48828125 C13.81800781 161.05257812 13.40164062 160.616875 12.97265625 160.16796875 C12.31265625 160.16796875 11.65265625 160.16796875 10.97265625 160.16796875 Z M157.97265625 307.16796875 C156.80319833 307.97644604 155.63715164 308.78985987 154.47265625 309.60546875 C153.82296875 310.05792969 153.17328125 310.51039063 152.50390625 310.9765625 C151.99859375 311.36972656 151.49328125 311.76289063 150.97265625 312.16796875 C150.97265625 312.49796875 150.97265625 312.82796875 150.97265625 313.16796875 C155.26265625 313.16796875 159.55265625 313.16796875 163.97265625 313.16796875 C161.86874684 308.93218083 161.86874684 308.93218083 157.97265625 307.16796875 Z M-69.02734375 329.16796875 C-69.02734375 339.39796875 -69.02734375 349.62796875 -69.02734375 360.16796875 C-64.07734375 360.16796875 -59.12734375 360.16796875 -54.02734375 360.16796875 C-54.02734375 349.93796875 -54.02734375 339.70796875 -54.02734375 329.16796875 C-58.97734375 329.16796875 -63.92734375 329.16796875 -69.02734375 329.16796875 Z M128.93267822 322.53363037 C111.80165646 329.92049706 92.33983072 328.78031684 74.06891727 328.77547359 C70.1144561 328.77864674 66.16013543 328.80435421 62.20574951 328.82745361 C54.7513561 328.86768554 47.2970494 328.88827616 39.84256434 328.90142751 C31.34158082 328.91741013 22.84074259 328.95587166 14.33984423 328.99602079 C-3.11586487 329.07796968 -20.57148124 329.12937608 -38.02734375 329.16796875 C-38.02734375 339.39796875 -38.02734375 349.62796875 -38.02734375 360.16796875 C18.40265625 360.16796875 74.83265625 360.16796875 132.97265625 360.16796875 C132.97265625 347.29796875 132.97265625 334.42796875 132.97265625 321.16796875 C131.5692465 321.09967149 131.5692465 321.09967149 128.93267822 322.53363037 Z M148.97265625 330.16796875 C148.97265625 345.34796875 148.97265625 360.52796875 148.97265625 376.16796875 C66.47265625 376.16796875 -16.02734375 376.16796875 -101.02734375 376.16796875 C-103.30907227 399.21544691 -103.30907227 399.21544691 -98.02734375 420.16796875 C-94.68164232 422.39843637 -93.62285795 422.41891804 -89.71866703 422.42244434 C-88.61092428 422.42827654 -87.50318154 422.43410873 -86.36187083 422.44011766 C-85.13990722 422.43633833 -83.91794361 422.43255901 -82.65895081 422.42866516 C-80.71761014 422.43440348 -80.71761014 422.43440348 -78.73705047 422.44025773 C-75.13722181 422.45057821 -71.53749228 422.44834567 -67.93765533 422.44407713 C-64.05823866 422.44161723 -60.17884632 422.45061489 -56.29943848 422.45811462 C-48.69644803 422.47088414 -41.09349285 422.47265252 -33.49049348 422.47031436 C-27.31258163 422.46853357 -21.13468051 422.47027569 -14.95676994 422.4745388 C-14.07854179 422.47513399 -13.20031364 422.47572918 -12.29547251 422.47634241 C-10.51153104 422.47755412 -8.72758956 422.47876825 -6.94364809 422.47998478 C9.7978216 422.49086897 26.53927117 422.48869366 43.280742 422.48259994 C58.60677535 422.47742983 73.93274515 422.48868713 89.25876593 422.50769816 C104.98413881 422.52705547 120.70948161 422.53533627 136.43486649 422.5315749 C145.26804034 422.52965967 154.1011601 422.53218165 162.93432426 422.54628944 C170.45391631 422.55817741 177.97342096 422.55963728 185.49301415 422.54749928 C189.33146744 422.54159237 193.16976068 422.54056083 197.00820351 422.55250168 C201.16469033 422.56528193 205.32079291 422.55493923 209.47727966 422.54219055 C211.30687899 422.55325198 211.30687899 422.55325198 213.17343992 422.56453687 C214.28379041 422.55733033 215.39414091 422.55012378 216.53813839 422.54269886 C217.97787688 422.54278138 217.97787688 422.54278138 219.44670099 422.54286557 C222.44892291 422.09728228 223.80238666 421.26421409 225.97265625 419.16796875 C227.2407849 415.36358279 227.10392961 411.80370835 227.08618164 407.84106445 C227.08640068 406.56756638 227.08640068 406.56756638 227.08662415 405.26834106 C227.08592708 402.46011812 227.07814431 399.65196137 227.0703125 396.84375 C227.06844759 394.89747656 227.06702403 392.95120266 227.06602478 391.00492859 C227.06220537 385.88063258 227.05237998 380.75636489 227.0413208 375.63208008 C227.03109431 370.40381249 227.0265245 365.17554033 227.02148438 359.94726562 C227.01075722 349.68748756 226.99368768 339.42773051 226.97265625 329.16796875 C216.95037862 329.14484465 206.92810728 329.12705332 196.90580845 329.11615658 C192.25254439 329.1109279 187.59929851 329.10383052 182.94604492 329.0925293 C178.45921079 329.08169989 173.97239421 329.0756918 169.48554802 329.07309151 C167.76985332 329.07123735 166.05415963 329.06761693 164.33847237 329.06223869 C161.94380712 329.05502754 159.54921529 329.05397784 157.15454102 329.05444336 C156.43812943 329.05084808 155.72171783 329.04725281 154.9835968 329.04354858 C151.69647417 328.76562034 151.69647417 328.76562034 148.97265625 330.16796875 Z M-69.02734375 439.16796875 C-69.13046875 443.18984375 -69.23359375 447.21171875 -69.33984375 451.35546875 C-69.38536377 452.61512451 -69.43088379 453.87478027 -69.4777832 455.17260742 C-69.55806893 461.59759733 -69.55806893 461.59759733 -67.1328125 467.4296875 C-62.71509263 469.90249925 -59.01222394 469.90133571 -54.02734375 469.79296875 C-53.13789063 469.81230469 -52.2484375 469.83164062 -51.33203125 469.8515625 C-47.17538104 469.82054272 -44.58921928 469.48247769 -40.921875 467.4296875 C-37.91899989 462.25978911 -38.5034392 457.20557528 -38.71484375 451.35546875 C-38.86953125 445.32265625 -38.86953125 445.32265625 -39.02734375 439.16796875 C-48.92734375 439.16796875 -58.82734375 439.16796875 -69.02734375 439.16796875 Z M164.97265625 439.16796875 C164.91078125 442.83921875 164.84890625 446.51046875 164.78515625 450.29296875 C164.75784424 451.43910645 164.73053223 452.58524414 164.70239258 453.76611328 C164.65742485 459.28118712 164.70603021 463.4697221 167.97265625 468.16796875 C171.59218666 469.97773396 175.79933923 469.43833538 179.78515625 469.48046875 C181.13963867 469.52397461 181.13963867 469.52397461 182.52148438 469.56835938 C186.81234135 469.60934478 189.29510736 469.57174312 193.046875 467.3359375 C196.05065163 463.95440397 196.09433885 461.19252017 196.0703125 456.84375 C196.06781494 455.91731689 196.06531738 454.99088379 196.06274414 454.03637695 C196.05364014 452.86292725 196.04453613 451.68947754 196.03515625 450.48046875 C196.00421875 444.88078125 196.00421875 444.88078125 195.97265625 439.16796875 C185.74265625 439.16796875 175.51265625 439.16796875 164.97265625 439.16796875 Z " fill="currentColor" transform="translate(218.02734375,6.83203125)"/>
<path d="M0 0 C0.928125 0.44085938 1.85625 0.88171875 2.8125 1.3359375 C9.79398039 4.7020084 16.82168501 8.2811295 23 13 C23 13.66 23 14.32 23 15 C23.81210937 15.3403125 23.81210937 15.3403125 24.640625 15.6875 C27.74232872 17.41295108 30.12700101 19.61293213 32.75 22 C33.25660156 22.45117188 33.76320313 22.90234375 34.28515625 23.3671875 C35.56545817 24.53360812 36.78791729 25.76283971 38 27 C38 27.66 38 28.32 38 29 C38.66 29 39.32 29 40 29 C41.37659768 30.72147778 42.67772763 32.50377655 43.9375 34.3125 C46.54317202 38.11816277 46.54317202 38.11816277 49.58203125 41.5625 C56.63630669 48.71394177 60.11613658 60.84189601 64 70 C62.48353179 70.65601744 60.96153825 71.2992664 59.4375 71.9375 C58.59058594 72.29714844 57.74367188 72.65679687 56.87109375 73.02734375 C53.59427144 74.1374509 50.42963722 74.59726139 47 75 C46.61070312 74.09121094 46.22140625 73.18242187 45.8203125 72.24609375 C40.06637586 59.18220164 32.2006638 43.13377587 20 35 C20 34.34 20 33.68 20 33 C19.43539062 32.73703125 18.87078125 32.4740625 18.2890625 32.203125 C15.81050363 30.90040122 13.64365023 29.39052232 11.375 27.75 C-12.35545882 11.05589815 -39.35072826 2.73981168 -68.41015625 7.56640625 C-79.88081641 9.78940241 -90.7493668 13.47654489 -101.01171875 19.08203125 C-103 20 -103 20 -106 20 C-110 13.25 -110 13.25 -110 11 C-110.66 11 -111.32 11 -112 11 C-112.33 9.02 -112.66 7.04 -113 5 C-103.03281672 -0.49577153 -93.0135234 -4.2352258 -82.09423828 -7.38916016 C-80.23964847 -7.9301002 -78.39789721 -8.51463688 -76.55859375 -9.10546875 C-52.3740154 -15.18479745 -22.14030379 -11.31434642 0 0 Z " fill="currentColor" transform="translate(360,112)"/>
<path d="M0 0 C4.84103986 3.70015786 7.61895579 7.86329143 9.08984375 13.78125 C9.98911831 20.53753884 10.27835972 26.80185876 6.65234375 32.78125 C2.51888583 38.04379976 -3.20831975 42.57569721 -9.91015625 43.78125 C-17.06501282 44.53504318 -22.7421045 43.55536483 -28.91015625 39.78125 C-31.78515625 37.28125 -31.78515625 37.28125 -33.91015625 34.78125 C-34.46703125 34.183125 -35.02390625 33.585 -35.59765625 32.96875 C-38.72459917 27.75717847 -39.95050378 20.77146159 -38.91015625 14.78125 C-36.06004246 6.36347206 -30.99474424 0.32354399 -23.03515625 -3.65625 C-14.60342143 -5.17396227 -7.30457209 -4.66058587 0 0 Z M-20.91015625 15.78125 C-22.08126074 18.6408506 -22.08126074 18.6408506 -21.91015625 21.78125 C-20.50137529 24.7714143 -20.50137529 24.7714143 -17.91015625 26.78125 C-14.91015625 27.53125 -14.91015625 27.53125 -11.91015625 26.78125 C-9.41015625 25.28125 -9.41015625 25.28125 -7.91015625 22.78125 C-7.2922246 19.07366009 -7.40818376 17.4877298 -9.59765625 14.40625 C-11.79224273 12.61925009 -11.79224273 12.61925009 -14.41015625 12.34375 C-17.46909319 12.87906396 -18.7858412 13.50519816 -20.91015625 15.78125 Z " fill="currentColor" transform="translate(420.91015625,355.21875)"/>
<path d="M0 0 C0.36463732 1.74784829 0.7163078 3.49840502 1.0625 5.25 C1.35833984 6.71179688 1.35833984 6.71179688 1.66015625 8.203125 C2 11 2 11 1 15 C-4.28 15.66 -9.56 16.32 -15 17 C-15.66 12.38 -16.32 7.76 -17 3 C-11.18784881 0.67513952 -6.20452607 -0.06374513 0 0 Z " fill="currentColor" transform="translate(428,196)"/>
<path d="M0 0 C0.33 0.66 0.66 1.32 1 2 C0.46890625 2.45890625 -0.0621875 2.9178125 -0.609375 3.390625 C-5.1052501 7.29279373 -5.1052501 7.29279373 -9.375 11.4375 C-11 13 -11 13 -13 13 C-13 12.34 -13 11.68 -13 11 C-12.34 11 -11.68 11 -11 11 C-10.7421875 10.40574219 -10.484375 9.81148437 -10.21875 9.19921875 C-8.90163023 6.822493 -7.58656066 5.53214427 -5.5 3.8125 C-4.8915625 3.30332031 -4.283125 2.79414063 -3.65625 2.26953125 C-2 1 -2 1 0 0 Z " fill="currentColor" transform="translate(184,13)"/>
</svg>
