<svg version="1.1" xmlns="http://www.w3.org/2000/svg" width="100" height="100" viewBox="0 0 512 512">
<path d="M0 0 C3.56465441 1.95313356 5.69138443 4.0741533 7 8 C7.40109454 12.25160217 7.26378256 14.5006973 5.25 18.3125 C3.08149441 20.90265946 2.09267442 21.89024251 -1 23 C-3.12890625 22.625 -3.12890625 22.625 -5.5625 22 C-15.02988957 20.97447035 -23.15275128 27.4233929 -31 32 C-33.78688374 33.58824544 -36.57874673 35.16747666 -39.37109375 36.74609375 C-41.30272276 37.8390236 -43.23239153 38.9354247 -45.16015625 40.03515625 C-51.94467948 43.89266813 -58.81134377 47.55322193 -65.75 51.125 C-75.37304494 56.08015 -84.73631823 61.39446369 -94.06835938 66.87353516 C-98.32295155 69.3546636 -102.65156763 71.68867108 -107 74 C-107.74910645 74.4017041 -108.49821289 74.8034082 -109.27001953 75.21728516 C-111.86495 76.60804846 -114.46329485 77.99224407 -117.0625 79.375 C-118.33287109 80.05574585 -118.33287109 80.05574585 -119.62890625 80.75024414 C-120.42296875 81.17039795 -121.21703125 81.59055176 -122.03515625 82.0234375 C-122.7506665 82.40419434 -123.46617676 82.78495117 -124.20336914 83.17724609 C-126 84 -126 84 -128 84 C-128.22723366 88.68669431 -127.47374289 92.30830269 -126 96.75 C-124 102.83333333 -124 102.83333333 -124 105 C-77.47 105 -30.94 105 17 105 C17.33 103.35 17.66 101.7 18 100 C20.93723778 98.53138111 23.60592357 98.75206596 26.875 98.6875 C28.10992187 98.65011719 29.34484375 98.61273438 30.6171875 98.57421875 C34 99 34 99 36.18701172 100.46899414 C38.86242568 104.20398155 38.50181118 107.43873995 38.390625 111.921875 C38.38496521 112.78186096 38.37930542 113.64184692 38.37347412 114.52789307 C38.35111951 117.26916649 38.30092602 120.00912304 38.25 122.75 C38.22993376 124.61065818 38.21168321 126.47133689 38.1953125 128.33203125 C38.15125784 132.88852666 38.08223754 137.44404022 38 142 C38.77988281 142.28359375 39.55976563 142.5671875 40.36328125 142.859375 C44.67863166 144.72616362 46.44693028 147.70028615 48.25 151.9375 C49.01954596 155.07981266 49.15342228 157.77813217 49 161 C50.65 161.33 52.3 161.66 54 162 C54.92091738 164.57856865 55.18506902 165.5943287 54.0234375 168.140625 C53.68570312 168.75421875 53.34796875 169.3678125 53 170 C19.03687724 170.11436611 -14.92619772 170.20250848 -48.88947018 170.25532665 C-52.89628447 170.26158042 -56.90309838 170.268052 -60.90991211 170.2746582 C-61.70761932 170.27596976 -62.50532653 170.27728131 -63.32720669 170.2786326 C-76.25505852 170.30040779 -89.18279953 170.33984088 -102.11058555 170.38576398 C-115.36902861 170.43246996 -128.62741352 170.46028296 -141.88593549 170.47044247 C-150.07167128 170.47731385 -158.25709389 170.49904029 -166.44273331 170.53958233 C-172.71237955 170.56905889 -178.98178548 170.57228899 -185.25149155 170.56553841 C-187.82873022 170.56691923 -190.40598025 170.57693442 -192.98314857 170.59602737 C-196.49017153 170.6207448 -199.99583231 170.61498193 -203.50288391 170.60127258 C-205.04810092 170.62311889 -205.04810092 170.62311889 -206.62453443 170.64540654 C-209.18363871 170.61818921 -211.50369341 170.56188367 -214 170 C-216.20685101 167.60695171 -216.20685101 167.60695171 -217 165 C-216.1875 162.6875 -216.1875 162.6875 -215 161 C-213.68 161 -212.36 161 -211 161 C-211.0825 159.845 -211.165 158.69 -211.25 157.5 C-211.25 152.61955101 -209.70507196 149.01606247 -207 145 C-204.37247373 142.45209574 -203.69284426 142 -200 142 C-200.01571045 140.8039917 -200.0314209 139.6079834 -200.04760742 138.37573242 C-200.10187061 133.94220707 -200.1363369 129.50871112 -200.16479492 125.07495117 C-200.1798898 123.15530462 -200.20036773 121.2356926 -200.22631836 119.31616211 C-200.26267109 116.55834436 -200.27971912 113.8009822 -200.29296875 111.04296875 C-200.30845261 110.18350143 -200.32393646 109.32403412 -200.33988953 108.43852234 C-200.34011612 107.63791885 -200.34034271 106.83731537 -200.34057617 106.01245117 C-200.34723801 105.3085173 -200.35389984 104.60458344 -200.36076355 103.87931824 C-199.88202099 101.38541431 -199.00980544 100.51551597 -197 99 C-194.39155061 98.64750684 -192.10525299 98.49007523 -189.5 98.5 C-188.82324219 98.47164063 -188.14648438 98.44328125 -187.44921875 98.4140625 C-185.46875 98.40625 -185.46875 98.40625 -182 99 C-180.21875 101.46875 -180.21875 101.46875 -179 104 C-178.01 104.33 -177.02 104.66 -176 105 C-175.773125 104.360625 -175.54625 103.72125 -175.3125 103.0625 C-174 101 -174 101 -171.5 100.1875 C-169 100 -169 100 -167 101 C-167.061875 99.783125 -167.12375 98.56625 -167.1875 97.3125 C-167.18057781 93.4014614 -166.54740018 91.09327165 -164 88 C-160.99065244 86.12237289 -158.99991588 85.84932169 -155.5 86.125 C-151.83789015 86.22015133 -151.83789015 86.22015133 -148.6875 84.375 C-147.38551356 82.54257464 -146.12189786 80.68284679 -144.875 78.8125 C-143 76 -143 76 -141 75 C-139.57179655 75.11438784 -138.14484544 75.24460448 -136.71875 75.3828125 C-129.28758297 75.43870595 -123.71222387 71.54973501 -117.5 67.875 C-116.22265232 67.14114822 -114.94389805 66.40973986 -113.66381836 65.68066406 C-111.04488087 64.18795133 -108.43099305 62.68691891 -105.81982422 61.18066406 C-100.13266693 57.91594407 -94.34828498 54.83592668 -88.5625 51.75 C-86.43844736 50.6100357 -84.31474454 49.46941933 -82.19140625 48.328125 C-81.16547363 47.77705078 -80.13954102 47.22597656 -79.08251953 46.65820312 C-74.0487261 43.95033642 -69.02213091 41.22942831 -64 38.5 C-63.1344751 38.03174805 -62.2689502 37.56349609 -61.37719727 37.08105469 C-56.23852465 34.2833385 -51.20210273 31.35085381 -46.19677734 28.32128906 C-41.88204055 25.7261173 -37.4353559 23.38049481 -33 21 C-31.6795137 20.28156935 -30.35921197 19.5627994 -29.0390625 18.84375 C-27.67203198 18.10387656 -26.30484554 17.36429111 -24.9375 16.625 C-24.28177002 16.26680176 -23.62604004 15.90860352 -22.95043945 15.53955078 C-18.22766822 13 -18.22766822 13 -16 13 C-15.95875 11.783125 -15.9175 10.56625 -15.875 9.3125 C-15.40586403 5.74326285 -14.95040708 4.94048849 -12.5 2 C-8.60323923 -0.75396073 -4.58866913 -1.04064461 0 0 Z M-6 7 C-7.8354799 8.33378575 -7.8354799 8.33378575 -9 10 C-8.29660434 12.50965614 -8.29660434 12.50965614 -7 15 C-5.12042756 16.1576585 -5.12042756 16.1576585 -3 16 C-1.06345052 14.98029682 -1.06345052 14.98029682 0 13 C-0.23043864 10.34533951 -0.23043864 10.34533951 -1 8 C-3.34533951 7.23043864 -3.34533951 7.23043864 -6 7 Z M-138 81 C-138.66 81.66 -139.32 82.32 -140 83 C-139.6814823 85.10820797 -139.6814823 85.10820797 -139 87 C-137.02463255 86.65213292 -137.02463255 86.65213292 -135 86 C-134.67 85.34 -134.34 84.68 -134 84 C-134.97850195 82.97895449 -135.97980427 81.9793879 -137 81 C-137.33 81 -137.66 81 -138 81 Z M-145.875 92.9375 C-148.34564354 94.92418734 -148.34564354 94.92418734 -148.5625 98.5 C-148.35392766 101.97948151 -148.35392766 101.97948151 -146.29296875 103.70703125 C-143.54508657 105.25651847 -141.87931607 105.31102563 -138.75 105.1875 C-137.41195312 105.14689453 -137.41195312 105.14689453 -136.046875 105.10546875 C-135.37140625 105.07066406 -134.6959375 105.03585938 -134 105 C-134.48609447 99.13234236 -134.48609447 99.13234236 -137 94 C-140.48064511 92.22100361 -142.12382641 91.71429122 -145.875 92.9375 Z M-159 93 C-160.72753345 94.72753345 -160.33004719 97.14493966 -160.5 99.5 C-160.88888889 104.88888889 -160.88888889 104.88888889 -162 106 C-164.98889359 106.45765667 -167.98969648 106.70320951 -171 107 C-171 110.63 -171 114.26 -171 118 C-163.41 118 -155.82 118 -148 118 C-147.24553387 111.26167953 -147.24553387 111.26167953 -150.4375 108.125 C-151.283125 107.42375 -152.12875 106.7225 -153 106 C-154.73956658 104.26043342 -154.37190386 101.8063378 -154.5625 99.4375 C-154.68818359 97.91962891 -154.68818359 97.91962891 -154.81640625 96.37109375 C-154.87699219 95.58863281 -154.93757813 94.80617188 -155 94 C-156.94603274 93.40929986 -156.94603274 93.40929986 -159 93 Z M-192 107 C-192 118.22 -192 129.44 -192 141 C-189.69 141 -187.38 141 -185 141 C-185.27540704 137.18186553 -185.27540704 137.18186553 -187 134 C-187.15825258 132.00217874 -187.25119171 129.99911166 -187.31640625 127.99609375 C-187.37924805 126.17368164 -187.37924805 126.17368164 -187.44335938 124.31445312 C-187.48267578 123.03505859 -187.52199219 121.75566406 -187.5625 120.4375 C-187.60568359 119.15423828 -187.64886719 117.87097656 -187.69335938 116.54882812 C-187.799848 113.36600147 -187.90185962 110.18309326 -188 107 C-189.32 107 -190.64 107 -192 107 Z M26 107 C25.98018066 107.73637695 25.96036133 108.47275391 25.93994141 109.23144531 C25.84462172 112.57132056 25.73497004 115.91057639 25.625 119.25 C25.5940625 120.40886719 25.563125 121.56773437 25.53125 122.76171875 C25.49257813 123.87675781 25.45390625 124.99179687 25.4140625 126.140625 C25.3826416 127.16704102 25.3512207 128.19345703 25.31884766 129.25097656 C25.00013483 131.99883751 24.30369354 133.60265603 23 136 C22.83249586 138.66709069 22.83249586 138.66709069 23 141 C24.98 141 26.96 141 29 141 C29 129.78 29 118.56 29 107 C28.01 107 27.02 107 26 107 Z M-181 112 C-181 112.66 -181 113.32 -181 114 C-179.68 114 -178.36 114 -177 114 C-177 113.34 -177 112.68 -177 112 C-178.32 112 -179.64 112 -181 112 Z M-142 112 C-142 112.66 -142 113.32 -142 114 C-89.53 114 -37.06 114 17 114 C17.33 113.34 17.66 112.68 18 112 C-34.8 112 -87.6 112 -142 112 Z M-143 121 C-143.99 122.485 -143.99 122.485 -145 124 C-140.545 123.505 -140.545 123.505 -136 123 C-136 122.34 -136 121.68 -136 121 C-139.41642759 120.74984127 -139.41642759 120.74984127 -143 121 Z M-130 121 C-130.33 123.31 -130.66 125.62 -131 128 C-134.63 128 -138.26 128 -142 128 C-142 128.66 -142 129.32 -142 130 C-132.1 130 -122.2 130 -112 130 C-112.33 129.34 -112.66 128.68 -113 128 C-115.35599235 127.53248212 -115.35599235 127.53248212 -118.0625 127.375 C-118.98160156 127.30023438 -119.90070313 127.22546875 -120.84765625 127.1484375 C-121.55792969 127.09945312 -122.26820313 127.05046875 -123 127 C-123.33 125.02 -123.66 123.04 -124 121 C-125.98 121 -127.96 121 -130 121 Z M-180 121 C-180.04125 122.258125 -180.0825 123.51625 -180.125 124.8125 C-180.14820313 125.52019531 -180.17140625 126.22789062 -180.1953125 126.95703125 C-180.13254462 129.31359719 -180.13254462 129.31359719 -178 132 C-177.67 134.97 -177.34 137.94 -177 141 C-113.64 141 -50.28 141 15 141 C15 138.69 15 136.38 15 134 C15.66 132.68 16.32 131.36 17 130 C17 127.03 17 124.06 17 121 C-27.88 121 -72.76 121 -119 121 C-119 121.66 -119 122.32 -119 123 C-118.38511719 123.01417969 -117.77023438 123.02835937 -117.13671875 123.04296875 C-110.53503185 123.43254198 -110.53503185 123.43254198 -107.9375 126.1875 C-106.90427662 129.28717013 -106.93267638 131.75500144 -107 135 C-107.79277344 134.9278125 -108.58554688 134.855625 -109.40234375 134.78125 C-121.92911469 133.78464502 -134.44086558 133.9031046 -147 134 C-146.125 126.25 -146.125 126.25 -145 124 C-146.08885498 124.02356567 -146.08885498 124.02356567 -147.19970703 124.04760742 C-150.50805788 124.11020355 -153.81628381 124.14906912 -157.125 124.1875 C-158.26710938 124.21263672 -159.40921875 124.23777344 -160.5859375 124.26367188 C-166.59977523 124.31611813 -170.73457979 124.20467268 -176 121 C-177.32 121 -178.64 121 -180 121 Z M-201 153 C-201 155.64 -201 158.28 -201 161 C-121.8 161 -42.6 161 39 161 C39 158.36 39 155.72 39 153 C36.30768292 150.30768292 34.23302874 150.75564771 30.57430649 150.73251319 C29.66323261 150.73697463 28.75215874 150.74143608 27.81347656 150.74603271 C26.84946049 150.74291273 25.88544441 150.73979275 24.89221573 150.73657823 C21.64162444 150.72856086 18.39121789 150.7349364 15.140625 150.74121094 C12.81848033 150.73850273 10.49633651 150.73494277 8.17419434 150.73059082 C1.85204477 150.72144424 -4.47003979 150.72502041 -10.79219055 150.73134899 C-16.72653512 150.73588619 -22.66087151 150.73243038 -28.59521627 150.7294946 C-41.06509538 150.72378662 -53.53494511 150.73035653 -66.00481939 150.74109533 C-76.71286306 150.75003128 -87.42086337 150.74847936 -98.12890625 150.73925781 C-110.55307352 150.72856343 -122.97721503 150.72433598 -135.40138626 150.73048234 C-141.98207898 150.73360739 -148.5627418 150.73399675 -155.14343262 150.72740936 C-161.32886238 150.72165062 -167.5142099 150.72560572 -173.69963074 150.73719788 C-175.97572187 150.73985237 -178.25181988 150.73906602 -180.52790833 150.73467255 C-183.62319258 150.72924668 -186.71820956 150.73601507 -189.81347656 150.74603271 C-190.72455044 150.74157127 -191.63562431 150.73710983 -192.57430649 150.73251319 C-197.27035583 150.53166531 -197.27035583 150.53166531 -201 153 Z " fill="currentColor" transform="translate(306,140)"/>
<path d="M0 0 C3.56465441 1.95313356 5.69138443 4.0741533 7 8 C7.40109454 12.25160217 7.26378256 14.5006973 5.25 18.3125 C3.08149441 20.90265946 2.09267442 21.89024251 -1 23 C-3.12890625 22.625 -3.12890625 22.625 -5.5625 22 C-15.02988957 20.97447035 -23.15275128 27.4233929 -31 32 C-33.78688374 33.58824544 -36.57874673 35.16747666 -39.37109375 36.74609375 C-41.30272276 37.8390236 -43.23239153 38.9354247 -45.16015625 40.03515625 C-51.94467948 43.89266813 -58.81134377 47.55322193 -65.75 51.125 C-75.37304494 56.08015 -84.73631823 61.39446369 -94.06835938 66.87353516 C-98.32295155 69.3546636 -102.65156763 71.68867108 -107 74 C-107.74910645 74.4017041 -108.49821289 74.8034082 -109.27001953 75.21728516 C-111.86495 76.60804846 -114.46329485 77.99224407 -117.0625 79.375 C-117.90941406 79.82883057 -118.75632813 80.28266113 -119.62890625 80.75024414 C-120.82 81.38047485 -120.82 81.38047485 -122.03515625 82.0234375 C-122.7506665 82.40419434 -123.46617676 82.78495117 -124.20336914 83.17724609 C-126 84 -126 84 -128 84 C-128.22723366 88.68669431 -127.47374289 92.30830269 -126 96.75 C-124 102.83333333 -124 102.83333333 -124 105 C-77.47 105 -30.94 105 17 105 C17.33 103.35 17.66 101.7 18 100 C21.00313748 98.49843126 23.79067522 98.90718796 27.125 98.9375 C28.40632812 98.94652344 29.68765625 98.95554687 31.0078125 98.96484375 C31.99523437 98.97644531 32.98265625 98.98804688 34 99 C34 99.33 34 99.66 34 100 C30.535 100.495 30.535 100.495 27 101 C27 101.33 27 101.66 27 102 C25.02 102 23.04 102 21 102 C21.99 102.66 22.98 103.32 24 104 C24 104.99 24 105.98 24 107 C24.66 107 25.32 107 26 107 C26.08802152 110.9790243 26.14073233 114.95779388 26.1875 118.9375 C26.21263672 120.05447266 26.23777344 121.17144531 26.26367188 122.32226562 C26.32455582 129.24274125 25.59692408 134.57244251 23 141 C24.98 141 26.96 141 29 141 C29 129.78 29 118.56 29 107 C29.33 107 29.66 107 30 107 C30 118.55 30 130.1 30 142 C27.36 142 24.72 142 22 142 C21.67 141.67 21.34 141.34 21 141 C20.34 141.66 19.68 142.32 19 143 C19 142.34 19 141.68 19 141 C18.34 141 17.68 141 17 141 C16.67 142.32 16.34 143.64 16 145 C16 144.01 16 143.02 16 142 C-48.02 142 -112.04 142 -178 142 C-178 138.7 -178 135.4 -178 132 C-177.67 132 -177.34 132 -177 132 C-177 134.97 -177 137.94 -177 141 C-82.455 140.505 -82.455 140.505 14 140 C14.33 137.03 14.66 134.06 15 131 C15.33 130.67 15.66 130.34 16 130 C16.33 127.03 16.66 124.06 17 121 C-27.88 121 -72.76 121 -119 121 C-119 121.66 -119 122.32 -119 123 C-118.07767578 122.94779297 -118.07767578 122.94779297 -117.13671875 122.89453125 C-116.32847656 122.86746094 -115.52023438 122.84039062 -114.6875 122.8125 C-113.48673828 122.76029297 -113.48673828 122.76029297 -112.26171875 122.70703125 C-110 123 -110 123 -108.25390625 124.2890625 C-106.26941916 126.99686731 -106.23866702 129.71832851 -106 133 C-106.33 133.66 -106.66 134.32 -107 135 C-112.67830078 135.02464705 -118.35657069 135.04283462 -124.03491211 135.05493164 C-125.96818585 135.05997256 -127.90145576 135.06680519 -129.8347168 135.07543945 C-132.60726872 135.08751565 -135.37977041 135.09323057 -138.15234375 135.09765625 C-139.45702858 135.10539818 -139.45702858 135.10539818 -140.78807068 135.11329651 C-142.85905814 135.11349185 -144.92994324 135.06208168 -147 135 C-147.33 134.67 -147.66 134.34 -148 134 C-147.87890625 132.1875 -147.87890625 132.1875 -147.5625 130 C-147.16387231 127.50920142 -147.16387231 127.50920142 -147 125 C-148.65 124.67 -150.3 124.34 -152 124 C-151.34 122.35 -150.68 120.7 -150 119 C-156.93 119 -163.86 119 -171 119 C-171 118.67 -171 118.34 -171 118 C-163.41 118 -155.82 118 -148 118 C-149.03715171 110.58618887 -149.03715171 110.58618887 -154 106 C-155.73956658 104.26043342 -155.37190386 101.8063378 -155.5625 99.4375 C-155.64628906 98.42558594 -155.73007813 97.41367188 -155.81640625 96.37109375 C-155.90728516 95.19740234 -155.90728516 95.19740234 -156 94 C-156.99 94 -157.98 94 -159 94 C-159.33 97.63 -159.66 101.26 -160 105 C-160.33 105 -160.66 105 -161 105 C-161.33 100.05 -161.66 95.1 -162 90 C-163.98 90.99 -163.98 90.99 -166 92 C-165.04187463 89.60468656 -164.41107362 88.26094239 -162.203125 86.859375 C-159.71960291 85.89062525 -158.13882316 85.91714749 -155.5 86.125 C-151.83789015 86.22015133 -151.83789015 86.22015133 -148.6875 84.375 C-147.38551356 82.54257464 -146.12189786 80.68284679 -144.875 78.8125 C-143 76 -143 76 -141 75 C-139.57179655 75.11438784 -138.14484544 75.24460448 -136.71875 75.3828125 C-129.28758297 75.43870595 -123.71222387 71.54973501 -117.5 67.875 C-116.22265232 67.14114822 -114.94389805 66.40973986 -113.66381836 65.68066406 C-111.04488087 64.18795133 -108.43099305 62.68691891 -105.81982422 61.18066406 C-100.13266693 57.91594407 -94.34828498 54.83592668 -88.5625 51.75 C-86.43844736 50.6100357 -84.31474454 49.46941933 -82.19140625 48.328125 C-81.16547363 47.77705078 -80.13954102 47.22597656 -79.08251953 46.65820312 C-74.0487261 43.95033642 -69.02213091 41.22942831 -64 38.5 C-63.1344751 38.03174805 -62.2689502 37.56349609 -61.37719727 37.08105469 C-56.23852465 34.2833385 -51.20210273 31.35085381 -46.19677734 28.32128906 C-41.88204055 25.7261173 -37.4353559 23.38049481 -33 21 C-31.6795137 20.28156935 -30.35921197 19.5627994 -29.0390625 18.84375 C-27.67203198 18.10387656 -26.30484554 17.36429111 -24.9375 16.625 C-24.28177002 16.26680176 -23.62604004 15.90860352 -22.95043945 15.53955078 C-18.22766822 13 -18.22766822 13 -16 13 C-15.95875 11.783125 -15.9175 10.56625 -15.875 9.3125 C-15.40586403 5.74326285 -14.95040708 4.94048849 -12.5 2 C-8.60323923 -0.75396073 -4.58866913 -1.04064461 0 0 Z M-6 7 C-7.8354799 8.33378575 -7.8354799 8.33378575 -9 10 C-8.29660434 12.50965614 -8.29660434 12.50965614 -7 15 C-5.12042756 16.1576585 -5.12042756 16.1576585 -3 16 C-1.06345052 14.98029682 -1.06345052 14.98029682 0 13 C-0.23043864 10.34533951 -0.23043864 10.34533951 -1 8 C-3.34533951 7.23043864 -3.34533951 7.23043864 -6 7 Z M-138 81 C-138.66 81.66 -139.32 82.32 -140 83 C-139.6814823 85.10820797 -139.6814823 85.10820797 -139 87 C-137.02463255 86.65213292 -137.02463255 86.65213292 -135 86 C-134.67 85.34 -134.34 84.68 -134 84 C-134.97850195 82.97895449 -135.97980427 81.9793879 -137 81 C-137.33 81 -137.66 81 -138 81 Z M-145.875 92.9375 C-148.34564354 94.92418734 -148.34564354 94.92418734 -148.5625 98.5 C-148.35392766 101.97948151 -148.35392766 101.97948151 -146.29296875 103.70703125 C-143.54508657 105.25651847 -141.87931607 105.31102563 -138.75 105.1875 C-137.41195312 105.14689453 -137.41195312 105.14689453 -136.046875 105.10546875 C-135.37140625 105.07066406 -134.6959375 105.03585938 -134 105 C-134.48609447 99.13234236 -134.48609447 99.13234236 -137 94 C-140.48064511 92.22100361 -142.12382641 91.71429122 -145.875 92.9375 Z M19 104 C19.33 104.99 19.66 105.98 20 107 C20.33 106.01 20.66 105.02 21 104 C20.34 104 19.68 104 19 104 Z M-142 112 C-142 112.66 -142 113.32 -142 114 C-89.53 114 -37.06 114 17 114 C17.33 113.34 17.66 112.68 18 112 C-34.8 112 -87.6 112 -142 112 Z M-143 121 C-143.99 122.485 -143.99 122.485 -145 124 C-140.545 123.505 -140.545 123.505 -136 123 C-136 122.34 -136 121.68 -136 121 C-139.41642759 120.74984127 -139.41642759 120.74984127 -143 121 Z M-130 121 C-130.33 123.31 -130.66 125.62 -131 128 C-134.63 128 -138.26 128 -142 128 C-142 128.66 -142 129.32 -142 130 C-132.1 130 -122.2 130 -112 130 C-112.33 129.34 -112.66 128.68 -113 128 C-115.35599235 127.53248212 -115.35599235 127.53248212 -118.0625 127.375 C-118.98160156 127.30023438 -119.90070313 127.22546875 -120.84765625 127.1484375 C-121.55792969 127.09945312 -122.26820313 127.05046875 -123 127 C-123.33 125.02 -123.66 123.04 -124 121 C-125.98 121 -127.96 121 -130 121 Z " fill="currentColor" transform="translate(306,140)"/>
<path d="M0 0 C0.33 0 0.66 0 1 0 C1 12.87 1 25.74 1 39 C2.65 39.66 4.3 40.32 6 41 C10.1541674 45.2728579 11.90485357 49.43104628 12.125 55.375 C12.08375 56.24125 12.0425 57.1075 12 58 C13.65 58.33 15.3 58.66 17 59 C17.92091738 61.57856865 18.18506902 62.5943287 17.0234375 65.140625 C16.68570312 65.75421875 16.34796875 66.3678125 16 67 C-17.99719892 67.02286537 -51.99439594 67.04049772 -85.99160084 67.05106533 C-90.00099237 67.05231611 -94.01038388 67.05361042 -98.01977539 67.05493164 C-98.81800722 67.05519395 -99.61623906 67.05545626 -100.43865974 67.05572652 C-113.38073922 67.06008342 -126.32281428 67.06797107 -139.26489114 67.0771528 C-152.53463131 67.0864888 -165.80436916 67.0920555 -179.07411247 67.09408849 C-187.26893584 67.09546383 -195.46374672 67.09981501 -203.65856624 67.10791647 C-209.93161554 67.11380391 -216.20465522 67.1144591 -222.47770691 67.11310768 C-225.0589919 67.11338422 -227.64027734 67.11539209 -230.22155952 67.11920547 C-233.7288552 67.12413545 -237.23609616 67.12300087 -240.74339294 67.12025452 C-241.7793633 67.12316736 -242.81533365 67.1260802 -243.88269705 67.12908131 C-244.81475471 67.12709026 -245.74681238 67.12509921 -246.70711422 67.12304783 C-247.92316858 67.12361741 -247.92316858 67.12361741 -249.16378969 67.1241985 C-251 67 -251 67 -252 66 C-252.04080783 64.00041636 -252.04254356 61.99954746 -252 60 C-249.525 59.505 -249.525 59.505 -247 59 C-247.061875 57.081875 -247.061875 57.081875 -247.125 55.125 C-247.1953125 52.9453125 -247.1953125 52.9453125 -247 51 C-246.34 50.34 -245.68 49.68 -245 49 C-244.01 49 -243.02 49 -242 49 C-241.67 47.35 -241.34 45.7 -241 44 C-240.01 44.33 -239.02 44.66 -238 45 C-238.66 46.98 -239.32 48.96 -240 51 C-239.01 50.505 -239.01 50.505 -238 50 C-238 52.64 -238 55.28 -238 58 C-158.8 58 -79.6 58 2 58 C1.92091092 50.71626405 1.92091092 50.71626405 0 49 C-3.03371647 48.88955138 -6.04515329 48.84502424 -9.07972717 48.84178162 C-10.04429995 48.83684364 -11.00887274 48.83190566 -12.002675 48.82681805 C-15.26097746 48.81136098 -18.5192601 48.80306034 -21.77758789 48.79467773 C-24.10283078 48.78510565 -26.4280719 48.77509598 -28.75331116 48.76467896 C-35.08774943 48.73755121 -41.42219522 48.7165844 -47.75665975 48.69667697 C-53.69928402 48.67707316 -59.64188822 48.65290959 -65.58449548 48.62875474 C-77.35815654 48.58104789 -89.13182961 48.53779212 -100.90551758 48.49731445 C-112.34530574 48.45797524 -123.78508321 48.41655282 -135.22485352 48.37231445 C-135.92952175 48.36959018 -136.63418998 48.36686591 -137.3602118 48.36405908 C-140.89518211 48.35037986 -144.43015227 48.33665954 -147.96512234 48.32291877 C-177.31005898 48.20890542 -206.65501979 48.10218065 -236 48 C-236 47.67 -236 47.34 -236 47 C-234.21617999 46.99780016 -234.21617999 46.99780016 -232.3963232 46.99555588 C-204.16120991 46.9598471 -175.92618856 46.90359613 -147.6911706 46.82207905 C-144.21525673 46.8120617 -140.7393424 46.80221755 -137.26342773 46.79248047 C-136.22544805 46.78956841 -136.22544805 46.78956841 -135.16649909 46.78659752 C-123.96474248 46.75558387 -112.76300636 46.73859865 -101.56121492 46.72680578 C-90.06550212 46.7143909 -78.5699126 46.6865849 -67.07426506 46.64538693 C-60.61799484 46.62273655 -54.16187798 46.60709148 -47.7055645 46.60811615 C-41.62919679 46.60886063 -35.55316856 46.59099454 -29.47688866 46.55883217 C-27.24645282 46.55031075 -25.015979 46.54859838 -22.78553391 46.55419731 C-19.73975781 46.56082473 -16.69506576 46.5429458 -13.6493988 46.51898193 C-12.76708869 46.52674235 -11.88477857 46.53450277 -10.97573179 46.54249835 C-5.17831816 46.46176898 -1.80748325 45.26521044 3 42 C2.01 41.34 1.02 40.68 0 40 C-0.266487 36.94924916 -0.34757146 34.10373821 -0.29296875 31.0546875 C-0.28872391 30.1696756 -0.28447906 29.2846637 -0.28010559 28.37283325 C-0.26328259 25.53991555 -0.22562425 22.70770348 -0.1875 19.875 C-0.17245782 17.95704151 -0.15876861 16.03907189 -0.14648438 14.12109375 C-0.11336727 9.41378969 -0.06156055 4.70701456 0 0 Z " fill="currentColor" transform="translate(343,243)"/>
<path d="M0 0 C3.56465441 1.95313356 5.69138443 4.0741533 7 8 C7.40109454 12.25160217 7.26378256 14.5006973 5.25 18.3125 C3.08149441 20.90265946 2.09267442 21.89024251 -1 23 C-3.12890625 22.625 -3.12890625 22.625 -5.5625 22 C-15.02988957 20.97447035 -23.15275128 27.4233929 -31 32 C-33.78688374 33.58824544 -36.57874673 35.16747666 -39.37109375 36.74609375 C-41.30272276 37.8390236 -43.23239153 38.9354247 -45.16015625 40.03515625 C-51.94467948 43.89266813 -58.81134377 47.55322193 -65.75 51.125 C-75.36061366 56.07374883 -84.71291935 61.38003766 -94.03320312 66.8515625 C-101.81840922 71.39744252 -109.7403568 75.38940162 -118 79 C-118.65625 77.15625 -118.65625 77.15625 -119 75 C-117.33333333 73.33333333 -115.66666667 71.66666667 -114 70 C-114.27307167 67.86448453 -114.27307167 67.86448453 -115 66 C-113.90051025 65.4126709 -113.90051025 65.4126709 -112.77880859 64.81347656 C-81.783791 48.26236432 -81.783791 48.26236432 -51.13256836 31.08618164 C-45.1315232 27.64040545 -39.10069436 24.26665255 -33 21 C-31.69382527 20.28940272 -30.38785198 19.5784351 -29.08203125 18.8671875 C-27.7006746 18.11950751 -26.31916481 17.37211037 -24.9375 16.625 C-24.28088379 16.26631836 -23.62426758 15.90763672 -22.94775391 15.53808594 C-18.22760875 13 -18.22760875 13 -16 13 C-15.95875 11.783125 -15.9175 10.56625 -15.875 9.3125 C-15.40586403 5.74326285 -14.95040708 4.94048849 -12.5 2 C-8.60323923 -0.75396073 -4.58866913 -1.04064461 0 0 Z M-6 7 C-7.8354799 8.33378575 -7.8354799 8.33378575 -9 10 C-8.29660434 12.50965614 -8.29660434 12.50965614 -7 15 C-5.12042756 16.1576585 -5.12042756 16.1576585 -3 16 C-1.06345052 14.98029682 -1.06345052 14.98029682 0 13 C-0.23043864 10.34533951 -0.23043864 10.34533951 -1 8 C-3.34533951 7.23043864 -3.34533951 7.23043864 -6 7 Z " fill="currentColor" transform="translate(306,140)"/>
<path d="M0 0 C0.99 1.98 0.99 1.98 2 4 C1.360625 4.12375 0.72125 4.2475 0.0625 4.375 C-0.618125 4.58125 -1.29875 4.7875 -2 5 C-2.33 5.66 -2.66 6.32 -3 7 C-47.88 7 -92.76 7 -139 7 C-139 8.32 -139 9.64 -139 11 C-138.38511719 10.96519531 -137.77023438 10.93039062 -137.13671875 10.89453125 C-135.92435547 10.85392578 -135.92435547 10.85392578 -134.6875 10.8125 C-133.88699219 10.77769531 -133.08648437 10.74289062 -132.26171875 10.70703125 C-130 11 -130 11 -128.21875 12.28125 C-126.26795109 15.03237667 -126.81554135 17.74123057 -127 21 C-135.71782637 21.16311941 -144.31238511 20.65655389 -153 20 C-153.33 19.01 -153.66 18.02 -154 17 C-151.12493579 16.97287675 -148.25013092 16.95310149 -145.375 16.9375 C-144.16263672 16.92493164 -144.16263672 16.92493164 -142.92578125 16.91210938 C-138.49658082 16.8941045 -134.36116576 17.10377338 -130 18 C-130 17.01 -130 16.02 -130 15 C-133.96 15 -137.92 15 -142 15 C-142 12.36 -142 9.72 -142 7 C-143.45880109 7.14107747 -144.91703551 7.28802415 -146.375 7.4375 C-147.18710938 7.51871094 -147.99921875 7.59992188 -148.8359375 7.68359375 C-151.04272805 7.89090114 -151.04272805 7.89090114 -153 9 C-153 8.34 -153 7.68 -153 7 C-155.64 7 -158.28 7 -161 7 C-161.33 6.01 -161.66 5.02 -162 4 C-161.34 4 -160.68 4 -160 4 C-160 3.34 -160 2.68 -160 2 C-107.2 2 -54.4 2 0 2 C0 1.34 0 0.68 0 0 Z " fill="currentColor" transform="translate(325,253)"/>
<path d="M0 0 C1.49341703 2.98683407 1.13175178 5.74399774 1.125 9.0625 C1.12886719 10.96708984 1.12886719 10.96708984 1.1328125 12.91015625 C1 16 1 16 0 17 C-1.51928038 17.07179964 -3.04167482 17.08392007 -4.5625 17.0625 C-5.38878906 17.05347656 -6.21507812 17.04445312 -7.06640625 17.03515625 C-8.02353516 17.01775391 -8.02353516 17.01775391 -9 17 C-8.67 17.66 -8.34 18.32 -8 19 C-7.8671875 20.875 -7.8671875 20.875 -7.875 23 C-7.87113281 24.051875 -7.87113281 24.051875 -7.8671875 25.125 C-8 27 -8 27 -9 29 C-2.07 29 4.86 29 12 29 C11.67 30.32 11.34 31.64 11 33 C4.22289719 36.11112614 -3.96586756 36.18197511 -11.06640625 34.1015625 C-13.43261977 33.15238439 -15.72548381 32.15009396 -18 31 C-17.855625 32.299375 -17.71125 33.59875 -17.5625 34.9375 C-17.48128906 35.66839844 -17.40007812 36.39929688 -17.31640625 37.15234375 C-17.18113386 39.01140229 -17.18113386 39.01140229 -16 40 C-15.796875 42.1796875 -15.796875 42.1796875 -15.75 44.875 C-15.71132812 46.20144531 -15.71132812 46.20144531 -15.671875 47.5546875 C-16.06119868 50.45607585 -16.76701267 51.19495619 -19 53 C-19.556875 53.556875 -20.11375 54.11375 -20.6875 54.6875 C-21.120625 55.120625 -21.55375 55.55375 -22 56 C-22.556875 55.71125 -23.11375 55.4225 -23.6875 55.125 C-26.07114743 53.96538773 -28.53884039 52.98446384 -31 52 C-31 40.45 -31 28.9 -31 17 C-30.67 17 -30.34 17 -30 17 C-30 28.22 -30 39.44 -30 51 C-27.69 51 -25.38 51 -23 51 C-23.49113281 50.13246094 -23.98226562 49.26492188 -24.48828125 48.37109375 C-26.98037478 42.55620885 -26.31436128 36.2656911 -26.1875 30.0625 C-26.17396484 28.80630859 -26.16042969 27.55011719 -26.14648438 26.25585938 C-26.11128591 23.17012721 -26.06204305 20.08528976 -26 17 C-25.67 17 -25.34 17 -25 17 C-25 18.65 -25 20.3 -25 22 C-21.87525373 20.36526484 -21.87525373 20.36526484 -21.3125 17.875 C-21.209375 17.25625 -21.10625 16.6375 -21 16 C-20.34 16 -19.68 16 -19 16 C-19.33 14.02 -19.66 12.04 -20 10 C-19.34 10.33 -18.68 10.66 -18 11 C-17.67 11.99 -17.34 12.98 -17 14 C-16.01 14.33 -15.02 14.66 -14 15 C-13.6596875 14.0409375 -13.6596875 14.0409375 -13.3125 13.0625 C-12 11 -12 11 -9.5 10.1875 C-7 10 -7 10 -5 11 C-5.061875 9.741875 -5.12375 8.48375 -5.1875 7.1875 C-5.19441101 3.28277965 -5.19441101 3.28277965 -3.625 1 C-2 0 -2 0 0 0 Z M-19 22 C-19 22.66 -19 23.32 -19 24 C-17.68 24 -16.36 24 -15 24 C-15 23.34 -15 22.68 -15 22 C-16.32 22 -17.64 22 -19 22 Z " fill="currentColor" transform="translate(144,230)"/>
<path d="M0 0 C3.56465441 1.95313356 5.69138443 4.0741533 7 8 C7.40109454 12.25160217 7.26378256 14.5006973 5.25 18.3125 C3.08149441 20.90265946 2.09267442 21.89024251 -1 23 C-3.12890625 22.625 -3.12890625 22.625 -5.5625 22 C-15.61642226 20.78216285 -25.21113289 28.58144839 -33.51855469 33.48730469 C-34.72753418 34.18581543 -34.72753418 34.18581543 -35.9609375 34.8984375 C-37.05220947 35.53918213 -37.05220947 35.53918213 -38.16552734 36.19287109 C-38.77090332 36.45922363 -39.3762793 36.72557617 -40 37 C-42 36 -42 36 -43 33 C-41.5625 30.8125 -41.5625 30.8125 -40 29 C-41.65 29 -43.3 29 -45 29 C-43.63875454 26.27750908 -42.06225861 25.79393596 -39.375 24.375 C-38.39402344 23.85421875 -37.41304688 23.3334375 -36.40234375 22.796875 C-35.27957031 22.20390625 -34.15679687 21.6109375 -33 21 C-31.66715979 20.27753208 -30.33516082 19.55351054 -29.00390625 18.828125 C-27.64853333 18.09357315 -26.29306545 17.35919649 -24.9375 16.625 C-24.28249512 16.26712402 -23.62749023 15.90924805 -22.95263672 15.54052734 C-18.22708244 13 -18.22708244 13 -16 13 C-15.95875 11.783125 -15.9175 10.56625 -15.875 9.3125 C-15.40586403 5.74326285 -14.95040708 4.94048849 -12.5 2 C-8.60323923 -0.75396073 -4.58866913 -1.04064461 0 0 Z M-6 7 C-7.8354799 8.33378575 -7.8354799 8.33378575 -9 10 C-8.29660434 12.50965614 -8.29660434 12.50965614 -7 15 C-5.12042756 16.1576585 -5.12042756 16.1576585 -3 16 C-1.06345052 14.98029682 -1.06345052 14.98029682 0 13 C-0.23043864 10.34533951 -0.23043864 10.34533951 -1 8 C-3.34533951 7.23043864 -3.34533951 7.23043864 -6 7 Z " fill="currentColor" transform="translate(306,140)"/>
<path d="M0 0 C0.33 0 0.66 0 1 0 C1 12.87 1 25.74 1 39 C2.65 39.66 4.3 40.32 6 41 C8.375 43.375 8.375 43.375 10 46 C9.75 48.3125 9.75 48.3125 9 50 C8.34 50 7.68 50 7 50 C6.71125 50.7425 6.4225 51.485 6.125 52.25 C5.18620664 54.5448282 4.10883447 56.78233105 3 59 C-76.86 59 -156.72 59 -239 59 C-239 56.03 -239 53.06 -239 50 C-238.67 50 -238.34 50 -238 50 C-238 52.64 -238 55.28 -238 58 C-158.8 58 -79.6 58 2 58 C1.92091092 50.71626405 1.92091092 50.71626405 0 49 C-3.03371647 48.88955138 -6.04515329 48.84502424 -9.07972717 48.84178162 C-10.04429995 48.83684364 -11.00887274 48.83190566 -12.002675 48.82681805 C-15.26097746 48.81136098 -18.5192601 48.80306034 -21.77758789 48.79467773 C-24.10283078 48.78510565 -26.4280719 48.77509598 -28.75331116 48.76467896 C-35.08774943 48.73755121 -41.42219522 48.7165844 -47.75665975 48.69667697 C-53.69928402 48.67707316 -59.64188822 48.65290959 -65.58449548 48.62875474 C-77.35815654 48.58104789 -89.13182961 48.53779212 -100.90551758 48.49731445 C-112.34530574 48.45797524 -123.78508321 48.41655282 -135.22485352 48.37231445 C-135.92952175 48.36959018 -136.63418998 48.36686591 -137.3602118 48.36405908 C-140.89518211 48.35037986 -144.43015227 48.33665954 -147.96512234 48.32291877 C-177.31005898 48.20890542 -206.65501979 48.10218065 -236 48 C-236 47.67 -236 47.34 -236 47 C-234.21617999 46.99780016 -234.21617999 46.99780016 -232.3963232 46.99555588 C-204.16120991 46.9598471 -175.92618856 46.90359613 -147.6911706 46.82207905 C-144.21525673 46.8120617 -140.7393424 46.80221755 -137.26342773 46.79248047 C-136.22544805 46.78956841 -136.22544805 46.78956841 -135.16649909 46.78659752 C-123.96474248 46.75558387 -112.76300636 46.73859865 -101.56121492 46.72680578 C-90.06550212 46.7143909 -78.5699126 46.6865849 -67.07426506 46.64538693 C-60.61799484 46.62273655 -54.16187798 46.60709148 -47.7055645 46.60811615 C-41.62919679 46.60886063 -35.55316856 46.59099454 -29.47688866 46.55883217 C-27.24645282 46.55031075 -25.015979 46.54859838 -22.78553391 46.55419731 C-19.73975781 46.56082473 -16.69506576 46.5429458 -13.6493988 46.51898193 C-12.76708869 46.52674235 -11.88477857 46.53450277 -10.97573179 46.54249835 C-5.17831816 46.46176898 -1.80748325 45.26521044 3 42 C2.01 41.34 1.02 40.68 0 40 C-0.266487 36.94924916 -0.34757146 34.10373821 -0.29296875 31.0546875 C-0.28872391 30.1696756 -0.28447906 29.2846637 -0.28010559 28.37283325 C-0.26328259 25.53991555 -0.22562425 22.70770348 -0.1875 19.875 C-0.17245782 17.95704151 -0.15876861 16.03907189 -0.14648438 14.12109375 C-0.11336727 9.41378969 -0.06156055 4.70701456 0 0 Z " fill="currentColor" transform="translate(343,243)"/>
<path d="M0 0 C0.66 0.33 1.32 0.66 2 1 C2 1.66 2 2.32 2 3 C1.34 3 0.68 3 0 3 C0 3.66 0 4.32 0 5 C-3.3171411 6.4216319 -6.44219804 7.39009109 -10 8 C-10 8.66 -10 9.32 -10 10 C-10.763125 10.268125 -11.52625 10.53625 -12.3125 10.8125 C-14.99059911 11.80258135 -14.99059911 11.80258135 -16.5625 13.5625 C-18 15 -18 15 -20.0625 15.5 C-22.39687193 15.87267251 -22.39687193 15.87267251 -24 19 C-24.16713569 21.62531524 -24.16713569 21.62531524 -24 24 C-22.02 24 -20.04 24 -18 24 C-18.33 25.65 -18.66 27.3 -19 29 C-19.33 28.34 -19.66 27.68 -20 27 C-24.36886712 25.80849079 -26.95634201 25.978171 -31 28 C-31 30.31 -31 32.62 -31 35 C-32.485 35.495 -32.485 35.495 -34 36 C-33.484375 36.94875 -32.96875 37.8975 -32.4375 38.875 C-31.963125 39.90625 -31.48875 40.9375 -31 42 C-31.33 42.66 -31.66 43.32 -32 44 C-38.125 37.875 -38.125 37.875 -38.5625 32.4375 C-38.64628906 31.42558594 -38.73007813 30.41367188 -38.81640625 29.37109375 C-38.87699219 28.58863281 -38.93757812 27.80617187 -39 27 C-39.99 27 -40.98 27 -42 27 C-42.33 30.63 -42.66 34.26 -43 38 C-43.33 38 -43.66 38 -44 38 C-44.495 30.575 -44.495 30.575 -45 23 C-46.98 23.99 -46.98 23.99 -49 25 C-48.04187463 22.60468656 -47.41107362 21.26094239 -45.203125 19.859375 C-42.71960291 18.89062525 -41.13882316 18.91714749 -38.5 19.125 C-34.83789015 19.22015133 -34.83789015 19.22015133 -31.6875 17.375 C-30.38551356 15.54257464 -29.12189786 13.68284679 -27.875 11.8125 C-26 9 -26 9 -24 8 C-22.58251465 8.13764837 -21.16597727 8.28511834 -19.75 8.4375 C-13.67874712 8.57951761 -9.60855168 5.91741964 -4.64746094 2.75756836 C-3.1266349 1.79223192 -1.56593072 0.89030739 0 0 Z " fill="currentColor" transform="translate(189,207)"/>
<path d="M0 0 C7.59 0 15.18 0 23 0 C23 0.66 23 1.32 23 2 C23.763125 1.814375 24.52625 1.62875 25.3125 1.4375 C29.44559735 0.94713252 33.10917767 1.30243277 37.23046875 1.7421875 C40.84211947 2.07839194 44.37545742 2.0683876 48 2 C48 4.31 48 6.62 48 9 C47.67 9 47.34 9 47 9 C47 7.02 47 5.04 47 3 C45.02 3 43.04 3 41 3 C40.67 5.31 40.34 7.62 40 10 C36.37 10 32.74 10 29 10 C29 10.66 29 11.32 29 12 C29.99 11.67 30.98 11.34 32 11 C33.96887058 10.92867057 35.94011182 10.91595474 37.91015625 10.9375 C39.06451172 10.94523437 40.21886719 10.95296875 41.40820312 10.9609375 C42.61412109 10.97382813 43.82003906 10.98671875 45.0625 11 C47.44917419 11.02543073 49.83590027 11.04649046 52.22265625 11.0625 C53.28234619 11.07410156 54.34203613 11.08570313 55.43383789 11.09765625 C57.98959067 11.17723674 57.98959067 11.17723674 60 10 C60 10.99 60 11.98 60 13 C52.41 13 44.82 13 37 13 C37 13.66 37 14.32 37 15 C38.43279297 14.98259766 38.43279297 14.98259766 39.89453125 14.96484375 C47.66568301 14.91060839 55.26804814 15.09981434 63 16 C62.505 11.545 62.505 11.545 62 7 C62.66 7.33 63.32 7.66 64 8 C65.28571429 14.42857143 65.28571429 14.42857143 64 17 C58.32169922 17.02464705 52.64342931 17.04283462 46.96508789 17.05493164 C45.03181415 17.05997256 43.09854424 17.06680519 41.1652832 17.07543945 C38.39273128 17.08751565 35.62022959 17.09323057 32.84765625 17.09765625 C31.54297142 17.10539818 31.54297142 17.10539818 30.21192932 17.11329651 C28.14094186 17.11349185 26.07005676 17.06208168 24 17 C23.67 16.67 23.34 16.34 23 16 C23.12109375 14.1875 23.12109375 14.1875 23.4375 12 C23.83612769 9.50920142 23.83612769 9.50920142 24 7 C21.525 6.505 21.525 6.505 19 6 C19.66 4.35 20.32 2.7 21 1 C14.07 1 7.14 1 0 1 C0 0.67 0 0.34 0 0 Z M28 3 C27.01 4.485 27.01 4.485 26 6 C30.455 5.505 30.455 5.505 35 5 C35 4.34 35 3.68 35 3 C31.58357241 2.74984127 31.58357241 2.74984127 28 3 Z " fill="currentColor" transform="translate(135,258)"/>
<path d="M0 0 C4.29 0 8.58 0 13 0 C13.33 1.98 13.66 3.96 14 6 C13.34 6 12.68 6 12 6 C11.67 7.32 11.34 8.64 11 10 C11.66 10.33 12.32 10.66 13 11 C11.35 11.33 9.7 11.66 8 12 C8 10.35 8 8.7 8 7 C6.02 7 4.04 7 2 7 C2 18.22 2 29.44 2 41 C-0.97 41.495 -0.97 41.495 -4 42 C-4 29.79 -4 17.58 -4 5 C-3.01 5.495 -3.01 5.495 -2 6 C-0.78306954 3.74691447 -0.78306954 3.74691447 0 0 Z " fill="currentColor" transform="translate(111,240)"/>
<path d="M0 0 C0.33 0 0.66 0 1 0 C1 1.98 1 3.96 1 6 C2.65 6.33 4.3 6.66 6 7 C6.625 8.75 6.625 8.75 7 11 C6.34 12.32 5.68 13.64 5 15 C-83.11 15 -171.22 15 -262 15 C-262 14.67 -262 14.34 -262 14 C-175.54 13.67 -89.08 13.34 0 13 C1.485 10.03 1.485 10.03 3 7 C2.01 7 1.02 7 0 7 C0 4.69 0 2.38 0 0 Z " fill="currentColor" transform="translate(354,295)"/>
<path d="M0 0 C3.56465441 1.95313356 5.69138443 4.0741533 7 8 C7.40109454 12.25160217 7.26378256 14.5006973 5.25 18.3125 C3.07101247 20.91517955 2.08394948 21.84351894 -1 23 C-3.359375 22.9765625 -3.359375 22.9765625 -5.75 22.625 C-6.54921875 22.51414063 -7.3484375 22.40328125 -8.171875 22.2890625 C-9.07679688 22.14597656 -9.07679688 22.14597656 -10 22 C-6.58389775 21.05685873 -3.54865136 20.91934883 0 21 C0 20.34 0 19.68 0 19 C0.99 19 1.98 19 3 19 C1.36526484 15.87525373 1.36526484 15.87525373 -1.125 15.3125 C-2.053125 15.1578125 -2.053125 15.1578125 -3 15 C-2.34 14.34 -1.68 13.68 -1 13 C-0.83312552 10.41645782 -0.83312552 10.41645782 -1 8 C-2.65 8 -4.3 8 -6 8 C-7.21690533 9.76529595 -7.21690533 9.76529595 -8 12 C-7.21690533 14.23470405 -7.21690533 14.23470405 -6 16 C-6.66 16 -7.32 16 -8 16 C-7.67 16.99 -7.34 17.98 -7 19 C-7.66 19 -8.32 19 -9 19 C-9 18.01 -9 17.02 -9 16 C-9.66 16 -10.32 16 -11 16 C-10.34 13.03 -9.68 10.06 -9 7 C-12.76687864 8.88343932 -13.79421646 9.69132469 -16 13 C-15.83142082 8.02691408 -15.73720057 5.88464068 -12.5 2 C-8.60323923 -0.75396073 -4.58866913 -1.04064461 0 0 Z " fill="currentColor" transform="translate(306,140)"/>
<path d="M0 0 C1.50156874 3.00313748 1.09281204 5.79067522 1.0625 9.125 C1.05347656 10.40632812 1.04445312 11.68765625 1.03515625 13.0078125 C1.02355469 13.99523437 1.01195312 14.98265625 1 16 C-2.63 16 -6.26 16 -10 16 C-9.96519531 16.83144531 -9.93039063 17.66289062 -9.89453125 18.51953125 C-9.86746094 19.60621094 -9.84039062 20.69289062 -9.8125 21.8125 C-9.77769531 22.89144531 -9.74289063 23.97039062 -9.70703125 25.08203125 C-10 28 -10 28 -11.51171875 29.88671875 C-12.00285156 30.25410156 -12.49398437 30.62148438 -13 31 C-13 30.34 -13 29.68 -13 29 C-14.98 29.33 -16.96 29.66 -19 30 C-19 29.34 -19 28.68 -19 28 C-18.34 28 -17.68 28 -17 28 C-17 27.01 -17 26.02 -17 25 C-16.34 24.67 -15.68 24.34 -15 24 C-15.226875 23.319375 -15.45375 22.63875 -15.6875 21.9375 C-16.12701981 17.80601381 -15.08072256 15.55736438 -13 12 C-9.9375 10.5 -9.9375 10.5 -7 10 C-6.34 10.33 -5.68 10.66 -5 11 C-5.061875 9.741875 -5.12375 8.48375 -5.1875 7.1875 C-5.19441101 3.28277965 -5.19441101 3.28277965 -3.625 1 C-2 0 -2 0 0 0 Z " fill="currentColor" transform="translate(144,230)"/>
<path d="M0 0 C-0.66 2.97 -1.32 5.94 -2 9 C-1.34 9 -0.68 9 0 9 C0 9.99 0 10.98 0 12 C0.33 11.01 0.66 10.02 1 9 C5.455 8.505 5.455 8.505 10 8 C10.66 9.32 11.32 10.64 12 12 C11.01 12 10.02 12 9 12 C9 12.66 9 13.32 9 14 C5.9340217 14.58399587 3.12741752 15.00265453 0 14.9375 C-3.34358226 15.00715796 -5.89022832 15.81532508 -9 17 C-8.67 16.01 -8.34 15.02 -8 14 C-8.66 14 -9.32 14 -10 14 C-9.67 12.35 -9.34 10.7 -9 9 C-10.32 8.67 -11.64 8.34 -13 8 C-10.35261084 6.5393715 -9.10551666 6 -6 6 C-5.566875 4.7934375 -5.566875 4.7934375 -5.125 3.5625 C-3.81204892 0.57188921 -3.2474503 0 0 0 Z " fill="currentColor" transform="translate(297,147)"/>
<path d="M0 0 C0.79921875 0.11085937 1.5984375 0.22171875 2.421875 0.3359375 C3.32679688 0.47902344 3.32679688 0.47902344 4.25 0.625 C3.92 3.265 3.59 5.905 3.25 8.625 C2.59 8.625 1.93 8.625 1.25 8.625 C1.58 10.275 1.91 11.925 2.25 13.625 C5.41666667 11.79166667 5.41666667 11.79166667 7.25 8.625 C7.25 10.935 7.25 13.245 7.25 15.625 C6.26 15.955 5.27 16.285 4.25 16.625 C4.765625 17.57375 5.28125 18.5225 5.8125 19.5 C6.286875 20.53125 6.76125 21.5625 7.25 22.625 C6.92 23.285 6.59 23.945 6.25 24.625 C0.125 18.5 0.125 18.5 -0.3125 13.0625 C-0.39628906 12.05058594 -0.48007813 11.03867188 -0.56640625 9.99609375 C-0.62699219 9.21363281 -0.68757812 8.43117187 -0.75 7.625 C-1.74 7.625 -2.73 7.625 -3.75 7.625 C-4.08 11.255 -4.41 14.885 -4.75 18.625 C-5.08 18.625 -5.41 18.625 -5.75 18.625 C-6.08 13.675 -6.41 8.725 -6.75 3.625 C-8.73 4.615 -8.73 4.615 -10.75 5.625 C-9.79585337 3.23963343 -9.15189883 1.88588169 -6.96875 0.46875 C-4.34753612 -0.52804965 -2.75664899 -0.40538956 0 0 Z " fill="currentColor" transform="translate(150.75,226.375)"/>
<path d="M0 0 C0.66 0.33 1.32 0.66 2 1 C2 1.66 2 2.32 2 3 C1.34 3 0.68 3 0 3 C0 3.66 0 4.32 0 5 C-3.3171411 6.4216319 -6.44219804 7.39009109 -10 8 C-10 8.66 -10 9.32 -10 10 C-11.1446875 10.4021875 -11.1446875 10.4021875 -12.3125 10.8125 C-14.99059911 11.80258135 -14.99059911 11.80258135 -16.5625 13.5625 C-18 15 -18 15 -20.0625 15.5 C-22.39687193 15.87267251 -22.39687193 15.87267251 -24 19 C-23.67 16.69 -23.34 14.38 -23 12 C-23.99 12.495 -23.99 12.495 -25 13 C-25 13.99 -25 14.98 -25 16 C-26.8125 17.75 -26.8125 17.75 -29 19 C-29.99 18.67 -30.98 18.34 -32 18 C-31.04737966 16.51714758 -30.08771595 15.03881799 -29.125 13.5625 C-28.32449219 12.32693359 -28.32449219 12.32693359 -27.5078125 11.06640625 C-26 9 -26 9 -24 8 C-22.58251465 8.13764837 -21.16597727 8.28511834 -19.75 8.4375 C-13.67874712 8.57951761 -9.60855168 5.91741964 -4.64746094 2.75756836 C-3.1266349 1.79223192 -1.56593072 0.89030739 0 0 Z " fill="currentColor" transform="translate(189,207)"/>
<path d="M0 0 C0.33 0 0.66 0 1 0 C1 12.87 1 25.74 1 39 C2.65 39.66 4.3 40.32 6 41 C8.375 43.375 8.375 43.375 10 46 C9.75 48.3125 9.75 48.3125 9 50 C8.34 50 7.68 50 7 50 C6.01 52.475 6.01 52.475 5 55 C4.443125 54.2575 3.88625 53.515 3.3125 52.75 C1.06972822 50.08292005 -1.22074975 48.08443768 -4 46 C-1.69 44.68 0.62 43.36 3 42 C2.01 41.34 1.02 40.68 0 40 C-0.266487 36.94924916 -0.34757146 34.10373821 -0.29296875 31.0546875 C-0.28872391 30.1696756 -0.28447906 29.2846637 -0.28010559 28.37283325 C-0.26328259 25.53991555 -0.22562425 22.70770348 -0.1875 19.875 C-0.17245782 17.95704151 -0.15876861 16.03907189 -0.14648438 14.12109375 C-0.11336727 9.41378969 -0.06156055 4.70701456 0 0 Z " fill="currentColor" transform="translate(343,243)"/>
<path d="M0 0 C0.52207031 0.23203125 1.04414063 0.4640625 1.58203125 0.703125 C1.25203125 2.023125 0.92203125 3.343125 0.58203125 4.703125 C1.24203125 5.033125 1.90203125 5.363125 2.58203125 5.703125 C0.93203125 6.363125 -0.71796875 7.023125 -2.41796875 7.703125 C-2.08796875 8.363125 -1.75796875 9.023125 -1.41796875 9.703125 C-1.74796875 10.363125 -2.07796875 11.023125 -2.41796875 11.703125 C-6.78198738 12.90232847 -10.36098593 13.19925979 -14.48046875 11.265625 C-15.11984375 10.75 -15.75921875 10.234375 -16.41796875 9.703125 C-15.02825116 5.53397222 -12.92228616 5.00800779 -9.10546875 2.953125 C-7.37876953 2.00179687 -7.37876953 2.00179687 -5.6171875 1.03125 C-2.41796875 -0.296875 -2.41796875 -0.296875 0 0 Z " fill="currentColor" transform="translate(250.41796875,175.296875)"/>
<path d="M0 0 C7.59 0 15.18 0 23 0 C23 0.66 23 1.32 23 2 C23.763125 1.814375 24.52625 1.62875 25.3125 1.4375 C29.44559735 0.94713252 33.10917767 1.30243277 37.23046875 1.7421875 C40.84211947 2.07839194 44.37545742 2.0683876 48 2 C48 4.31 48 6.62 48 9 C47.67 9 47.34 9 47 9 C47 7.02 47 5.04 47 3 C45.02 3 43.04 3 41 3 C40.67 5.31 40.34 7.62 40 10 C36.37 10 32.74 10 29 10 C29 9.67 29 9.34 29 9 C32.3 9 35.6 9 39 9 C39 8.34 39 7.68 39 7 C33.555 6.505 33.555 6.505 28 6 C28 5.67 28 5.34 28 5 C30.31 5 32.62 5 35 5 C35 4.34 35 3.68 35 3 C30.10050013 3.37499415 30.10050013 3.37499415 25.875 5.625 C24 7 24 7 21.25 6.6875 C20.5075 6.460625 19.765 6.23375 19 6 C19.66 4.35 20.32 2.7 21 1 C14.07 1 7.14 1 0 1 C0 0.67 0 0.34 0 0 Z " fill="currentColor" transform="translate(135,258)"/>
<path d="M0 0 C2 1 2 1 3 3 C1.7934375 4.0828125 1.7934375 4.0828125 0.5625 5.1875 C-2.02292072 8.02515689 -2.68042813 9.27166147 -3 13 C-5.64 13 -8.28 13 -11 13 C-11.33 13.99 -11.66 14.98 -12 16 C-14.31 16 -16.62 16 -19 16 C-19.33 15.34 -19.66 14.68 -20 14 C-17.85199157 11.63719073 -15.83319533 10.41659766 -13 9 C-12.67 8.34 -12.34 7.68 -12 7 C-9.78515625 6.54296875 -9.78515625 6.54296875 -7.0625 6.1875 C-4.36870981 5.77190677 -4.36870981 5.77190677 -2 5 C-0.24431996 2.54251602 -0.24431996 2.54251602 0 0 Z " fill="currentColor" transform="translate(191,207)"/>
<path d="M0 0 C0 0.66 0 1.32 0 2 C0.66 2.33 1.32 2.66 2 3 C1.34 3 0.68 3 0 3 C0.45375 3.45375 0.9075 3.9075 1.375 4.375 C2.58333333 5.58333333 3.79166667 6.79166667 5 8 C3.21385682 9.03046722 1.42089982 10.04913236 -0.375 11.0625 C-1.37273437 11.63097656 -2.37046875 12.19945312 -3.3984375 12.78515625 C-4.25695312 13.18605469 -5.11546875 13.58695313 -6 14 C-8 13 -8 13 -9 10 C-7.5625 7.8125 -7.5625 7.8125 -6 6 C-7.65 6 -9.3 6 -11 6 C-9.73083275 3.46166551 -8.58375191 3.10599099 -6.0625 1.875 C-5.35222656 1.52179688 -4.64195312 1.16859375 -3.91015625 0.8046875 C-2 0 -2 0 0 0 Z " fill="currentColor" transform="translate(272,163)"/>
<path d="M0 0 C2.31 0.33 4.62 0.66 7 1 C4.37801226 3.15377564 2.35595828 4.40072174 -1 5 C-1.23509196 9.81938524 -0.45184478 13.46298506 1 18 C-1.90802461 15.78071806 -3.95312762 14.07030857 -6 11 C-6.99 11 -7.98 11 -9 11 C-9 10.34 -9 9.68 -9 9 C-10.32 9 -11.64 9 -13 9 C-12.67 8.34 -12.34 7.68 -12 7 C-11.34 6.855625 -10.68 6.71125 -10 6.5625 C-9.01 6.2840625 -9.01 6.2840625 -8 6 C-7.67 5.01 -7.34 4.02 -7 3 C-4.69 3.33 -2.38 3.66 0 4 C0 2.68 0 1.36 0 0 Z " fill="currentColor" transform="translate(179,219)"/>
<path d="M0 0 C0 0.66 0 1.32 0 2 C0.66 2.33 1.32 2.66 2 3 C2 3.66 2 4.32 2 5 C2.66 4.34 3.32 3.68 4 3 C6.125 3.375 6.125 3.375 8 4 C4.58983503 6.86453858 1.09305456 8.34703566 -3 10 C-3 9.34 -3 8.68 -3 8 C-3.66 8 -4.32 8 -5 8 C-5 7.34 -5 6.68 -5 6 C-7.31 5.67 -9.62 5.34 -12 5 C-8.77464852 1.23708994 -4.90542108 -1.63514036 0 0 Z " fill="currentColor" transform="translate(209,199)"/>
<path d="M0 0 C0 0.33 0 0.66 0 1 C-2.31 1.33 -4.62 1.66 -7 2 C-7.33 3.65 -7.66 5.3 -8 7 C-7.34 7.33 -6.68 7.66 -6 8 C-6.37125 8.5775 -6.7425 9.155 -7.125 9.75 C-8.29166667 12 -8.29166667 12 -7.125 14.25 C-6.75375 14.8275 -6.3825 15.405 -6 16 C-6.66 16 -7.32 16 -8 16 C-7.67 16.99 -7.34 17.98 -7 19 C-7.66 19 -8.32 19 -9 19 C-9 18.01 -9 17.02 -9 16 C-9.66 16 -10.32 16 -11 16 C-10.34 13.03 -9.68 10.06 -9 7 C-12.76687864 8.88343932 -13.79421646 9.69132469 -16 13 C-15.83142082 8.02691408 -15.73720057 5.88464068 -12.5 2 C-8.63591423 -0.81795523 -4.58335447 -0.45833545 0 0 Z " fill="currentColor" transform="translate(306,140)"/>
<path d="M0 0 C0.70189453 0.01353516 1.40378906 0.02707031 2.12695312 0.04101562 C3.85579829 0.07629818 5.58424765 0.13010417 7.3125 0.1875 C7.3125 0.5175 7.3125 0.8475 7.3125 1.1875 C3.0225 1.1875 -1.2675 1.1875 -5.6875 1.1875 C-5.6875 3.4975 -5.6875 5.8075 -5.6875 8.1875 C-6.6775 8.5175 -7.6675 8.8475 -8.6875 9.1875 C-9.0175 8.1975 -9.3475 7.2075 -9.6875 6.1875 C-9.6875 18.3975 -9.6875 30.6075 -9.6875 43.1875 C-10.0175 43.1875 -10.3475 43.1875 -10.6875 43.1875 C-10.76160727 37.54584639 -10.81608167 31.90447553 -10.85229492 26.26245117 C-10.8673898 24.34280462 -10.88786773 22.4231926 -10.91381836 20.50366211 C-10.95017109 17.74584436 -10.96721912 14.9884822 -10.98046875 12.23046875 C-10.99595261 11.37100143 -11.01143646 10.51153412 -11.02738953 9.62602234 C-11.02761612 8.82541885 -11.02784271 8.02481537 -11.02807617 7.19995117 C-11.03473801 6.4960173 -11.04139984 5.79208344 -11.04826355 5.06681824 C-9.92381018 -0.79077386 -4.87342258 -0.17746357 0 0 Z " fill="currentColor" transform="translate(116.6875,238.8125)"/>
<path d="M0 0 C1.5635348 3.12706959 1.39958487 6.57982443 1 10 C0.01 11.485 0.01 11.485 -1 13 C-1.66 12.67 -2.32 12.34 -3 12 C-5.05644489 12 -7.11633213 12.90875913 -9.0625 13.5 C-9.98160156 13.7784375 -10.90070313 14.056875 -11.84765625 14.34375 C-12.91306641 14.66859375 -12.91306641 14.66859375 -14 15 C-13.15625 13.05078125 -13.15625 13.05078125 -12 11 C-9.12060581 10.06419689 -7.74490212 9.62754894 -5 11 C-5.061875 9.741875 -5.12375 8.48375 -5.1875 7.1875 C-5.19441101 3.28277965 -5.19441101 3.28277965 -3.625 1 C-2 0 -2 0 0 0 Z " fill="currentColor" transform="translate(144,230)"/>
<path d="M0 0 C-0.45375 0.7425 -0.9075 1.485 -1.375 2.25 C-2.99207827 4.85216344 -2.99207827 4.85216344 -3.9375 7.1875 C-5 9 -5 9 -7.0625 9.75 C-9.17997243 10.80439776 -9.17997243 10.80439776 -9.48046875 12.8984375 C-9.72577226 14.92485781 -9.86858202 16.96302126 -10 19 C-11.65 19.33 -13.3 19.66 -15 20 C-15 21.65 -15 23.3 -15 25 C-15.66 24.01 -16.32 23.02 -17 22 C-16.34 20.68 -15.68 19.36 -15 18 C-13.68 18 -12.36 18 -11 18 C-11.12375 16.2675 -11.12375 16.2675 -11.25 14.5 C-11.25 9.61670507 -9.70164387 6.0201936 -7 2 C-3.75 -1.25 -3.75 -1.25 0 0 Z " fill="currentColor" transform="translate(106,283)"/>
<path d="M0 0 C0.66 0 1.32 0 2 0 C2 1.32 2 2.64 2 4 C2.61488281 3.96519531 3.22976562 3.93039062 3.86328125 3.89453125 C5.07564453 3.85392578 5.07564453 3.85392578 6.3125 3.8125 C7.51326172 3.76029297 7.51326172 3.76029297 8.73828125 3.70703125 C11.47851584 4.06198392 12.29171079 4.89366282 14 7 C13.67 7.99 13.34 8.98 13 10 C12.34 10 11.68 10 11 10 C11 9.34 11 8.68 11 8 C7.04 8 3.08 8 -1 8 C-1 2 -1 2 0 0 Z " fill="currentColor" transform="translate(184,260)"/>
<path d="M0 0 C2.475 0.99 2.475 0.99 5 2 C3.86726461 6.44380808 2.71682385 10.26436721 0 14 C-0.66 14 -1.32 14 -2 14 C-2.33 14.66 -2.66 15.32 -3 16 C-3 13.69 -3 11.38 -3 9 C-2.34 9 -1.68 9 -1 9 C-0.83312552 6.58354218 -0.83312552 6.58354218 -1 4 C-1.66 3.34 -2.32 2.68 -3 2 C-2.01 2 -1.02 2 0 2 C0 1.34 0 0.68 0 0 Z " fill="currentColor" transform="translate(155,226)"/>
<path d="M0 0 C0.99 0.66 1.98 1.32 3 2 C3.66 2.33 4.32 2.66 5 3 C4.67 4.65 4.34 6.3 4 8 C1.69 8.33 -0.62 8.66 -3 9 C-3 8.34 -3 7.68 -3 7 C-3.99 6.67 -4.98 6.34 -6 6 C-6 4.68 -6 3.36 -6 2 C-3.1875 0.875 -3.1875 0.875 0 0 Z " fill="currentColor" transform="translate(214,195)"/>
<path d="M0 0 C0.33 0 0.66 0 1 0 C1.45543387 5.69292334 0.68246386 8.6015015 -3 13 C-6.11397374 15.01220761 -8.11893882 15.15897959 -11.75 14.625 C-12.54921875 14.51414063 -13.3484375 14.40328125 -14.171875 14.2890625 C-15.07679688 14.14597656 -15.07679688 14.14597656 -16 14 C-12.58389775 13.05685873 -9.54865136 12.91934883 -6 13 C-6 12.34 -6 11.68 -6 11 C-5.01 11 -4.02 11 -3 11 C-4.63473516 7.87525373 -4.63473516 7.87525373 -7.125 7.3125 C-7.74375 7.209375 -8.3625 7.10625 -9 7 C-6.9316316 5.3009831 -5.44788522 4.10237376 -2.8125 3.5 C-2.214375 3.335 -1.61625 3.17 -1 3 C-0.67 2.01 -0.34 1.02 0 0 Z " fill="currentColor" transform="translate(312,148)"/>
<path d="M0 0 C0.66 0.33 1.32 0.66 2 1 C2.33 1.99 2.66 2.98 3 4 C3.99 4.33 4.98 4.66 6 5 C5.7215625 6.11375 5.7215625 6.11375 5.4375 7.25 C5.00415005 9.97391397 5.2593443 11.40770504 6 14 C5 15 5 15 2.4375 15.0625 C1.633125 15.041875 0.82875 15.02125 0 15 C0 13.35 0 11.7 0 10 C-0.66 10 -1.32 10 -2 10 C-1.67 8.68 -1.34 7.36 -1 6 C-0.34 6 0.32 6 1 6 C0.67 4.02 0.34 2.04 0 0 Z M1 12 C1 12.66 1 13.32 1 14 C2.32 14 3.64 14 5 14 C5 13.34 5 12.68 5 12 C3.68 12 2.36 12 1 12 Z " fill="currentColor" transform="translate(124,240)"/>
<path d="M0 0 C0 0.66 0 1.32 0 2 C-0.99 2 -1.98 2 -3 2 C-3 2.66 -3 3.32 -3 4 C-5.8125 4.6875 -5.8125 4.6875 -9 5 C-10.875 3.5625 -10.875 3.5625 -12 2 C-11.67 1.01 -11.34 0.02 -11 -1 C-3.57142857 -2.42857143 -3.57142857 -2.42857143 0 0 Z " fill="currentColor" transform="translate(309,157)"/>
<path d="M0 0 C0.66 0 1.32 0 2 0 C2 0.66 2 1.32 2 2 C4.97 2.495 4.97 2.495 8 3 C8 3.99 8 4.98 8 6 C7.38125 6.103125 6.7625 6.20625 6.125 6.3125 C3.63473516 6.87525373 3.63473516 6.87525373 2 10 C2.33 7.69 2.66 5.38 3 3 C2.01 3.495 2.01 3.495 1 4 C1 4.99 1 5.98 1 7 C-0.8125 8.75 -0.8125 8.75 -3 10 C-3.99 9.67 -4.98 9.34 -6 9 C-5.05016642 7.49460339 -4.08988109 5.99579653 -3.125 4.5 C-2.59132812 3.6646875 -2.05765625 2.829375 -1.5078125 1.96875 C-0.76144531 0.99421875 -0.76144531 0.99421875 0 0 Z " fill="currentColor" transform="translate(163,216)"/>
<path d="M0 0 C0.33 0 0.66 0 1 0 C1 1.98 1 3.96 1 6 C2.65 6.33 4.3 6.66 6 7 C6.6875 8.8125 6.6875 8.8125 7 11 C5.8125 12.8125 5.8125 12.8125 4 14 C1.8125 13.6875 1.8125 13.6875 0 13 C0.99 11.02 1.98 9.04 3 7 C2.01 7 1.02 7 0 7 C0 4.69 0 2.38 0 0 Z " fill="currentColor" transform="translate(354,295)"/>
<path d="M0 0 C0.33 0 0.66 0 1 0 C1 2.31 1 4.62 1 7 C0.01 7.33 -0.98 7.66 -2 8 C-1.484375 8.94875 -0.96875 9.8975 -0.4375 10.875 C0.036875 11.90625 0.51125 12.9375 1 14 C0.67 14.66 0.34 15.32 0 16 C-2.5625 13.875 -2.5625 13.875 -5 11 C-5 7.8125 -5 7.8125 -4 5 C-3.01 4.34 -2.02 3.68 -1 3 C-0.67 2.01 -0.34 1.02 0 0 Z " fill="currentColor" transform="translate(157,235)"/>
<path d="M0 0 C1.98 0 3.96 0 6 0 C7 3 7 3 6.0625 5.1875 C5.5365625 6.0846875 5.5365625 6.0846875 5 7 C2.525 6.01 2.525 6.01 0 5 C0 3.35 0 1.7 0 0 Z " fill="currentColor" transform="translate(272,163)"/>
<path d="M0 0 C0.66 0.33 1.32 0.66 2 1 C2 1.66 2 2.32 2 3 C1.34 3 0.68 3 0 3 C0 3.66 0 4.32 0 5 C-3.96697886 6.80317221 -7.6822542 7.49202991 -12 8 C-9.72254211 5.51017465 -7.37664762 3.89631003 -4.4375 2.25 C-3.65246094 1.80140625 -2.86742187 1.3528125 -2.05859375 0.890625 C-1.37925781 0.59671875 -0.69992188 0.3028125 0 0 Z " fill="currentColor" transform="translate(189,207)"/>
<path d="M0 0 C0.928125 0.20625 1.85625 0.4125 2.8125 0.625 C-0.6962188 3.72092835 -3.67947399 5.36694623 -8.1875 6.625 C-6.59083531 1.95782629 -5.4448172 -0.64056673 0 0 Z " fill="currentColor" transform="translate(285.1875,163.375)"/>
<path d="M0 0 C2.475 0.99 2.475 0.99 5 2 C4.34 3.65 3.68 5.3 3 7 C1.68 6.67 0.36 6.34 -1 6 C-1 5.34 -1 4.68 -1 4 C-1.66 3.34 -2.32 2.68 -3 2 C-2.01 2 -1.02 2 0 2 C0 1.34 0 0.68 0 0 Z " fill="currentColor" transform="translate(155,226)"/>
<path d="M0 0 C1.28132813 0.00902344 2.56265625 0.01804688 3.8828125 0.02734375 C4.87023437 0.03894531 5.85765625 0.05054688 6.875 0.0625 C6.875 0.3925 6.875 0.7225 6.875 1.0625 C4.565 1.3925 2.255 1.7225 -0.125 2.0625 C-0.125 2.3925 -0.125 2.7225 -0.125 3.0625 C-2.105 3.0625 -4.085 3.0625 -6.125 3.0625 C-6.455 3.7225 -6.785 4.3825 -7.125 5.0625 C-7.125 4.4025 -7.125 3.7425 -7.125 3.0625 C-7.785 3.0625 -8.445 3.0625 -9.125 3.0625 C-9.125 2.4025 -9.125 1.7425 -9.125 1.0625 C-6.12186252 -0.43906874 -3.33432478 -0.03031204 0 0 Z " fill="currentColor" transform="translate(333.125,238.9375)"/>
<path d="M0 0 C2.31 0.33 4.62 0.66 7 1 C6.67 2.32 6.34 3.64 6 5 C5.34 5 4.68 5 4 5 C4 4.01 4 3.02 4 2 C3.01 3.485 3.01 3.485 2 5 C0.68 5 -0.64 5 -2 5 C-1.34 3.35 -0.68 1.7 0 0 Z " fill="currentColor" transform="translate(197,204)"/>
<path d="M0 0 C0.66 0.33 1.32 0.66 2 1 C2 1.66 2 2.32 2 3 C0.6078125 3.680625 0.6078125 3.680625 -0.8125 4.375 C-4.03921389 5.9421633 -4.03921389 5.9421633 -7 8 C-7.99 7.34 -8.98 6.68 -10 6 C-8.3811004 4.96951963 -6.75467511 3.95085322 -5.125 2.9375 C-4.22007812 2.36902344 -3.31515625 1.80054688 -2.3828125 1.21484375 C-1.20332031 0.61349609 -1.20332031 0.61349609 0 0 Z " fill="currentColor" transform="translate(282,156)"/>
<path d="M0 0 C-0.33 1.98 -0.66 3.96 -1 6 C-1.99 6 -2.98 6 -4 6 C-4.33 6.66 -4.66 7.32 -5 8 C-5.66 7.34 -6.32 6.68 -7 6 C-3.61538462 0 -3.61538462 0 0 0 Z " fill="currentColor" transform="translate(297,147)"/>
<path d="M0 0 C0.33 0 0.66 0 1 0 C1 2.97 1 5.94 1 9 C-3.95 10.485 -3.95 10.485 -9 12 C-8.34 10.68 -7.68 9.36 -7 8 C-4.12060581 7.06419689 -2.74490212 6.62754894 0 8 C0 5.36 0 2.72 0 0 Z " fill="currentColor" transform="translate(139,233)"/>
<path d="M0 0 C1.2065625 0.0309375 1.2065625 0.0309375 2.4375 0.0625 C2.1075 1.3825 1.7775 2.7025 1.4375 4.0625 C2.0975 4.3925 2.7575 4.7225 3.4375 5.0625 C1.1275 5.3925 -1.1825 5.7225 -3.5625 6.0625 C-3.605221 4.39638095 -3.60313832 2.72867115 -3.5625 1.0625 C-2.5625 0.0625 -2.5625 0.0625 0 0 Z " fill="currentColor" transform="translate(301.5625,140.9375)"/>
<path d="M0 0 C0.66 0.33 1.32 0.66 2 1 C0.02 4.63 -1.96 8.26 -4 12 C-4.33 12 -4.66 12 -5 12 C-4.50769231 4.61538462 -4.50769231 4.61538462 -1.9375 1.5 C-1.298125 1.005 -0.65875 0.51 0 0 Z " fill="currentColor" transform="translate(295,141)"/>
<path d="M0 0 C0.66 0.33 1.32 0.66 2 1 C1.34 2.32 0.68 3.64 0 5 C-0.66 5 -1.32 5 -2 5 C-2 7.64 -2 10.28 -2 13 C-2.33 13 -2.66 13 -3 13 C-4.22222222 5.66666667 -4.22222222 5.66666667 -3.1875 2.5625 C-2 1 -2 1 0 0 Z " fill="currentColor" transform="translate(106,288)"/>
<path d="M0 0 C1.98 0 3.96 0 6 0 C6.33 1.32 6.66 2.64 7 4 C5.68 4.33 4.36 4.66 3 5 C1 2 1 2 0 0 Z M-2 2 C-1.34 2 -0.68 2 0 2 C-0.33 2.99 -0.66 3.98 -1 5 C-1.33 4.01 -1.66 3.02 -2 2 Z " fill="currentColor" transform="translate(327,242)"/>
<path d="M0 0 C2.1875 0.3125 2.1875 0.3125 4 1 C3.67 2.65 3.34 4.3 3 6 C1.02 5.01 -0.96 4.02 -3 3 C-1.75 1.4375 -1.75 1.4375 0 0 Z " fill="currentColor" transform="translate(342,287)"/>
<path d="M0 0 C-1.98 0.99 -1.98 0.99 -4 2 C-4 2.66 -4 3.32 -4 4 C-5.32 3.34 -6.64 2.68 -8 2 C-7.34 2 -6.68 2 -6 2 C-6 1.34 -6 0.68 -6 0 C-3.50907189 -1.24546405 -2.58919267 -0.7767578 0 0 Z " fill="currentColor" transform="translate(267,169)"/>
<path d="M0 0 C0.66 0.33 1.32 0.66 2 1 C2 2.32 2 3.64 2 5 C-0.31 4.67 -2.62 4.34 -5 4 C-3.36587557 2.29159719 -2.13093906 1.06546953 0 0 Z " fill="currentColor" transform="translate(202,200)"/>
<path d="M0 0 C2.31 0.33 4.62 0.66 7 1 C7 1.66 7 2.32 7 3 C5.02 3 3.04 3 1 3 C0.67 2.01 0.34 1.02 0 0 Z " fill="currentColor" transform="translate(167,264)"/>
</svg>
