<svg version="1.1" xmlns="http://www.w3.org/2000/svg" width="100" height="100" viewBox="0 0 512 512">
<path d="M0 0 C1.485 1.051875 1.485 1.051875 3 2.125 C7.11405811 5.63436715 9.51144933 10.27248782 12 15 C12.34417969 15.60328125 12.68835938 16.2065625 13.04296875 16.828125 C17.01775806 25.11360131 16.24467798 37.42116729 13.4375 46 C10.98816787 51.7180138 7.32612143 57.9596856 1.9187355 61.27669239 C-0.22703665 62.85810201 -0.22703665 62.85810201 -0.49219131 65.46187115 C-0.48850414 66.44726785 -0.48481697 67.43266455 -0.48101807 68.44792175 C-0.48651672 69.57954239 -0.49201538 70.71116302 -0.49768066 71.8770752 C-0.48329956 73.11928833 -0.46891846 74.36150146 -0.45410156 75.64135742 C-0.45468567 76.94877396 -0.45526978 78.25619049 -0.45587158 79.60322571 C-0.45702065 83.18992979 -0.43348098 86.77610028 -0.40557575 90.3626802 C-0.38059375 94.11027439 -0.37822264 97.85788043 -0.37347412 101.60554504 C-0.36103486 108.70292314 -0.32820061 115.80005518 -0.28807616 122.89732486 C-0.24338783 130.97701246 -0.22137884 139.05671174 -0.20129442 147.13649213 C-0.15946864 163.75780553 -0.08909838 180.37887138 0 197 C0.81649017 196.17739182 1.63298035 195.35478363 2.47421265 194.50724792 C3.56004842 193.41646354 4.64595938 192.32575399 5.73193359 191.23510742 C6.26833969 190.69428276 6.80474579 190.1534581 7.35740662 189.59624481 C10.24769469 186.69664657 13.16861747 183.89361371 16.2890625 181.23828125 C20.2902339 177.82151587 23.82019991 174.05988908 27.375 170.1875 C33.30940087 163.80674376 39.34309947 157.54151467 45.5 151.375 C46.22880371 150.64176514 46.95760742 149.90853027 47.70849609 149.15307617 C51.06951297 145.800898 54.46596513 142.55496857 58.0703125 139.46484375 C62.13362088 135.95951788 65.74921481 132.13721605 69.375 128.1875 C75.30940087 121.80674376 81.34309947 115.54151467 87.5 109.375 C88.22880371 108.64176514 88.95760742 107.90853027 89.70849609 107.15307617 C93.09137639 103.77909208 96.51253297 100.51289797 100.13671875 97.3984375 C103.80352204 94.23504432 107.06803252 90.83886338 110.3125 87.25 C116.03148597 81.02906904 121.90422724 74.97950792 127.875 69 C128.65915283 68.21141602 129.44330566 67.42283203 130.2512207 66.61035156 C133.78880768 63.08138828 137.3522534 59.6456976 141.14453125 56.390625 C144.98605783 53.08106056 148.40032321 49.4943483 151.8125 45.75 C157.72986915 39.35228778 163.77980633 33.1042305 169.9375 26.9375 C171.10792847 25.7604248 171.10792847 25.7604248 172.30200195 24.55957031 C176.48815411 20.38369256 180.76965823 16.39885387 185.25170898 12.54321289 C187.49068932 10.56686954 189.52445213 8.43113662 191.5625 6.25 C197.15409906 0.67738769 201.5464199 -1.12875809 209.4375 -1.4375 C213.74470408 -1.36323786 216.78553163 -0.96152747 220.5625 1.125 C221.696875 1.74375 222.83125 2.3625 224 3 C226.99971505 1.95738059 228.97836925 0.22937108 231.25 -1.9375 C237.4482031 -7.2970456 243.6883296 -8.70327971 251.83984375 -8.4765625 C260.2350693 -7.21053343 267.14359344 -2.59105836 272.890625 3.484375 C274 5 274 5 274 7 C274.99 7.33 275.98 7.66 277 8 C278.54296875 9.6015625 278.54296875 9.6015625 280.1875 11.625 C284.47664856 16.68492579 289.27692448 20.94108924 294.5625 24.9375 C297.47609883 27.40285286 299.83786998 30.16430301 302.31640625 33.05859375 C304.43147454 35.4975472 306.68947914 37.7458333 309 40 C316.60763804 47.44914559 316.60763804 47.44914559 320 51.5625 C323.94558371 56.27139827 328.5735219 60.32457464 333.625 63.8125 C338.70692817 68.49322332 342.736272 75.35536549 343.23828125 82.29296875 C343.26277344 83.57816406 343.28726562 84.86335938 343.3125 86.1875 C343.34988281 87.45980469 343.38726562 88.73210937 343.42578125 90.04296875 C342.38781135 99.68942299 336.46316072 105.03067183 329.6875 111.5 C324.49959547 116.52263329 319.44261318 121.5308078 314.74487305 127.01708984 C311.51306891 130.68977953 308.02982199 134.11390342 304.5625 137.5625 C303.85029297 138.27857422 303.13808594 138.99464844 302.40429688 139.73242188 C298.32126538 143.80803642 294.13424686 147.69374477 289.76586914 151.46118164 C287.57172489 153.37320863 285.49127101 155.37593479 283.4375 157.4375 C282.75558594 158.11683594 282.07367188 158.79617187 281.37109375 159.49609375 C279.44423039 161.53088686 277.60916663 163.59691553 275.78125 165.71875 C271.73842375 170.367702 267.42848971 174.71861657 263.0625 179.0625 C261.92264648 180.2081543 261.92264648 180.2081543 260.75976562 181.37695312 C256.5622652 185.56728447 252.27274994 189.57670297 247.77954102 193.44750977 C245.40406843 195.51989695 243.16246564 197.70510542 240.9375 199.9375 C239.77541016 201.09572266 239.77541016 201.09572266 238.58984375 202.27734375 C236.55549707 204.41601591 234.61488301 206.58011851 232.6875 208.8125 C228.9841562 213.07527338 225.0657108 217.08245146 221.0625 221.0625 C220.39798828 221.73087891 219.73347656 222.39925781 219.04882812 223.08789062 C215.11086817 227.01821147 211.05667128 230.74566845 206.84594727 234.38110352 C204.27079659 236.63951168 201.85624554 239.01154508 199.4375 241.4375 C198.56996094 242.30246094 197.70242188 243.16742188 196.80859375 244.05859375 C194.67117756 246.25051041 192.65685529 248.52655919 190.65625 250.84375 C186.96460917 255.0973043 183.05532463 259.09277754 179.0625 263.0625 C178.39798828 263.73087891 177.73347656 264.39925781 177.04882812 265.08789062 C173.09054744 269.03849278 169.0160513 272.78927778 164.78344727 276.44360352 C162.58448127 278.36261901 160.49709918 280.37008451 158.4375 282.4375 C157.75558594 283.11683594 157.07367188 283.79617188 156.37109375 284.49609375 C154.44423039 286.53088686 152.60916663 288.59691553 150.78125 290.71875 C146.73842375 295.367702 142.42848971 299.71861657 138.0625 304.0625 C137.30259766 304.82626953 136.54269531 305.59003906 135.75976562 306.37695312 C131.5622652 310.56728447 127.27274994 314.57670297 122.77954102 318.44750977 C120.40406843 320.51989695 118.16246564 322.70510542 115.9375 324.9375 C114.77541016 326.09572266 114.77541016 326.09572266 113.58984375 327.27734375 C111.55549707 329.41601591 109.61488301 331.58011851 107.6875 333.8125 C103.9841562 338.07527338 100.0657108 342.08245146 96.0625 346.0625 C95.39798828 346.73087891 94.73347656 347.39925781 94.04882812 348.08789062 C90.11086817 352.01821147 86.05667128 355.74566845 81.84594727 359.38110352 C76.11099578 364.41065824 70.68025564 369.93255183 65.75 375.75 C58.2159764 384.56097675 49.72883575 392.84267187 40.890625 400.3359375 C35.47914159 405.09893736 30.45257924 410.29127469 25.75 415.75 C21.71906768 420.38984765 17.41807043 424.72898309 13.0625 429.0625 C12.30259766 429.82626953 11.54269531 430.59003906 10.75976562 431.37695312 C6.59228785 435.53731309 2.32812673 439.49718795 -2.13549805 443.33618164 C-4.50952781 445.45468535 -6.68309756 447.72436524 -8.86645508 450.03637695 C-15.31211881 456.81058423 -20.37401681 461.84461973 -30.109375 462.21484375 C-34.08163575 462.28262977 -38.03155263 462.17529338 -42 462 C-42 461.34 -42 460.68 -42 460 C-42.58007812 459.87753906 -43.16015625 459.75507813 -43.7578125 459.62890625 C-50.35484064 457.77852031 -54.75278139 453.64840009 -58.48046875 448.0625 C-62.38662392 442.76057216 -67.68192723 438.46506546 -72.5 434 C-75.95401492 430.79905152 -79.39712866 427.60460124 -82.72265625 424.26953125 C-84.72068737 422.27835444 -86.76313917 420.4794579 -88.9375 418.6875 C-92.33348341 415.7575068 -94.94584152 412.68309483 -97.48046875 408.9921875 C-100.53683758 404.98512296 -104.32624048 401.68641385 -108.03125 398.29296875 C-108.75957031 397.62330078 -109.48789063 396.95363281 -110.23828125 396.26367188 C-111.74026924 394.88490397 -113.24806385 393.51243375 -114.76171875 392.14648438 C-120.90166777 386.46838993 -126.60892531 380.40452394 -127.23828125 371.70703125 C-127.40466421 362.97630412 -127.2016966 356.67854868 -121.17578125 349.96875 C-119.49641359 348.25191167 -117.78567936 346.60510504 -116 345 C-116.433125 344.14341797 -116.433125 344.14341797 -116.875 343.26953125 C-120.65355466 335.01706291 -121.80905872 326.18935404 -118.8125 317.4375 C-116.00099408 312.00192189 -111.13839665 308.26610292 -106.6171875 304.28515625 C-102.92433914 301.00008883 -99.58150894 297.45897056 -96.25 293.8125 C-90.99171976 288.08771133 -85.61714992 282.50117119 -80.125 277 C-79.43567383 276.30624268 -78.74634766 275.61248535 -78.03613281 274.89770508 C-74.09125311 270.96374644 -70.04426437 267.20948301 -65.81225586 263.58569336 C-63.37253717 261.45098059 -61.06255893 259.2245557 -58.83708286 256.86735535 C-57 255 -57 255 -55.16545773 253.52337646 C-51.13892072 249.89703898 -49.60302237 246.74346733 -49.18770897 241.29841614 C-49.03594783 237.30607777 -49.04677923 233.32259232 -49.07836914 229.328125 C-49.06723669 227.52712019 -49.05314616 225.72613161 -49.03633118 223.9251709 C-49.00023362 219.04891271 -49.00837865 214.17366932 -49.0267899 209.29734802 C-49.0379794 205.22169831 -49.02704346 201.14623174 -49.01601785 197.07059097 C-48.99017874 187.45443866 -48.99971032 177.83877523 -49.0324707 168.22265625 C-49.06572434 158.31110565 -49.04458444 148.40075141 -48.99576861 138.48929214 C-48.9554304 129.96923536 -48.94627189 121.44954592 -48.96259969 112.92940903 C-48.97219364 107.8451543 -48.97066265 102.76155493 -48.94020271 97.67736816 C-48.91313438 92.8964492 -48.92521192 88.1171767 -48.96708488 83.33638 C-48.97604111 81.58528703 -48.97146867 79.83406289 -48.95214844 78.08305359 C-48.61050456 68.74997678 -48.61050456 68.74997678 -51.78422356 60.24249268 C-53.7565232 58.27742481 -55.78174971 56.67058794 -58 55 C-59.83984375 51.953125 -59.83984375 51.953125 -60.9375 49.25 C-61.31777344 48.34765625 -61.69804688 47.4453125 -62.08984375 46.515625 C-66.04804361 35.57536443 -65.11180281 23.24344294 -60.40625 12.734375 C-55.13387271 2.48253026 -47.16893391 -3.35163183 -36.296875 -7.28515625 C-23.49999333 -11.26785922 -10.5369978 -7.90274835 0 0 Z M-42.33984375 17.1796875 C-46.46446247 21.70221062 -48.16170719 26.90902913 -48 33 C-46.88133555 39.91834229 -44.39307041 45.43289533 -39 50 C-32.98008862 54.01327425 -26.84576597 55.60118904 -19.625 54.5625 C-13.33451408 52.96833576 -8.35767117 48.55191636 -4.8046875 43.19921875 C-1.37561755 35.95822153 -1.55108488 29.62591926 -4.0546875 22.26171875 C-6.33092272 16.8156849 -9.91774247 13.83433593 -15 11 C-25.70542077 7.34197012 -34.25988033 9.50131272 -42.33984375 17.1796875 Z M236 17 C235.34 17.66 234.68 18.32 234 19 C233.50183609 22.32478284 233.1647416 25.62326879 232.87695312 28.97070312 C232.38567126 33.75516889 231.59876642 35.66872263 229 40 C235.27 46.27 241.54 52.54 248 59 C250.31 57.02 252.62 55.04 255 53 C256.36635812 52.02003958 257.75619322 51.06989325 259.1875 50.1875 C260.13689453 49.59001953 260.13689453 49.59001953 261.10546875 48.98046875 C266.65010976 46.11097412 273.55490219 46.00016089 279.4765625 47.71875 C286.74295169 50.73223582 290.92575367 55.30659532 295 62 C295.97202952 64.91608855 296.22914048 67.01329653 296.3125 70.0625 C296.34988281 70.94035156 296.38726562 71.81820312 296.42578125 72.72265625 C294.92672298 84.26127908 287.82680531 91.02415816 279.92463684 98.82380676 C278.66001018 100.09391938 277.39669694 101.36534086 276.13458174 102.63794917 C272.6740994 106.11955349 269.19522837 109.58225215 265.71297109 113.04205883 C261.9562728 116.78104388 258.21692676 120.5373146 254.4753418 124.29141235 C247.14738299 131.63833422 239.80345337 138.96908839 232.4538636 146.29436467 C223.89394402 154.82702163 215.34932928 163.37493671 206.80514737 171.92334756 C191.55864767 187.17622516 176.2973444 202.41420575 161.02807617 217.64428711 C146.21446161 232.41989421 131.41282185 247.20736659 116.6237793 262.00756836 C100.51614268 278.1273232 84.4022902 294.24081403 68.27723235 310.34314364 C66.55749267 312.06046877 64.83775428 313.77779518 63.1180172 315.49512291 C62.2718817 316.34005132 61.42574621 317.18497974 60.55397025 318.05551204 C54.59411395 324.00761276 48.63853613 329.96397404 42.68445778 335.92185402 C35.42739022 343.18316777 28.16301358 350.43707656 20.8893337 357.68175099 C17.17897048 361.37763658 13.47182929 365.07660462 9.77326775 368.78430367 C6.3859994 372.17973658 2.98960475 375.56575528 -0.41424445 378.94456371 C-1.64250871 380.16698196 -2.86744275 381.39275766 -4.08863523 382.62224064 C-20.27086064 398.90430067 -20.27086064 398.90430067 -32.4375 399.4375 C-39.6037832 399.35053054 -45.25253178 397.28447631 -51 393 C-55.18974283 387.73596413 -57.18046704 382.54125262 -56.55078125 375.87109375 C-56.51068958 371.09704078 -57.32247288 368.87435052 -60.54296875 365.34765625 C-62.06371954 363.89010549 -63.61304763 362.46187018 -65.1875 361.0625 C-65.95642578 360.33482422 -66.72535156 359.60714844 -67.51757812 358.85742188 C-69.64411267 356.86231264 -71.81094336 354.92592951 -74 353 C-75.38445312 351.72382812 -75.38445312 351.72382812 -76.796875 350.421875 C-78.85257069 348.76571747 -78.85257069 348.76571747 -81.03515625 349.23046875 C-81.70417969 349.54628906 -82.37320313 349.86210937 -83.0625 350.1875 C-86.90384126 351.77525439 -89.91068087 352.14556243 -94.0625 352.1875 C-99.9649363 352.54179694 -102.57602676 354.48489034 -106.4765625 358.796875 C-108.62711986 361.9069118 -110.07110986 364.61335777 -109.875 368.4375 C-106.29463042 378.92286804 -96.38729932 386.69058202 -88.5 394 C-85.03452028 397.21157329 -81.58117054 400.41800628 -78.2421875 403.76171875 C-76.42827136 405.57247475 -74.61484568 407.20606361 -72.625 408.8125 C-69.16616592 411.71126029 -66.33406958 414.9739287 -63.48046875 418.4609375 C-62.99191406 418.96882813 -62.50335938 419.47671875 -62 420 C-61.34 420 -60.68 420 -60 420 C-59.835 420.680625 -59.67 421.36125 -59.5 422.0625 C-57.62037687 425.74342862 -55.16935972 427.68296511 -52.0234375 430.30078125 C-49.53330952 432.39191189 -47.29820905 434.70179095 -45 437 C-43.34106818 438.34294481 -41.67523395 439.67744688 -40 441 C-39.54238281 441.52078125 -39.08476563 442.0415625 -38.61328125 442.578125 C-36.04162993 444.84466515 -33.79948112 444.68431323 -30.48239005 444.48497063 C-27.66953613 443.93543913 -26.65949647 443.25198435 -24.57472801 441.32640743 C-23.53300285 440.36507139 -23.53300285 440.36507139 -22.47023273 439.38431442 C-16.92176397 434.02882952 -11.44687199 428.603 -5.99185181 423.15248108 C-4.56764242 421.73300822 -3.1432258 420.31374325 -1.71862066 418.89466757 C2.18384546 415.00604885 6.08319826 411.11432145 9.98199534 407.22202456 C13.32895909 403.88145036 16.6777578 400.54271869 20.02657644 397.20400412 C31.0502467 386.21357505 42.06811089 375.21733361 53.0843367 364.21944371 C55.95181308 361.35674057 58.81940657 358.49415475 61.68700838 355.63157725 C79.4976241 337.85199667 97.30602594 320.07020029 115.10951805 302.28348637 C119.22841257 298.16852878 123.34734457 294.05360872 127.46630859 289.9387207 C127.97800987 289.42752109 128.48971115 288.91632148 129.01691853 288.38963098 C145.62470496 271.79827949 162.2434815 255.2179916 178.86845402 238.64386238 C195.96906774 221.59545139 213.05995864 204.53735675 230.13812463 187.46645732 C232.54904184 185.05656869 234.96006288 182.64678395 237.37114334 180.23705864 C237.84564026 179.76281976 238.32013717 179.28858088 238.80901278 178.79997113 C246.4471678 171.16651217 254.09539506 163.54322249 261.7473518 155.9236016 C269.43316151 148.26979932 277.10766727 140.60480773 284.771511 132.92901046 C288.92415464 128.77052562 293.08155787 124.61710515 297.25211334 120.47657776 C301.0680981 116.68784582 304.87004135 112.8855953 308.66117723 109.07200342 C310.03660544 107.69333844 311.41715021 106.31975567 312.8032041 104.95177377 C314.68425733 103.0937734 316.54592354 101.21826523 318.40387535 99.33720493 C319.22040639 98.54388825 319.22040639 98.54388825 320.053433 97.73454496 C323.91975615 93.76101919 325.1061502 90.48135775 326 85 C325.04408399 80.43284574 322.30843339 78.15088895 319 75 C317.66666667 73.33333333 316.33333333 71.66666667 315 70 C310.9696272 65.8528048 306.7402043 61.92953587 302.5 58 C299.03372988 54.78769423 295.57958474 51.58122663 292.2421875 48.234375 C290.42978275 46.42828525 288.62672993 44.83185488 286.625 43.25 C283.11529836 40.29727275 280.47256128 36.93928507 277.7734375 33.24609375 C273.58001157 27.93503669 268.35831454 23.443001 263.4375 18.8125 C262.4484668 17.86987305 262.4484668 17.86987305 261.43945312 16.90820312 C260.47749023 16.00424805 260.47749023 16.00424805 259.49609375 15.08203125 C258.92044678 14.53780518 258.3447998 13.9935791 257.75170898 13.43286133 C254.16270613 10.49713202 250.86959428 9.39334953 246.1640625 9.47265625 C241.85728596 10.52214151 238.99419445 13.89334754 236 17 Z M194.5625 26.25 C193.67691406 27.14203125 192.79132813 28.0340625 191.87890625 28.953125 C189.76402766 31.14882229 187.76063695 33.41889975 185.7734375 35.73046875 C181.42904019 40.73325174 176.75635177 45.38977585 172.0625 50.0625 C170.77956055 51.35124023 170.77956055 51.35124023 169.47070312 52.66601562 C165.68649666 56.44444908 161.89339456 60.15213564 157.83203125 63.6328125 C153.79785438 67.10086005 150.21938785 70.89698636 146.625 74.8125 C140.69059913 81.19325624 134.65690053 87.45848533 128.5 93.625 C127.77119629 94.35823486 127.04239258 95.09146973 126.29150391 95.84692383 C122.93177302 99.19781938 119.53677606 102.44255908 115.93359375 105.53125 C111.84693606 109.05658115 108.21006659 112.90355787 104.5625 116.875 C98.80801134 123.06066466 92.96913126 129.14594555 87 135.125 C86.31881104 135.81062012 85.63762207 136.49624023 84.93579102 137.20263672 C81.70351095 140.42583402 78.42686038 143.53245727 74.9609375 146.50390625 C70.88827953 150.0211116 67.26082416 153.85184809 63.625 157.8125 C57.69059913 164.19325624 51.65690053 170.45848533 45.5 176.625 C44.77119629 177.35823486 44.04239258 178.09146973 43.29150391 178.84692383 C39.93563096 182.19397159 36.54500092 185.43514368 32.9453125 188.51953125 C28.01921074 192.76850562 23.68906206 197.51873325 19.31640625 202.32543945 C15.98640453 205.95005984 12.68979922 209.35608914 8.8515625 212.4453125 C1.96970955 217.94875356 1.96970955 217.94875356 -1.59277344 225.74755859 C-2.18063059 232.20457317 -1.79401194 238.57635617 -1 245 C5.22440549 239.89438922 10.88733647 234.26539375 16.56225586 228.56811523 C18.19077318 226.934216 19.824596 225.3057585 21.45898438 223.67773438 C22.50813345 222.62792481 23.55697244 221.57780526 24.60546875 220.52734375 C25.08783493 220.0470018 25.57020111 219.56665985 26.06718445 219.07176208 C28.92668972 216.19255931 31.49394852 213.1882947 34 210 C35.13698507 208.96637721 36.30422848 207.96500859 37.5 207 C41.31472599 203.7546361 44.64636576 200.20590234 48 196.5 C51.84938204 192.25308832 55.73757335 188.29856389 60.1328125 184.60546875 C64.79802599 180.59416594 69.07891135 176.17459899 73 171.4375 C75.04914254 168.98839114 77.17749668 166.92465813 79.625 164.875 C83.40200474 161.67684656 86.68562674 158.16159332 90 154.5 C93.8694937 150.23046353 97.78126409 146.25270555 102.19921875 142.5390625 C106.48382182 138.87716747 110.34582183 134.8371208 113.9375 130.5 C115.99116492 128.05388079 118.11162007 125.98331818 120.5625 123.9375 C124.53798182 120.57245685 127.99616519 116.84032732 131.5 113 C135.55229064 108.5636252 139.61765588 104.37286412 144.23046875 100.5078125 C148.33420433 97.01103119 152.04020611 93.18128478 155.4375 89 C157.4135379 86.68658978 159.13684958 84.97808393 161.4375 83.0625 C165.63031706 79.50616371 169.28747189 75.54203953 173 71.5 C177.23607834 66.89320889 181.46020654 62.48848409 186.26953125 58.46875 C190.53947459 54.84459945 194.36921724 50.80886974 197.9375 46.5 C200.71395571 43.18903945 203.81710702 40.43872337 207.09765625 37.63671875 C209.54793773 35.52857103 211.81816319 33.38638401 214 31 C214 30.34 214 29.68 214 29 C214.66 29 215.32 29 216 29 C217.30059064 26.26814404 217.30059064 26.26814404 218 23 C216.88483109 20.61035234 215.86049542 18.86049542 214 17 C205.01173775 16.23828286 200.82362703 19.88891304 194.5625 26.25 Z M215.2578125 53.64453125 C214.55398438 54.35996094 213.85015625 55.07539062 213.125 55.8125 C212.07699219 56.87404297 212.07699219 56.87404297 211.0078125 57.95703125 C210.34523438 58.63121094 209.68265625 59.30539063 209 60 C208.00111049 61.00110926 207.00157356 62.00157604 206 63 C206.49628906 63.4125 206.99257813 63.825 207.50390625 64.25 C211.8300044 67.92759387 215.65848824 71.7154286 219.26171875 76.10546875 C221.38686853 78.51864638 221.38686853 78.51864638 226 82 C229.3 78.7 232.6 75.4 236 72 C233.79946456 68.33244094 232.35217232 66.10211109 229.4609375 63.23046875 C228.46707031 62.23950195 228.46707031 62.23950195 227.453125 61.22851562 C226.76734375 60.55498047 226.0815625 59.88144531 225.375 59.1875 C224.68148438 58.49462891 223.98796875 57.80175781 223.2734375 57.08789062 C219.60449575 52.32718068 219.60449575 52.32718068 215.2578125 53.64453125 Z M265.26274967 66.02253056 C264.56405958 66.66200379 263.86536949 67.30147702 263.14550698 67.96032822 C259.64728614 71.28598616 256.20373599 74.65870754 252.79600525 78.07701111 C252.01006676 78.86138961 251.22412827 79.64576811 250.41437346 80.45391566 C247.79983516 83.06448762 245.18885923 85.67859254 242.57788086 88.29272461 C240.6966635 90.17258599 238.81525258 92.05225182 236.93360901 93.9316864 C232.36486213 98.49600048 227.79880602 103.06299707 223.23372786 107.63098019 C219.52157292 111.34539896 215.80843645 115.05883391 212.0946064 118.77157784 C211.56484202 119.30118898 211.03507764 119.83080013 210.4892598 120.37646009 C209.41285042 121.45254973 208.3364388 122.52863714 207.26002497 123.60472233 C197.18063699 133.68126282 187.10430917 143.76085891 177.0290351 153.84151257 C168.39503342 162.47998162 159.75841335 171.11582555 151.11987305 179.74975586 C141.07382816 189.7904421 131.02941667 199.83275775 120.98758417 209.877657 C119.91558415 210.94997555 118.84358204 212.02229203 117.77157784 213.0946064 C117.24421355 213.62212496 116.71684927 214.14964352 116.17350424 214.69314749 C112.46765932 218.3998537 108.76065972 222.10540268 105.05320549 225.81049919 C100.53145037 230.32944177 96.01149757 234.85017799 91.49380415 239.37318128 C89.19140064 241.6782022 86.88795424 243.98216291 84.58285141 246.28448486 C82.07857969 248.78601432 79.57742398 251.29061949 77.07701111 253.79600525 C76.35579588 254.51498975 75.63458066 255.23397426 74.89151043 255.97474617 C70.95567283 259.92572604 67.20570351 263.97049071 63.60091501 268.22676092 C61.96454685 270.03926936 60.23958926 271.6125258 58.37890625 273.19140625 C52.85079988 277.89116231 47.7903813 283.06040295 42.67260742 288.19702148 C40.941053 289.933936 39.20421641 291.66543889 37.46679688 293.39648438 C30.6387723 300.20919185 30.6387723 300.20919185 24.19140625 307.37890625 C21.46060654 310.58202455 18.49212603 313.25436034 15.28955078 315.97705078 C10.84880336 319.90070541 6.70750106 324.14533649 2.52709961 328.3425293 C0.94040054 329.93458966 -0.65157742 331.5212299 -2.24414062 333.10742188 C-12.40021881 342.59445855 -12.40021881 342.59445855 -20 354 C-18.63875 355.0828125 -18.63875 355.0828125 -17.25 356.1875 C-14.38076508 358.46984596 -12.23922252 361.10361435 -10 364 C-9.2265625 363.21496094 -8.453125 362.42992187 -7.65625 361.62109375 C1.79418871 352.07319644 1.79418871 352.07319644 5.875 348.625 C9.9316502 345.16390057 13.71240621 341.43728402 17.5 337.6875 C18.13663574 337.06375488 18.77327148 336.44000977 19.42919922 335.79736328 C20.01975098 335.20810059 20.61030273 334.61883789 21.21875 334.01171875 C21.75435547 333.48022217 22.28996094 332.94872559 22.84179688 332.40112305 C24.21237595 331.04605569 24.21237595 331.04605569 24 329 C24.66 329 25.32 329 26 329 C27.46641754 327.54995757 27.46641754 327.54995757 29 325.625 C34.48118883 319.18659731 40.41254729 313.21306103 46.8125 307.6875 C51.07527338 303.9841562 55.08245146 300.0657108 59.0625 296.0625 C59.73087891 295.39798828 60.39925781 294.73347656 61.08789062 294.04882812 C65.01821147 290.11086817 68.74566845 286.05667128 72.38110352 281.84594727 C74.63951168 279.27079659 77.01154508 276.85624554 79.4375 274.4375 C80.30246094 273.56996094 81.16742188 272.70242188 82.05859375 271.80859375 C84.25051041 269.67117756 86.52655919 267.65685529 88.84375 265.65625 C93.0973043 261.96460917 97.09277754 258.05532463 101.0625 254.0625 C101.73087891 253.39798828 102.39925781 252.73347656 103.08789062 252.04882812 C107.02835074 248.1007092 110.76747346 244.03636089 114.41235352 239.81469727 C116.49891675 237.42973271 118.69338358 235.17414847 120.9375 232.9375 C121.70964844 232.16277344 122.48179687 231.38804687 123.27734375 230.58984375 C125.38543528 228.58458596 127.51557138 226.67711063 129.71875 224.78125 C134.54703558 220.5866096 139.05241199 216.0941846 143.5625 211.5625 C144.37396484 210.75490234 145.18542969 209.94730469 146.02148438 209.11523438 C150.35680331 204.77291735 154.52539148 200.35041319 158.52758789 195.69946289 C160.25858263 193.70154307 162.06434209 191.80246029 163.9375 189.9375 C164.81728516 189.05384766 164.81728516 189.05384766 165.71484375 188.15234375 C167.65639635 186.32363353 169.63535187 184.58275617 171.65625 182.84375 C176.502631 178.62513565 181.03164072 174.11505533 185.5625 169.5625 C186.37396484 168.75490234 187.18542969 167.94730469 188.02148438 167.11523438 C192.35680331 162.77291735 196.52539148 158.35041319 200.52758789 153.69946289 C202.25858263 151.70154307 204.06434209 149.80246029 205.9375 147.9375 C206.81728516 147.05384766 206.81728516 147.05384766 207.71484375 146.15234375 C209.65639635 144.32363353 211.63535187 142.58275617 213.65625 140.84375 C218.502631 136.62513565 223.03164072 132.11505533 227.5625 127.5625 C228.37396484 126.75490234 229.18542969 125.94730469 230.02148438 125.11523438 C234.33517363 120.79458194 238.50144148 116.40678726 242.46484375 111.76171875 C246.20331242 107.47151679 250.28643432 103.57711856 254.60546875 99.87890625 C259.52790105 95.58617314 264.21794037 91.07751358 268.875 86.5 C269.72835938 85.68402344 270.58171875 84.86804688 271.4609375 84.02734375 C277.64704803 78.01087939 277.64704803 78.01087939 280 70 C279.43791709 67.76831759 279.43791709 67.76831759 278.125 66.0625 C277.42375 65.051875 276.7225 64.04125 276 63 C271.11637858 62.28780521 268.93287335 62.64938481 265.26274967 66.02253056 Z M-32 71 C-32.13683571 103.2729434 -32.24303725 135.54580437 -32.30639198 167.81897001 C-32.31389634 171.62793035 -32.32166226 175.43689012 -32.32958984 179.24584961 C-32.33116371 180.00415421 -32.33273757 180.76245881 -32.33435912 181.54374234 C-32.3604767 193.82685415 -32.4077894 206.1097977 -32.46291678 218.39280965 C-32.51899924 230.99359158 -32.55234701 243.5942853 -32.56453097 256.19518691 C-32.57276935 263.97255179 -32.59880118 271.74944113 -32.6474988 279.52665965 C-32.68292372 285.48731689 -32.68673786 291.44772924 -32.67864609 297.40849495 C-32.68030054 299.85589912 -32.69228563 302.30332083 -32.71523285 304.75061798 C-32.74498388 308.08638281 -32.73794696 311.42009515 -32.7215271 314.75590515 C-32.73900415 315.72964181 -32.7564812 316.70337847 -32.77448785 317.7066223 C-32.8026708 322.52096148 -32.8026708 322.52096148 -30.68630338 326.66995966 C-28.90527395 328.21816958 -28.90527395 328.21816958 -26 330 C-25.34 330.66 -24.68 331.32 -24 332 C-20.62745803 329.38882421 -17.53402053 326.89479871 -16.34607232 322.67974961 C-16.11929039 319.93757946 -16.10026371 317.26651285 -16.15821838 314.51539612 C-16.14924692 312.95059121 -16.14924692 312.95059121 -16.14009422 311.35417408 C-16.12858039 307.86489358 -16.16703465 304.37797872 -16.20532227 300.88891602 C-16.20729711 298.38545284 -16.20618781 295.8819856 -16.20222473 293.37852478 C-16.20063166 287.99208324 -16.22045984 282.60637547 -16.2598896 277.2201252 C-16.31685972 269.4327147 -16.33501781 261.64559096 -16.34380554 253.85799467 C-16.35911345 241.22230547 -16.40566367 228.5869332 -16.47192383 215.95141602 C-16.53620959 203.67962221 -16.58574247 191.40791459 -16.61547852 179.13598633 C-16.61731758 178.37912852 -16.61915664 177.6222707 -16.62105144 176.84247781 C-16.63018692 173.04541869 -16.63903282 169.24835896 -16.64773476 165.45129883 C-16.72026287 133.96730212 -16.84404201 102.48369926 -17 71 C-21.95 71 -26.9 71 -32 71 Z M191.57641602 76.40185547 C190.97498779 77.05041504 190.37355957 77.69897461 189.75390625 78.3671875 C189.08617187 79.08342285 188.4184375 79.7996582 187.73046875 80.53759766 C186.65732422 81.69461182 186.65732422 81.69461182 185.5625 82.875 C170.1707118 99.34134788 170.1707118 99.34134788 163.1875 105.3125 C155.82578975 111.62681245 148.78824887 118.61405183 142.5 126 C136.29327935 133.29018809 129.36116033 140.23993067 122.0625 146.4375 C113.72875024 153.53005298 105.97658062 161.53931876 98.8984375 169.875 C92.47487903 177.06515598 85.49780409 183.81927932 78.16015625 190.06640625 C71.60887811 195.93057023 65.25479231 202.23388672 59.5625 208.9375 C52.46994702 217.27124976 44.46068124 225.02341938 36.125 232.1015625 C28.94453445 238.51646371 22.18787747 245.48135944 15.95703125 252.81640625 C13.1384175 255.96132659 10.16836596 258.94691383 7.1875 261.9375 C6.61128906 262.51822266 6.03507813 263.09894531 5.44140625 263.69726562 C1.24752946 267.87623527 1.24752946 267.87623527 -1 269 C-1 281.87 -1 294.74 -1 308 C3.66970056 303.99739952 8.1253727 300.02359079 12.44921875 295.68359375 C13.02912064 295.10464859 13.60902252 294.52570343 14.20649719 293.92921448 C15.42022401 292.71616258 16.63271145 291.50186942 17.84399414 290.28637695 C19.68979597 288.43519734 21.5409047 286.58944502 23.39257812 284.74414062 C24.57844591 283.55761231 25.76400361 282.37077399 26.94921875 281.18359375 C27.49720627 280.63763046 28.04519379 280.09166718 28.60978699 279.52915955 C31.62791073 276.49265785 34.3278459 273.35088695 37 270 C38.07958791 268.99797755 39.1912234 268.02938395 40.33203125 267.09765625 C46.44311571 261.86706624 52.04401053 256.10482042 57.71899414 250.41137695 C59.68979488 248.43519886 61.66590656 246.46444452 63.64257812 244.49414062 C64.91177922 243.22427897 66.18067021 241.95410728 67.44921875 240.68359375 C68.03265549 240.10218124 68.61609222 239.52076874 69.21720886 238.92173767 C71.83349103 236.29058014 74.34474515 233.64270585 76.69506836 230.76977539 C78.53758836 228.55566783 80.21637525 226.80291793 82.4296875 225 C88.33962754 219.95256177 93.75408395 214.39486299 99.23681641 208.89355469 C101.12420763 207.00079462 103.01689673 205.11345071 104.91015625 203.2265625 C106.13052914 202.00552888 107.35059182 200.78418513 108.5703125 199.5625 C109.12671417 199.00812256 109.68311584 198.45374512 110.25637817 197.88256836 C113.01882295 195.10382644 115.65437138 192.27456989 118.18383789 189.28100586 C120.15514299 186.94884444 122.10923113 184.86948162 124.48828125 182.94140625 C130.40225251 177.90222455 135.81070904 172.33817186 141.29174805 166.83862305 C143.19012055 164.93487203 145.09380374 163.03654876 146.99804688 161.13867188 C148.22167506 159.91438314 149.44499315 158.68978437 150.66796875 157.46484375 C151.22953171 156.90530502 151.79109467 156.3457663 152.36967468 155.76927185 C154.92985699 153.19398779 157.37928817 150.59742891 159.67919922 147.78564453 C161.5369053 145.55585004 163.235965 143.78417362 165.46484375 141.96484375 C171.19058023 137.07453024 176.44305466 131.70609293 181.75463867 126.37573242 C183.55862085 124.56639067 185.36788665 122.76245681 187.17773438 120.95898438 C192.51025058 115.62885368 197.7462055 110.2936388 202.63745117 104.54956055 C204.39854467 102.54675452 206.32079734 100.82195003 208.375 99.125 C211.11828986 96.90556951 211.11828986 96.90556951 213 94 C210.31237327 91.23093004 207.60359104 88.64164386 204.625 86.1875 C201.15836464 83.27583039 198.28059458 80.00860427 195.3828125 76.5390625 C194.69832031 75.77722656 194.69832031 75.77722656 194 75 C192.78576285 74.88305864 192.78576285 74.88305864 191.57641602 76.40185547 Z M-52.0390625 272.90625 C-52.89242187 273.7621875 -53.74578125 274.618125 -54.625 275.5 C-55.46289062 276.3353125 -56.30078125 277.170625 -57.1640625 278.03125 C-59.3004062 280.22127833 -61.31193136 282.49471607 -63.30859375 284.8125 C-67.15457821 289.24565766 -71.26442752 293.3765615 -75.4375 297.5 C-76.16904297 298.22703125 -76.90058594 298.9540625 -77.65429688 299.703125 C-79.43389824 301.47109499 -81.21580918 303.23666378 -83 305 C-82.2603766 308.24210456 -82.2603766 308.24210456 -79.1875 309.875 C-76.02020979 311.98652681 -74.28049406 314.00221388 -72 317 C-55.92134202 304.69593393 -55.92134202 304.69593393 -47.47265625 287.3515625 C-47.31712184 281.82037003 -47.86856584 276.41347728 -49 271 C-50.34347348 270.88618061 -50.34347348 270.88618061 -52.0390625 272.90625 Z M-100.734375 322.234375 C-102.3302275 324.46068775 -102.4022032 325.7796801 -102.375 328.5 C-102.38273437 329.2734375 -102.39046875 330.046875 -102.3984375 330.84375 C-101.90827417 333.49639861 -101.09909636 334.35503506 -99 336 C-95.82924761 337.16817193 -94.47643942 337.18835977 -91.3125 335.9375 C-88.33001803 333.43866376 -87.60185877 331.83684965 -87 328 C-88.50192629 324.19066638 -88.50192629 324.19066638 -91 321 C-96.16855756 320.39402505 -96.16855756 320.39402505 -100.734375 322.234375 Z M-57 325 C-58.71990499 326.81104525 -60.39947677 328.63796299 -62.0625 330.5 C-62.53494141 331.02464844 -63.00738281 331.54929687 -63.49414062 332.08984375 C-64.66520839 333.39103015 -65.8329165 334.69523877 -67 336 C-63.31172777 340.48573649 -59.44008436 344.79260405 -55.4375 349 C-54.97883545 349.5050708 -54.5201709 350.0101416 -54.04760742 350.53051758 C-51.85483388 352.79236721 -50.64674708 353.98329073 -47.4296875 354.06640625 C-44.51229655 352.78594366 -42.86125035 351.25862325 -40.6875 348.9375 C-39.99011719 348.20402344 -39.29273437 347.47054688 -38.57421875 346.71484375 C-38.05472656 346.14894531 -37.53523438 345.58304687 -37 345 C-39.7953783 341.56029691 -42.51598584 338.40162877 -45.9375 335.5625 C-49.21836457 332.81728679 -51.84322615 329.84506545 -54.58203125 326.57421875 C-55.04996094 326.05472656 -55.51789063 325.53523438 -56 325 C-56.33 325 -56.66 325 -57 325 Z M-38.4375 369.5625 C-40.60396028 372.94217804 -40.56288002 375.05983987 -40 379 C-38.58333333 381.58333333 -38.58333333 381.58333333 -36 383 C-32.05983987 383.56288002 -29.94217804 383.60396028 -26.5625 381.4375 C-24.39603972 378.05782196 -24.43711998 375.94016013 -25 372 C-26.41666667 369.41666667 -26.41666667 369.41666667 -29 368 C-32.94016013 367.43711998 -35.05782196 367.39603972 -38.4375 369.5625 Z " fill="currentColor" transform="translate(142,23)"/>
<path d="M0 0 C5.28 0 10.56 0 16 0 C16 0.33 16 0.66 16 1 C11.05 1 6.1 1 1 1 C0.99067202 33.27307989 1.01187776 65.54595768 1.07579029 97.81897001 C1.08330646 101.62792945 1.09056192 105.43688935 1.09765625 109.24584961 C1.099073 110.00415421 1.10048975 110.76245881 1.10194944 111.54374234 C1.12427614 123.82678789 1.12547686 136.10974947 1.11888863 148.39280965 C1.1125995 160.9936788 1.12897047 173.59437112 1.16643608 186.19518691 C1.18884405 193.97247424 1.19351571 201.74935896 1.17559664 209.52665965 C1.1637549 215.48741486 1.18342005 221.44780275 1.21495247 227.40849495 C1.22293876 229.85585756 1.22062887 232.30327814 1.20739174 234.75061798 C1.19087073 238.08648689 1.21101062 241.42017253 1.24050903 244.75590515 C1.22692293 245.72964181 1.21333683 246.70337847 1.19933903 247.7066223 C1.17322232 252.52710132 1.17322232 252.52710132 3.35116363 256.63480341 C4.8401062 257.8358991 6.41736064 258.9253682 8 260 C8.495 261.485 8.495 261.485 9 263 C5.08038142 261.40311835 2.60637707 259.33601927 0 256 C-0.73530525 252.56246968 -0.65326513 249.18388614 -0.60127258 245.67997742 C-0.60554471 244.63031589 -0.60981683 243.58065436 -0.61421841 242.49918491 C-0.62246441 238.97648232 -0.59493507 235.45496622 -0.56762695 231.93237305 C-0.56621684 229.40950041 -0.56700774 226.88662572 -0.56983948 224.36375427 C-0.57097864 218.92941337 -0.55678346 213.4954556 -0.52865028 208.06119347 C-0.48800147 200.20426933 -0.47499169 192.34749031 -0.46871033 184.49047241 C-0.45776928 171.74283354 -0.42450031 158.99535471 -0.37719727 146.24780273 C-0.33129672 133.8653239 -0.29590726 121.48288854 -0.2746582 109.1003418 C-0.27334459 108.33698455 -0.27203097 107.5736273 -0.27067754 106.78713801 C-0.26415232 102.95756921 -0.25783379 99.12800011 -0.25161803 95.2984308 C-0.19979092 63.53216982 -0.11135902 31.76610979 0 0 Z " fill="currentColor" transform="translate(109,93)"/>
<path d="M0 0 C0.99 0.495 0.99 0.495 2 1 C-2.6716731 7.48843487 -8.11502106 13.26559977 -13.75219727 18.91333008 C-14.39853119 19.56462891 -15.04486511 20.21592773 -15.71078491 20.88696289 C-17.82658027 23.01723634 -19.94613727 25.14371092 -22.06640625 27.26953125 C-22.79384474 27.99979712 -23.52128323 28.73006298 -24.2707653 29.48245811 C-28.11229395 33.3389128 -31.95663943 37.19253219 -35.8034668 41.04370117 C-39.77361318 45.01935542 -43.73438108 49.0042188 -47.69307041 52.99127674 C-50.7446562 56.06147073 -53.80291419 59.12495131 -56.86305046 62.18662071 C-58.3267612 63.65335722 -59.78797152 65.12259344 -61.24661446 66.59436989 C-63.28313745 68.64793178 -65.3288961 70.69183786 -67.37719727 72.73364258 C-67.9762941 73.34195419 -68.57539093 73.95026581 -69.19264221 74.57701111 C-72.2690705 77.62295078 -74.73613605 79.75654845 -79 81 C-72.83475115 73.44784104 -65.80588431 66.74198698 -58.87963867 59.90014648 C-57.23140614 58.27021962 -55.58545632 56.63805147 -53.94140625 55.00390625 C-53.41221588 54.47793854 -52.88302551 53.95197083 -52.33779907 53.4100647 C-49.51157108 50.58026239 -46.80631727 47.70230309 -44.21484375 44.65234375 C-41.50302884 41.47050817 -38.5682298 38.82493126 -35.38769531 36.12109375 C-30.45238532 31.73684291 -25.84869222 26.99547454 -21.19042969 22.32080078 C-19.37546648 20.50046786 -17.5552062 18.68555498 -15.734375 16.87109375 C-14.55957502 15.69563304 -13.38508525 14.51986221 -12.2109375 13.34375 C-11.67640961 12.81124634 -11.14188171 12.27874268 -10.59115601 11.73010254 C-6.8631899 7.97928697 -3.39235113 4.05609874 0 0 Z " fill="currentColor" transform="translate(304,167)"/>
<path d="M0 0 C0.495 0.99 0.495 0.99 1 2 C-3.76194986 7.59529108 -8.7602326 12.85269909 -14 18 C-15.66752084 19.66581967 -17.33401284 21.33264769 -19 23 C-20.17247828 24.1725738 -21.34500813 25.34509604 -22.51757812 26.51757812 C-23.16174683 27.16174683 -23.80591553 27.80591553 -24.46960449 28.46960449 C-48.48242188 52.48242188 -48.48242188 52.48242188 -50.31599426 54.31513977 C-51.81841752 55.81832538 -53.31797639 57.32437267 -54.81713867 58.83081055 C-57.07991953 61.07941897 -59.41863722 63.20447158 -61.8125 65.3125 C-62.60269531 66.00988281 -63.39289063 66.70726562 -64.20703125 67.42578125 C-64.79871094 67.94527344 -65.39039063 68.46476562 -66 69 C-66.66 68.67 -67.32 68.34 -68 68 C-67.11739502 67.12263184 -66.23479004 66.24526367 -65.32543945 65.34130859 C-62.03347487 62.0675232 -58.74488562 58.79036467 -55.45727539 55.51220703 C-54.03728763 54.09723004 -52.61640133 52.68315415 -51.19458008 51.27001953 C-49.14424238 49.23189049 -47.09721972 47.19048075 -45.05078125 45.1484375 C-44.10517082 44.210569 -44.10517082 44.210569 -43.14045715 43.25375366 C-40.39268217 40.50632444 -37.73899159 37.75405925 -35.27807617 34.74487305 C-33.42899402 32.51689849 -31.72442023 30.75073022 -29.5 28.93359375 C-23.32814814 23.66518731 -17.71216815 17.81775738 -12 12.0625 C-10.83226626 10.88973991 -9.66429926 9.71721202 -8.49609375 8.54492188 C-5.66136766 5.69928311 -2.82981176 2.85052547 0 0 Z " fill="currentColor" transform="translate(212,260)"/>
<path d="M0 0 C0.99 0.495 0.99 0.495 2 1 C1.58113525 1.40839111 1.16227051 1.81678223 0.73071289 2.23754883 C-1.16391776 4.09060864 -3.05074912 5.9514192 -4.9375 7.8125 C-5.59685547 8.45509766 -6.25621094 9.09769531 -6.93554688 9.75976562 C-7.87817383 10.69272461 -7.87817383 10.69272461 -8.83984375 11.64453125 C-9.42113037 12.21534424 -10.00241699 12.78615723 -10.60131836 13.37426758 C-12.23070238 15.06044035 -12.23070238 15.06044035 -13 18 C-13.66 18 -14.32 18 -15 18 C-15.36585709 18.8538327 -15.36585709 18.8538327 -15.73910522 19.72491455 C-17.23097261 22.41675359 -18.99108734 24.23090554 -21.17431641 26.40136719 C-22.03505768 27.2619574 -22.89579895 28.12254761 -23.78262329 29.00921631 C-24.71287323 29.92914368 -25.64312317 30.84907104 -26.6015625 31.796875 C-27.56321086 32.75479097 -28.52441694 33.71315114 -29.48519897 34.67193604 C-32.00923282 37.18835125 -34.53921591 39.69870107 -37.07049561 42.20782471 C-39.6547919 44.77162441 -42.23340199 47.34112918 -44.8125 49.91015625 C-49.86945697 54.94569457 -54.93272256 59.9748456 -60 65 C-60.99 64.67 -61.98 64.34 -63 64 C-54.4013606 54.62921644 -45.63152251 45.5560488 -36.3112793 36.90039062 C-27.0233649 28.26604247 -17.7501297 19.48664457 -9.5625 9.78515625 C-6.55633961 6.350618 -3.26387436 3.187576 0 0 Z " fill="currentColor" transform="translate(393,125)"/>
<path d="M0 0 C0.66 0.66 1.32 1.32 2 2 C-0.62645866 5.36515015 -3.23853216 8.29176083 -6.5078125 11.0390625 C-11.89498866 15.69705909 -16.86442945 20.75656913 -21.875 25.8125 C-22.83309606 26.77562672 -23.79142804 27.7385188 -24.75 28.70117188 C-27.16878844 31.1320198 -29.58464444 33.56574266 -32 36 C-34.1385485 38.1385485 -35.13275314 38.42655063 -38 39 C-31.15921215 29.03199484 -22.24951418 20.6259294 -13.0546875 12.83203125 C-8.50082533 8.77164844 -4.27715589 4.34791766 0 0 Z " fill="currentColor" transform="translate(329,190)"/>
<path d="M0 0 C0 4.46177112 -2.21286833 6.20747702 -5.28125 9.296875 C-6.1784375 10.18890625 -7.075625 11.0809375 -8 12 C-8.86238281 12.87398437 -9.72476563 13.74796875 -10.61328125 14.6484375 C-24.64539007 28.82269504 -24.64539007 28.82269504 -31 32 C-31 23.75 -31 15.5 -31 7 C-30.01 7 -29.02 7 -28 7 C-28.33 7.33 -28.66 7.66 -29 8 C-29.08685603 9.56172745 -29.10702219 11.12729344 -29.09765625 12.69140625 C-29.09515869 13.54162354 -29.09266113 14.39184082 -29.09008789 15.26782227 C-29.08098389 16.35506592 -29.07187988 17.44230957 -29.0625 18.5625 C-29.041875 22.006875 -29.02125 25.45125 -29 29 C-19.43 19.43 -9.86 9.86 0 0 Z " fill="currentColor" transform="translate(171,238)"/>
<path d="M0 0 C0.495 0.99 0.495 0.99 1 2 C-3.76194986 7.59529108 -8.7602326 12.85269909 -14 18 C-15.66805382 19.66527836 -17.33456018 21.33210739 -19 23 C-20.03767721 24.03784361 -21.0754412 25.07560047 -22.11328125 26.11328125 C-22.63857422 26.63857422 -23.16386719 27.16386719 -23.70507812 27.70507812 C-26.13671875 30.13671875 -28.56835938 32.56835938 -31 35 C-31.66 34.67 -32.32 34.34 -33 34 C-26.1141067 26.13764189 -18.85336726 18.73198471 -11.4375 11.375 C-10.32202917 10.26456039 -9.20679339 9.15388462 -8.09179688 8.04296875 C-5.39722369 5.35925841 -2.69952327 2.67873064 0 0 Z " fill="currentColor" transform="translate(212,260)"/>
<path d="M0 0 C3.5204691 1.30387744 5.22127986 3.37996785 7.50390625 6.28125 C9.8229968 8.94547935 12.51980456 11.13215102 15.23046875 13.38671875 C17 15 17 15 19 18 C19.99 18.33 20.98 18.66 22 19 C21.57257019 23.39939955 18.59344967 25.74424987 15.5625 28.625 C15.05912109 29.11484375 14.55574219 29.6046875 14.03710938 30.109375 C12.69704068 31.41207126 11.34894187 32.7064941 10 34 C9.34 34.66 8.68 35.32 8 36 C7.34 36 6.68 36 6 36 C5.67 36.66 5.34 37.32 5 38 C4.34 37.67 3.68 37.34 3 37 C7.8836671 31.09563077 13.1719243 25.96906227 19 21 C13.24621373 14.51142875 13.24621373 14.51142875 7.25 8.25 C4.63347055 5.63347055 2.33531108 2.86909648 0 0 Z " fill="currentColor" transform="translate(335,97)"/>
<path d="M0 0 C0.33 0 0.66 0 1 0 C0.99920441 0.87839035 0.99840881 1.7567807 0.99758911 2.66178894 C0.99538 10.94571868 1.02180368 19.22895807 1.0802784 27.51269054 C1.10933351 31.77138548 1.12737012 36.02952992 1.12011719 40.28833008 C1.11352279 44.39955474 1.13601344 48.50969172 1.17855453 52.6206913 C1.18968408 54.1879012 1.19038711 55.75522144 1.18042374 57.32243919 C1.16823921 59.52109252 1.19334208 61.71643161 1.22705078 63.91479492 C1.231492 65.16499924 1.23593323 66.41520355 1.24050903 67.70329285 C2.29716754 72.28990915 4.27872091 73.22875496 8 76 C8.33 76.99 8.66 77.98 9 79 C5.13118172 77.42381478 2.6673864 75.19795956 0 72 C-0.60127258 68.66532898 -0.60127258 68.66532898 -0.56762695 64.82299805 C-0.56835709 64.12001083 -0.56908722 63.41702362 -0.56983948 62.69273376 C-0.56637091 60.38159556 -0.52755009 58.07250238 -0.48828125 55.76171875 C-0.47895038 54.15461834 -0.47183556 52.54750366 -0.46684265 50.94038391 C-0.44779401 46.71992406 -0.39871274 42.5003309 -0.34332275 38.2802124 C-0.29208352 33.97013065 -0.2693187 29.65990821 -0.24414062 25.34960938 C-0.19059091 16.8993428 -0.10530525 8.44977935 0 0 Z " fill="currentColor" transform="translate(109,277)"/>
<path d="M0 0 C0.33 0.66 0.66 1.32 1 2 C-3.99336427 7.84710051 -9.20780983 13.4195258 -14.625 18.875 C-15.36234375 19.63296875 -16.0996875 20.3909375 -16.859375 21.171875 C-17.57867187 21.89632812 -18.29796875 22.62078125 -19.0390625 23.3671875 C-19.68053223 24.01800293 -20.32200195 24.66881836 -20.98291016 25.33935547 C-23.21030479 27.17314127 -25.28424972 28.06806142 -28 29 C-22.61359076 22.44622903 -16.64114873 16.52753365 -10.625 10.5625 C-9.59221405 9.53474017 -8.55966009 8.50674715 -7.52734375 7.47851562 C-5.02089713 4.98298402 -2.5113292 2.49061918 0 0 Z " fill="currentColor" transform="translate(253,219)"/>
<path d="M0 0 C0.33 0.66 0.66 1.32 1 2 C-0.06012706 3.23121385 -1.12324005 4.45985685 -2.1875 5.6875 C-2.77917969 6.37199219 -3.37085938 7.05648437 -3.98046875 7.76171875 C-6.23900273 10.26489084 -8.60165986 12.63055553 -11 15 C-12.32451172 16.32451172 -12.32451172 16.32451172 -13.67578125 17.67578125 C-16.1171875 20.1171875 -18.55859375 22.55859375 -21 25 C-21.99 24.67 -22.98 24.34 -24 24 C-16.08 16.08 -8.16 8.16 0 0 Z " fill="currentColor" transform="translate(332,140)"/>
<path d="M0 0 C0.66 0.33 1.32 0.66 2 1 C-2.51666385 7.27314424 -7.73102583 12.8626474 -13.125 18.375 C-13.6398999 18.91125 -14.1547998 19.4475 -14.68530273 20 C-19.30860907 24.66441901 -19.30860907 24.66441901 -23 25 C-18.9476841 20.07150769 -14.59224215 15.5504692 -10.05419922 11.07373047 C-6.48656498 7.53559097 -3.18950926 3.87913288 0 0 Z " fill="currentColor" transform="translate(304,167)"/>
<path d="M0 0 C0 3.74016583 -0.9341591 4.45276193 -3.375 7.1875 C-4.00148438 7.90292969 -4.62796875 8.61835938 -5.2734375 9.35546875 C-7 11 -7 11 -9 11 C-9.35964844 11.84498047 -9.35964844 11.84498047 -9.7265625 12.70703125 C-11.26937715 15.48504414 -13.13502106 17.43635838 -15.375 19.6875 C-16.14585937 20.47511719 -16.91671875 21.26273438 -17.7109375 22.07421875 C-20.00362972 24.00305367 -21.15888105 24.41915067 -24 25 C-19.18132753 19.19108254 -13.98743592 13.86934448 -8.625 8.5625 C-7.79355469 7.73556641 -6.96210938 6.90863281 -6.10546875 6.05664062 C-4.0725896 4.03544469 -2.03740037 2.01663665 0 0 Z " fill="currentColor" transform="translate(361,220)"/>
<path d="M0 0 C0 4.41983874 -2.84453622 6.4137906 -5.75 9.4375 C-6.28882813 10.01048828 -6.82765625 10.58347656 -7.3828125 11.17382812 C-8.91101272 12.79334763 -10.45417509 14.39732796 -12 16 C-12.74765625 16.79535156 -13.4953125 17.59070313 -14.265625 18.41015625 C-16 20 -16 20 -18 20 C-18.33 20.99 -18.66 21.98 -19 23 C-21.0625 23.6875 -21.0625 23.6875 -23 24 C-18.32533663 18.37696243 -13.32234333 13.20258446 -8.125 8.0625 C-7.34125 7.28326172 -6.5575 6.50402344 -5.75 5.70117188 C-3.83561419 3.79845915 -1.91891966 1.89813829 0 0 Z " fill="currentColor" transform="translate(400,181)"/>
<path d="M0 0 C0.66 0.66 1.32 1.32 2 2 C-0.59195068 4.67877946 -3.20047108 7.34080633 -5.8125 10 C-6.55048828 10.763125 -7.28847656 11.52625 -8.04882812 12.3125 C-8.76103516 13.034375 -9.47324219 13.75625 -10.20703125 14.5 C-11.18893433 15.50546875 -11.18893433 15.50546875 -12.19067383 16.53125 C-14 18 -14 18 -17 18 C-17.33 16.35 -17.66 14.7 -18 13 C-16.515 13.99 -16.515 13.99 -15 15 C-10.05 10.05 -5.1 5.1 0 0 Z " fill="currentColor" transform="translate(85,324)"/>
<path d="M0 0 C0 3.73837399 -0.87486844 4.27919685 -3.375 6.9375 C-5.80383696 9.53125798 -7.44445847 11.82008768 -9 15 C-10.31403276 15.70394612 -11.6520257 16.36345658 -13 17 C-15.06776444 18.59643578 -17.02160437 20.29138559 -19 22 C-17.3812035 17.84873045 -14.33386628 15.145816 -11.1875 12.125 C-7.1885699 8.25953234 -3.49647032 4.3301943 0 0 Z " fill="currentColor" transform="translate(399,120)"/>
<path d="M0 0 C0.99 0.33 1.98 0.66 3 1 C-1.62 5.62 -6.24 10.24 -11 15 C-11.66 14.67 -12.32 14.34 -13 14 C-11.58474822 12.41540185 -10.1677358 10.83237609 -8.75 9.25 C-7.96109375 8.36828125 -7.1721875 7.4865625 -6.359375 6.578125 C-4.29407328 4.32133835 -2.18264936 2.14260074 0 0 Z " fill="currentColor" transform="translate(192,280)"/>
<path d="M0 0 C3.36335594 1.45745424 5.54534005 3.31117854 8.109375 5.9140625 C8.86347656 6.67460937 9.61757813 7.43515625 10.39453125 8.21875 C11.17183594 9.0128125 11.94914062 9.806875 12.75 10.625 C13.54277344 11.42679687 14.33554688 12.22859375 15.15234375 13.0546875 C17.10614493 15.03202846 19.05512103 17.01388909 21 19 C18 19 18 19 16.1328125 17.42578125 C15.47023438 16.72839844 14.80765625 16.03101563 14.125 15.3125 C13.41988281 14.57902344 12.71476562 13.84554688 11.98828125 13.08984375 C11.33214844 12.40019531 10.67601562 11.71054687 10 11 C8.6696875 9.700625 8.6696875 9.700625 7.3125 8.375 C4.70457737 5.69659297 2.35936124 2.8986438 0 0 Z " fill="currentColor" transform="translate(52,439)"/>
<path d="M0 0 C0 3.93851312 -1.54965972 6.07844043 -4 9 C-6.57545604 11.44766624 -9.25358444 13.74687267 -12 16 C-12.66 15.67 -13.32 15.34 -14 15 C-12.0421736 12.87453098 -10.08376183 10.74960666 -8.125 8.625 C-7.29162109 7.72007813 -7.29162109 7.72007813 -6.44140625 6.796875 C-5.90644531 6.21679688 -5.37148438 5.63671875 -4.8203125 5.0390625 C-4.08192139 4.23782959 -4.08192139 4.23782959 -3.32861328 3.42041016 C-2.24184238 2.25855182 -1.12494128 1.12494128 0 0 Z " fill="currentColor" transform="translate(292,117)"/>
<path d="M0 0 C0.33 0.99 0.66 1.98 1 3 C-7.261959 11.44646925 -7.261959 11.44646925 -12 15 C-12.66 14.67 -13.32 14.34 -14 14 C-9.38 9.38 -4.76 4.76 0 0 Z " fill="currentColor" transform="translate(321,260)"/>
<path d="M0 0 C0 4.90312435 -3.70199631 7.61341357 -7 11 C-8.62541044 12.38332804 -10.27385413 13.74462118 -12 15 C-12.66 14.67 -13.32 14.34 -14 14 C-9.38 9.38 -4.76 4.76 0 0 Z " fill="currentColor" transform="translate(431,150)"/>
<path d="M0 0 C0 4.33174693 -2.65822583 6.22353653 -5.5 9.1875 C-6.28697266 10.02571289 -6.28697266 10.02571289 -7.08984375 10.88085938 C-8.38661613 12.26015364 -9.69246259 13.63090644 -11 15 C-11.99 14.67 -12.98 14.34 -14 14 C-9.38 9.38 -4.76 4.76 0 0 Z " fill="currentColor" transform="translate(306,275)"/>
<path d="M0 0 C0.81210938 0.41572266 0.81210938 0.41572266 1.640625 0.83984375 C-2.61978726 4.60338411 -6.87786411 8.33866337 -11.359375 11.83984375 C-12.019375 11.50984375 -12.679375 11.17984375 -13.359375 10.83984375 C-11.62399377 8.96982087 -9.8734415 7.11996283 -8.109375 5.27734375 C-7.37267578 4.47780273 -7.37267578 4.47780273 -6.62109375 3.66210938 C-2.88743798 -0.19600158 -2.88743798 -0.19600158 0 0 Z " fill="currentColor" transform="translate(157.359375,317.16015625)"/>
<path d="M0 0 C1.32 0.33 2.64 0.66 4 1 C3.67566492 6.35152885 0.50295176 9.28280043 -3 13 C-3.99 12.34 -4.98 11.68 -6 11 C-5.48308594 10.54109375 -4.96617187 10.0821875 -4.43359375 9.609375 C-3.44552734 8.68898438 -3.44552734 8.68898438 -2.4375 7.75 C-1.77621094 7.14671875 -1.11492187 6.5434375 -0.43359375 5.921875 C1.27505507 4.09547647 1.27505507 4.09547647 0.71484375 1.765625 C0.47894531 1.18296875 0.24304688 0.6003125 0 0 Z " fill="currentColor" transform="translate(376,91)"/>
<path d="M0 0 C0.33 0.66 0.66 1.32 1 2 C0.29875 2.680625 -0.4025 3.36125 -1.125 4.0625 C-4.27934337 7.20780513 -7.13934304 10.5888386 -10 14 C-10.99 13.67 -11.98 13.34 -13 13 C-8.71 8.71 -4.42 4.42 0 0 Z " fill="currentColor" transform="translate(269,312)"/>
<path d="M0 0 C0.66 0.33 1.32 0.66 2 1 C0.8758824 2.29243468 -0.24932592 3.58392075 -1.375 4.875 C-2.00148438 5.59429688 -2.62796875 6.31359375 -3.2734375 7.0546875 C-4.47426834 8.4076598 -5.7208345 9.7208345 -7 11 C-7.33 11.66 -7.66 12.32 -8 13 C-8.66 13 -9.32 13 -10 13 C-8.59799333 8.5390697 -6.40216594 6.15322697 -3 3 C-2.401875 2.401875 -1.80375 1.80375 -1.1875 1.1875 C-0.795625 0.795625 -0.40375 0.40375 0 0 Z " fill="currentColor" transform="translate(93,22)"/>
<path d="M0 0 C0.33 0.66 0.66 1.32 1 2 C-0.1241176 3.29243468 -1.24932592 4.58392075 -2.375 5.875 C-3.00148437 6.59429687 -3.62796875 7.31359375 -4.2734375 8.0546875 C-5.47426834 9.4076598 -6.7208345 10.7208345 -8 12 C-8.99 11.67 -9.98 11.34 -11 11 C-7.37 7.37 -3.74 3.74 0 0 Z " fill="currentColor" transform="translate(204,377)"/>
<path d="M0 0 C0 4.90312435 -3.70199631 7.61341357 -7 11 C-8.62541044 12.38332804 -10.27385413 13.74462118 -12 15 C-12.66 14.67 -13.32 14.34 -14 14 C-9.38 9.38 -4.76 4.76 0 0 Z " fill="currentColor" transform="translate(361,220)"/>
<path d="M0 0 C0 4.59154392 -2.90717721 6.81301632 -6 10 C-7.6280092 11.38026867 -9.28043882 12.73561678 -11 14 C-11.66 13.67 -12.32 13.34 -13 13 C-8.71 8.71 -4.42 4.42 0 0 Z " fill="currentColor" transform="translate(192,389)"/>
<path d="M0 0 C0.33 0.66 0.66 1.32 1 2 C-3 6 -7 10 -11 14 C-11.66 13.67 -12.32 13.34 -13 13 C-8.71 8.71 -4.42 4.42 0 0 Z " fill="currentColor" transform="translate(157,424)"/>
<path d="M0 0 C0.33 0.66 0.66 1.32 1 2 C-0.07192184 3.3218362 -1.15802695 4.63217927 -2.25 5.9375 C-2.85328125 6.66839844 -3.4565625 7.39929688 -4.078125 8.15234375 C-6.10741134 10.10326334 -7.254407 10.61731779 -10 11 C-6.79239749 7.19364503 -3.59253891 3.45436433 0 0 Z " fill="currentColor" transform="translate(332,249)"/>
<path d="M0 0 C0.99 0.33 1.98 0.66 3 1 C-0.10138699 5.22916408 -1.70579708 7.16407322 -7 8 C-6.02133662 6.85373678 -5.04205413 5.70800212 -4.0625 4.5625 C-3.51722656 3.92441406 -2.97195313 3.28632812 -2.41015625 2.62890625 C-1.63204305 1.73008851 -0.84063472 0.84063472 0 0 Z " fill="currentColor" transform="translate(415,104)"/>
<path d="M0 0 C0.33 0.66 0.66 1.32 1 2 C-1.31 4.64 -3.62 7.28 -6 10 C-6.99 9.67 -7.98 9.34 -9 9 C-6.03 6.03 -3.06 3.06 0 0 Z " fill="currentColor" transform="translate(291,290)"/>
<path d="M0 0 C0.33 0.99 0.66 1.98 1 3 C-1.64 5.31 -4.28 7.62 -7 10 C-7.66 9.67 -8.32 9.34 -9 9 C-6.03 6.03 -3.06 3.06 0 0 Z " fill="currentColor" transform="translate(242,339)"/>
<path d="M0 0 C0 3 0 3 -1.75 5.04296875 C-2.4925 5.75066406 -3.235 6.45835938 -4 7.1875 C-4.7425 7.90292969 -5.485 8.61835937 -6.25 9.35546875 C-6.8275 9.89816406 -7.405 10.44085938 -8 11 C-8.99 10.67 -9.98 10.34 -11 10 C-5.555 5.05 -5.555 5.05 0 0 Z " fill="currentColor" transform="translate(344,66)"/>
<path d="M0 0 C0.33 0 0.66 0 1 0 C1.3403125 1.60875 1.3403125 1.60875 1.6875 3.25 C3.15307824 7.4373664 4.48844573 8.47888412 8 11 C8.33 11.99 8.66 12.98 9 14 C5.13997719 12.42739812 2.59907595 10.24884494 0 7 C-0.3125 3.1875 -0.3125 3.1875 0 0 Z " fill="currentColor" transform="translate(109,342)"/>
<path d="M0 0 C0.33 0.66 0.66 1.32 1 2 C-0.65 4.31 -2.3 6.62 -4 9 C-5.32 8.67 -6.64 8.34 -8 8 C-5.36 5.36 -2.72 2.72 0 0 Z " fill="currentColor" transform="translate(251,330)"/>
<path d="M0 0 C0.33 0.99 0.66 1.98 1 3 C-1.31 4.98 -3.62 6.96 -6 9 C-6.66 8.67 -7.32 8.34 -8 8 C-5.36 5.36 -2.72 2.72 0 0 Z " fill="currentColor" transform="translate(459,122)"/>
<path d="M0 0 C0.47050781 0.40992188 0.94101563 0.81984375 1.42578125 1.2421875 C2.04839844 1.78101563 2.67101562 2.31984375 3.3125 2.875 C4.23482422 3.67550781 4.23482422 3.67550781 5.17578125 4.4921875 C7.13498212 6.1640447 7.13498212 6.1640447 10 8 C10 8.66 10 9.32 10 10 C5.86360664 8.40907948 2.76786752 5.39525082 0 2 C0 1.34 0 0.68 0 0 Z " fill="currentColor" transform="translate(64,427)"/>
<path d="M0 0 C4.13639336 1.59092052 7.23213248 4.60474918 10 8 C10 8.66 10 9.32 10 10 C6.56870293 8.85623431 5.62153121 7.71081232 3.3125 5 C2.68988281 4.278125 2.06726563 3.55625 1.42578125 2.8125 C0 1 0 1 0 0 Z " fill="currentColor" transform="translate(85,347)"/>
<path d="M0 0 C0.33 0.99 0.66 1.98 1 3 C-0.65 4.65 -2.3 6.3 -4 8 C-4.99 7.67 -5.98 7.34 -7 7 C-4.69 4.69 -2.38 2.38 0 0 Z " fill="currentColor" transform="translate(410,171)"/>
<path d="M0 0 C0.33 0.99 0.66 1.98 1 3 C-0.65 4.65 -2.3 6.3 -4 8 C-4.99 7.67 -5.98 7.34 -7 7 C-4.69 4.69 -2.38 2.38 0 0 Z " fill="currentColor" transform="translate(450,131)"/>
<path d="M0 0 C0.47050781 0.40992187 0.94101562 0.81984375 1.42578125 1.2421875 C2.04839844 1.78101562 2.67101562 2.31984375 3.3125 2.875 C4.23482422 3.67550781 4.23482422 3.67550781 5.17578125 4.4921875 C7.13498212 6.1640447 7.13498212 6.1640447 10 8 C10 8.66 10 9.32 10 10 C5.86360664 8.40907948 2.76786752 5.39525082 0 2 C0 1.34 0 0.68 0 0 Z " fill="currentColor" transform="translate(347,85)"/>
<path d="M0 0 C0.33 0.99 0.66 1.98 1 3 C-1.97 5.475 -1.97 5.475 -5 8 C-5.66 7.67 -6.32 7.34 -7 7 C-4.69 4.69 -2.38 2.38 0 0 Z " fill="currentColor" transform="translate(281,300)"/>
<path d="M0 0 C1.485 0.99 1.485 0.99 3 2 C2.67 2.66 2.34 3.32 2 4 C2.99 4.33 3.98 4.66 5 5 C5 6.65 5 8.3 5 10 C2.66063182 7.87330165 1.19346152 5.93775144 0 3 C0 2.01 0 1.02 0 0 Z " fill="currentColor" transform="translate(23,358)"/>
<path d="M0 0 C0 3 0 3 -1.53125 4.60546875 C-2.1809375 5.12753906 -2.830625 5.64960938 -3.5 6.1875 C-4.1496875 6.71730469 -4.799375 7.24710937 -5.46875 7.79296875 C-5.9740625 8.19128906 -6.479375 8.58960938 -7 9 C-7 6 -7 6 -5.46875 4.39453125 C-4.49421875 3.61142578 -4.49421875 3.61142578 -3.5 2.8125 C-2.8503125 2.28269531 -2.200625 1.75289063 -1.53125 1.20703125 C-1.0259375 0.80871094 -0.520625 0.41039062 0 0 Z " fill="currentColor" transform="translate(34,329)"/>
<path d="M0 0 C0.99 0.33 1.98 0.66 3 1 C0.03 3.475 0.03 3.475 -3 6 C-2.42655063 3.13275314 -2.1385485 2.1385485 0 0 Z " fill="currentColor" transform="translate(283,236)"/>
<path d="M0 0 C0.66 0.99 1.32 1.98 2 3 C-0.475 4.485 -0.475 4.485 -3 6 C-2.42655063 3.13275314 -2.1385485 2.1385485 0 0 Z M-7 8 C-6.34 8.33 -5.68 8.66 -5 9 C-5.99 9 -6.98 9 -8 9 C-7.67 8.67 -7.34 8.34 -7 8 Z " fill="currentColor" transform="translate(246,163)"/>
<path d="M0 0 C0 3.90838866 -1.50567876 5.11594107 -4 8 C-4.99 7.67 -5.98 7.34 -7 7 C-4.69 4.69 -2.38 2.38 0 0 Z " fill="currentColor" transform="translate(292,117)"/>
<path d="M0 0 C0 3.90838866 -1.50567876 5.11594107 -4 8 C-4.99 7.67 -5.98 7.34 -7 7 C-4.69 4.69 -2.38 2.38 0 0 Z " fill="currentColor" transform="translate(332,77)"/>
<path d="M0 0 C0.33 0.99 0.66 1.98 1 3 C-1.97 5.475 -1.97 5.475 -5 8 C-4.45773019 4.20411134 -2.79872437 2.52788007 0 0 Z " fill="currentColor" transform="translate(321,260)"/>
</svg>
