<svg version="1.1" xmlns="http://www.w3.org/2000/svg" width="100" height="100" viewBox="0 0 512 512">
<path d="M0 0 C5.67343253 4.62406548 11.13870451 9.37861839 16.26367188 14.61425781 C16.8746875 15.21625 17.48570312 15.81824219 18.11523438 16.43847656 C35.79963244 35.01878026 46.7912675 61.71384424 51.26367188 86.61425781 C51.43811545 87.58416436 51.61255903 88.55407091 51.79228878 89.55336857 C52.54574714 94.94643431 52.39777505 100.3730009 52.38392639 105.80723572 C52.38520803 107.64768041 52.38520803 107.64768041 52.38651556 109.52530581 C52.38787507 112.91858258 52.38476047 116.31180135 52.3797375 119.70507109 C52.37541092 123.36892228 52.37688099 127.03277173 52.37763977 130.69662476 C52.37816361 137.04040385 52.37503146 143.38417264 52.36940193 149.72794914 C52.36126793 158.89993561 52.35866976 168.07191712 52.35741394 177.2439068 C52.35522641 192.12557936 52.34857442 207.00724643 52.33911133 221.88891602 C52.32992949 236.34334282 52.32285243 250.79776813 52.31860352 265.25219727 C52.31820943 266.58910619 52.31820943 266.58910619 52.31780738 267.95302337 C52.31650233 272.42436622 52.31523862 276.89570909 52.31399548 281.36705196 C52.30363217 318.44945778 52.28602198 355.53185737 52.26367188 392.61425781 C53.15562256 392.59854736 54.04757324 392.58283691 54.96655273 392.56665039 C58.31573446 392.51513789 61.66448754 392.47772334 65.01391602 392.44946289 C66.45604143 392.43449273 67.89812224 392.41410913 69.34008789 392.38793945 C80.14737939 392.19689201 89.48781447 392.63857629 98.26367188 399.61425781 C98.26367188 400.27425781 98.26367188 400.93425781 98.26367188 401.61425781 C98.92367188 401.61425781 99.58367187 401.61425781 100.26367188 401.61425781 C101.48242187 403.11816406 101.48242187 403.11816406 102.76367188 405.17675781 C103.18648438 405.83804687 103.60929687 406.49933594 104.04492188 407.18066406 C107.10487251 413.2907578 107.60001526 419.08343418 107.66992188 425.80175781 C107.68132202 426.66309326 107.69272217 427.52442871 107.70446777 428.41186523 C107.72326458 430.22374633 107.73639444 432.03569421 107.74414062 433.84765625 C107.76362068 436.60700626 107.82577411 439.36341374 107.88867188 442.12207031 C107.9017288 443.89028195 107.91223098 445.65851469 107.91992188 447.42675781 C107.95696228 448.652052 107.95696228 448.652052 107.99475098 449.90209961 C107.9518277 455.46368918 106.5785176 458.27915333 102.74841309 462.30834961 C99.57929566 465.09575553 96.9165011 464.74685383 92.79949951 464.76142883 C92.12823792 464.76510552 91.45697632 464.76878221 90.76537347 464.77257031 C88.50535852 464.78362522 86.24538953 464.78745404 83.98535156 464.79125977 C82.36919508 464.79752308 80.75304004 464.80416977 79.1368866 464.81117249 C74.73798714 464.8285951 70.33909857 464.83913781 65.94017315 464.84737802 C63.1926193 464.85252581 60.44506885 464.85860166 57.6975174 464.86488914 C49.10328122 464.88394529 40.50905365 464.89817517 31.91480041 464.90650111 C21.99021086 464.9162742 12.0658443 464.94259376 2.14133334 464.98300201 C-5.52667979 465.01315256 -13.19462896 465.027969 -20.86270022 465.03128213 C-25.44381771 465.03363395 -30.02469708 465.04261137 -34.60575104 465.0677433 C-38.9166271 465.09101037 -43.22710806 465.09526285 -47.53803062 465.08498192 C-49.11905671 465.0844861 -50.70010215 465.0908201 -52.2810688 465.10453796 C-54.44259259 465.12224163 -56.60269608 465.11516002 -58.76422119 465.102005 C-60.57717871 465.10558753 -60.57717871 465.10558753 -62.42676163 465.10924244 C-66.93263271 464.43533638 -70.23902762 462.49735753 -73.09033203 458.91137695 C-74.11515233 455.26718413 -74.06206804 451.61654621 -74.07226562 447.86035156 C-74.07892242 447.00425797 -74.08557922 446.14816437 -74.09243774 445.26612854 C-74.10255554 443.45307558 -74.10725503 441.63998545 -74.10693359 439.8269043 C-74.11127477 437.08545313 -74.1475129 434.34565522 -74.18554688 431.60449219 C-74.2600936 420.08143615 -73.94311229 409.00785683 -65.58398438 400.11425781 C-59.01396019 394.78045382 -51.76457707 392.45385559 -43.44335938 392.51660156 C-42.38431648 392.51872398 -42.38431648 392.51872398 -41.30387878 392.52088928 C-39.05215187 392.52648017 -36.80052492 392.53903094 -34.54882812 392.55175781 C-33.02083477 392.55677399 -31.49283986 392.56133669 -29.96484375 392.56542969 C-26.22196678 392.57644661 -22.47916439 392.59370494 -18.73632812 392.61425781 C-18.79528923 356.19706089 -18.86989973 319.77992932 -18.96531441 283.36280924 C-18.97658172 279.0573028 -18.98772031 274.75179604 -18.9987793 270.44628906 C-19.00208482 269.16063893 -19.00208482 269.16063893 -19.00545713 267.84901607 C-19.040769 253.99560179 -19.06566756 240.14218756 -19.08667514 226.28874505 C-19.10848598 212.05951579 -19.14158627 197.83034462 -19.18502969 183.60116482 C-19.21145566 174.83057649 -19.22921758 166.06006045 -19.23567417 157.28943431 C-19.24095589 151.26403638 -19.25726545 145.23872918 -19.28199378 139.21337998 C-19.29591411 135.7440972 -19.3052155 132.27497647 -19.30133629 128.80566406 C-18.80037494 103.70894424 -18.80037494 103.70894424 -26.48632812 80.17675781 C-27.01347412 79.18276978 -27.01347412 79.18276978 -27.55126953 78.16870117 C-36.28134292 62.11897861 -48.83340082 52.20901228 -66.04882812 46.30175781 C-83.457126 41.3368614 -101.64806694 43.53247918 -117.73632812 51.61425781 C-135.15672053 62.26672765 -142.70058222 76.79226071 -148.73632812 95.61425781 C-147.79426514 95.59331055 -146.85220215 95.57236328 -145.8815918 95.55078125 C-142.33477699 95.48198293 -138.78868677 95.43215968 -135.24145508 95.39453125 C-133.71594953 95.37460471 -132.19051844 95.34745296 -130.6652832 95.3125 C-116.01079911 94.98545539 -104.34566529 97.58358102 -93.35351562 107.83691406 C-86.10862266 115.38068875 -80.69493825 124.4373175 -80.55932617 135.11987305 C-80.54649094 136.0043663 -80.5336557 136.88885956 -80.52043152 137.80015564 C-80.50935112 139.22214012 -80.50935112 139.22214012 -80.49804688 140.67285156 C-80.48997513 141.65415543 -80.48190338 142.63545929 -80.47358704 143.64649963 C-80.45977172 145.72012578 -80.44903818 147.79377443 -80.44116211 149.86743164 C-80.42390992 153.03673155 -80.37999618 156.20499854 -80.3359375 159.37402344 C-80.32581335 161.39029182 -80.31729638 163.40656905 -80.31054688 165.42285156 C-80.29303879 166.36881699 -80.2755307 167.31478241 -80.25749207 168.28941345 C-80.2714703 172.53054459 -80.32663089 174.94328546 -82.57543945 178.6262207 C-85.958328 181.73850875 -87.88369558 182.87085586 -92.42382812 182.73925781 C-93.23207031 182.72121094 -94.0403125 182.70316406 -94.87304688 182.68457031 C-95.48792969 182.66136719 -96.1028125 182.63816406 -96.73632812 182.61425781 C-96.73442952 183.16001563 -96.73253092 183.70577345 -96.73057479 184.26806939 C-96.61869931 216.60970498 -96.53290296 248.95128937 -96.48100148 281.29307384 C-96.4747479 285.17585164 -96.46827629 289.05862904 -96.46166992 292.94140625 C-96.46035837 293.71440161 -96.45904682 294.48739698 -96.45769552 295.28381644 C-96.4359353 307.80225247 -96.39651041 320.32057376 -96.35056414 332.83894171 C-96.3038166 345.68268447 -96.27603635 358.52636711 -96.26588565 371.37019145 C-96.25902292 379.2964284 -96.23734323 387.22234106 -96.19674579 395.1484782 C-96.16720663 401.22493116 -96.16404966 407.3011048 -96.17078972 413.37763786 C-96.16941189 415.87137666 -96.15943603 418.3651275 -96.14030075 420.85879326 C-96.11547956 424.25967994 -96.12138448 427.65917117 -96.13505554 431.06008911 C-96.12049133 432.05036767 -96.10592713 433.04064623 -96.09092158 434.06093323 C-96.1397403 438.54373998 -96.2714392 441.64083425 -99.14890766 445.21139336 C-103.46555277 449.22014 -106.04050798 448.70612588 -111.73632812 448.61425781 C-111.67445313 449.83113281 -111.61257813 451.04800781 -111.54882812 452.30175781 C-111.56271884 456.23282892 -112.16518851 458.51115827 -114.73632812 461.61425781 C-118.36310961 464.70768908 -121.8109436 465.24215336 -126.44726562 465.11035156 C-130.47086386 464.23834307 -133.0883557 461.65627376 -135.73632812 458.61425781 C-136.73632812 456.61425781 -136.73632812 456.61425781 -136.73632812 448.61425781 C-195.47632813 448.61425781 -254.21632813 448.61425781 -314.73632812 448.61425781 C-314.73632812 451.25425781 -314.73632812 453.89425781 -314.73632812 456.61425781 C-316.84288625 460.67690562 -318.51158786 462.91198151 -322.73632812 464.61425781 C-327.446604 465.35077368 -330.90648354 465.03672415 -335.17382812 462.86425781 C-338.91195537 459.58199975 -338.91195537 459.58199975 -339.73632812 456.61425781 C-339.8812216 453.92337905 -339.82631635 451.3139047 -339.73632812 448.61425781 C-340.76757812 448.69675781 -341.79882812 448.77925781 -342.86132812 448.86425781 C-347.40477964 448.57113191 -349.27793946 447.50965298 -352.73632812 444.61425781 C-354.63625555 441.58951023 -354.98202275 439.2962371 -354.96337891 435.75390625 C-354.96322784 434.79321228 -354.96307678 433.83251831 -354.96292114 432.8427124 C-354.95259857 431.81341614 -354.942276 430.78411987 -354.93164062 429.72363281 C-354.92881073 428.66388245 -354.92598083 427.60413208 -354.92306519 426.51226807 C-354.91187547 423.12948284 -354.88677283 419.74696294 -354.86132812 416.36425781 C-354.85129677 414.0699908 -354.84217119 411.77571964 -354.83398438 409.48144531 C-354.81194009 403.85895904 -354.77847439 398.23662739 -354.73632812 392.61425781 C-356.63209595 392.39709106 -356.63209595 392.39709106 -358.56616211 392.17553711 C-366.62799649 391.25202615 -374.37675109 386.68479915 -379.73632812 380.61425781 C-386.21658468 371.03175078 -387.65543053 362.08513324 -386.73632812 350.61425781 C-384.88234527 341.54342896 -378.77786733 334.52122195 -371.58398438 328.94628906 C-366.09584622 325.35424471 -361.37654563 323.61425781 -354.73632812 323.61425781 C-354.73632812 277.08425781 -354.73632812 230.55425781 -354.73632812 182.61425781 C-357.37632812 182.61425781 -360.01632812 182.61425781 -362.73632812 182.61425781 C-366.79675051 180.50885361 -369.03634195 178.83898496 -370.73632812 174.61425781 C-371.00375366 172.58154297 -371.00375366 172.58154297 -371.02685547 170.40332031 C-371.04599503 169.17053345 -371.04599503 169.17053345 -371.06552124 167.9128418 C-371.06885971 166.58941772 -371.06885971 166.58941772 -371.07226562 165.23925781 C-371.07892242 164.31894775 -371.08557922 163.3986377 -371.09243774 162.45043945 C-371.10255927 160.5003458 -371.10725492 158.55021755 -371.10693359 156.60009766 C-371.111272 153.65239175 -371.14749948 150.70622667 -371.18554688 147.75878906 C-371.28218597 131.83876522 -369.0490284 119.73151102 -357.92773438 107.64941406 C-350.7022572 100.78445966 -341.02673117 95.48288072 -330.9274292 95.4940033 C-329.96271698 95.49262863 -328.99800476 95.49125397 -328.00405884 95.48983765 C-326.42665421 95.49523056 -326.42665421 95.49523056 -324.81738281 95.50073242 C-323.14864609 95.50051338 -323.14864609 95.50051338 -321.44619751 95.50028992 C-317.76684625 95.50098691 -314.08754554 95.50876942 -310.40820312 95.51660156 C-307.85801216 95.5184665 -305.30782084 95.51989004 -302.75762939 95.52088928 C-296.72995483 95.52431809 -290.70230199 95.53220064 -284.67463613 95.54223877 C-277.81131493 95.55342019 -270.94799286 95.55891547 -264.08466482 95.56393421 C-249.96854254 95.5743838 -235.85243633 95.5919706 -221.73632812 95.61425781 C-221.60536743 94.52252258 -221.47440674 93.43078735 -221.33947754 92.30596924 C-221.16264236 90.85565682 -220.98567405 89.40536063 -220.80859375 87.95507812 C-220.72289124 87.23764435 -220.63718872 86.52021057 -220.54888916 85.78103638 C-219.8605428 80.17690337 -218.82398572 74.78907742 -217.23632812 69.36425781 C-216.98133545 68.49003174 -216.72634277 67.61580566 -216.46362305 66.71508789 C-209.82956633 45.23292167 -197.32408453 26.58630406 -181.73632812 10.61425781 C-181.09566406 9.91171875 -180.455 9.20917969 -179.79492188 8.48535156 C-160.99760157 -11.61113559 -133.37983082 -23.60025869 -106.73632812 -28.38574219 C-105.73214844 -28.57136719 -104.72796875 -28.75699219 -103.69335938 -28.94824219 C-65.8883211 -33.12806873 -29.8160395 -23.79581555 0 0 Z M-170.61132812 35.05175781 C-184.05591755 51.38406801 -195.73632812 74.03450691 -195.73632812 95.61425781 C-188.80632812 95.61425781 -181.87632812 95.61425781 -174.73632812 95.61425781 C-173.52976563 90.94269531 -173.52976563 90.94269531 -172.29882812 86.17675781 C-165.51183314 61.7716888 -150.86006317 42.18978234 -128.86132812 29.30175781 C-108.7759578 18.04994781 -84.09339972 14.83458142 -61.7199707 20.63720703 C-49.26138924 24.30589805 -37.72478809 30.3262872 -27.73632812 38.61425781 C-26.351875 39.73767578 -26.351875 39.73767578 -24.93945312 40.88378906 C-9.69582593 53.91666922 -1.34824703 71.4227243 3.26367188 90.61425781 C3.44039397 91.29346377 3.61711607 91.97266973 3.79919338 92.6724577 C4.48488471 97.01532151 4.41740863 101.31620873 4.42189026 105.70649719 C4.42682824 106.73165741 4.43176621 107.75681762 4.43685383 108.8130433 C4.45222699 112.25239507 4.460589 115.69172818 4.46899414 119.13110352 C4.4785728 121.59486556 4.48858288 124.05862597 4.49899292 126.52238464 C4.52044216 131.8288805 4.53888619 137.1353738 4.55459785 142.44188881 C4.57731942 150.11419817 4.60545907 157.78648014 4.63491713 165.45876624 C4.68256502 177.9068249 4.72583679 190.35489477 4.76635742 202.80297852 C4.80572662 214.89445874 4.84715626 226.98592901 4.89135742 239.07739258 C4.89408169 239.82282786 4.89680597 240.56826313 4.89961279 241.33628736 C4.91329251 245.07595212 4.92701273 248.81561674 4.9407531 252.55528128 C5.05467383 283.57491972 5.16122303 314.59457926 5.26367188 345.61425781 C12.52367187 345.61425781 19.78367187 345.61425781 27.26367188 345.61425781 C27.30894519 314.13143838 27.34472376 282.64863143 27.36580253 251.16578712 C27.36830376 247.44353251 27.37089242 243.72127796 27.37353516 239.99902344 C27.37405978 239.25803271 27.3745844 238.51704197 27.37512492 237.75359698 C27.38381231 225.77733785 27.39957306 213.80109805 27.41797747 201.82485037 C27.43672296 189.52346898 27.4477984 177.22209766 27.45184886 164.92070258 C27.4545843 157.33855242 27.46320378 149.7564569 27.47950481 142.17432357 C27.49139049 136.34678237 27.49257153 130.51927568 27.48988724 124.69172478 C27.49043504 122.31101713 27.49438079 119.9303073 27.50208282 117.54961205 C27.59257578 95.24508159 27.59257578 95.24508159 22.57617188 73.61425781 C22.31199463 72.8557251 22.04781738 72.09719238 21.77563477 71.31567383 C11.66221562 43.09362739 -9.28397909 19.36119568 -36.41210938 6.53613281 C-82.38045436 -14.33868326 -137.45533699 -3.65837125 -170.61132812 35.05175781 Z M-341.67382812 127.42675781 C-342.21910156 128.07257813 -342.764375 128.71839844 -343.32617188 129.38378906 C-349.1781842 138.64001908 -346.73632812 147.1620449 -346.73632812 158.61425781 C-266.87632812 158.61425781 -187.01632813 158.61425781 -104.73632812 158.61425781 C-103.37874406 141.83190492 -103.37874406 141.83190492 -109.56835938 127.37207031 C-110.22191406 126.83324219 -110.87546875 126.29441406 -111.54882812 125.73925781 C-112.51755859 124.9078125 -112.51755859 124.9078125 -113.50585938 124.05957031 C-118.79598163 120.63164521 -124.11040811 120.32385409 -130.2558136 120.3535614 C-131.09988539 120.34973585 -131.94395719 120.34591031 -132.81360692 120.34196883 C-135.63467221 120.33167139 -138.45553274 120.33562482 -141.27661133 120.33959961 C-143.30227852 120.33525129 -145.32794407 120.33006774 -147.35360718 120.32411194 C-152.85163325 120.31072243 -158.34959058 120.31014331 -163.84762979 120.31267524 C-168.43997475 120.31374516 -173.03230581 120.30886095 -177.6246478 120.30406982 C-188.46128293 120.29297442 -199.29788341 120.29253717 -210.13452148 120.29858398 C-221.30667304 120.30462228 -232.4786986 120.29231644 -243.65082866 120.27101392 C-253.24847125 120.25338774 -262.84607378 120.24739824 -272.44373196 120.25065166 C-278.1733872 120.25246331 -283.9029526 120.2498402 -289.63259315 120.23593712 C-295.02280193 120.22334723 -300.41281466 120.225314 -305.80302048 120.23834801 C-307.77785369 120.24071093 -309.75270075 120.2379893 -311.72751808 120.22972488 C-314.43053519 120.21923151 -317.13289763 120.22737884 -319.83589172 120.24003601 C-320.61100973 120.23266173 -321.38612774 120.22528744 -322.18473417 120.21768969 C-329.35379894 120.28795412 -336.96422372 121.58869074 -341.67382812 127.42675781 Z M-330.73632812 182.61425781 C-330.73632812 228.81425781 -330.73632812 275.01425781 -330.73632812 322.61425781 C-311.21400157 321.31276938 -297.1448396 318.22103296 -283.02539062 304.76269531 C-280.73632812 302.61425781 -280.73632812 302.61425781 -278.16992188 300.66503906 C-273.9306554 297.0926235 -271.4793033 292.37354886 -268.73632812 287.61425781 C-268.33027344 286.91429687 -267.92421875 286.21433594 -267.50585938 285.49316406 C-262.72216931 276.09073877 -262.0963058 264.51144956 -260.79882812 254.17675781 C-259.15348148 242.67249408 -254.98421771 234.27451444 -245.68554688 227.01269531 C-236.6149009 220.98908187 -226.32370443 220.14222777 -215.73632812 222.19628906 C-206.53867589 225.05749054 -199.23030929 231.14870584 -194.73632812 239.67675781 C-191.42367666 246.80139423 -190.36803183 253.79122088 -190.42382812 261.55175781 C-190.43119995 262.78792847 -190.43119995 262.78792847 -190.4387207 264.04907227 C-191.0286457 295.64182499 -205.16420031 325.22403029 -225.73632812 348.61425781 C-226.28289062 349.30519531 -226.82945312 349.99613281 -227.39257812 350.70800781 C-239.86242338 366.23169272 -259.99370932 378.59144985 -278.73632812 384.61425781 C-279.97640625 385.04222656 -281.21648437 385.47019531 -282.49414062 385.91113281 C-298.42988617 391.29592188 -313.97678007 392.99353381 -330.73632812 393.61425781 C-330.73632812 403.84425781 -330.73632812 414.07425781 -330.73632812 424.61425781 C-261.43632812 424.61425781 -192.13632813 424.61425781 -120.73632812 424.61425781 C-120.73632812 344.75425781 -120.73632812 264.89425781 -120.73632812 182.61425781 C-190.03632813 182.61425781 -259.33632813 182.61425781 -330.73632812 182.61425781 Z M-231.73632812 247.61425781 C-235.96298816 252.19313952 -236.78945253 255.62853692 -237.27954102 261.76928711 C-239.13111851 283.88547305 -246.68644546 302.10793489 -261.73632812 318.61425781 C-262.39375 319.34128906 -263.05117188 320.06832031 -263.72851562 320.81738281 C-280.75534478 338.73316289 -302.43553466 345.40153924 -326.45729065 346.03120422 C-330.64400339 346.12739194 -334.82857837 346.18494382 -339.01635742 346.19995117 C-339.80831512 346.20751434 -340.60027283 346.21507751 -341.41622925 346.22286987 C-342.91098354 346.23601105 -344.40591176 346.23713501 -345.90066528 346.22390747 C-351.4117137 346.28131508 -355.60049672 347.47842641 -359.54882812 351.42675781 C-361.09734372 354.27928653 -361.60618025 356.36056086 -361.73632812 359.61425781 C-360.33309364 363.19250575 -358.83402254 366.26001005 -355.73632812 368.61425781 C-349.95566219 370.53311314 -343.50548881 369.81147877 -337.48632812 369.80175781 C-336.80682098 369.80115356 -336.12731384 369.80054932 -335.42721558 369.79992676 C-309.45718104 369.73695886 -285.21058916 364.80801119 -263.73632812 349.61425781 C-262.25712891 348.57978516 -262.25712891 348.57978516 -260.74804688 347.52441406 C-235.92073384 329.57429828 -221.16157152 304.27133729 -215.92382812 274.25878906 C-215.41104266 270.70846194 -215.01341494 267.18999721 -214.73632812 263.61425781 C-214.62998047 262.27427734 -214.62998047 262.27427734 -214.52148438 260.90722656 C-214.32009268 256.04965889 -214.8938538 252.59372187 -217.73632812 248.61425781 C-222.91958562 245.37472188 -226.26060209 244.80961765 -231.73632812 247.61425781 Z M5.26367188 370.61425781 C5.22628906 373.3715625 5.18890625 376.12886719 5.15039062 378.96972656 C5.1041473 381.64729638 5.05292388 384.32472797 5.0012207 387.00219727 C4.96801639 388.85953332 4.93997047 390.71696918 4.91723633 392.57446289 C4.88360746 395.24831579 4.83128813 397.92125774 4.77539062 400.59472656 C4.76580574 401.83563301 4.76580574 401.83563301 4.75602722 403.10160828 C4.6391464 407.70991193 4.33345584 410.93112778 1.26367188 414.61425781 C-1.63633033 416.37670452 -3.8093858 416.86662 -7.18188477 416.88549805 C-8.05281265 416.89568466 -8.92374054 416.90587128 -9.82106018 416.91636658 C-10.75345016 416.91850662 -11.68584015 416.92064667 -12.64648438 416.92285156 C-14.6250031 416.94799973 -16.60351865 416.97339792 -18.58203125 416.99902344 C-21.69831606 417.02783005 -24.81454617 417.05185215 -27.9309082 417.07055664 C-30.94054744 417.09215068 -33.94956037 417.13157182 -36.95898438 417.17285156 C-38.3606057 417.17302528 -38.3606057 417.17302528 -39.7905426 417.17320251 C-41.09220619 417.19321068 -41.09220619 417.19321068 -42.42016602 417.21362305 C-43.18309464 417.2186937 -43.94602325 417.22376434 -44.73207092 417.22898865 C-47.1901938 417.50720965 -47.1901938 417.50720965 -49.73632812 420.61425781 C-49.73632812 426.88425781 -49.73632812 433.15425781 -49.73632812 439.61425781 C-6.17632812 439.61425781 37.38367188 439.61425781 82.26367188 439.61425781 C82.26367188 433.34425781 82.26367188 427.07425781 82.26367188 420.61425781 C79.72065005 417.50327297 79.72065005 417.50327297 77.27287292 417.24917603 C76.13752861 417.25514297 76.13752861 417.25514297 74.97924805 417.26123047 C74.1179277 417.25757477 73.25660736 417.25391907 72.3691864 417.25015259 C71.4410463 417.25944794 70.51290619 417.26874329 69.55664062 417.27832031 C67.58853839 417.26580525 65.62043941 417.25276801 63.65234375 417.23925781 C60.55155866 417.23533059 57.45109603 417.23925817 54.3503418 417.25390625 C51.35612043 417.26249183 48.36324378 417.24076424 45.36914062 417.21582031 C44.44707321 417.22916412 43.5250058 417.24250793 42.57499695 417.2562561 C38.17531025 417.2059321 35.19124175 417.02922879 31.69458008 414.20166016 C27.7056947 409.95598302 28.05808935 406.47616265 27.94726562 400.88769531 C27.92648453 400.02487946 27.90570343 399.1620636 27.8842926 398.27310181 C27.81881154 395.51190288 27.75991889 392.75060743 27.70117188 389.98925781 C27.65798528 388.11945609 27.61437094 386.24966419 27.5703125 384.37988281 C27.46232514 379.79143872 27.36324126 375.20292329 27.26367188 370.61425781 C20.00367188 370.61425781 12.74367188 370.61425781 5.26367188 370.61425781 Z " fill="currentColor" transform="translate(389.736328125,32.3857421875)"/>
<path d="M0 0 C-2.2591047 1.73777285 -4.48364993 3.28813188 -6.9375 4.75 C-10.07935487 7.05830153 -11.71830394 9.13995591 -13.84375 12.328125 C-15.3341311 14.48313551 -17.08847904 16.21591377 -19 18 C-19.5775 18.5775 -20.155 19.155 -20.75 19.75 C-21.1625 20.1625 -21.575 20.575 -22 21 C-23 18 -23 18 -22.06640625 15.984375 C-16.76327103 8.10543125 -10.13506812 -0.45044747 0 0 Z " fill="currentColor" transform="translate(154,256)"/>
<path d="M0 0 C0.96804074 3.10515305 0.98121797 5.3511896 0.44140625 8.546875 C0.31709229 9.30838867 0.19277832 10.06990234 0.06469727 10.85449219 C-0.10102783 11.81000977 -0.26675293 12.76552734 -0.4375 13.75 C-0.953125 16.8025 -1.46875 19.855 -2 23 C4.93 23 11.86 23 19 23 C19.33 22.01 19.66 21.02 20 20 C20 21.32 20 22.64 20 24 C12.41 24 4.82 24 -3 24 C-4.125 13.875 -4.125 13.875 -4 10 C-3.34 10 -2.68 10 -2 10 C-1.855625 8.906875 -1.71125 7.81375 -1.5625 6.6875 C-1 3 -1 3 0 0 Z " fill="currentColor" transform="translate(196,105)"/>
<path d="M0 0 C0.33 0 0.66 0 1 0 C1.02505615 1.16047852 1.0501123 2.32095703 1.07592773 3.51660156 C1.17015772 7.82546882 1.27034035 12.13418073 1.37231445 16.44287109 C1.41560433 18.30709192 1.45728361 20.17135088 1.49731445 22.03564453 C1.55516113 24.7165882 1.61881405 27.397341 1.68359375 30.078125 C1.70030624 30.91055725 1.71701874 31.7429895 1.73423767 32.60064697 C1.75418289 33.38115417 1.77412811 34.16166138 1.79467773 34.96582031 C1.81022202 35.64976868 1.8257663 36.33371704 1.84178162 37.03839111 C2.00921816 39.11428773 2.44165028 40.99674745 3 43 C3.639375 43.103125 4.27875 43.20625 4.9375 43.3125 C5.618125 43.539375 6.29875 43.76625 7 44 C7.33 44.99 7.66 45.98 8 47 C5.03788908 46.11937243 3.33456557 45.40655881 1.3503418 42.99536133 C-0.51924052 38.84820793 -0.37494264 35.25721997 -0.29296875 30.76171875 C-0.28872391 29.88095169 -0.28447906 29.00018463 -0.28010559 28.09272766 C-0.26336644 25.2906689 -0.2257233 22.48933991 -0.1875 19.6875 C-0.17244699 17.78321354 -0.15875966 15.87891576 -0.14648438 13.97460938 C-0.11347854 9.31612678 -0.06172929 4.65818695 0 0 Z " fill="currentColor" transform="translate(316,449)"/>
<path d="M0 0 C0.66 0.33 1.32 0.66 2 1 C-2.22983858 7.49582353 -7.82303395 9.52212039 -15 12 C-16.08087891 12.37705078 -16.08087891 12.37705078 -17.18359375 12.76171875 C-19 13 -19 13 -22 11 C-21.16597656 10.70867187 -20.33195312 10.41734375 -19.47265625 10.1171875 C-12.29378735 7.50220433 -6.11324923 4.59678431 0 0 Z " fill="currentColor" transform="translate(101,341)"/>
<path d="M0 0 C2 3 2 3 2 6 C1.34 6 0.68 6 0 6 C0.33 7.32 0.66 8.64 1 10 C0.34 10 -0.32 10 -1 10 C-1 10.99 -1 11.98 -1 13 C-0.01 13.33 0.98 13.66 2 14 C1.01 15.98 0.02 17.96 -1 20 C-1.66 20 -2.32 20 -3 20 C-3.33 20.99 -3.66 21.98 -4 23 C-3.54593375 15.04601192 -2.12888539 7.67202093 0 0 Z " fill="currentColor" transform="translate(173,100)"/>
<path d="M0 0 C0.33 0.99 0.66 1.98 1 3 C-0.74688937 4.77399627 -2.49733451 6.54422553 -4.25 8.3125 C-4.74113281 8.81201172 -5.23226562 9.31152344 -5.73828125 9.82617188 C-8.34377844 12.44903904 -10.88973061 14.9838298 -14 17 C-14.66 17 -15.32 17 -16 17 C-15 15 -14 13 -13 11 C-11.5459375 10.566875 -11.5459375 10.566875 -10.0625 10.125 C-6.94630735 9.34836411 -6.94630735 9.34836411 -5.9375 7.1875 C-5.628125 6.465625 -5.31875 5.74375 -5 5 C-3.37253306 3.29503463 -1.71108689 1.62102968 0 0 Z " fill="currentColor" transform="translate(130,346)"/>
<path d="M0 0 C0.66 0.33 1.32 0.66 2 1 C1.21625 1.721875 0.4325 2.44375 -0.375 3.1875 C-3.123505 5.74710361 -3.123505 5.74710361 -3.9375 8.75 C-4.288125 9.4925 -4.63875 10.235 -5 11 C-8.125 11.8125 -8.125 11.8125 -11 12 C-9.60991124 6.74855359 -6.1957125 4.12699328 -2 1 C-1.34 0.67 -0.68 0.34 0 0 Z " fill="currentColor" transform="translate(331,428)"/>
<path d="M0 0 C0.66 1.32 1.32 2.64 2 4 C1.32453125 4.01417969 0.6490625 4.02835937 -0.046875 4.04296875 C-5.84385548 4.23749116 -5.84385548 4.23749116 -10.5 7.375 C-10.995 8.24125 -11.49 9.1075 -12 10 C-12.66 10.99 -13.32 11.98 -14 13 C-13.54840927 8.14539966 -12.66845622 5.3016106 -9 2 C-6.03870027 1.01460199 -3.08579946 0.44177044 0 0 Z " fill="currentColor" transform="translate(167,275)"/>
<path d="M0 0 C0.66 0.99 1.32 1.98 2 3 C2.66 3.33 3.32 3.66 4 4 C1.82758037 6.62690073 0.67322977 7.88879153 -2.74902344 8.45410156 C-3.77543945 8.4331543 -4.80185547 8.41220703 -5.859375 8.390625 C-6.97441406 8.37773437 -8.08945313 8.36484375 -9.23828125 8.3515625 C-10.97658203 8.30128906 -10.97658203 8.30128906 -12.75 8.25 C-13.92433594 8.23195312 -15.09867188 8.21390625 -16.30859375 8.1953125 C-19.2065534 8.1481912 -22.10286418 8.08241305 -25 8 C-24.67 7.01 -24.34 6.02 -24 5 C-24 5.66 -24 6.32 -24 7 C-16.41 7 -8.82 7 -1 7 C-0.67 4.69 -0.34 2.38 0 0 Z " fill="currentColor" transform="translate(217,122)"/>
<path d="M0 0 C0.66 1.32 1.32 2.64 2 4 C2.99 3.67 3.98 3.34 5 3 C4.43628586 6.26954202 3.50037734 7.82575883 1 10 C0.34 9.67 -0.32 9.34 -1 9 C-1.33 9.99 -1.66 10.98 -2 12 C-1.85831863 10.56208484 -1.71148957 9.1246763 -1.5625 7.6875 C-1.48128906 6.88699219 -1.40007812 6.08648437 -1.31640625 5.26171875 C-1 3 -1 3 0 0 Z " fill="currentColor" transform="translate(218,113)"/>
<path d="M0 0 C2.05449993 3.0817499 2.74475809 5.3095757 3.625 8.875 C3.88539063 9.90367188 4.14578125 10.93234375 4.4140625 11.9921875 C4.95301116 14.75879061 5.11394368 17.19284196 5 20 C4.67 19.01 4.34 18.02 4 17 C3.34 17 2.68 17 2 17 C-0.29612756 5.47835991 -0.29612756 5.47835991 0 0 Z " fill="currentColor" transform="translate(435,98)"/>
<path d="M0 0 C0.99 0.33 1.98 0.66 3 1 C-3.15034169 10.59453303 -3.15034169 10.59453303 -7 14 C-7.125 8.25 -7.125 8.25 -6 6 C-4.68 6 -3.36 6 -2 6 C-2 5.01 -2 4.02 -2 3 C-1.34 3 -0.68 3 0 3 C0 2.01 0 1.02 0 0 Z " fill="currentColor" transform="translate(217,66)"/>
<path d="M0 0 C0.99 0.33 1.98 0.66 3 1 C-3.26637555 7.44541485 -3.26637555 7.44541485 -7 10 C-7.99 9.67 -8.98 9.34 -10 9 C-7.88373922 6.85793116 -5.73445897 4.76885328 -3.5 2.75 C-2.9121875 2.20859375 -2.324375 1.6671875 -1.71875 1.109375 C-1.1515625 0.74328125 -0.584375 0.3771875 0 0 Z " fill="currentColor" transform="translate(149,392)"/>
<path d="M0 0 C1.2456406 3.7369218 0.6963316 4.5265591 -1 8 C-3 11.3125 -3 11.3125 -5 14 C-5.66 14 -6.32 14 -7 14 C-5.53967505 8.68972746 -3.01679014 4.53669968 0 0 Z " fill="currentColor" transform="translate(230,89)"/>
<path d="M0 0 C-2.26504965 1.19984797 -4.53589888 2.38494769 -6.8125 3.5625 C-7.45509766 3.90474609 -8.09769531 4.24699219 -8.75976562 4.59960938 C-10.46926395 5.4765023 -12.23321294 6.24515617 -14 7 C-14.99 6.67 -15.98 6.34 -17 6 C-16.34 6 -15.68 6 -15 6 C-15 5.34 -15 4.68 -15 4 C-12.18438333 2.52790818 -9.38026161 1.34273182 -6.375 0.3125 C-5.59898438 0.04050781 -4.82296875 -0.23148437 -4.0234375 -0.51171875 C-2 -1 -2 -1 0 0 Z " fill="currentColor" transform="translate(108,368)"/>
<path d="M0 0 C6.28260706 -0.23268915 11.88019467 0.59545452 18 2 C17.34 2.66 16.68 3.32 16 4 C13.6171875 3.9765625 13.6171875 3.9765625 10.875 3.625 C9.96492188 3.51414062 9.05484375 3.40328125 8.1171875 3.2890625 C7.41851562 3.19367187 6.71984375 3.09828125 6 3 C6 2.67 6 2.34 6 2 C3.03 1.505 3.03 1.505 0 1 C0 0.67 0 0.34 0 0 Z " fill="currentColor" transform="translate(319,4)"/>
<path d="M0 0 C3.6678066 1.2226022 3.88887357 2.10903675 5.625 5.4375 C6.05039063 6.24058594 6.47578125 7.04367187 6.9140625 7.87109375 C7.61471902 9.24468297 8.31041072 10.62082143 9 12 C4.58848955 10.52949652 2.14860084 6.95377777 0 3 C0 2.01 0 1.02 0 0 Z " fill="currentColor" transform="translate(6,404)"/>
<path d="M0 0 C1.32 0.66 2.64 1.32 4 2 C4 3.32 4 4.64 4 6 C4.66 6 5.32 6 6 6 C6 8.31 6 10.62 6 13 C5.7525 12.46375 5.505 11.9275 5.25 11.375 C3.96565571 8.81774422 3.96565571 8.81774422 1.875 5.9375 C0 3 0 3 0 0 Z " fill="currentColor" transform="translate(279,157)"/>
<path d="M0 0 C0.99 0 1.98 0 3 0 C2.34 1.98 1.68 3.96 1 6 C2.32 6.66 3.64 7.32 5 8 C4.01 8.33 3.02 8.66 2 9 C-0.1875 7.5625 -0.1875 7.5625 -2 6 C-1.125 1.125 -1.125 1.125 0 0 Z " fill="currentColor" transform="translate(355,33)"/>
<path d="M0 0 C1.67542976 0.28604898 3.34385343 0.61781233 5 1 C4.01 3.97 3.02 6.94 2 10 C-0.13262124 6.80106814 -0.59021548 4.77001757 -1 1 C-0.67 0.67 -0.34 0.34 0 0 Z " fill="currentColor" transform="translate(26,382)"/>
<path d="M0 0 C-2 3 -2 3 -3 4 C-5.9375 4.1875 -5.9375 4.1875 -9 4 C-9.66 3.34 -10.32 2.68 -11 2 C-7.17010894 0.19769832 -4.21878192 -0.19622241 0 0 Z " fill="currentColor" transform="translate(335,26)"/>
<path d="M0 0 C1.125 3.75 1.125 3.75 0 6 C0.66 6.33 1.32 6.66 2 7 C2 7.66 2 8.32 2 9 C-1.75 10.125 -1.75 10.125 -4 9 C-2.80100302 5.9168649 -1.52299523 2.93720508 0 0 Z " fill="currentColor" transform="translate(163,339)"/>
<path d="M0 0 C0.268125 0.61875 0.53625 1.2375 0.8125 1.875 C1.95556848 4.2995233 1.95556848 4.2995233 5 6 C4.34 7.32 3.68 8.64 3 10 C1.68 9.34 0.36 8.68 -1 8 C-0.67 5.36 -0.34 2.72 0 0 Z " fill="currentColor" transform="translate(130,277)"/>
<path d="M0 0 C2.625 -0.1875 2.625 -0.1875 5 0 C3.68 2.31 2.36 4.62 1 7 C0.01 5.68 -0.98 4.36 -2 3 C-1.34 2.01 -0.68 1.02 0 0 Z " fill="currentColor" transform="translate(174,362)"/>
<path d="M0 0 C0.99 0.33 1.98 0.66 3 1 C1.50902342 4.7952131 -0.75700849 6.61042731 -4 9 C-4 6 -4 6 -2.5625 4.5 C-2.046875 4.005 -1.53125 3.51 -1 3 C-0.67 2.01 -0.34 1.02 0 0 Z " fill="currentColor" transform="translate(258,89)"/>
<path d="M0 0 C-2.6860286 1.79068573 -4.6626589 2.66055791 -7.6875 3.625 C-8.49574219 3.88539062 -9.30398438 4.14578125 -10.13671875 4.4140625 C-10.75160156 4.60742188 -11.36648438 4.80078125 -12 5 C-11 2 -11 2 -9.375 0.8125 C-6.19617272 -0.27499354 -3.33338467 -0.1282071 0 0 Z " fill="currentColor" transform="translate(285,78)"/>
<path d="M0 0 C0.33 0 0.66 0 1 0 C1.33 2.64 1.66 5.28 2 8 C1.34 8 0.68 8 0 8 C0.33 9.98 0.66 11.96 1 14 C0.01 14 -0.98 14 -2 14 C-1.43393721 9.30976546 -0.81462495 4.65499974 0 0 Z " fill="currentColor" transform="translate(173,305)"/>
<path d="M0 0 C0.33 0.99 0.66 1.98 1 3 C-0.46067199 2.54917531 -1.91848032 2.08906463 -3.375 1.625 C-4.18710937 1.36976562 -4.99921875 1.11453125 -5.8359375 0.8515625 C-8 0 -8 0 -10 -2 C-5.94545546 -3.71538423 -3.57431562 -2.22401861 0 0 Z " fill="currentColor" transform="translate(335,80)"/>
<path d="M0 0 C-2.74060659 2.74060659 -5.24932082 3.21038333 -9 4 C-9.99 3.34 -10.98 2.68 -12 2 C-7.82262526 0.40861915 -4.46839215 -0.21278058 0 0 Z " fill="currentColor" transform="translate(91,350)"/>
<path d="M0 0 C2 3 2 3 2 7 C1.34 7 0.68 7 0 7 C0 9.31 0 11.62 0 14 C-0.33 14 -0.66 14 -1 14 C-1.02705729 12.22925083 -1.04642195 10.45838289 -1.0625 8.6875 C-1.07410156 7.70136719 -1.08570313 6.71523438 -1.09765625 5.69921875 C-1 3 -1 3 0 0 Z " fill="currentColor" transform="translate(130,282)"/>
<path d="M0 0 C5.75 3.625 5.75 3.625 8 7 C5.07120629 6.37240135 2.63904371 5.41377341 0 4 C0 2.68 0 1.36 0 0 Z " fill="currentColor" transform="translate(393,36)"/>
<path d="M0 0 C3 3.75 3 3.75 3 6 C3.639375 6.103125 4.27875 6.20625 4.9375 6.3125 C5.618125 6.539375 6.29875 6.76625 7 7 C7.33 7.99 7.66 8.98 8 10 C4.72847271 9.02738378 3.25454871 8.34232413 1.1875 5.5625 C0 3 0 3 0 0 Z " fill="currentColor" transform="translate(316,486)"/>
<path d="M0 0 C1.37562854 1.28965176 2.70766393 2.62689293 4 4 C4 4.66 4 5.32 4 6 C2.02 5.34 0.04 4.68 -2 4 C-2 3.01 -2 2.02 -2 1 C-1.34 0.67 -0.68 0.34 0 0 Z " fill="currentColor" transform="translate(22,417)"/>
<path d="M0 0 C1.98 1.65 3.96 3.3 6 5 C5.67 5.66 5.34 6.32 5 7 C2.69 6.34 0.38 5.68 -2 5 C-1.34 4.67 -0.68 4.34 0 4 C0 2.68 0 1.36 0 0 Z " fill="currentColor" transform="translate(187,262)"/>
<path d="M0 0 C1.32 0 2.64 0 4 0 C2.86280581 3.41158256 1.95657056 4.11854601 -1 6 C-1.66 6 -2.32 6 -3 6 C-2 4 -1 2 0 0 Z " fill="currentColor" transform="translate(117,357)"/>
<path d="M0 0 C1.36125 0.12375 1.36125 0.12375 2.75 0.25 C-0.45336822 3.08374881 -3.03087253 3.7705537 -7.25 4.25 C-4.83923194 1.28290085 -3.90322061 0.30024774 0 0 Z " fill="currentColor" transform="translate(151.25,255.75)"/>
<path d="M0 0 C2 3 2 3 2 6 C1.34 6 0.68 6 0 6 C0.33 7.32 0.66 8.64 1 10 C0.34 10 -0.32 10 -1 10 C-1.33 10.66 -1.66 11.32 -2 12 C-1 3.42857143 -1 3.42857143 0 0 Z " fill="currentColor" transform="translate(173,100)"/>
<path d="M0 0 C1 2 1 2 0.44140625 3.9453125 C0.15136719 4.66460937 -0.13867188 5.38390625 -0.4375 6.125 C-0.72496094 6.84945312 -1.01242188 7.57390625 -1.30859375 8.3203125 C-1.53675781 8.87460938 -1.76492187 9.42890625 -2 10 C-2.66 8.68 -3.32 7.36 -4 6 C-3.34 6 -2.68 6 -2 6 C-2 5.34 -2 4.68 -2 4 C-2.66 3.67 -3.32 3.34 -4 3 C-3.34 3 -2.68 3 -2 3 C-2 2.34 -2 1.68 -2 1 C-1.34 0.67 -0.68 0.34 0 0 Z " fill="currentColor" transform="translate(201,96)"/>
<path d="M0 0 C4.12751449 0.60698743 7.3321148 2.03810791 11 4 C10.01 4.495 10.01 4.495 9 5 C8.67 5.66 8.34 6.32 8 7 C8 6.34 8 5.68 8 5 C7.4225 4.731875 6.845 4.46375 6.25 4.1875 C3.9674132 2.98280141 2.0262058 1.59201885 0 0 Z " fill="currentColor" transform="translate(355,13)"/>
<path d="M0 0 C-0.99 0.66 -1.98 1.32 -3 2 C-3.99 1.67 -4.98 1.34 -6 1 C-6 1.66 -6 2.32 -6 3 C-8.97 2.505 -8.97 2.505 -12 2 C-7.72170329 -0.29194467 -4.74957752 -1.52664992 0 0 Z " fill="currentColor" transform="translate(277,7)"/>
<path d="M0 0 C3.2542015 2.83430453 4.5206753 4.68607774 5 9 C4.01 9.33 3.02 9.66 2 10 C1.855625 8.906875 1.71125 7.81375 1.5625 6.6875 C1.11711896 3.06877013 1.11711896 3.06877013 0 0 Z " fill="currentColor" transform="translate(490,436)"/>
<path d="M0 0 C2 3 4 6 6 9 C3.5625 8.625 3.5625 8.625 1 8 C-0.35439668 5.29120665 -0.06501451 2.99066732 0 0 Z " fill="currentColor" transform="translate(28,392)"/>
<path d="M0 0 C-0.99 1.485 -0.99 1.485 -2 3 C-4.1640625 3.29296875 -4.1640625 3.29296875 -6.625 3.1875 C-7.44226563 3.16042969 -8.25953125 3.13335937 -9.1015625 3.10546875 C-9.72804688 3.07066406 -10.35453125 3.03585937 -11 3 C-7.11595442 0.41063628 -4.5725325 -0.12358196 0 0 Z " fill="currentColor" transform="translate(35,356)"/>
<path d="M0 0 C3.82097239 0.53069061 6.06171403 1.49701566 9 4 C6.03 3.67 3.06 3.34 0 3 C0 2.01 0 1.02 0 0 Z " fill="currentColor" transform="translate(278,130)"/>
<path d="M0 0 C0.66 0.99 1.32 1.98 2 3 C1.01 3.33 0.02 3.66 -1 4 C-1.73323796 6.01508358 -1.73323796 6.01508358 -2 8 C-3.32 7.67 -4.64 7.34 -6 7 C-4.02 4.69 -2.04 2.38 0 0 Z " fill="currentColor" transform="translate(203,48)"/>
<path d="M0 0 C0.99 0 1.98 0 3 0 C1.95125002 2.62187494 1.35068687 3.79371361 -1.125 5.25 C-1.74375 5.4975 -2.3625 5.745 -3 6 C-2.42655063 3.13275314 -2.1385485 2.1385485 0 0 Z " fill="currentColor" transform="translate(207,44)"/>
<path d="M0 0 C1.32 0.99 2.64 1.98 4 3 C2.03533587 4.06775224 0.03144641 5.06553465 -2 6 C-2.66 5.67 -3.32 5.34 -4 5 C-3.67 4.01 -3.34 3.02 -3 2 C-2.01 2 -1.02 2 0 2 C0 1.34 0 0.68 0 0 Z " fill="currentColor" transform="translate(259,34)"/>
<path d="M0 0 C2.1385485 2.1385485 2.42655063 3.13275314 3 6 C1.02 6.99 1.02 6.99 -1 8 C-1 7.34 -1 6.68 -1 6 C-1.66 5.67 -2.32 5.34 -3 5 C-2.01 4.34 -1.02 3.68 0 3 C0 2.01 0 1.02 0 0 Z " fill="currentColor" transform="translate(253,33)"/>
<path d="M0 0 C0.66 0.33 1.32 0.66 2 1 C1.67 2.32 1.34 3.64 1 5 C-1.97 4.67 -4.94 4.34 -8 4 C-8 3.67 -8 3.34 -8 3 C-6.02 3 -4.04 3 -2 3 C-1.67 2.34 -1.34 1.68 -1 1 C-0.67 0.67 -0.34 0.34 0 0 Z " fill="currentColor" transform="translate(334,27)"/>
<path d="M0 0 C0.66 0.99 1.32 1.98 2 3 C0 6 0 6 -2.125 6.6875 C-2.74375 6.790625 -3.3625 6.89375 -4 7 C-2.92598892 4.08482708 -2.22189824 2.22189824 0 0 Z " fill="currentColor" transform="translate(11,368)"/>
<path d="M0 0 C1 2 2 4 3 6 C1.35 6.66 -0.3 7.32 -2 8 C-1.125 1.125 -1.125 1.125 0 0 Z " fill="currentColor" transform="translate(171,321)"/>
<path d="M0 0 C0.66 0.99 1.32 1.98 2 3 C1.1875 4.9375 1.1875 4.9375 0 7 C-0.99 7.33 -1.98 7.66 -3 8 C-2.45276317 4.62537285 -1.9451 2.91765 0 0 Z " fill="currentColor" transform="translate(25,149)"/>
<path d="M0 0 C0.66 0.99 1.32 1.98 2 3 C1.34 3.66 0.68 4.32 0 5 C-0.71408334 6.98356483 -1.38617742 8.98315437 -2 11 C-2.95465783 8.83032311 -3.14401212 7.43671207 -2.3984375 5.17578125 C-1.64129615 3.4315257 -0.82390802 1.71372869 0 0 Z " fill="currentColor" transform="translate(178,91)"/>
<path d="M0 0 C1.875 0.3125 1.875 0.3125 4 1 C4.66 1.99 5.32 2.98 6 4 C4.35 4 2.7 4 1 4 C0.67 2.68 0.34 1.36 0 0 Z " fill="currentColor" transform="translate(363,73)"/>
<path d="M0 0 C0.66 0 1.32 0 2 0 C1.75 1.875 1.75 1.875 1 4 C-1.0625 5.25 -1.0625 5.25 -3 6 C-2.42655063 3.13275314 -2.1385485 2.1385485 0 0 Z " fill="currentColor" transform="translate(391,443)"/>
<path d="M0 0 C0 2.83967231 -0.40267181 5.23735711 -1 8 C-1.99 8.33 -2.98 8.66 -4 9 C-3.46930939 5.17902761 -2.50298434 2.93828597 0 0 Z " fill="currentColor" transform="translate(135,268)"/>
<path d="M0 0 C2.375 0.1875 2.375 0.1875 5 1 C6.3125 3.5625 6.3125 3.5625 7 6 C3.535 4.02 3.535 4.02 0 2 C0 1.34 0 0.68 0 0 Z " fill="currentColor" transform="translate(187,267)"/>
<path d="M0 0 C-0.56371414 3.26954202 -1.49962266 4.82575883 -4 7 C-4 6.34 -4 5.68 -4 5 C-4.66 4.67 -5.32 4.34 -6 4 C-2.25 0 -2.25 0 0 0 Z " fill="currentColor" transform="translate(49,157)"/>
<path d="M0 0 C2.56616632 3.84924948 2.55097676 6.4349304 3 11 C2.67 10.34 2.34 9.68 2 9 C1.34 9 0.68 9 0 9 C0 6.03 0 3.06 0 0 Z " fill="currentColor" transform="translate(435,98)"/>
<path d="M0 0 C5.53846154 -0.36923077 5.53846154 -0.36923077 7.875 1.5 C8.24625 1.995 8.6175 2.49 9 3 C8.01 3.495 8.01 3.495 7 4 C4.64018187 3.06421005 2.30368736 2.06652192 0 1 C0 0.67 0 0.34 0 0 Z " fill="currentColor" transform="translate(344,35)"/>
</svg>
